ISO-10303-21;
HEADER;
/* Generated by software containing ST-Developer
 * from STEP Tools, Inc. (www.steptools.com) 
 */

FILE_DESCRIPTION(
/* description */ (''),
/* implementation_level */ '2;1');

FILE_NAME(
/* name */ 'bowl.step',
/* time_stamp */ '2026-05-18T02:05:27-05:00',
/* author */ (''),
/* organization */ (''),
/* preprocessor_version */ 'ST-DEVELOPER v20.1',
/* originating_system */ 'Autodesk Translation Framework v15.8.0.0',
/* authorisation */ '');

FILE_SCHEMA (('AUTOMOTIVE_DESIGN { 1 0 10303 214 3 1 1 }'));
ENDSEC;

DATA;
#10=MECHANICAL_DESIGN_GEOMETRIC_PRESENTATION_REPRESENTATION('',(#13),#1064);
#11=SHAPE_REPRESENTATION_RELATIONSHIP('SRR','None',#1071,#12);
#12=ADVANCED_BREP_SHAPE_REPRESENTATION('',(#14),#1063);
#13=STYLED_ITEM('',(#1080),#14);
#14=MANIFOLD_SOLID_BREP('K\X\F6rper1',#329);
#15=B_SPLINE_CURVE_WITH_KNOTS('',3,(#630,#631,#632,#633,#634,#635,#636,
#637,#638,#639,#640,#641,#642,#643,#644,#645,#646,#647,#648,#649,#650,#651,
#652,#653,#654,#655,#656,#657),.UNSPECIFIED.,.F.,.F.,(4,2,2,2,2,2,2,2,2,
2,2,2,2,4),(-1.26656288554953,-1.19559917036446,-1.12839628783654,-1.05491164823535,
-0.98612167541312,-0.908469289750652,-0.870245516512136,-0.842650586291972,
-0.815482031475572,-0.779748042690382,-0.713941843569363,-0.636554013072874,
-0.55679588391926,-0.525233944401198),.UNSPECIFIED.);
#16=B_SPLINE_CURVE_WITH_KNOTS('',3,(#658,#659,#660,#661,#662,#663,#664,
#665,#666,#667,#668,#669,#670,#671,#672,#673,#674,#675,#676,#677,#678,#679),
 .UNSPECIFIED.,.F.,.F.,(4,2,2,2,2,2,2,2,2,2,4),(-0.525233944401198,-0.477850315543018,
-0.40387662086483,-0.335750127733169,-0.267552429633028,-0.232842857457642,
-0.207696582369392,-0.182753680273519,-0.147822072352817,-0.0784565921068286,
0.),.UNSPECIFIED.);
#17=B_SPLINE_CURVE_WITH_KNOTS('',3,(#682,#683,#684,#685),.UNSPECIFIED.,
 .F.,.F.,(4,4),(-1.2666797335255,-1.24214118780134),.UNSPECIFIED.);
#18=B_SPLINE_CURVE_WITH_KNOTS('',3,(#686,#687,#688,#689,#690,#691,#692,
#693,#694,#695,#696,#697,#698,#699,#700,#701,#702,#703,#704,#705,#706,#707,
#708,#709,#710,#711,#712,#713,#714,#715,#716,#717,#718,#719,#720,#721,#722,
#723,#724,#725,#726,#727,#728,#729,#730,#731),.UNSPECIFIED.,.F.,.F.,(4,
2,2,2,2,2,2,2,2,2,2,2,2,2,2,2,2,2,2,2,2,2,4),(-1.24214118780134,-1.20325565575504,
-1.13593763029265,-1.06739103436139,-0.991873284815692,-0.954216714852307,
-0.926753129615729,-0.899780244566413,-0.863715720734556,-0.796814611124991,
-0.719329853500084,-0.639520440056112,-0.560689269024775,-0.486852975248753,
-0.418879590170688,-0.351535427314597,-0.317154711384227,-0.292077081356316,
-0.266759672917019,-0.231282650836378,-0.159920077698655,-0.081228164043482,
0.),.UNSPECIFIED.);
#19=B_SPLINE_CURVE_WITH_KNOTS('',3,(#735,#736,#737,#738,#739,#740,#741,
#742,#743,#744,#745,#746,#747,#748,#749,#750,#751,#752,#753,#754,#755,#756,
#757,#758),.UNSPECIFIED.,.F.,.F.,(4,2,2,2,2,2,2,2,2,2,2,4),(-1.26352650623591,
-1.22540867615451,-1.181462616267,-1.10827855935119,-1.0717660929706,-1.04648558618997,
-1.02218624920259,-0.990129018187083,-0.930475392293072,-0.854068307504463,
-0.77408223962526,-0.727152445184523),.UNSPECIFIED.);
#20=B_SPLINE_CURVE_WITH_KNOTS('',3,(#759,#760,#761,#762,#763,#764,#765,
#766,#767,#768,#769,#770,#771,#772,#773,#774,#775,#776,#777,#778,#779,#780,
#781,#782,#783,#784,#785,#786),.UNSPECIFIED.,.F.,.F.,(4,2,2,2,2,2,2,2,2,
2,2,2,2,4),(-0.727152445184523,-0.695265758153286,-0.621849503535074,-0.553457713448533,
-0.478284713685105,-0.441386440305043,-0.416359385716005,-0.392871643177628,
-0.362670389312078,-0.308028072841255,-0.232354853396351,-0.15324295417044,
-0.0742299649783161,0.),.UNSPECIFIED.);
#21=B_SPLINE_CURVE_WITH_KNOTS('',3,(#792,#793,#794,#795,#796,#797,#798,
#799,#800,#801,#802,#803,#804,#805,#806,#807,#808,#809,#810,#811,#812,#813,
#814,#815,#816,#817,#818,#819,#820,#821,#822,#823,#824,#825,#826,#827,#828,
#829,#830,#831,#832,#833,#834,#835,#836,#837,#838,#839),.UNSPECIFIED.,.F.,
 .F.,(4,2,2,2,2,2,2,2,2,2,2,2,2,2,2,2,2,2,2,2,2,2,2,4),(-1.26356091168576,
-1.22142112948804,-1.17588095998187,-1.10826550673549,-1.03626451308519,
-1.00200220007762,-0.977243895574256,-0.95284139968346,-0.919079892796915,
-0.853392876148609,-0.77616423251789,-0.695981792963995,-0.617988426376836,
-0.545292017443554,-0.477617812021331,-0.407287850073177,-0.372133992294088,
-0.347608562237045,-0.323871767861468,-0.292829655502338,-0.234045874353672,
-0.157805188161384,-0.0785134543151847,-0.0295640137625169),
 .UNSPECIFIED.);
#22=B_SPLINE_CURVE_WITH_KNOTS('',3,(#840,#841,#842,#843),.UNSPECIFIED.,
 .F.,.F.,(4,4),(-0.0295640137625169,0.),.UNSPECIFIED.);
#23=B_SPLINE_CURVE_WITH_KNOTS('',3,(#981,#982,#983,#984,#985,#986,#987,
#988),.UNSPECIFIED.,.F.,.F.,(4,2,2,4),(-0.553984163551963,-0.451097291080546,
-0.233324110382622,-0.0511572522586747),.UNSPECIFIED.);
#24=B_SPLINE_CURVE_WITH_KNOTS('',3,(#990,#991,#992,#993,#994,#995,#996,
#997,#998,#999,#1000,#1001),.UNSPECIFIED.,.F.,.F.,(4,2,2,2,2,4),(-1.05728696658357,
-0.899839213292728,-0.691347351353919,-0.451097291080552,-0.233324110382628,
-0.051157252258675),.UNSPECIFIED.);
#25=B_SPLINE_CURVE_WITH_KNOTS('',3,(#1003,#1004,#1005,#1006,#1007,#1008,
#1009,#1010,#1011,#1012,#1013,#1014),.UNSPECIFIED.,.F.,.F.,(4,2,2,2,2,4),
(-1.05728696658358,-0.899839213292737,-0.691347351353924,-0.451097291080547,
-0.23332411038262,-0.0511572522586746),.UNSPECIFIED.);
#26=B_SPLINE_CURVE_WITH_KNOTS('',3,(#1016,#1017,#1018,#1019,#1020,#1021,
#1022,#1023,#1024,#1025,#1026,#1027),.UNSPECIFIED.,.F.,.F.,(4,2,2,2,2,4),
(-1.05728696658356,-0.899839213292718,-0.691347351353911,-0.451097291080546,
-0.233324110382626,-0.0511572522586748),.UNSPECIFIED.);
#27=B_SPLINE_CURVE_WITH_KNOTS('',3,(#1028,#1029,#1030,#1031,#1032,#1033,
#1034,#1035),.UNSPECIFIED.,.F.,.F.,(4,2,2,4),(-1.0573008227362,-0.901168423319559,
-0.691347351353917,-0.553984163551963),.UNSPECIFIED.);
#28=(
BOUNDED_CURVE()
B_SPLINE_CURVE(5,(#613,#614,#615,#616,#617,#618,#619,#620,#621,#622,#623,
#624,#625,#626,#627),.UNSPECIFIED.,.F.,.F.)
B_SPLINE_CURVE_WITH_KNOTS((6,1,1,1,1,1,1,1,1,1,6),(0.,0.1,0.2,0.3,0.4,0.5,
0.6,0.7,0.8,0.9,1.),.UNSPECIFIED.)
CURVE()
GEOMETRIC_REPRESENTATION_ITEM()
RATIONAL_B_SPLINE_CURVE((1.,1.,1.,1.,1.,1.,1.,1.,1.,1.,1.,1.,1.,1.,1.))
REPRESENTATION_ITEM('')
);
#29=(
BOUNDED_CURVE()
B_SPLINE_CURVE(5,(#1036,#1037,#1038,#1039,#1040,#1041,#1042,#1043,#1044,
#1045,#1046,#1047,#1048,#1049),.UNSPECIFIED.,.F.,.F.)
B_SPLINE_CURVE_WITH_KNOTS((6,1,1,1,1,1,1,1,1,6),(0.121249614263462,0.2,
0.3,0.4,0.5,0.6,0.7,0.8,0.9,1.),.UNSPECIFIED.)
CURVE()
GEOMETRIC_REPRESENTATION_ITEM()
RATIONAL_B_SPLINE_CURVE((1.,1.,1.,1.,1.,1.,1.,1.,1.,1.,1.,1.,1.,1.))
REPRESENTATION_ITEM('')
);
#30=(
BOUNDED_SURFACE()
B_SPLINE_SURFACE(5,2,((#477,#478,#479,#480,#481,#482,#483,#484,#485),(#486,
#487,#488,#489,#490,#491,#492,#493,#494),(#495,#496,#497,#498,#499,#500,
#501,#502,#503),(#504,#505,#506,#507,#508,#509,#510,#511,#512),(#513,#514,
#515,#516,#517,#518,#519,#520,#521),(#522,#523,#524,#525,#526,#527,#528,
#529,#530),(#531,#532,#533,#534,#535,#536,#537,#538,#539),(#540,#541,#542,
#543,#544,#545,#546,#547,#548),(#549,#550,#551,#552,#553,#554,#555,#556,
#557),(#558,#559,#560,#561,#562,#563,#564,#565,#566),(#567,#568,#569,#570,
#571,#572,#573,#574,#575),(#576,#577,#578,#579,#580,#581,#582,#583,#584),
(#585,#586,#587,#588,#589,#590,#591,#592,#593),(#594,#595,#596,#597,#598,
#599,#600,#601,#602),(#603,#604,#605,#606,#607,#608,#609,#610,#611)),
 .UNSPECIFIED.,.F.,.T.,.F.)
B_SPLINE_SURFACE_WITH_KNOTS((6,1,1,1,1,1,1,1,1,1,6),(3,2,2,2,3),(-1.,-0.9,
-0.8,-0.7,-0.6,-0.5,-0.4,-0.3,-0.2,-0.1,0.),(0.,1.5707963267949,3.14159265358979,
4.71238898038469,6.28318530717959),.UNSPECIFIED.)
GEOMETRIC_REPRESENTATION_ITEM()
RATIONAL_B_SPLINE_SURFACE(((1.,0.707106781186548,1.,0.707106781186548,1.,
0.707106781186548,1.,0.707106781186548,1.),(1.,0.707106781186548,1.,0.707106781186548,
1.,0.707106781186548,1.,0.707106781186548,1.),(1.,0.707106781186548,1.,
0.707106781186548,1.,0.707106781186548,1.,0.707106781186548,1.),(1.,0.707106781186548,
1.,0.707106781186548,1.,0.707106781186548,1.,0.707106781186548,1.),(1.,
0.707106781186548,1.,0.707106781186548,1.,0.707106781186548,1.,0.707106781186548,
1.),(1.,0.707106781186548,1.,0.707106781186548,1.,0.707106781186548,1.,
0.707106781186548,1.),(1.,0.707106781186548,1.,0.707106781186548,1.,0.707106781186548,
1.,0.707106781186548,1.),(1.,0.707106781186548,1.,0.707106781186548,1.,
0.707106781186548,1.,0.707106781186548,1.),(1.,0.707106781186548,1.,0.707106781186548,
1.,0.707106781186548,1.,0.707106781186548,1.),(1.,0.707106781186548,1.,
0.707106781186548,1.,0.707106781186548,1.,0.707106781186548,1.),(1.,0.707106781186548,
1.,0.707106781186548,1.,0.707106781186548,1.,0.707106781186548,1.),(1.,
0.707106781186548,1.,0.707106781186548,1.,0.707106781186548,1.,0.707106781186548,
1.),(1.,0.707106781186548,1.,0.707106781186548,1.,0.707106781186548,1.,
0.707106781186548,1.),(1.,0.707106781186548,1.,0.707106781186548,1.,0.707106781186548,
1.,0.707106781186548,1.),(1.,0.707106781186548,1.,0.707106781186548,1.,
0.707106781186548,1.,0.707106781186548,1.)))
REPRESENTATION_ITEM('')
SURFACE()
);
#31=(
BOUNDED_SURFACE()
B_SPLINE_SURFACE(5,2,((#844,#845,#846,#847,#848,#849,#850,#851,#852),(#853,
#854,#855,#856,#857,#858,#859,#860,#861),(#862,#863,#864,#865,#866,#867,
#868,#869,#870),(#871,#872,#873,#874,#875,#876,#877,#878,#879),(#880,#881,
#882,#883,#884,#885,#886,#887,#888),(#889,#890,#891,#892,#893,#894,#895,
#896,#897),(#898,#899,#900,#901,#902,#903,#904,#905,#906),(#907,#908,#909,
#910,#911,#912,#913,#914,#915),(#916,#917,#918,#919,#920,#921,#922,#923,
#924),(#925,#926,#927,#928,#929,#930,#931,#932,#933),(#934,#935,#936,#937,
#938,#939,#940,#941,#942),(#943,#944,#945,#946,#947,#948,#949,#950,#951),
(#952,#953,#954,#955,#956,#957,#958,#959,#960),(#961,#962,#963,#964,#965,
#966,#967,#968,#969),(#970,#971,#972,#973,#974,#975,#976,#977,#978)),
 .UNSPECIFIED.,.F.,.T.,.F.)
B_SPLINE_SURFACE_WITH_KNOTS((6,1,1,1,1,1,1,1,1,1,6),(3,2,2,2,3),(0.,0.1,
0.2,0.3,0.4,0.5,0.6,0.7,0.8,0.9,1.),(0.,1.5707963267949,3.14159265358979,
4.71238898038469,6.28318530717959),.UNSPECIFIED.)
GEOMETRIC_REPRESENTATION_ITEM()
RATIONAL_B_SPLINE_SURFACE(((1.,0.707106781186548,1.,0.707106781186548,1.,
0.707106781186548,1.,0.707106781186548,1.),(1.,0.707106781186548,1.,0.707106781186548,
1.,0.707106781186548,1.,0.707106781186548,1.),(1.,0.707106781186548,1.,
0.707106781186548,1.,0.707106781186548,1.,0.707106781186548,1.),(1.,0.707106781186548,
1.,0.707106781186548,1.,0.707106781186548,1.,0.707106781186548,1.),(1.,
0.707106781186548,1.,0.707106781186548,1.,0.707106781186548,1.,0.707106781186548,
1.),(1.,0.707106781186548,1.,0.707106781186548,1.,0.707106781186548,1.,
0.707106781186548,1.),(1.,0.707106781186548,1.,0.707106781186548,1.,0.707106781186548,
1.,0.707106781186548,1.),(1.,0.707106781186548,1.,0.707106781186548,1.,
0.707106781186548,1.,0.707106781186548,1.),(1.,0.707106781186548,1.,0.707106781186548,
1.,0.707106781186548,1.,0.707106781186548,1.),(1.,0.707106781186548,1.,
0.707106781186548,1.,0.707106781186548,1.,0.707106781186548,1.),(1.,0.707106781186548,
1.,0.707106781186548,1.,0.707106781186548,1.,0.707106781186548,1.),(1.,
0.707106781186548,1.,0.707106781186548,1.,0.707106781186548,1.,0.707106781186548,
1.),(1.,0.707106781186548,1.,0.707106781186548,1.,0.707106781186548,1.,
0.707106781186548,1.),(1.,0.707106781186548,1.,0.707106781186548,1.,0.707106781186548,
1.,0.707106781186548,1.),(1.,0.707106781186548,1.,0.707106781186548,1.,
0.707106781186548,1.,0.707106781186548,1.)))
REPRESENTATION_ITEM('')
SURFACE()
);
#32=FACE_BOUND('',#72,.T.);
#33=FACE_BOUND('',#74,.T.);
#34=FACE_BOUND('',#75,.T.);
#35=FACE_BOUND('',#79,.T.);
#36=FACE_BOUND('',#80,.T.);
#37=FACE_BOUND('',#83,.T.);
#38=FACE_BOUND('',#87,.T.);
#39=PLANE('',#346);
#40=PLANE('',#350);
#41=PLANE('',#351);
#42=PLANE('',#352);
#43=PLANE('',#353);
#44=PLANE('',#358);
#45=PLANE('',#359);
#46=PLANE('',#360);
#47=PLANE('',#361);
#48=PLANE('',#362);
#49=FACE_OUTER_BOUND('',#65,.T.);
#50=FACE_OUTER_BOUND('',#66,.T.);
#51=FACE_OUTER_BOUND('',#67,.T.);
#52=FACE_OUTER_BOUND('',#68,.T.);
#53=FACE_OUTER_BOUND('',#69,.T.);
#54=FACE_OUTER_BOUND('',#70,.T.);
#55=FACE_OUTER_BOUND('',#71,.T.);
#56=FACE_OUTER_BOUND('',#73,.T.);
#57=FACE_OUTER_BOUND('',#76,.T.);
#58=FACE_OUTER_BOUND('',#77,.T.);
#59=FACE_OUTER_BOUND('',#78,.T.);
#60=FACE_OUTER_BOUND('',#81,.T.);
#61=FACE_OUTER_BOUND('',#82,.T.);
#62=FACE_OUTER_BOUND('',#84,.T.);
#63=FACE_OUTER_BOUND('',#85,.T.);
#64=FACE_OUTER_BOUND('',#86,.T.);
#65=EDGE_LOOP('',(#219,#220,#221,#222));
#66=EDGE_LOOP('',(#223,#224,#225,#226));
#67=EDGE_LOOP('',(#227,#228,#229,#230));
#68=EDGE_LOOP('',(#231,#232,#233,#234));
#69=EDGE_LOOP('',(#235,#236,#237,#238));
#70=EDGE_LOOP('',(#239,#240,#241,#242));
#71=EDGE_LOOP('',(#243));
#72=EDGE_LOOP('',(#244));
#73=EDGE_LOOP('',(#245,#246,#247));
#74=EDGE_LOOP('',(#248,#249));
#75=EDGE_LOOP('',(#250,#251));
#76=EDGE_LOOP('',(#252,#253,#254,#255,#256,#257));
#77=EDGE_LOOP('',(#258,#259,#260,#261,#262,#263));
#78=EDGE_LOOP('',(#264,#265,#266,#267,#268,#269,#270,#271));
#79=EDGE_LOOP('',(#272,#273));
#80=EDGE_LOOP('',(#274,#275));
#81=EDGE_LOOP('',(#276,#277,#278,#279));
#82=EDGE_LOOP('',(#280,#281,#282,#283,#284,#285));
#83=EDGE_LOOP('',(#286,#287,#288,#289));
#84=EDGE_LOOP('',(#290,#291,#292,#293));
#85=EDGE_LOOP('',(#294,#295,#296,#297));
#86=EDGE_LOOP('',(#298,#299,#300,#301,#302,#303,#304));
#87=EDGE_LOOP('',(#305,#306,#307,#308));
#88=LINE('',#435,#112);
#89=LINE('',#438,#113);
#90=LINE('',#441,#114);
#91=LINE('',#443,#115);
#92=LINE('',#444,#116);
#93=LINE('',#450,#117);
#94=LINE('',#454,#118);
#95=LINE('',#456,#119);
#96=LINE('',#458,#120);
#97=LINE('',#459,#121);
#98=LINE('',#463,#122);
#99=LINE('',#465,#123);
#100=LINE('',#467,#124);
#101=LINE('',#468,#125);
#102=LINE('',#470,#126);
#103=LINE('',#471,#127);
#104=LINE('',#787,#128);
#105=LINE('',#790,#129);
#106=LINE('',#1051,#130);
#107=LINE('',#1052,#131);
#108=LINE('',#1054,#132);
#109=LINE('',#1055,#133);
#110=LINE('',#1057,#134);
#111=LINE('',#1059,#135);
#112=VECTOR('',#369,10.);
#113=VECTOR('',#372,10.);
#114=VECTOR('',#375,10.);
#115=VECTOR('',#376,10.);
#116=VECTOR('',#377,10.);
#117=VECTOR('',#384,10.);
#118=VECTOR('',#387,10.);
#119=VECTOR('',#388,10.);
#120=VECTOR('',#389,10.);
#121=VECTOR('',#390,10.);
#122=VECTOR('',#393,10.);
#123=VECTOR('',#394,10.);
#124=VECTOR('',#395,10.);
#125=VECTOR('',#396,10.);
#126=VECTOR('',#399,10.);
#127=VECTOR('',#400,10.);
#128=VECTOR('',#409,2.);
#129=VECTOR('',#412,2.);
#130=VECTOR('',#415,10.);
#131=VECTOR('',#416,10.);
#132=VECTOR('',#419,10.);
#133=VECTOR('',#420,10.);
#134=VECTOR('',#423,10.);
#135=VECTOR('',#426,10.);
#136=CIRCLE('',#344,2.5);
#137=CIRCLE('',#345,2.5);
#138=CIRCLE('',#348,2.5);
#139=CIRCLE('',#349,2.5);
#140=CIRCLE('',#354,20.);
#141=CIRCLE('',#355,17.);
#142=VERTEX_POINT('',#431);
#143=VERTEX_POINT('',#432);
#144=VERTEX_POINT('',#434);
#145=VERTEX_POINT('',#436);
#146=VERTEX_POINT('',#440);
#147=VERTEX_POINT('',#442);
#148=VERTEX_POINT('',#446);
#149=VERTEX_POINT('',#448);
#150=VERTEX_POINT('',#452);
#151=VERTEX_POINT('',#453);
#152=VERTEX_POINT('',#455);
#153=VERTEX_POINT('',#457);
#154=VERTEX_POINT('',#461);
#155=VERTEX_POINT('',#462);
#156=VERTEX_POINT('',#464);
#157=VERTEX_POINT('',#466);
#158=VERTEX_POINT('',#473);
#159=VERTEX_POINT('',#475);
#160=VERTEX_POINT('',#612);
#161=VERTEX_POINT('',#628);
#162=VERTEX_POINT('',#629);
#163=VERTEX_POINT('',#680);
#164=VERTEX_POINT('',#681);
#165=VERTEX_POINT('',#733);
#166=VERTEX_POINT('',#734);
#167=VERTEX_POINT('',#789);
#168=VERTEX_POINT('',#791);
#169=VERTEX_POINT('',#979);
#170=VERTEX_POINT('',#980);
#171=VERTEX_POINT('',#989);
#172=VERTEX_POINT('',#1002);
#173=VERTEX_POINT('',#1015);
#174=EDGE_CURVE('',#142,#143,#136,.T.);
#175=EDGE_CURVE('',#143,#144,#88,.T.);
#176=EDGE_CURVE('',#144,#145,#137,.T.);
#177=EDGE_CURVE('',#145,#142,#89,.T.);
#178=EDGE_CURVE('',#146,#145,#90,.T.);
#179=EDGE_CURVE('',#147,#146,#91,.T.);
#180=EDGE_CURVE('',#142,#147,#92,.T.);
#181=EDGE_CURVE('',#148,#147,#138,.T.);
#182=EDGE_CURVE('',#146,#149,#139,.T.);
#183=EDGE_CURVE('',#149,#148,#93,.T.);
#184=EDGE_CURVE('',#150,#151,#94,.T.);
#185=EDGE_CURVE('',#152,#150,#95,.T.);
#186=EDGE_CURVE('',#153,#152,#96,.T.);
#187=EDGE_CURVE('',#151,#153,#97,.T.);
#188=EDGE_CURVE('',#154,#155,#98,.T.);
#189=EDGE_CURVE('',#156,#154,#99,.T.);
#190=EDGE_CURVE('',#157,#156,#100,.T.);
#191=EDGE_CURVE('',#155,#157,#101,.T.);
#192=EDGE_CURVE('',#150,#156,#102,.T.);
#193=EDGE_CURVE('',#157,#151,#103,.T.);
#194=EDGE_CURVE('',#158,#158,#140,.T.);
#195=EDGE_CURVE('',#159,#159,#141,.T.);
#196=EDGE_CURVE('',#160,#159,#28,.T.);
#197=EDGE_CURVE('',#161,#162,#15,.T.);
#198=EDGE_CURVE('',#162,#161,#16,.T.);
#199=EDGE_CURVE('',#163,#164,#17,.T.);
#200=EDGE_CURVE('',#164,#163,#18,.T.);
#201=EDGE_CURVE('',#165,#166,#19,.T.);
#202=EDGE_CURVE('',#166,#165,#20,.T.);
#203=EDGE_CURVE('',#166,#162,#104,.T.);
#204=EDGE_CURVE('',#164,#167,#105,.T.);
#205=EDGE_CURVE('',#168,#167,#21,.T.);
#206=EDGE_CURVE('',#167,#168,#22,.T.);
#207=EDGE_CURVE('',#169,#170,#23,.T.);
#208=EDGE_CURVE('',#170,#171,#24,.T.);
#209=EDGE_CURVE('',#171,#172,#25,.T.);
#210=EDGE_CURVE('',#172,#173,#26,.T.);
#211=EDGE_CURVE('',#173,#169,#27,.T.);
#212=EDGE_CURVE('',#169,#158,#29,.T.);
#213=EDGE_CURVE('',#149,#173,#106,.T.);
#214=EDGE_CURVE('',#148,#172,#107,.T.);
#215=EDGE_CURVE('',#171,#143,#108,.T.);
#216=EDGE_CURVE('',#152,#154,#109,.T.);
#217=EDGE_CURVE('',#155,#153,#110,.T.);
#218=EDGE_CURVE('',#144,#170,#111,.T.);
#219=ORIENTED_EDGE('',*,*,#174,.T.);
#220=ORIENTED_EDGE('',*,*,#175,.T.);
#221=ORIENTED_EDGE('',*,*,#176,.T.);
#222=ORIENTED_EDGE('',*,*,#177,.T.);
#223=ORIENTED_EDGE('',*,*,#177,.F.);
#224=ORIENTED_EDGE('',*,*,#178,.F.);
#225=ORIENTED_EDGE('',*,*,#179,.F.);
#226=ORIENTED_EDGE('',*,*,#180,.F.);
#227=ORIENTED_EDGE('',*,*,#181,.T.);
#228=ORIENTED_EDGE('',*,*,#179,.T.);
#229=ORIENTED_EDGE('',*,*,#182,.T.);
#230=ORIENTED_EDGE('',*,*,#183,.T.);
#231=ORIENTED_EDGE('',*,*,#184,.F.);
#232=ORIENTED_EDGE('',*,*,#185,.F.);
#233=ORIENTED_EDGE('',*,*,#186,.F.);
#234=ORIENTED_EDGE('',*,*,#187,.F.);
#235=ORIENTED_EDGE('',*,*,#188,.F.);
#236=ORIENTED_EDGE('',*,*,#189,.F.);
#237=ORIENTED_EDGE('',*,*,#190,.F.);
#238=ORIENTED_EDGE('',*,*,#191,.F.);
#239=ORIENTED_EDGE('',*,*,#190,.T.);
#240=ORIENTED_EDGE('',*,*,#192,.F.);
#241=ORIENTED_EDGE('',*,*,#184,.T.);
#242=ORIENTED_EDGE('',*,*,#193,.F.);
#243=ORIENTED_EDGE('',*,*,#194,.F.);
#244=ORIENTED_EDGE('',*,*,#195,.T.);
#245=ORIENTED_EDGE('',*,*,#196,.F.);
#246=ORIENTED_EDGE('',*,*,#196,.T.);
#247=ORIENTED_EDGE('',*,*,#195,.F.);
#248=ORIENTED_EDGE('',*,*,#197,.T.);
#249=ORIENTED_EDGE('',*,*,#198,.T.);
#250=ORIENTED_EDGE('',*,*,#199,.T.);
#251=ORIENTED_EDGE('',*,*,#200,.T.);
#252=ORIENTED_EDGE('',*,*,#201,.F.);
#253=ORIENTED_EDGE('',*,*,#202,.F.);
#254=ORIENTED_EDGE('',*,*,#203,.T.);
#255=ORIENTED_EDGE('',*,*,#197,.F.);
#256=ORIENTED_EDGE('',*,*,#198,.F.);
#257=ORIENTED_EDGE('',*,*,#203,.F.);
#258=ORIENTED_EDGE('',*,*,#199,.F.);
#259=ORIENTED_EDGE('',*,*,#200,.F.);
#260=ORIENTED_EDGE('',*,*,#204,.T.);
#261=ORIENTED_EDGE('',*,*,#205,.F.);
#262=ORIENTED_EDGE('',*,*,#206,.F.);
#263=ORIENTED_EDGE('',*,*,#204,.F.);
#264=ORIENTED_EDGE('',*,*,#207,.T.);
#265=ORIENTED_EDGE('',*,*,#208,.T.);
#266=ORIENTED_EDGE('',*,*,#209,.T.);
#267=ORIENTED_EDGE('',*,*,#210,.T.);
#268=ORIENTED_EDGE('',*,*,#211,.T.);
#269=ORIENTED_EDGE('',*,*,#212,.T.);
#270=ORIENTED_EDGE('',*,*,#194,.T.);
#271=ORIENTED_EDGE('',*,*,#212,.F.);
#272=ORIENTED_EDGE('',*,*,#205,.T.);
#273=ORIENTED_EDGE('',*,*,#206,.T.);
#274=ORIENTED_EDGE('',*,*,#201,.T.);
#275=ORIENTED_EDGE('',*,*,#202,.T.);
#276=ORIENTED_EDGE('',*,*,#213,.T.);
#277=ORIENTED_EDGE('',*,*,#210,.F.);
#278=ORIENTED_EDGE('',*,*,#214,.F.);
#279=ORIENTED_EDGE('',*,*,#183,.F.);
#280=ORIENTED_EDGE('',*,*,#215,.T.);
#281=ORIENTED_EDGE('',*,*,#174,.F.);
#282=ORIENTED_EDGE('',*,*,#180,.T.);
#283=ORIENTED_EDGE('',*,*,#181,.F.);
#284=ORIENTED_EDGE('',*,*,#214,.T.);
#285=ORIENTED_EDGE('',*,*,#209,.F.);
#286=ORIENTED_EDGE('',*,*,#216,.F.);
#287=ORIENTED_EDGE('',*,*,#185,.T.);
#288=ORIENTED_EDGE('',*,*,#192,.T.);
#289=ORIENTED_EDGE('',*,*,#189,.T.);
#290=ORIENTED_EDGE('',*,*,#188,.T.);
#291=ORIENTED_EDGE('',*,*,#217,.T.);
#292=ORIENTED_EDGE('',*,*,#186,.T.);
#293=ORIENTED_EDGE('',*,*,#216,.T.);
#294=ORIENTED_EDGE('',*,*,#215,.F.);
#295=ORIENTED_EDGE('',*,*,#208,.F.);
#296=ORIENTED_EDGE('',*,*,#218,.F.);
#297=ORIENTED_EDGE('',*,*,#175,.F.);
#298=ORIENTED_EDGE('',*,*,#218,.T.);
#299=ORIENTED_EDGE('',*,*,#207,.F.);
#300=ORIENTED_EDGE('',*,*,#211,.F.);
#301=ORIENTED_EDGE('',*,*,#213,.F.);
#302=ORIENTED_EDGE('',*,*,#182,.F.);
#303=ORIENTED_EDGE('',*,*,#178,.T.);
#304=ORIENTED_EDGE('',*,*,#176,.F.);
#305=ORIENTED_EDGE('',*,*,#191,.T.);
#306=ORIENTED_EDGE('',*,*,#193,.T.);
#307=ORIENTED_EDGE('',*,*,#187,.T.);
#308=ORIENTED_EDGE('',*,*,#217,.F.);
#309=CYLINDRICAL_SURFACE('',#343,2.5);
#310=CYLINDRICAL_SURFACE('',#347,2.5);
#311=CYLINDRICAL_SURFACE('',#356,2.);
#312=CYLINDRICAL_SURFACE('',#357,2.);
#313=ADVANCED_FACE('',(#49),#309,.T.);
#314=ADVANCED_FACE('',(#50),#39,.T.);
#315=ADVANCED_FACE('',(#51),#310,.T.);
#316=ADVANCED_FACE('',(#52),#40,.T.);
#317=ADVANCED_FACE('',(#53),#41,.T.);
#318=ADVANCED_FACE('',(#54),#42,.T.);
#319=ADVANCED_FACE('',(#55,#32),#43,.T.);
#320=ADVANCED_FACE('',(#56,#33,#34),#30,.T.);
#321=ADVANCED_FACE('',(#57),#311,.F.);
#322=ADVANCED_FACE('',(#58),#312,.F.);
#323=ADVANCED_FACE('',(#59,#35,#36),#31,.T.);
#324=ADVANCED_FACE('',(#60),#44,.T.);
#325=ADVANCED_FACE('',(#61,#37),#45,.T.);
#326=ADVANCED_FACE('',(#62),#46,.T.);
#327=ADVANCED_FACE('',(#63),#47,.T.);
#328=ADVANCED_FACE('',(#64,#38),#48,.T.);
#329=CLOSED_SHELL('',(#313,#314,#315,#316,#317,#318,#319,#320,#321,#322,
#323,#324,#325,#326,#327,#328));
#330=DERIVED_UNIT_ELEMENT(#332,1.);
#331=DERIVED_UNIT_ELEMENT(#1066,-3.);
#332=(
MASS_UNIT()
NAMED_UNIT(*)
SI_UNIT(.KILO.,.GRAM.)
);
#333=DERIVED_UNIT((#330,#331));
#334=MEASURE_REPRESENTATION_ITEM('density measure',
POSITIVE_RATIO_MEASURE(7850.),#333);
#335=PROPERTY_DEFINITION_REPRESENTATION(#340,#337);
#336=PROPERTY_DEFINITION_REPRESENTATION(#341,#338);
#337=REPRESENTATION('material name',(#339),#1063);
#338=REPRESENTATION('density',(#334),#1063);
#339=DESCRIPTIVE_REPRESENTATION_ITEM('Stahl','Stahl');
#340=PROPERTY_DEFINITION('material property','material name',#1073);
#341=PROPERTY_DEFINITION('material property','density of part',#1073);
#342=AXIS2_PLACEMENT_3D('',#429,#363,#364);
#343=AXIS2_PLACEMENT_3D('',#430,#365,#366);
#344=AXIS2_PLACEMENT_3D('',#433,#367,#368);
#345=AXIS2_PLACEMENT_3D('',#437,#370,#371);
#346=AXIS2_PLACEMENT_3D('',#439,#373,#374);
#347=AXIS2_PLACEMENT_3D('',#445,#378,#379);
#348=AXIS2_PLACEMENT_3D('',#447,#380,#381);
#349=AXIS2_PLACEMENT_3D('',#449,#382,#383);
#350=AXIS2_PLACEMENT_3D('',#451,#385,#386);
#351=AXIS2_PLACEMENT_3D('',#460,#391,#392);
#352=AXIS2_PLACEMENT_3D('',#469,#397,#398);
#353=AXIS2_PLACEMENT_3D('',#472,#401,#402);
#354=AXIS2_PLACEMENT_3D('',#474,#403,#404);
#355=AXIS2_PLACEMENT_3D('',#476,#405,#406);
#356=AXIS2_PLACEMENT_3D('',#732,#407,#408);
#357=AXIS2_PLACEMENT_3D('',#788,#410,#411);
#358=AXIS2_PLACEMENT_3D('',#1050,#413,#414);
#359=AXIS2_PLACEMENT_3D('',#1053,#417,#418);
#360=AXIS2_PLACEMENT_3D('',#1056,#421,#422);
#361=AXIS2_PLACEMENT_3D('',#1058,#424,#425);
#362=AXIS2_PLACEMENT_3D('',#1060,#427,#428);
#363=DIRECTION('axis',(0.,0.,1.));
#364=DIRECTION('refdir',(1.,0.,0.));
#365=DIRECTION('center_axis',(2.22044604925031E-16,-1.,0.));
#366=DIRECTION('ref_axis',(-0.707106781186547,-1.57009245868377E-16,-0.707106781186547));
#367=DIRECTION('center_axis',(-2.22044604925031E-16,1.,0.));
#368=DIRECTION('ref_axis',(-0.707106781186547,-1.57009245868377E-16,-0.707106781186547));
#369=DIRECTION('',(-2.22044604925031E-16,1.,0.));
#370=DIRECTION('center_axis',(2.22044604925031E-16,-1.,0.));
#371=DIRECTION('ref_axis',(-0.707106781186547,-1.57009245868377E-16,-0.707106781186547));
#372=DIRECTION('',(2.22044604925031E-16,-1.,0.));
#373=DIRECTION('center_axis',(0.,0.,-1.));
#374=DIRECTION('ref_axis',(1.,2.22044604925031E-16,0.));
#375=DIRECTION('',(-1.,-2.22044604925031E-16,0.));
#376=DIRECTION('',(-2.22044604925031E-16,1.,0.));
#377=DIRECTION('',(1.,2.22044604925031E-16,0.));
#378=DIRECTION('center_axis',(2.22044604925031E-16,-1.,0.));
#379=DIRECTION('ref_axis',(0.707106781186547,1.57009245868377E-16,-0.707106781186547));
#380=DIRECTION('center_axis',(-2.22044604925031E-16,1.,0.));
#381=DIRECTION('ref_axis',(0.707106781186547,1.57009245868377E-16,-0.707106781186547));
#382=DIRECTION('center_axis',(2.22044604925031E-16,-1.,0.));
#383=DIRECTION('ref_axis',(0.707106781186547,1.57009245868377E-16,-0.707106781186547));
#384=DIRECTION('',(2.22044604925031E-16,-1.,0.));
#385=DIRECTION('center_axis',(-1.,-2.22044604925031E-16,0.));
#386=DIRECTION('ref_axis',(0.,0.,-1.));
#387=DIRECTION('',(-2.22044604925031E-16,1.,0.));
#388=DIRECTION('',(0.,0.,-1.));
#389=DIRECTION('',(2.22044604925031E-16,-1.,0.));
#390=DIRECTION('',(0.,0.,1.));
#391=DIRECTION('center_axis',(1.,2.22044604925031E-16,0.));
#392=DIRECTION('ref_axis',(0.,0.,1.));
#393=DIRECTION('',(-2.22044604925031E-16,1.,0.));
#394=DIRECTION('',(0.,0.,1.));
#395=DIRECTION('',(2.22044604925031E-16,-1.,0.));
#396=DIRECTION('',(0.,0.,-1.));
#397=DIRECTION('center_axis',(0.,0.,1.));
#398=DIRECTION('ref_axis',(-1.,-2.22044604925031E-16,0.));
#399=DIRECTION('',(-1.,-2.22044604925031E-16,0.));
#400=DIRECTION('',(1.,2.22044604925031E-16,0.));
#401=DIRECTION('center_axis',(0.,0.,1.));
#402=DIRECTION('ref_axis',(1.,0.,0.));
#403=DIRECTION('center_axis',(0.,0.,-1.));
#404=DIRECTION('ref_axis',(1.,0.,0.));
#405=DIRECTION('center_axis',(0.,0.,-1.));
#406=DIRECTION('ref_axis',(1.,0.,0.));
#407=DIRECTION('center_axis',(1.,0.,0.));
#408=DIRECTION('ref_axis',(0.,1.,0.));
#409=DIRECTION('',(1.,0.,0.));
#410=DIRECTION('center_axis',(1.,0.,0.));
#411=DIRECTION('ref_axis',(0.,1.,0.));
#412=DIRECTION('',(1.,0.,0.));
#413=DIRECTION('center_axis',(1.,0.,0.));
#414=DIRECTION('ref_axis',(0.,0.,-1.));
#415=DIRECTION('',(0.,0.,1.));
#416=DIRECTION('',(0.,0.,1.));
#417=DIRECTION('center_axis',(0.,-1.,0.));
#418=DIRECTION('ref_axis',(0.,0.,-1.));
#419=DIRECTION('',(0.,0.,-1.));
#420=DIRECTION('',(-1.,0.,0.));
#421=DIRECTION('center_axis',(0.,0.,-1.));
#422=DIRECTION('ref_axis',(0.,1.,0.));
#423=DIRECTION('',(1.,0.,0.));
#424=DIRECTION('center_axis',(-1.,0.,0.));
#425=DIRECTION('ref_axis',(0.,0.,1.));
#426=DIRECTION('',(0.,0.,1.));
#427=DIRECTION('center_axis',(0.,1.,0.));
#428=DIRECTION('ref_axis',(0.,0.,1.));
#429=CARTESIAN_POINT('',(0.,0.,0.));
#430=CARTESIAN_POINT('Origin',(-2.5,-5.55111512312578E-16,-5.5));
#431=CARTESIAN_POINT('',(-2.5,-5.,-8.));
#432=CARTESIAN_POINT('',(-5.,-5.,-5.5));
#433=CARTESIAN_POINT('Origin',(-2.5,-5.,-5.5));
#434=CARTESIAN_POINT('',(-5.,5.,-5.5));
#435=CARTESIAN_POINT('',(-5.,0.,-5.5));
#436=CARTESIAN_POINT('',(-2.5,5.,-8.));
#437=CARTESIAN_POINT('Origin',(-2.5,5.,-5.5));
#438=CARTESIAN_POINT('',(-2.5,-5.55111512312578E-16,-8.));
#439=CARTESIAN_POINT('Origin',(-5.,0.,-8.));
#440=CARTESIAN_POINT('',(2.5,5.,-8.));
#441=CARTESIAN_POINT('',(5.,5.,-8.));
#442=CARTESIAN_POINT('',(2.5,-5.,-8.));
#443=CARTESIAN_POINT('',(2.5,1.66533453693773E-15,-8.));
#444=CARTESIAN_POINT('',(5.,-5.,-8.));
#445=CARTESIAN_POINT('Origin',(2.5,1.66533453693773E-15,-5.5));
#446=CARTESIAN_POINT('',(5.,-5.,-5.5));
#447=CARTESIAN_POINT('Origin',(2.5,-5.,-5.5));
#448=CARTESIAN_POINT('',(5.,5.,-5.5));
#449=CARTESIAN_POINT('Origin',(2.5,5.,-5.5));
#450=CARTESIAN_POINT('',(5.,2.22044604925031E-15,-5.5));
#451=CARTESIAN_POINT('Origin',(2.5,1.66533453693773E-15,-1.));
#452=CARTESIAN_POINT('',(2.5,-5.,-5.5));
#453=CARTESIAN_POINT('',(2.5,5.,-5.5));
#454=CARTESIAN_POINT('',(2.5,1.66533453693773E-15,-5.5));
#455=CARTESIAN_POINT('',(2.5,-5.,-1.));
#456=CARTESIAN_POINT('',(2.5,-5.,-1.));
#457=CARTESIAN_POINT('',(2.5,5.,-1.));
#458=CARTESIAN_POINT('',(2.5,-1.25,-1.));
#459=CARTESIAN_POINT('',(2.5,5.,-1.));
#460=CARTESIAN_POINT('Origin',(-2.5,-5.55111512312578E-16,-5.5));
#461=CARTESIAN_POINT('',(-2.5,-5.,-1.));
#462=CARTESIAN_POINT('',(-2.5,5.,-1.));
#463=CARTESIAN_POINT('',(-2.5,-1.25,-1.));
#464=CARTESIAN_POINT('',(-2.5,-5.,-5.5));
#465=CARTESIAN_POINT('',(-2.5,-5.,-5.5));
#466=CARTESIAN_POINT('',(-2.5,5.,-5.5));
#467=CARTESIAN_POINT('',(-2.5,-5.55111512312578E-16,-5.5));
#468=CARTESIAN_POINT('',(-2.5,5.,-5.5));
#469=CARTESIAN_POINT('Origin',(2.5,1.66533453693773E-15,-5.5));
#470=CARTESIAN_POINT('',(2.5,-5.,-5.5));
#471=CARTESIAN_POINT('',(2.5,5.,-5.5));
#472=CARTESIAN_POINT('Origin',(0.,20.,23.));
#473=CARTESIAN_POINT('',(0.,20.,23.));
#474=CARTESIAN_POINT('Origin',(0.,0.,23.));
#475=CARTESIAN_POINT('',(0.,17.,23.));
#476=CARTESIAN_POINT('Origin',(0.,0.,23.));
#477=CARTESIAN_POINT('Ctrl Pts',(0.,17.,23.));
#478=CARTESIAN_POINT('Ctrl Pts',(17.,17.,23.));
#479=CARTESIAN_POINT('Ctrl Pts',(17.,0.,23.));
#480=CARTESIAN_POINT('Ctrl Pts',(17.,-17.,23.));
#481=CARTESIAN_POINT('Ctrl Pts',(0.,-17.,23.));
#482=CARTESIAN_POINT('Ctrl Pts',(-17.,-17.,23.));
#483=CARTESIAN_POINT('Ctrl Pts',(-17.,0.,23.));
#484=CARTESIAN_POINT('Ctrl Pts',(-17.,17.,23.));
#485=CARTESIAN_POINT('Ctrl Pts',(0.,17.,23.));
#486=CARTESIAN_POINT('Ctrl Pts',(0.,17.,22.4531270322084));
#487=CARTESIAN_POINT('Ctrl Pts',(17.,17.,22.4531270322084));
#488=CARTESIAN_POINT('Ctrl Pts',(17.,0.,22.4531270322084));
#489=CARTESIAN_POINT('Ctrl Pts',(17.,-17.,22.4531270322084));
#490=CARTESIAN_POINT('Ctrl Pts',(0.,-17.,22.4531270322084));
#491=CARTESIAN_POINT('Ctrl Pts',(-17.,-17.,22.4531270322084));
#492=CARTESIAN_POINT('Ctrl Pts',(-17.,0.,22.4531270322084));
#493=CARTESIAN_POINT('Ctrl Pts',(-17.,17.,22.4531270322084));
#494=CARTESIAN_POINT('Ctrl Pts',(0.,17.,22.4531270322084));
#495=CARTESIAN_POINT('Ctrl Pts',(0.,16.970881959629,21.3116711991213));
#496=CARTESIAN_POINT('Ctrl Pts',(16.970881959629,16.970881959629,21.3116711991213));
#497=CARTESIAN_POINT('Ctrl Pts',(16.970881959629,0.,21.3116711991213));
#498=CARTESIAN_POINT('Ctrl Pts',(16.970881959629,-16.970881959629,21.3116711991213));
#499=CARTESIAN_POINT('Ctrl Pts',(0.,-16.970881959629,21.3116711991213));
#500=CARTESIAN_POINT('Ctrl Pts',(-16.970881959629,-16.970881959629,21.3116711991213));
#501=CARTESIAN_POINT('Ctrl Pts',(-16.970881959629,0.,21.3116711991213));
#502=CARTESIAN_POINT('Ctrl Pts',(-16.970881959629,16.970881959629,21.3116711991213));
#503=CARTESIAN_POINT('Ctrl Pts',(0.,16.970881959629,21.3116711991213));
#504=CARTESIAN_POINT('Ctrl Pts',(0.,16.8398714659897,19.4564999305532));
#505=CARTESIAN_POINT('Ctrl Pts',(16.8398714659897,16.8398714659897,19.4564999305532));
#506=CARTESIAN_POINT('Ctrl Pts',(16.8398714659897,0.,19.4564999305532));
#507=CARTESIAN_POINT('Ctrl Pts',(16.8398714659897,-16.8398714659897,19.4564999305532));
#508=CARTESIAN_POINT('Ctrl Pts',(0.,-16.8398714659897,19.4564999305532));
#509=CARTESIAN_POINT('Ctrl Pts',(-16.8398714659897,-16.8398714659897,19.4564999305532));
#510=CARTESIAN_POINT('Ctrl Pts',(-16.8398714659897,0.,19.4564999305532));
#511=CARTESIAN_POINT('Ctrl Pts',(-16.8398714659897,16.8398714659897,19.4564999305532));
#512=CARTESIAN_POINT('Ctrl Pts',(0.,16.8398714659897,19.4564999305532));
#513=CARTESIAN_POINT('Ctrl Pts',(0.,16.4905793825796,16.7640003631943));
#514=CARTESIAN_POINT('Ctrl Pts',(16.4905793825796,16.4905793825796,16.7640003631943));
#515=CARTESIAN_POINT('Ctrl Pts',(16.4905793825796,0.,16.7640003631943));
#516=CARTESIAN_POINT('Ctrl Pts',(16.4905793825796,-16.4905793825796,16.7640003631943));
#517=CARTESIAN_POINT('Ctrl Pts',(0.,-16.4905793825796,16.7640003631943));
#518=CARTESIAN_POINT('Ctrl Pts',(-16.4905793825796,-16.4905793825796,16.7640003631943));
#519=CARTESIAN_POINT('Ctrl Pts',(-16.4905793825796,0.,16.7640003631943));
#520=CARTESIAN_POINT('Ctrl Pts',(-16.4905793825796,16.4905793825796,16.7640003631943));
#521=CARTESIAN_POINT('Ctrl Pts',(0.,16.4905793825796,16.7640003631943));
#522=CARTESIAN_POINT('Ctrl Pts',(0.,15.7567113542053,13.3906283420424));
#523=CARTESIAN_POINT('Ctrl Pts',(15.7567113542052,15.7567113542052,13.3906283420424));
#524=CARTESIAN_POINT('Ctrl Pts',(15.7567113542053,0.,13.3906283420424));
#525=CARTESIAN_POINT('Ctrl Pts',(15.7567113542052,-15.7567113542052,13.3906283420424));
#526=CARTESIAN_POINT('Ctrl Pts',(0.,-15.7567113542053,13.3906283420424));
#527=CARTESIAN_POINT('Ctrl Pts',(-15.7567113542052,-15.7567113542052,13.3906283420424));
#528=CARTESIAN_POINT('Ctrl Pts',(-15.7567113542053,0.,13.3906283420424));
#529=CARTESIAN_POINT('Ctrl Pts',(-15.7567113542052,15.7567113542052,13.3906283420424));
#530=CARTESIAN_POINT('Ctrl Pts',(0.,15.7567113542053,13.3906283420424));
#531=CARTESIAN_POINT('Ctrl Pts',(0.,14.7052972931582,10.3936572019957));
#532=CARTESIAN_POINT('Ctrl Pts',(14.7052972931582,14.7052972931582,10.3936572019957));
#533=CARTESIAN_POINT('Ctrl Pts',(14.7052972931582,0.,10.3936572019957));
#534=CARTESIAN_POINT('Ctrl Pts',(14.7052972931582,-14.7052972931582,10.3936572019957));
#535=CARTESIAN_POINT('Ctrl Pts',(0.,-14.7052972931582,10.3936572019957));
#536=CARTESIAN_POINT('Ctrl Pts',(-14.7052972931582,-14.7052972931582,10.3936572019957));
#537=CARTESIAN_POINT('Ctrl Pts',(-14.7052972931582,0.,10.3936572019957));
#538=CARTESIAN_POINT('Ctrl Pts',(-14.7052972931582,14.7052972931582,10.3936572019957));
#539=CARTESIAN_POINT('Ctrl Pts',(0.,14.7052972931582,10.3936572019957));
#540=CARTESIAN_POINT('Ctrl Pts',(0.,13.305519669325,8.07974720788233));
#541=CARTESIAN_POINT('Ctrl Pts',(13.305519669325,13.305519669325,8.07974720788233));
#542=CARTESIAN_POINT('Ctrl Pts',(13.305519669325,0.,8.07974720788233));
#543=CARTESIAN_POINT('Ctrl Pts',(13.305519669325,-13.305519669325,8.07974720788233));
#544=CARTESIAN_POINT('Ctrl Pts',(0.,-13.305519669325,8.07974720788233));
#545=CARTESIAN_POINT('Ctrl Pts',(-13.305519669325,-13.305519669325,8.07974720788233));
#546=CARTESIAN_POINT('Ctrl Pts',(-13.305519669325,0.,8.07974720788233));
#547=CARTESIAN_POINT('Ctrl Pts',(-13.305519669325,13.305519669325,8.07974720788233));
#548=CARTESIAN_POINT('Ctrl Pts',(0.,13.305519669325,8.07974720788233));
#549=CARTESIAN_POINT('Ctrl Pts',(0.,11.5049785599542,6.43934464986945));
#550=CARTESIAN_POINT('Ctrl Pts',(11.5049785599542,11.5049785599542,6.43934464986945));
#551=CARTESIAN_POINT('Ctrl Pts',(11.5049785599542,0.,6.43934464986945));
#552=CARTESIAN_POINT('Ctrl Pts',(11.5049785599542,-11.5049785599542,6.43934464986945));
#553=CARTESIAN_POINT('Ctrl Pts',(0.,-11.5049785599542,6.43934464986945));
#554=CARTESIAN_POINT('Ctrl Pts',(-11.5049785599542,-11.5049785599542,6.43934464986945));
#555=CARTESIAN_POINT('Ctrl Pts',(-11.5049785599542,0.,6.43934464986945));
#556=CARTESIAN_POINT('Ctrl Pts',(-11.5049785599542,11.5049785599542,6.43934464986945));
#557=CARTESIAN_POINT('Ctrl Pts',(0.,11.5049785599542,6.43934464986945));
#558=CARTESIAN_POINT('Ctrl Pts',(0.,9.26704272284005,5.19657880915655));
#559=CARTESIAN_POINT('Ctrl Pts',(9.26704272284005,9.26704272284005,5.19657880915655));
#560=CARTESIAN_POINT('Ctrl Pts',(9.26704272284005,0.,5.19657880915655));
#561=CARTESIAN_POINT('Ctrl Pts',(9.26704272284005,-9.26704272284005,5.19657880915655));
#562=CARTESIAN_POINT('Ctrl Pts',(0.,-9.26704272284005,5.19657880915655));
#563=CARTESIAN_POINT('Ctrl Pts',(-9.26704272284005,-9.26704272284005,5.19657880915655));
#564=CARTESIAN_POINT('Ctrl Pts',(-9.26704272284005,0.,5.19657880915655));
#565=CARTESIAN_POINT('Ctrl Pts',(-9.26704272284005,9.26704272284005,5.19657880915655));
#566=CARTESIAN_POINT('Ctrl Pts',(0.,9.26704272284005,5.19657880915655));
#567=CARTESIAN_POINT('Ctrl Pts',(0.,6.60471742765436,4.24878535867713));
#568=CARTESIAN_POINT('Ctrl Pts',(6.60471742765436,6.60471742765436,4.24878535867713));
#569=CARTESIAN_POINT('Ctrl Pts',(6.60471742765436,0.,4.24878535867713));
#570=CARTESIAN_POINT('Ctrl Pts',(6.60471742765436,-6.60471742765436,4.24878535867713));
#571=CARTESIAN_POINT('Ctrl Pts',(0.,-6.60471742765436,4.24878535867713));
#572=CARTESIAN_POINT('Ctrl Pts',(-6.60471742765436,-6.60471742765436,4.24878535867713));
#573=CARTESIAN_POINT('Ctrl Pts',(-6.60471742765436,0.,4.24878535867713));
#574=CARTESIAN_POINT('Ctrl Pts',(-6.60471742765436,6.60471742765436,4.24878535867713));
#575=CARTESIAN_POINT('Ctrl Pts',(0.,6.60471742765436,4.24878535867713));
#576=CARTESIAN_POINT('Ctrl Pts',(0.,4.15238802407594,3.65784238765991));
#577=CARTESIAN_POINT('Ctrl Pts',(4.15238802407594,4.15238802407594,3.65784238765991));
#578=CARTESIAN_POINT('Ctrl Pts',(4.15238802407594,0.,3.65784238765991));
#579=CARTESIAN_POINT('Ctrl Pts',(4.15238802407594,-4.15238802407594,3.65784238765991));
#580=CARTESIAN_POINT('Ctrl Pts',(0.,-4.15238802407594,3.65784238765991));
#581=CARTESIAN_POINT('Ctrl Pts',(-4.15238802407594,-4.15238802407594,3.65784238765991));
#582=CARTESIAN_POINT('Ctrl Pts',(-4.15238802407594,0.,3.65784238765991));
#583=CARTESIAN_POINT('Ctrl Pts',(-4.15238802407594,4.15238802407594,3.65784238765991));
#584=CARTESIAN_POINT('Ctrl Pts',(0.,4.15238802407594,3.65784238765991));
#585=CARTESIAN_POINT('Ctrl Pts',(0.,2.14180270575284,3.29763021279849));
#586=CARTESIAN_POINT('Ctrl Pts',(2.14180270575284,2.14180270575284,3.29763021279849));
#587=CARTESIAN_POINT('Ctrl Pts',(2.14180270575284,0.,3.29763021279849));
#588=CARTESIAN_POINT('Ctrl Pts',(2.14180270575284,-2.14180270575284,3.29763021279849));
#589=CARTESIAN_POINT('Ctrl Pts',(0.,-2.14180270575284,3.29763021279849));
#590=CARTESIAN_POINT('Ctrl Pts',(-2.14180270575284,-2.14180270575284,3.29763021279849));
#591=CARTESIAN_POINT('Ctrl Pts',(-2.14180270575284,0.,3.29763021279849));
#592=CARTESIAN_POINT('Ctrl Pts',(-2.14180270575284,2.14180270575284,3.29763021279849));
#593=CARTESIAN_POINT('Ctrl Pts',(0.,2.14180270575284,3.29763021279849));
#594=CARTESIAN_POINT('Ctrl Pts',(0.,0.726428926145608,3.09323158104098));
#595=CARTESIAN_POINT('Ctrl Pts',(0.726428926145608,0.726428926145608,3.09323158104098));
#596=CARTESIAN_POINT('Ctrl Pts',(0.726428926145608,0.,3.09323158104098));
#597=CARTESIAN_POINT('Ctrl Pts',(0.726428926145608,-0.726428926145608,3.09323158104098));
#598=CARTESIAN_POINT('Ctrl Pts',(0.,-0.726428926145608,3.09323158104098));
#599=CARTESIAN_POINT('Ctrl Pts',(-0.726428926145608,-0.726428926145608,
3.09323158104098));
#600=CARTESIAN_POINT('Ctrl Pts',(-0.726428926145608,0.,3.09323158104098));
#601=CARTESIAN_POINT('Ctrl Pts',(-0.726428926145608,0.726428926145608,3.09323158104098));
#602=CARTESIAN_POINT('Ctrl Pts',(0.,0.726428926145608,3.09323158104098));
#603=CARTESIAN_POINT('Ctrl Pts',(0.,0.,3.));
#604=CARTESIAN_POINT('Ctrl Pts',(0.,0.,3.));
#605=CARTESIAN_POINT('Ctrl Pts',(0.,0.,3.));
#606=CARTESIAN_POINT('Ctrl Pts',(0.,0.,3.));
#607=CARTESIAN_POINT('Ctrl Pts',(0.,0.,3.));
#608=CARTESIAN_POINT('Ctrl Pts',(0.,0.,3.));
#609=CARTESIAN_POINT('Ctrl Pts',(0.,0.,3.));
#610=CARTESIAN_POINT('Ctrl Pts',(0.,0.,3.));
#611=CARTESIAN_POINT('Ctrl Pts',(0.,0.,3.));
#612=CARTESIAN_POINT('',(0.,0.,3.));
#613=CARTESIAN_POINT('Ctrl Pts',(0.,0.,3.));
#614=CARTESIAN_POINT('Ctrl Pts',(0.,0.726428926145608,3.09323158104098));
#615=CARTESIAN_POINT('Ctrl Pts',(0.,2.14180270575284,3.29763021279849));
#616=CARTESIAN_POINT('Ctrl Pts',(0.,4.15238802407594,3.65784238765991));
#617=CARTESIAN_POINT('Ctrl Pts',(0.,6.60471742765436,4.24878535867713));
#618=CARTESIAN_POINT('Ctrl Pts',(0.,9.26704272284005,5.19657880915655));
#619=CARTESIAN_POINT('Ctrl Pts',(0.,11.5049785599542,6.43934464986945));
#620=CARTESIAN_POINT('Ctrl Pts',(0.,13.305519669325,8.07974720788233));
#621=CARTESIAN_POINT('Ctrl Pts',(0.,14.7052972931582,10.3936572019957));
#622=CARTESIAN_POINT('Ctrl Pts',(0.,15.7567113542053,13.3906283420424));
#623=CARTESIAN_POINT('Ctrl Pts',(0.,16.4905793825796,16.7640003631943));
#624=CARTESIAN_POINT('Ctrl Pts',(0.,16.8398714659897,19.4564999305532));
#625=CARTESIAN_POINT('Ctrl Pts',(0.,16.970881959629,21.3116711991213));
#626=CARTESIAN_POINT('Ctrl Pts',(0.,17.,22.4531270322084));
#627=CARTESIAN_POINT('Ctrl Pts',(0.,17.,23.));
#628=CARTESIAN_POINT('',(-16.659569891751,1.71658648827657,19.0263190674767));
#629=CARTESIAN_POINT('',(-16.4926940295235,-2.,18.));
#630=CARTESIAN_POINT('Ctrl Pts',(-16.659569891751,1.71658648827657,19.0263190674767));
#631=CARTESIAN_POINT('Ctrl Pts',(-16.6234087976115,1.83654542030876,18.8256798234054));
#632=CARTESIAN_POINT('Ctrl Pts',(-16.5858320807081,1.92040267007661,18.6055601867293));
#633=CARTESIAN_POINT('Ctrl Pts',(-16.5152477508134,2.00596173995944,18.1585183483732));
#634=CARTESIAN_POINT('Ctrl Pts',(-16.4825566350982,2.01125129420437,17.9353506693008));
#635=CARTESIAN_POINT('Ctrl Pts',(-16.4206072771112,1.94513294425375,17.475196521315));
#636=CARTESIAN_POINT('Ctrl Pts',(-16.3924708730375,1.8670555627006,17.24267378249));
#637=CARTESIAN_POINT('Ctrl Pts',(-16.3469888618854,1.63800350175543,16.8299436516991));
#638=CARTESIAN_POINT('Ctrl Pts',(-16.3293695399239,1.49376851294326,16.6505468696528));
#639=CARTESIAN_POINT('Ctrl Pts',(-16.2999440130102,1.12821944494717,16.3285181177083));
#640=CARTESIAN_POINT('Ctrl Pts',(-16.2893915113759,0.902963563004111,16.1967865292785));
#641=CARTESIAN_POINT('Ctrl Pts',(-16.279504697394,0.538468941321778,16.0696460022149));
#642=CARTESIAN_POINT('Ctrl Pts',(-16.2772284560735,0.414482778655859,16.0392787104125));
#643=CARTESIAN_POINT('Ctrl Pts',(-16.274868524031,0.197447739478401,16.0076471043027));
#644=CARTESIAN_POINT('Ctrl Pts',(-16.2743555431704,0.105643849702088,16.0006761254136));
#645=CARTESIAN_POINT('Ctrl Pts',(-16.2742632737961,-0.0768503013818395,
15.9994272571022));
#646=CARTESIAN_POINT('Ctrl Pts',(-16.2746698430982,-0.167323953310837,16.004956354181));
#647=CARTESIAN_POINT('Ctrl Pts',(-16.2766761792903,-0.375196011260862,16.0319026217508));
#648=CARTESIAN_POINT('Ctrl Pts',(-16.2786056467946,-0.491671940915928,16.0577251675755));
#649=CARTESIAN_POINT('Ctrl Pts',(-16.2865014592807,-0.814101890625089,16.1600807380558));
#650=CARTESIAN_POINT('Ctrl Pts',(-16.2944194293248,-1.0106385953434,16.2602950264594));
#651=CARTESIAN_POINT('Ctrl Pts',(-16.3191744812657,-1.39420364544367,16.5431099951453));
#652=CARTESIAN_POINT('Ctrl Pts',(-16.337151034088,-1.56973260284803,16.7343321108556));
#653=CARTESIAN_POINT('Ctrl Pts',(-16.3849189850451,-1.84272937740109,17.1787646506656));
#654=CARTESIAN_POINT('Ctrl Pts',(-16.4146470484411,-1.93480871783129,17.4290409226302));
#655=CARTESIAN_POINT('Ctrl Pts',(-16.4632381536852,-1.99193706455354,17.79247460459));
#656=CARTESIAN_POINT('Ctrl Pts',(-16.4776905013038,-2.,17.8963118709028));
#657=CARTESIAN_POINT('Ctrl Pts',(-16.4926940295235,-2.,18.));
#658=CARTESIAN_POINT('Ctrl Pts',(-16.4926940295235,-2.,18.));
#659=CARTESIAN_POINT('Ctrl Pts',(-16.5152186786288,-2.00000000000001,18.1556659667042));
#660=CARTESIAN_POINT('Ctrl Pts',(-16.5389948789333,-1.98182654862925,18.3109944577094));
#661=CARTESIAN_POINT('Ctrl Pts',(-16.6015653499024,-1.88933508313154,18.6998353353001));
#662=CARTESIAN_POINT('Ctrl Pts',(-16.6407350099043,-1.79010553666365,18.9246356261948));
#663=CARTESIAN_POINT('Ctrl Pts',(-16.7117838242853,-1.52643383862316,19.3116420587517));
#664=CARTESIAN_POINT('Ctrl Pts',(-16.7435032303375,-1.36940583912052,19.474979957108));
#665=CARTESIAN_POINT('Ctrl Pts',(-16.7969680007352,-1.00644913252373,19.7429872908996));
#666=CARTESIAN_POINT('Ctrl Pts',(-16.818285680142,-0.803048961386204,19.8456889641468));
#667=CARTESIAN_POINT('Ctrl Pts',(-16.8392678657235,-0.475792126432825,19.946008894686));
#668=CARTESIAN_POINT('Ctrl Pts',(-16.8443874526137,-0.362611580195935,19.9702492734175));
#669=CARTESIAN_POINT('Ctrl Pts',(-16.8496121416102,-0.164754699427187,19.9949619084238));
#670=CARTESIAN_POINT('Ctrl Pts',(-16.8507049623168,-0.0810510355054391,
20.0001131479748));
#671=CARTESIAN_POINT('Ctrl Pts',(-16.8506564092075,0.0858643519901252,19.9998840134342));
#672=CARTESIAN_POINT('Ctrl Pts',(-16.8495331106307,0.168877411806102,19.9945887445071));
#673=CARTESIAN_POINT('Ctrl Pts',(-16.8442348809782,0.366749467059193,19.9695266699196));
#674=CARTESIAN_POINT('Ctrl Pts',(-16.839028222948,0.480596846402765,19.9448715047656));
#675=CARTESIAN_POINT('Ctrl Pts',(-16.8175728823396,0.811967977617239,19.8422636578581));
#676=CARTESIAN_POINT('Ctrl Pts',(-16.7956509600705,1.01827761994834,19.7366054497748));
#677=CARTESIAN_POINT('Ctrl Pts',(-16.7371129600965,1.40928297510646,19.4426797805002));
#678=CARTESIAN_POINT('Ctrl Pts',(-16.6995491431986,1.58396139987081,19.2481432954174));
#679=CARTESIAN_POINT('Ctrl Pts',(-16.659569891751,1.71658648827656,19.0263190674767));
#680=CARTESIAN_POINT('',(16.5286993335936,-1.98533908910963,18.2417202954933));
#681=CARTESIAN_POINT('',(16.4926940295235,-2.,18.));
#682=CARTESIAN_POINT('Ctrl Pts',(16.5286993335936,-1.98533908910963,18.2417202954933));
#683=CARTESIAN_POINT('Ctrl Pts',(16.5164015716834,-1.99511249262361,18.1614476812705));
#684=CARTESIAN_POINT('Ctrl Pts',(16.5043750932572,-2.,18.0807268548215));
#685=CARTESIAN_POINT('Ctrl Pts',(16.4926940295235,-2.,18.));
#686=CARTESIAN_POINT('Ctrl Pts',(16.4926940295235,-2.,18.));
#687=CARTESIAN_POINT('Ctrl Pts',(16.474183381694,-2.,17.8720744605061));
#688=CARTESIAN_POINT('Ctrl Pts',(16.4565451122955,-1.98772686662411,17.7441330620955));
#689=CARTESIAN_POINT('Ctrl Pts',(16.4113425569622,-1.92065685452384,17.3994955313232));
#690=CARTESIAN_POINT('Ctrl Pts',(16.3863773119734,-1.84190987512501,17.189282910952));
#691=CARTESIAN_POINT('Ctrl Pts',(16.3438741147218,-1.61562050871677,16.7993741886106));
#692=CARTESIAN_POINT('Ctrl Pts',(16.3267680908994,-1.46858457399343,16.623315250599));
#693=CARTESIAN_POINT('Ctrl Pts',(16.2986750826036,-1.10330660382432,16.3130409041823));
#694=CARTESIAN_POINT('Ctrl Pts',(16.288679543008,-0.882737896852289,16.1878023828742));
#695=CARTESIAN_POINT('Ctrl Pts',(16.2792512145399,-0.525844716301082,16.0662928569326));
#696=CARTESIAN_POINT('Ctrl Pts',(16.2770665392163,-0.403535661764866,16.0371187436122));
#697=CARTESIAN_POINT('Ctrl Pts',(16.2748072626552,-0.188676510211312,16.0068177732538));
#698=CARTESIAN_POINT('Ctrl Pts',(16.2743257237554,-0.0972883302015735,16.0002725233009));
#699=CARTESIAN_POINT('Ctrl Pts',(16.274287035314,0.0841058422539052,15.9997488647999));
#700=CARTESIAN_POINT('Ctrl Pts',(16.2747136336593,0.173899788026904,16.0055486042986));
#701=CARTESIAN_POINT('Ctrl Pts',(16.2767708853481,0.382119554597884,16.033168749454));
#702=CARTESIAN_POINT('Ctrl Pts',(16.2787524974312,0.499567607476593,16.0596737865859));
#703=CARTESIAN_POINT('Ctrl Pts',(16.286884696435,0.826013158783579,16.1649602797699));
#704=CARTESIAN_POINT('Ctrl Pts',(16.2950672651153,1.02509201667578,16.2683111361493));
#705=CARTESIAN_POINT('Ctrl Pts',(16.3204837568709,1.40892851542928,16.5572937445881));
#706=CARTESIAN_POINT('Ctrl Pts',(16.3387560353235,1.58268702119378,16.7505128110879));
#707=CARTESIAN_POINT('Ctrl Pts',(16.387147058105,1.85124392440453,17.1981028340311));
#708=CARTESIAN_POINT('Ctrl Pts',(16.4171890182991,1.94072910968433,17.4494461774787));
#709=CARTESIAN_POINT('Ctrl Pts',(16.4869177959922,2.01663747161831,17.9680933653385));
#710=CARTESIAN_POINT('Ctrl Pts',(16.5258367899084,2.00359186630824,18.2302363508386));
#711=CARTESIAN_POINT('Ctrl Pts',(16.6046771900082,1.8823879157497,18.7181473694976));
#712=CARTESIAN_POINT('Ctrl Pts',(16.6437411731352,1.7812069061628,18.9415454399348));
#713=CARTESIAN_POINT('Ctrl Pts',(16.7143891501694,1.51451532753865,19.3253000008525));
#714=CARTESIAN_POINT('Ctrl Pts',(16.7458338378081,1.35640424436069,19.4868694925132));
#715=CARTESIAN_POINT('Ctrl Pts',(16.7983775592832,0.993865427224577,19.749832039585));
#716=CARTESIAN_POINT('Ctrl Pts',(16.8191694309627,0.792400917744906,19.849938124614));
#717=CARTESIAN_POINT('Ctrl Pts',(16.8396269151829,0.468498816013353,19.947712736833));
#718=CARTESIAN_POINT('Ctrl Pts',(16.8446161457398,0.356319920690116,19.9713322785792));
#719=CARTESIAN_POINT('Ctrl Pts',(16.8496966285947,0.159730845761874,19.9953605331681));
#720=CARTESIAN_POINT('Ctrl Pts',(16.8507428400107,0.0762520675017889,20.0002919030043));
#721=CARTESIAN_POINT('Ctrl Pts',(16.8506128589518,-0.0916633786719198,19.9996784881109));
#722=CARTESIAN_POINT('Ctrl Pts',(16.8494154581801,-0.175897278005398,19.994033837548));
#723=CARTESIAN_POINT('Ctrl Pts',(16.8438618676504,-0.376675504707032,19.9677597456086));
#724=CARTESIAN_POINT('Ctrl Pts',(16.838441964763,-0.492148854023881,19.9420884001508));
#725=CARTESIAN_POINT('Ctrl Pts',(16.8159979784742,-0.830806420459535,19.8346866227483));
#726=CARTESIAN_POINT('Ctrl Pts',(16.7929495695087,-1.04179160951114,19.7234831684685));
#727=CARTESIAN_POINT('Ctrl Pts',(16.7324460096879,-1.43355381194114,19.418690099576));
#728=CARTESIAN_POINT('Ctrl Pts',(16.6943794745145,-1.60535718104475,19.2206538723526));
#729=CARTESIAN_POINT('Ctrl Pts',(16.6125296900807,-1.86762178215332,18.7639082691713));
#730=CARTESIAN_POINT('Ctrl Pts',(16.5694077208402,-1.95298690194985,18.5074408948142));
#731=CARTESIAN_POINT('Ctrl Pts',(16.5286993335936,-1.98533908910963,18.2417202954933));
#732=CARTESIAN_POINT('Origin',(0.,0.,18.));
#733=CARTESIAN_POINT('',(-19.7469626440316,1.77791206825762,18.9159850858742));
#734=CARTESIAN_POINT('',(-19.6356857667079,-2.,18.));
#735=CARTESIAN_POINT('Ctrl Pts',(-19.7469626440316,1.77791206825762,18.9159850858742));
#736=CARTESIAN_POINT('Ctrl Pts',(-19.7619528438185,1.72012619684148,19.028146517048));
#737=CARTESIAN_POINT('Ctrl Pts',(-19.7766925365339,1.65183341028604,19.1346322840335));
#738=CARTESIAN_POINT('Ctrl Pts',(-19.8071116942866,1.48410414384811,19.348564930145));
#739=CARTESIAN_POINT('Ctrl Pts',(-19.8225033150545,1.38196850222494,19.4530745033281));
#740=CARTESIAN_POINT('Ctrl Pts',(-19.8596501340859,1.08161908479068,19.6997255085871));
#741=CARTESIAN_POINT('Ctrl Pts',(-19.8784837763561,0.867162908029394,19.8186177845248));
#742=CARTESIAN_POINT('Ctrl Pts',(-19.8970806441076,0.520991292180716,19.9347710894541));
#743=CARTESIAN_POINT('Ctrl Pts',(-19.9016356926801,0.402429451121428,19.9628682848017));
#744=CARTESIAN_POINT('Ctrl Pts',(-19.9063496882221,0.19858976732513,19.9918980233402));
#745=CARTESIAN_POINT('Ctrl Pts',(-19.9074256380704,0.11452008051204,19.9984955291866));
#746=CARTESIAN_POINT('Ctrl Pts',(-19.9078331368161,-0.0507047119188062,
20.0009967251435));
#747=CARTESIAN_POINT('Ctrl Pts',(-19.9072304126804,-0.131673947968214,19.9973028963008));
#748=CARTESIAN_POINT('Ctrl Pts',(-19.9039901962822,-0.318415456536463,19.9773779546231));
#749=CARTESIAN_POINT('Ctrl Pts',(-19.9007693144472,-0.423516609969606,19.9575567754608));
#750=CARTESIAN_POINT('Ctrl Pts',(-19.8878251747877,-0.718130933338829,19.8771642234725));
#751=CARTESIAN_POINT('Ctrl Pts',(-19.8749552351679,-0.900649936506177,19.7966894455548));
#752=CARTESIAN_POINT('Ctrl Pts',(-19.8376528733945,-1.28274104117747,19.5553100621917));
#753=CARTESIAN_POINT('Ctrl Pts',(-19.8113579468452,-1.46922499565453,19.3803677710434));
#754=CARTESIAN_POINT('Ctrl Pts',(-19.7524345964226,-1.77369743678171,18.9613398537382));
#755=CARTESIAN_POINT('Ctrl Pts',(-19.7201801847959,-1.88526028838221,18.718269366205));
#756=CARTESIAN_POINT('Ctrl Pts',(-19.6704931679748,-1.98202092832728,18.3094036225821));
#757=CARTESIAN_POINT('Ctrl Pts',(-19.6526287719874,-2.,18.1548294176642));
#758=CARTESIAN_POINT('Ctrl Pts',(-19.6356857667079,-2.,18.));
#759=CARTESIAN_POINT('Ctrl Pts',(-19.6356857667079,-2.,18.));
#760=CARTESIAN_POINT('Ctrl Pts',(-19.6241737557742,-2.,17.8948003663105));
#761=CARTESIAN_POINT('Ctrl Pts',(-19.6130838878193,-1.99170013869212,17.789483264162));
#762=CARTESIAN_POINT('Ctrl Pts',(-19.5781486842601,-1.93669361143293,17.4445543879794));
#763=CARTESIAN_POINT('Ctrl Pts',(-19.5569654718785,-1.85470530421152,17.2128294160149));
#764=CARTESIAN_POINT('Ctrl Pts',(-19.5226443422964,-1.61931040888271,16.8043710898954));
#765=CARTESIAN_POINT('Ctrl Pts',(-19.5092750335104,-1.47293396351475,16.6280247098613));
#766=CARTESIAN_POINT('Ctrl Pts',(-19.4871080938512,-1.10966648421911,16.3173583450209));
#767=CARTESIAN_POINT('Ctrl Pts',(-19.4790513640792,-0.890507126415096,16.1917568036038));
#768=CARTESIAN_POINT('Ctrl Pts',(-19.4714018263006,-0.537577901406495,16.0696820466553));
#769=CARTESIAN_POINT('Ctrl Pts',(-19.4696118583911,-0.417909071164267,16.040287176754));
#770=CARTESIAN_POINT('Ctrl Pts',(-19.467757708515,-0.213804422772091,16.0097123977366));
#771=CARTESIAN_POINT('Ctrl Pts',(-19.4673263322336,-0.130621388305469,16.0025276971373));
#772=CARTESIAN_POINT('Ctrl Pts',(-19.4670966392099,0.0310270204106291,15.9987090837987));
#773=CARTESIAN_POINT('Ctrl Pts',(-19.4672613070556,0.109327633529913,16.0014567225338));
#774=CARTESIAN_POINT('Ctrl Pts',(-19.4682722282509,0.287476429753997,16.0182107326039));
#775=CARTESIAN_POINT('Ctrl Pts',(-19.4692976953879,0.386830877627682,16.0351867133528));
#776=CARTESIAN_POINT('Ctrl Pts',(-19.473510097561,0.66114873162947,16.1036770935451));
#777=CARTESIAN_POINT('Ctrl Pts',(-19.477744283596,0.830937047155563,16.171701932472));
#778=CARTESIAN_POINT('Ctrl Pts',(-19.4919552670308,1.20822109673409,16.3863884513606));
#779=CARTESIAN_POINT('Ctrl Pts',(-19.5033928940811,1.40163339522353,16.5512744621436));
#780=CARTESIAN_POINT('Ctrl Pts',(-19.5346271574361,1.72410971696268,16.9527566130042));
#781=CARTESIAN_POINT('Ctrl Pts',(-19.5545285674745,1.84661508116397,17.1882239444674));
#782=CARTESIAN_POINT('Ctrl Pts',(-19.6024192264894,1.9934968620387,17.6921598840946));
#783=CARTESIAN_POINT('Ctrl Pts',(-19.629970842925,2.0165589642542,17.9556332812629));
#784=CARTESIAN_POINT('Ctrl Pts',(-19.6880320955696,1.96179946866927,18.4601973509967));
#785=CARTESIAN_POINT('Ctrl Pts',(-19.7177710031953,1.89044321712684,18.6975639666716));
#786=CARTESIAN_POINT('Ctrl Pts',(-19.7469626440316,1.77791206825762,18.9159850858742));
#787=CARTESIAN_POINT('',(0.,-2.,18.));
#788=CARTESIAN_POINT('Origin',(0.,0.,18.));
#789=CARTESIAN_POINT('',(19.6356857667079,-2.,18.));
#790=CARTESIAN_POINT('',(0.,-2.,18.));
#791=CARTESIAN_POINT('',(19.6687494215016,-1.97857440201839,18.2919646137421));
#792=CARTESIAN_POINT('Ctrl Pts',(19.6687494215016,-1.97857440201839,18.2919646137421));
#793=CARTESIAN_POINT('Ctrl Pts',(19.6849101588048,-1.95820502508667,18.4300030125248));
#794=CARTESIAN_POINT('Ctrl Pts',(19.7015332052726,-1.92345078643279,18.5654983328436));
#795=CARTESIAN_POINT('Ctrl Pts',(19.7362943036076,-1.82242953547721,18.8375366875453));
#796=CARTESIAN_POINT('Ctrl Pts',(19.7543425495987,-1.75414410180628,18.9724791362107));
#797=CARTESIAN_POINT('Ctrl Pts',(19.7977204616599,-1.54835844562846,19.2855774658381));
#798=CARTESIAN_POINT('Ctrl Pts',(19.8220479723333,-1.39470066233639,19.4509196856165));
#799=CARTESIAN_POINT('Ctrl Pts',(19.8648167960862,-1.02692135053391,19.732782353436));
#800=CARTESIAN_POINT('Ctrl Pts',(19.8823908592732,-0.812451185609325,19.8431976617292));
#801=CARTESIAN_POINT('Ctrl Pts',(19.8989534999096,-0.474065186582096,19.9463484538415));
#802=CARTESIAN_POINT('Ctrl Pts',(19.9028291413751,-0.3622706168447,19.9702266554914));
#803=CARTESIAN_POINT('Ctrl Pts',(19.906807833751,-0.167143150946806,19.9947101525857));
#804=CARTESIAN_POINT('Ctrl Pts',(19.9076556591183,-0.0847266968436665,19.999907379828));
#805=CARTESIAN_POINT('Ctrl Pts',(19.9076852261313,0.079110327279218,20.0000888529832));
#806=CARTESIAN_POINT('Ctrl Pts',(19.9068907330407,0.160355830302953,19.995218603629));
#807=CARTESIAN_POINT('Ctrl Pts',(19.9030939271327,0.352746656702529,19.9718581926837));
#808=CARTESIAN_POINT('Ctrl Pts',(19.8993678799853,0.463024832813482,19.9489076943306));
#809=CARTESIAN_POINT('Ctrl Pts',(19.8841876043287,0.780337407439461,19.854425958627));
#810=CARTESIAN_POINT('Ctrl Pts',(19.8688483526291,0.977957539676061,19.7581678799631));
#811=CARTESIAN_POINT('Ctrl Pts',(19.8269074512611,1.36514796091495,19.4839494487517));
#812=CARTESIAN_POINT('Ctrl Pts',(19.7992296342912,1.54364465257231,19.2971283851497));
#813=CARTESIAN_POINT('Ctrl Pts',(19.7386983929014,1.82562261222096,18.8588247084369));
#814=CARTESIAN_POINT('Ctrl Pts',(19.7063133493332,1.92337419748344,18.6091886641099));
#815=CARTESIAN_POINT('Ctrl Pts',(19.6451764449969,2.01443524060489,18.0934558840991));
#816=CARTESIAN_POINT('Ctrl Pts',(19.6169092750841,2.00971150156217,17.8325944874999));
#817=CARTESIAN_POINT('Ctrl Pts',(19.5687225414824,1.90461641984631,17.3437880039953));
#818=CARTESIAN_POINT('Ctrl Pts',(19.5487288410738,1.81162393597636,17.1188359099393));
#819=CARTESIAN_POINT('Ctrl Pts',(19.5166023288768,1.55857803540299,16.726629906782));
#820=CARTESIAN_POINT('Ctrl Pts',(19.5042222647083,1.40545563231487,16.5593501819056));
#821=CARTESIAN_POINT('Ctrl Pts',(19.4844934020331,1.04267434765745,16.2773069975782));
#822=CARTESIAN_POINT('Ctrl Pts',(19.4774848741999,0.833900430234459,16.167098153695));
#823=CARTESIAN_POINT('Ctrl Pts',(19.4707945444332,0.499204592344183,16.0597639661804));
#824=CARTESIAN_POINT('Ctrl Pts',(19.4692207815682,0.384725906741265,16.0338588606874));
#825=CARTESIAN_POINT('Ctrl Pts',(19.4676031809996,0.187640922304633,16.0071449520467));
#826=CARTESIAN_POINT('Ctrl Pts',(19.4672429598245,0.106049475984556,16.0011417657809));
#827=CARTESIAN_POINT('Ctrl Pts',(19.4671253329003,-0.0547818392195822,15.9991859304789));
#828=CARTESIAN_POINT('Ctrl Pts',(19.4673490668792,-0.133870473562528,16.0029180352982));
#829=CARTESIAN_POINT('Ctrl Pts',(19.4685207236442,-0.315393571074844,16.0223172502776));
#830=CARTESIAN_POINT('Ctrl Pts',(19.4696677464343,-0.417246717041201,16.0412746579953));
#831=CARTESIAN_POINT('Ctrl Pts',(19.4744431603503,-0.706387883750967,16.1186744581555));
#832=CARTESIAN_POINT('Ctrl Pts',(19.4793329638658,-0.887101518734209,16.1968408786691));
#833=CARTESIAN_POINT('Ctrl Pts',(19.4952262706857,-1.26936347797607,16.433731987373));
#834=CARTESIAN_POINT('Ctrl Pts',(19.5074830821414,-1.45761619407704,16.6072831188594));
#835=CARTESIAN_POINT('Ctrl Pts',(19.5404934699284,-1.76510753557715,17.0232961193035));
#836=CARTESIAN_POINT('Ctrl Pts',(19.5612980466744,-1.87818587530144,17.2640273643022));
#837=CARTESIAN_POINT('Ctrl Pts',(19.6013877094213,-1.98043985868982,17.6771307197649));
#838=CARTESIAN_POINT('Ctrl Pts',(19.6180133352487,-2.,17.8385049035636));
#839=CARTESIAN_POINT('Ctrl Pts',(19.6356857667079,-2.,18.));
#840=CARTESIAN_POINT('Ctrl Pts',(19.6356857667079,-2.,18.));
#841=CARTESIAN_POINT('Ctrl Pts',(19.6463593924118,-2.,18.0975382598804));
#842=CARTESIAN_POINT('Ctrl Pts',(19.6574115304369,-1.99286494906292,18.1951209921444));
#843=CARTESIAN_POINT('Ctrl Pts',(19.6687494215016,-1.97857440201839,18.2919646137421));
#844=CARTESIAN_POINT('Ctrl Pts',(0.,0.,0.));
#845=CARTESIAN_POINT('Ctrl Pts',(0.,0.,0.));
#846=CARTESIAN_POINT('Ctrl Pts',(0.,0.,0.));
#847=CARTESIAN_POINT('Ctrl Pts',(0.,0.,0.));
#848=CARTESIAN_POINT('Ctrl Pts',(0.,0.,0.));
#849=CARTESIAN_POINT('Ctrl Pts',(0.,0.,0.));
#850=CARTESIAN_POINT('Ctrl Pts',(0.,0.,0.));
#851=CARTESIAN_POINT('Ctrl Pts',(0.,0.,0.));
#852=CARTESIAN_POINT('Ctrl Pts',(0.,0.,0.));
#853=CARTESIAN_POINT('Ctrl Pts',(0.,0.881165334594465,0.115084289927401));
#854=CARTESIAN_POINT('Ctrl Pts',(0.881165334594465,0.881165334594465,0.115084289927401));
#855=CARTESIAN_POINT('Ctrl Pts',(0.881165334594465,0.,0.115084289927401));
#856=CARTESIAN_POINT('Ctrl Pts',(0.881165334594465,-0.881165334594465,0.1150842899274));
#857=CARTESIAN_POINT('Ctrl Pts',(0.,-0.881165334594465,0.1150842899274));
#858=CARTESIAN_POINT('Ctrl Pts',(-0.881165334594465,-0.881165334594465,
0.1150842899274));
#859=CARTESIAN_POINT('Ctrl Pts',(-0.881165334594465,0.,0.115084289927401));
#860=CARTESIAN_POINT('Ctrl Pts',(-0.881165334594465,0.881165334594465,0.115084289927401));
#861=CARTESIAN_POINT('Ctrl Pts',(0.,0.881165334594465,0.115084289927401));
#862=CARTESIAN_POINT('Ctrl Pts',(0.,2.59722459083687,0.373828134035191));
#863=CARTESIAN_POINT('Ctrl Pts',(2.59722459083687,2.59722459083687,0.373828134035191));
#864=CARTESIAN_POINT('Ctrl Pts',(2.59722459083687,0.,0.373828134035191));
#865=CARTESIAN_POINT('Ctrl Pts',(2.59722459083687,-2.59722459083687,0.373828134035191));
#866=CARTESIAN_POINT('Ctrl Pts',(0.,-2.59722459083687,0.373828134035191));
#867=CARTESIAN_POINT('Ctrl Pts',(-2.59722459083687,-2.59722459083687,0.373828134035191));
#868=CARTESIAN_POINT('Ctrl Pts',(-2.59722459083687,0.,0.373828134035191));
#869=CARTESIAN_POINT('Ctrl Pts',(-2.59722459083687,2.59722459083687,0.373828134035191));
#870=CARTESIAN_POINT('Ctrl Pts',(0.,2.59722459083687,0.373828134035191));
#871=CARTESIAN_POINT('Ctrl Pts',(0.,5.03248904432405,0.847626528208598));
#872=CARTESIAN_POINT('Ctrl Pts',(5.03248904432405,5.03248904432405,0.847626528208598));
#873=CARTESIAN_POINT('Ctrl Pts',(5.03248904432405,0.,0.847626528208598));
#874=CARTESIAN_POINT('Ctrl Pts',(5.03248904432405,-5.03248904432405,0.847626528208598));
#875=CARTESIAN_POINT('Ctrl Pts',(0.,-5.03248904432405,0.847626528208598));
#876=CARTESIAN_POINT('Ctrl Pts',(-5.03248904432405,-5.03248904432405,0.847626528208598));
#877=CARTESIAN_POINT('Ctrl Pts',(-5.03248904432405,0.,0.847626528208598));
#878=CARTESIAN_POINT('Ctrl Pts',(-5.03248904432405,5.03248904432405,0.847626528208598));
#879=CARTESIAN_POINT('Ctrl Pts',(0.,5.03248904432405,0.847626528208598));
#880=CARTESIAN_POINT('Ctrl Pts',(0.,7.99737975418834,1.65391673295994));
#881=CARTESIAN_POINT('Ctrl Pts',(7.99737975418834,7.99737975418834,1.65391673295994));
#882=CARTESIAN_POINT('Ctrl Pts',(7.99737975418834,0.,1.65391673295994));
#883=CARTESIAN_POINT('Ctrl Pts',(7.99737975418834,-7.99737975418834,1.65391673295994));
#884=CARTESIAN_POINT('Ctrl Pts',(0.,-7.99737975418834,1.65391673295994));
#885=CARTESIAN_POINT('Ctrl Pts',(-7.99737975418834,-7.99737975418834,1.65391673295994));
#886=CARTESIAN_POINT('Ctrl Pts',(-7.99737975418834,0.,1.65391673295994));
#887=CARTESIAN_POINT('Ctrl Pts',(-7.99737975418834,7.99737975418834,1.65391673295994));
#888=CARTESIAN_POINT('Ctrl Pts',(0.,7.99737975418834,1.65391673295994));
#889=CARTESIAN_POINT('Ctrl Pts',(0.,11.2049230315999,2.97490216079524));
#890=CARTESIAN_POINT('Ctrl Pts',(11.2049230315999,11.2049230315999,2.97490216079524));
#891=CARTESIAN_POINT('Ctrl Pts',(11.2049230315999,0.,2.97490216079524));
#892=CARTESIAN_POINT('Ctrl Pts',(11.2049230315999,-11.2049230315999,2.97490216079524));
#893=CARTESIAN_POINT('Ctrl Pts',(0.,-11.2049230315999,2.97490216079524));
#894=CARTESIAN_POINT('Ctrl Pts',(-11.2049230315999,-11.2049230315999,2.97490216079524));
#895=CARTESIAN_POINT('Ctrl Pts',(-11.2049230315999,0.,2.97490216079524));
#896=CARTESIAN_POINT('Ctrl Pts',(-11.2049230315999,11.2049230315999,2.97490216079524));
#897=CARTESIAN_POINT('Ctrl Pts',(0.,11.2049230315999,2.97490216079524));
#898=CARTESIAN_POINT('Ctrl Pts',(0.,13.8822224941977,4.65086335973196));
#899=CARTESIAN_POINT('Ctrl Pts',(13.8822224941977,13.8822224941977,4.65086335973196));
#900=CARTESIAN_POINT('Ctrl Pts',(13.8822224941977,0.,4.65086335973196));
#901=CARTESIAN_POINT('Ctrl Pts',(13.8822224941977,-13.8822224941977,4.65086335973196));
#902=CARTESIAN_POINT('Ctrl Pts',(0.,-13.8822224941977,4.65086335973196));
#903=CARTESIAN_POINT('Ctrl Pts',(-13.8822224941977,-13.8822224941977,4.65086335973196));
#904=CARTESIAN_POINT('Ctrl Pts',(-13.8822224941977,0.,4.65086335973196));
#905=CARTESIAN_POINT('Ctrl Pts',(-13.8822224941977,13.8822224941977,4.65086335973196));
#906=CARTESIAN_POINT('Ctrl Pts',(0.,13.8822224941977,4.65086335973196));
#907=CARTESIAN_POINT('Ctrl Pts',(0.,16.0075034077053,6.72668312222271));
#908=CARTESIAN_POINT('Ctrl Pts',(16.0075034077053,16.0075034077053,6.72668312222271));
#909=CARTESIAN_POINT('Ctrl Pts',(16.0075034077053,0.,6.72668312222271));
#910=CARTESIAN_POINT('Ctrl Pts',(16.0075034077053,-16.0075034077053,6.72668312222271));
#911=CARTESIAN_POINT('Ctrl Pts',(0.,-16.0075034077053,6.72668312222271));
#912=CARTESIAN_POINT('Ctrl Pts',(-16.0075034077053,-16.0075034077053,6.72668312222271));
#913=CARTESIAN_POINT('Ctrl Pts',(-16.0075034077053,0.,6.72668312222271));
#914=CARTESIAN_POINT('Ctrl Pts',(-16.0075034077053,16.0075034077053,6.72668312222271));
#915=CARTESIAN_POINT('Ctrl Pts',(0.,16.0075034077053,6.72668312222271));
#916=CARTESIAN_POINT('Ctrl Pts',(0.,17.6043431183461,9.27190440102481));
#917=CARTESIAN_POINT('Ctrl Pts',(17.6043431183461,17.6043431183461,9.27190440102481));
#918=CARTESIAN_POINT('Ctrl Pts',(17.6043431183461,0.,9.27190440102481));
#919=CARTESIAN_POINT('Ctrl Pts',(17.6043431183461,-17.6043431183461,9.27190440102481));
#920=CARTESIAN_POINT('Ctrl Pts',(0.,-17.6043431183461,9.27190440102481));
#921=CARTESIAN_POINT('Ctrl Pts',(-17.6043431183461,-17.6043431183461,9.27190440102481));
#922=CARTESIAN_POINT('Ctrl Pts',(-17.6043431183461,0.,9.27190440102481));
#923=CARTESIAN_POINT('Ctrl Pts',(-17.6043431183461,17.6043431183461,9.27190440102481));
#924=CARTESIAN_POINT('Ctrl Pts',(0.,17.6043431183461,9.27190440102481));
#925=CARTESIAN_POINT('Ctrl Pts',(0.,18.7474253540237,12.2892093161744));
#926=CARTESIAN_POINT('Ctrl Pts',(18.7474253540237,18.7474253540237,12.2892093161744));
#927=CARTESIAN_POINT('Ctrl Pts',(18.7474253540237,0.,12.2892093161744));
#928=CARTESIAN_POINT('Ctrl Pts',(18.7474253540237,-18.7474253540237,12.2892093161744));
#929=CARTESIAN_POINT('Ctrl Pts',(0.,-18.7474253540237,12.2892093161744));
#930=CARTESIAN_POINT('Ctrl Pts',(-18.7474253540237,-18.7474253540237,12.2892093161744));
#931=CARTESIAN_POINT('Ctrl Pts',(-18.7474253540237,0.,12.2892093161744));
#932=CARTESIAN_POINT('Ctrl Pts',(-18.7474253540237,18.7474253540237,12.2892093161744));
#933=CARTESIAN_POINT('Ctrl Pts',(0.,18.7474253540237,12.2892093161744));
#934=CARTESIAN_POINT('Ctrl Pts',(0.,19.5032929361257,15.6672521740209));
#935=CARTESIAN_POINT('Ctrl Pts',(19.5032929361257,19.5032929361257,15.6672521740209));
#936=CARTESIAN_POINT('Ctrl Pts',(19.5032929361257,0.,15.6672521740209));
#937=CARTESIAN_POINT('Ctrl Pts',(19.5032929361257,-19.5032929361257,15.6672521740209));
#938=CARTESIAN_POINT('Ctrl Pts',(0.,-19.5032929361257,15.6672521740209));
#939=CARTESIAN_POINT('Ctrl Pts',(-19.5032929361257,-19.5032929361257,15.6672521740209));
#940=CARTESIAN_POINT('Ctrl Pts',(-19.5032929361257,0.,15.6672521740209));
#941=CARTESIAN_POINT('Ctrl Pts',(-19.5032929361257,19.5032929361257,15.6672521740209));
#942=CARTESIAN_POINT('Ctrl Pts',(0.,19.5032929361257,15.6672521740209));
#943=CARTESIAN_POINT('Ctrl Pts',(0.,19.8456614543339,18.552076969313));
#944=CARTESIAN_POINT('Ctrl Pts',(19.8456614543339,19.8456614543339,18.552076969313));
#945=CARTESIAN_POINT('Ctrl Pts',(19.8456614543339,0.,18.552076969313));
#946=CARTESIAN_POINT('Ctrl Pts',(19.8456614543339,-19.8456614543339,18.552076969313));
#947=CARTESIAN_POINT('Ctrl Pts',(0.,-19.8456614543339,18.552076969313));
#948=CARTESIAN_POINT('Ctrl Pts',(-19.8456614543339,-19.8456614543339,18.552076969313));
#949=CARTESIAN_POINT('Ctrl Pts',(-19.8456614543339,0.,18.552076969313));
#950=CARTESIAN_POINT('Ctrl Pts',(-19.8456614543339,19.8456614543339,18.552076969313));
#951=CARTESIAN_POINT('Ctrl Pts',(0.,19.8456614543339,18.552076969313));
#952=CARTESIAN_POINT('Ctrl Pts',(0.,19.9719347414276,20.7637606486066));
#953=CARTESIAN_POINT('Ctrl Pts',(19.9719347414276,19.9719347414276,20.7637606486066));
#954=CARTESIAN_POINT('Ctrl Pts',(19.9719347414276,0.,20.7637606486066));
#955=CARTESIAN_POINT('Ctrl Pts',(19.9719347414276,-19.9719347414276,20.7637606486066));
#956=CARTESIAN_POINT('Ctrl Pts',(0.,-19.9719347414276,20.7637606486066));
#957=CARTESIAN_POINT('Ctrl Pts',(-19.9719347414276,-19.9719347414276,20.7637606486066));
#958=CARTESIAN_POINT('Ctrl Pts',(-19.9719347414276,0.,20.7637606486066));
#959=CARTESIAN_POINT('Ctrl Pts',(-19.9719347414276,19.9719347414276,20.7637606486066));
#960=CARTESIAN_POINT('Ctrl Pts',(0.,19.9719347414276,20.7637606486066));
#961=CARTESIAN_POINT('Ctrl Pts',(0.,20.,22.2522535369653));
#962=CARTESIAN_POINT('Ctrl Pts',(20.,20.,22.2522535369653));
#963=CARTESIAN_POINT('Ctrl Pts',(20.,0.,22.2522535369653));
#964=CARTESIAN_POINT('Ctrl Pts',(20.,-20.,22.2522535369653));
#965=CARTESIAN_POINT('Ctrl Pts',(0.,-20.,22.2522535369653));
#966=CARTESIAN_POINT('Ctrl Pts',(-20.,-20.,22.2522535369653));
#967=CARTESIAN_POINT('Ctrl Pts',(-20.,0.,22.2522535369653));
#968=CARTESIAN_POINT('Ctrl Pts',(-20.,20.,22.2522535369653));
#969=CARTESIAN_POINT('Ctrl Pts',(0.,20.,22.2522535369653));
#970=CARTESIAN_POINT('Ctrl Pts',(0.,20.,23.));
#971=CARTESIAN_POINT('Ctrl Pts',(20.,20.,23.));
#972=CARTESIAN_POINT('Ctrl Pts',(20.,0.,23.));
#973=CARTESIAN_POINT('Ctrl Pts',(20.,-20.,23.));
#974=CARTESIAN_POINT('Ctrl Pts',(0.,-20.,23.));
#975=CARTESIAN_POINT('Ctrl Pts',(-20.,-20.,23.));
#976=CARTESIAN_POINT('Ctrl Pts',(-20.,0.,23.));
#977=CARTESIAN_POINT('Ctrl Pts',(-20.,20.,23.));
#978=CARTESIAN_POINT('Ctrl Pts',(0.,20.,23.));
#979=CARTESIAN_POINT('',(0.,5.,0.909075743503978));
#980=CARTESIAN_POINT('',(-5.,5.,1.4740765386005));
#981=CARTESIAN_POINT('Ctrl Pts',(2.08166817117217E-16,5.,0.909075743503978));
#982=CARTESIAN_POINT('Ctrl Pts',(-0.341103815923601,5.,0.909075743503978));
#983=CARTESIAN_POINT('Ctrl Pts',(-0.682674568984326,4.99999999999656,0.917501569701961));
#984=CARTESIAN_POINT('Ctrl Pts',(-1.75493203124284,4.99999999999656,0.970183809816591));
#985=CARTESIAN_POINT('Ctrl Pts',(-2.48076444441481,5.,1.04347608016786));
#986=CARTESIAN_POINT('Ctrl Pts',(-3.80062908867781,5.,1.23482301252602));
#987=CARTESIAN_POINT('Ctrl Pts',(-4.40411704599216,5.,1.34467134158629));
#988=CARTESIAN_POINT('Ctrl Pts',(-5.,5.,1.47407653860049));
#989=CARTESIAN_POINT('',(-5.,-5.,1.47407653860049));
#990=CARTESIAN_POINT('Ctrl Pts',(-5.,5.,1.47407653860049));
#991=CARTESIAN_POINT('Ctrl Pts',(-5.,4.4852075461126,1.36228139751));
#992=CARTESIAN_POINT('Ctrl Pts',(-5.,3.96521829315785,1.26518600581223));
#993=CARTESIAN_POINT('Ctrl Pts',(-5.,2.7594688154131,1.07818173397429));
#994=CARTESIAN_POINT('Ctrl Pts',(-4.99999999999843,2.06443031879502,0.999221416461123));
#995=CARTESIAN_POINT('Ctrl Pts',(-4.99999999999843,0.566542518158648,0.90174035521248));
#996=CARTESIAN_POINT('Ctrl Pts',(-4.99999999999656,-0.223344815544531,0.89493374321042));
#997=CARTESIAN_POINT('Ctrl Pts',(-4.99999999999656,-1.75493203124286,0.970183809816592));
#998=CARTESIAN_POINT('Ctrl Pts',(-5.,-2.48076444441485,1.04347608016786));
#999=CARTESIAN_POINT('Ctrl Pts',(-5.,-3.80062908867781,1.23482301252602));
#1000=CARTESIAN_POINT('Ctrl Pts',(-5.,-4.40411704599215,1.34467134158629));
#1001=CARTESIAN_POINT('Ctrl Pts',(-5.,-5.,1.47407653860049));
#1002=CARTESIAN_POINT('',(5.,-5.,1.4740765386005));
#1003=CARTESIAN_POINT('Ctrl Pts',(-5.,-5.,1.47407653860049));
#1004=CARTESIAN_POINT('Ctrl Pts',(-4.4852075461126,-5.,1.36228139751));
#1005=CARTESIAN_POINT('Ctrl Pts',(-3.96521829315785,-5.,1.26518600581223));
#1006=CARTESIAN_POINT('Ctrl Pts',(-2.75946881541309,-5.,1.07818173397429));
#1007=CARTESIAN_POINT('Ctrl Pts',(-2.06443031879501,-4.99999999999844,0.999221416461123));
#1008=CARTESIAN_POINT('Ctrl Pts',(-0.566542518158633,-4.99999999999844,
0.901740355212479));
#1009=CARTESIAN_POINT('Ctrl Pts',(0.223344815544541,-4.99999999999656,0.894933743210422));
#1010=CARTESIAN_POINT('Ctrl Pts',(1.75493203124284,-4.99999999999656,0.970183809816592));
#1011=CARTESIAN_POINT('Ctrl Pts',(2.4807644444148,-5.,1.04347608016785));
#1012=CARTESIAN_POINT('Ctrl Pts',(3.80062908867782,-5.,1.23482301252602));
#1013=CARTESIAN_POINT('Ctrl Pts',(4.40411704599217,-5.,1.34467134158629));
#1014=CARTESIAN_POINT('Ctrl Pts',(5.,-5.,1.47407653860049));
#1015=CARTESIAN_POINT('',(5.,5.,1.4740765386005));
#1016=CARTESIAN_POINT('Ctrl Pts',(5.,-5.,1.47407653860049));
#1017=CARTESIAN_POINT('Ctrl Pts',(5.,-4.48520754611259,1.36228139751));
#1018=CARTESIAN_POINT('Ctrl Pts',(5.,-3.96521829315784,1.26518600581223));
#1019=CARTESIAN_POINT('Ctrl Pts',(5.,-2.7594688154131,1.07818173397429));
#1020=CARTESIAN_POINT('Ctrl Pts',(4.99999999999844,-2.06443031879502,0.999221416461123));
#1021=CARTESIAN_POINT('Ctrl Pts',(4.99999999999844,-0.566542518158652,0.90174035521248));
#1022=CARTESIAN_POINT('Ctrl Pts',(4.99999999999656,0.223344815544531,0.89493374321042));
#1023=CARTESIAN_POINT('Ctrl Pts',(4.99999999999656,1.75493203124286,0.970183809816592));
#1024=CARTESIAN_POINT('Ctrl Pts',(5.,2.48076444441486,1.04347608016786));
#1025=CARTESIAN_POINT('Ctrl Pts',(5.,3.80062908867781,1.23482301252602));
#1026=CARTESIAN_POINT('Ctrl Pts',(5.,4.40411704599216,1.34467134158629));
#1027=CARTESIAN_POINT('Ctrl Pts',(5.,5.,1.47407653860049));
#1028=CARTESIAN_POINT('Ctrl Pts',(5.,5.,1.47407653860049));
#1029=CARTESIAN_POINT('Ctrl Pts',(4.48954611245078,5.,1.36322358427332));
#1030=CARTESIAN_POINT('Ctrl Pts',(3.97400753729268,5.00000000001377,1.26682903684419));
#1031=CARTESIAN_POINT('Ctrl Pts',(2.76837297989904,5.00000000001377,1.07919490784649));
#1032=CARTESIAN_POINT('Ctrl Pts',(2.06886718414039,4.99999999999844,0.999510163283349));
#1033=CARTESIAN_POINT('Ctrl Pts',(0.909975978444294,4.99999999999844,0.924090666205543));
#1034=CARTESIAN_POINT('Ctrl Pts',(0.455404138557071,5.,0.909075743503978));
#1035=CARTESIAN_POINT('Ctrl Pts',(1.38777878078145E-16,5.,0.909075743503978));
#1036=CARTESIAN_POINT('Ctrl Pts',(0.,5.,0.909075743503978));
#1037=CARTESIAN_POINT('Ctrl Pts',(0.,5.60457825165084,1.05497548755906));
#1038=CARTESIAN_POINT('Ctrl Pts',(0.,6.94325316323944,1.40703606992042));
#1039=CARTESIAN_POINT('Ctrl Pts',(0.,8.91032749153412,2.03119698132006));
#1040=CARTESIAN_POINT('Ctrl Pts',(0.,11.3187061932959,3.04612921879111));
#1041=CARTESIAN_POINT('Ctrl Pts',(0.,13.8822224941977,4.65086335973196));
#1042=CARTESIAN_POINT('Ctrl Pts',(0.,16.0075034077053,6.72668312222271));
#1043=CARTESIAN_POINT('Ctrl Pts',(0.,17.6043431183461,9.27190440102481));
#1044=CARTESIAN_POINT('Ctrl Pts',(0.,18.7474253540237,12.2892093161744));
#1045=CARTESIAN_POINT('Ctrl Pts',(0.,19.5032929361257,15.6672521740209));
#1046=CARTESIAN_POINT('Ctrl Pts',(0.,19.8456614543339,18.552076969313));
#1047=CARTESIAN_POINT('Ctrl Pts',(0.,19.9719347414276,20.7637606486066));
#1048=CARTESIAN_POINT('Ctrl Pts',(0.,20.,22.2522535369653));
#1049=CARTESIAN_POINT('Ctrl Pts',(0.,20.,23.));
#1050=CARTESIAN_POINT('Origin',(5.,0.,-3.25));
#1051=CARTESIAN_POINT('',(5.,5.,0.));
#1052=CARTESIAN_POINT('',(5.,-5.,0.));
#1053=CARTESIAN_POINT('Origin',(0.,-5.,1.5));
#1054=CARTESIAN_POINT('',(-5.,-5.,1.5));
#1055=CARTESIAN_POINT('',(0.,-5.,-1.));
#1056=CARTESIAN_POINT('Origin',(0.,-2.5,-1.));
#1057=CARTESIAN_POINT('',(0.,5.,-1.));
#1058=CARTESIAN_POINT('Origin',(-5.,0.,-3.25));
#1059=CARTESIAN_POINT('',(-5.,5.,1.5));
#1060=CARTESIAN_POINT('Origin',(0.,5.,-8.));
#1061=UNCERTAINTY_MEASURE_WITH_UNIT(LENGTH_MEASURE(0.01),#1065,
'DISTANCE_ACCURACY_VALUE',
'Maximum model space distance between geometric entities at asserted c
onnectivities');
#1062=UNCERTAINTY_MEASURE_WITH_UNIT(LENGTH_MEASURE(0.01),#1065,
'DISTANCE_ACCURACY_VALUE',
'Maximum model space distance between geometric entities at asserted c
onnectivities');
#1063=(
GEOMETRIC_REPRESENTATION_CONTEXT(3)
GLOBAL_UNCERTAINTY_ASSIGNED_CONTEXT((#1061))
GLOBAL_UNIT_ASSIGNED_CONTEXT((#1065,#1067,#1068))
REPRESENTATION_CONTEXT('','3D')
);
#1064=(
GEOMETRIC_REPRESENTATION_CONTEXT(3)
GLOBAL_UNCERTAINTY_ASSIGNED_CONTEXT((#1062))
GLOBAL_UNIT_ASSIGNED_CONTEXT((#1065,#1067,#1068))
REPRESENTATION_CONTEXT('','3D')
);
#1065=(
LENGTH_UNIT()
NAMED_UNIT(*)
SI_UNIT(.MILLI.,.METRE.)
);
#1066=(
LENGTH_UNIT()
NAMED_UNIT(*)
SI_UNIT($,.METRE.)
);
#1067=(
NAMED_UNIT(*)
PLANE_ANGLE_UNIT()
SI_UNIT($,.RADIAN.)
);
#1068=(
NAMED_UNIT(*)
SI_UNIT($,.STERADIAN.)
SOLID_ANGLE_UNIT()
);
#1069=SHAPE_DEFINITION_REPRESENTATION(#1070,#1071);
#1070=PRODUCT_DEFINITION_SHAPE('',$,#1073);
#1071=SHAPE_REPRESENTATION('',(#342),#1063);
#1072=PRODUCT_DEFINITION_CONTEXT('part definition',#1077,'design');
#1073=PRODUCT_DEFINITION('Fusion-Komponente','Fusion-Komponente',#1074,
#1072);
#1074=PRODUCT_DEFINITION_FORMATION('',$,#1079);
#1075=PRODUCT_RELATED_PRODUCT_CATEGORY('Fusion-Komponente',
'Fusion-Komponente',(#1079));
#1076=APPLICATION_PROTOCOL_DEFINITION('international standard',
'automotive_design',2009,#1077);
#1077=APPLICATION_CONTEXT(
'Core Data for Automotive Mechanical Design Process');
#1078=PRODUCT_CONTEXT('part definition',#1077,'mechanical');
#1079=PRODUCT('Fusion-Komponente','Fusion-Komponente',$,(#1078));
#1080=PRESENTATION_STYLE_ASSIGNMENT((#1081));
#1081=SURFACE_STYLE_USAGE(.BOTH.,#1082);
#1082=SURFACE_SIDE_STYLE('',(#1083));
#1083=SURFACE_STYLE_FILL_AREA(#1084);
#1084=FILL_AREA_STYLE('Stahl - satiniert',(#1085));
#1085=FILL_AREA_STYLE_COLOUR('Stahl - satiniert',#1086);
#1086=COLOUR_RGB('Stahl - satiniert',0.627450980392157,0.627450980392157,
0.627450980392157);
ENDSEC;
END-ISO-10303-21;
