ISO-10303-21;
HEADER;
/* Generated by software containing ST-Developer
 * from STEP Tools, Inc. (www.steptools.com) 
 */

FILE_DESCRIPTION(
/* description */ (''),
/* implementation_level */ '2;1');

FILE_NAME(
/* name */ 'canon.step',
/* time_stamp */ '2026-05-18T02:05:34-05:00',
/* author */ (''),
/* organization */ (''),
/* preprocessor_version */ 'ST-DEVELOPER v20.1',
/* originating_system */ 'Autodesk Translation Framework v15.8.0.0',
/* authorisation */ '');

FILE_SCHEMA (('AUTOMOTIVE_DESIGN { 1 0 10303 214 3 1 1 }'));
ENDSEC;

DATA;
#10=MECHANICAL_DESIGN_GEOMETRIC_PRESENTATION_REPRESENTATION('',(#19,#20),
#1822);
#11=ITEM_DEFINED_TRANSFORMATION($,$,#1047,#1136);
#12=(
REPRESENTATION_RELATIONSHIP($,$,#1833,#1832)
REPRESENTATION_RELATIONSHIP_WITH_TRANSFORMATION(#11)
SHAPE_REPRESENTATION_RELATIONSHIP()
);
#13=CONTEXT_DEPENDENT_SHAPE_REPRESENTATION(#12,#1831);
#14=NEXT_ASSEMBLY_USAGE_OCCURRENCE('Komponente2:1','Komponente2:1',
'Komponente2:1',#1835,#1836,'Komponente2:1');
#15=SHAPE_REPRESENTATION_RELATIONSHIP('SRR','None',#1833,#17);
#16=SHAPE_REPRESENTATION_RELATIONSHIP('SRR','None',#1832,#18);
#17=ADVANCED_BREP_SHAPE_REPRESENTATION('',(#21),#1821);
#18=ADVANCED_BREP_SHAPE_REPRESENTATION('',(#22),#1820);
#19=STYLED_ITEM('',(#1846),#21);
#20=STYLED_ITEM('',(#1846),#22);
#21=MANIFOLD_SOLID_BREP('K\X\F6rper1',#1032);
#22=MANIFOLD_SOLID_BREP('K\X\F6rper2',#1033);
#23=SPHERICAL_SURFACE('',#1091,5.);
#24=SPHERICAL_SURFACE('',#1094,5.);
#25=SPHERICAL_SURFACE('',#1108,5.);
#26=FACE_BOUND('',#127,.T.);
#27=FACE_BOUND('',#128,.T.);
#28=FACE_BOUND('',#129,.T.);
#29=FACE_BOUND('',#171,.T.);
#30=FACE_BOUND('',#173,.T.);
#31=FACE_BOUND('',#176,.T.);
#32=FACE_BOUND('',#179,.T.);
#33=FACE_BOUND('',#184,.T.);
#34=PLANE('',#1053);
#35=PLANE('',#1054);
#36=PLANE('',#1055);
#37=PLANE('',#1056);
#38=PLANE('',#1057);
#39=PLANE('',#1058);
#40=PLANE('',#1059);
#41=PLANE('',#1062);
#42=PLANE('',#1063);
#43=PLANE('',#1064);
#44=PLANE('',#1065);
#45=PLANE('',#1066);
#46=PLANE('',#1067);
#47=PLANE('',#1068);
#48=PLANE('',#1069);
#49=PLANE('',#1072);
#50=PLANE('',#1073);
#51=PLANE('',#1074);
#52=PLANE('',#1075);
#53=PLANE('',#1077);
#54=PLANE('',#1078);
#55=PLANE('',#1080);
#56=PLANE('',#1095);
#57=PLANE('',#1096);
#58=PLANE('',#1098);
#59=PLANE('',#1099);
#60=PLANE('',#1100);
#61=PLANE('',#1112);
#62=PLANE('',#1113);
#63=PLANE('',#1117);
#64=PLANE('',#1121);
#65=PLANE('',#1122);
#66=PLANE('',#1124);
#67=PLANE('',#1129);
#68=PLANE('',#1131);
#69=FACE_OUTER_BOUND('',#124,.T.);
#70=FACE_OUTER_BOUND('',#125,.T.);
#71=FACE_OUTER_BOUND('',#126,.T.);
#72=FACE_OUTER_BOUND('',#130,.T.);
#73=FACE_OUTER_BOUND('',#131,.T.);
#74=FACE_OUTER_BOUND('',#132,.T.);
#75=FACE_OUTER_BOUND('',#133,.T.);
#76=FACE_OUTER_BOUND('',#134,.T.);
#77=FACE_OUTER_BOUND('',#135,.T.);
#78=FACE_OUTER_BOUND('',#136,.T.);
#79=FACE_OUTER_BOUND('',#137,.T.);
#80=FACE_OUTER_BOUND('',#138,.T.);
#81=FACE_OUTER_BOUND('',#139,.T.);
#82=FACE_OUTER_BOUND('',#140,.T.);
#83=FACE_OUTER_BOUND('',#141,.T.);
#84=FACE_OUTER_BOUND('',#142,.T.);
#85=FACE_OUTER_BOUND('',#143,.T.);
#86=FACE_OUTER_BOUND('',#144,.T.);
#87=FACE_OUTER_BOUND('',#145,.T.);
#88=FACE_OUTER_BOUND('',#146,.T.);
#89=FACE_OUTER_BOUND('',#147,.T.);
#90=FACE_OUTER_BOUND('',#148,.T.);
#91=FACE_OUTER_BOUND('',#149,.T.);
#92=FACE_OUTER_BOUND('',#150,.T.);
#93=FACE_OUTER_BOUND('',#151,.T.);
#94=FACE_OUTER_BOUND('',#152,.T.);
#95=FACE_OUTER_BOUND('',#153,.T.);
#96=FACE_OUTER_BOUND('',#154,.T.);
#97=FACE_OUTER_BOUND('',#155,.T.);
#98=FACE_OUTER_BOUND('',#156,.T.);
#99=FACE_OUTER_BOUND('',#157,.T.);
#100=FACE_OUTER_BOUND('',#158,.T.);
#101=FACE_OUTER_BOUND('',#159,.T.);
#102=FACE_OUTER_BOUND('',#160,.T.);
#103=FACE_OUTER_BOUND('',#161,.T.);
#104=FACE_OUTER_BOUND('',#162,.T.);
#105=FACE_OUTER_BOUND('',#163,.T.);
#106=FACE_OUTER_BOUND('',#164,.T.);
#107=FACE_OUTER_BOUND('',#165,.T.);
#108=FACE_OUTER_BOUND('',#166,.T.);
#109=FACE_OUTER_BOUND('',#167,.T.);
#110=FACE_OUTER_BOUND('',#168,.T.);
#111=FACE_OUTER_BOUND('',#169,.T.);
#112=FACE_OUTER_BOUND('',#170,.T.);
#113=FACE_OUTER_BOUND('',#172,.T.);
#114=FACE_OUTER_BOUND('',#174,.T.);
#115=FACE_OUTER_BOUND('',#175,.T.);
#116=FACE_OUTER_BOUND('',#177,.T.);
#117=FACE_OUTER_BOUND('',#178,.T.);
#118=FACE_OUTER_BOUND('',#180,.T.);
#119=FACE_OUTER_BOUND('',#181,.T.);
#120=FACE_OUTER_BOUND('',#182,.T.);
#121=FACE_OUTER_BOUND('',#183,.T.);
#122=FACE_OUTER_BOUND('',#185,.T.);
#123=FACE_OUTER_BOUND('',#186,.T.);
#124=EDGE_LOOP('',(#672,#673,#674,#675,#676,#677,#678));
#125=EDGE_LOOP('',(#679,#680,#681,#682,#683,#684,#685,#686));
#126=EDGE_LOOP('',(#687,#688,#689,#690));
#127=EDGE_LOOP('',(#691,#692,#693,#694));
#128=EDGE_LOOP('',(#695,#696,#697,#698));
#129=EDGE_LOOP('',(#699,#700,#701,#702));
#130=EDGE_LOOP('',(#703,#704,#705,#706,#707,#708,#709,#710,#711));
#131=EDGE_LOOP('',(#712,#713,#714,#715,#716,#717,#718,#719));
#132=EDGE_LOOP('',(#720,#721,#722,#723));
#133=EDGE_LOOP('',(#724,#725,#726,#727));
#134=EDGE_LOOP('',(#728,#729,#730,#731,#732,#733,#734,#735,#736,#737));
#135=EDGE_LOOP('',(#738,#739,#740,#741));
#136=EDGE_LOOP('',(#742,#743,#744,#745));
#137=EDGE_LOOP('',(#746,#747,#748,#749));
#138=EDGE_LOOP('',(#750,#751,#752,#753));
#139=EDGE_LOOP('',(#754,#755,#756,#757));
#140=EDGE_LOOP('',(#758,#759,#760,#761));
#141=EDGE_LOOP('',(#762,#763,#764,#765));
#142=EDGE_LOOP('',(#766,#767,#768,#769,#770,#771,#772,#773,#774,#775));
#143=EDGE_LOOP('',(#776,#777,#778,#779));
#144=EDGE_LOOP('',(#780,#781,#782,#783));
#145=EDGE_LOOP('',(#784,#785,#786,#787));
#146=EDGE_LOOP('',(#788,#789,#790,#791,#792));
#147=EDGE_LOOP('',(#793,#794,#795,#796,#797,#798,#799,#800,#801,#802,#803,
#804,#805,#806,#807,#808));
#148=EDGE_LOOP('',(#809,#810,#811,#812,#813,#814));
#149=EDGE_LOOP('',(#815,#816,#817));
#150=EDGE_LOOP('',(#818,#819,#820,#821));
#151=EDGE_LOOP('',(#822,#823,#824,#825));
#152=EDGE_LOOP('',(#826,#827,#828,#829));
#153=EDGE_LOOP('',(#830,#831,#832,#833));
#154=EDGE_LOOP('',(#834,#835,#836));
#155=EDGE_LOOP('',(#837,#838,#839,#840));
#156=EDGE_LOOP('',(#841,#842,#843));
#157=EDGE_LOOP('',(#844,#845,#846));
#158=EDGE_LOOP('',(#847,#848,#849,#850,#851,#852,#853,#854,#855,#856,#857,
#858,#859,#860));
#159=EDGE_LOOP('',(#861,#862,#863,#864,#865,#866,#867,#868,#869));
#160=EDGE_LOOP('',(#870,#871,#872,#873,#874));
#161=EDGE_LOOP('',(#875,#876,#877,#878,#879));
#162=EDGE_LOOP('',(#880,#881,#882,#883));
#163=EDGE_LOOP('',(#884,#885,#886,#887));
#164=EDGE_LOOP('',(#888,#889,#890,#891));
#165=EDGE_LOOP('',(#892,#893,#894));
#166=EDGE_LOOP('',(#895,#896,#897,#898));
#167=EDGE_LOOP('',(#899,#900,#901,#902,#903,#904,#905));
#168=EDGE_LOOP('',(#906,#907,#908,#909,#910));
#169=EDGE_LOOP('',(#911,#912,#913,#914,#915));
#170=EDGE_LOOP('',(#916,#917,#918,#919,#920,#921,#922,#923,#924,#925));
#171=EDGE_LOOP('',(#926));
#172=EDGE_LOOP('',(#927));
#173=EDGE_LOOP('',(#928));
#174=EDGE_LOOP('',(#929,#930,#931,#932));
#175=EDGE_LOOP('',(#933));
#176=EDGE_LOOP('',(#934));
#177=EDGE_LOOP('',(#935));
#178=EDGE_LOOP('',(#936));
#179=EDGE_LOOP('',(#937));
#180=EDGE_LOOP('',(#938,#939,#940,#941));
#181=EDGE_LOOP('',(#942,#943,#944,#945,#946,#947,#948));
#182=EDGE_LOOP('',(#949));
#183=EDGE_LOOP('',(#950));
#184=EDGE_LOOP('',(#951));
#185=EDGE_LOOP('',(#952,#953,#954,#955));
#186=EDGE_LOOP('',(#956,#957,#958,#959));
#187=LINE('',#1449,#291);
#188=LINE('',#1454,#292);
#189=LINE('',#1458,#293);
#190=LINE('',#1460,#294);
#191=LINE('',#1462,#295);
#192=LINE('',#1464,#296);
#193=LINE('',#1466,#297);
#194=LINE('',#1468,#298);
#195=LINE('',#1470,#299);
#196=LINE('',#1471,#300);
#197=LINE('',#1475,#301);
#198=LINE('',#1477,#302);
#199=LINE('',#1479,#303);
#200=LINE('',#1480,#304);
#201=LINE('',#1482,#305);
#202=LINE('',#1484,#306);
#203=LINE('',#1485,#307);
#204=LINE('',#1488,#308);
#205=LINE('',#1490,#309);
#206=LINE('',#1492,#310);
#207=LINE('',#1493,#311);
#208=LINE('',#1496,#312);
#209=LINE('',#1498,#313);
#210=LINE('',#1500,#314);
#211=LINE('',#1501,#315);
#212=LINE('',#1505,#316);
#213=LINE('',#1507,#317);
#214=LINE('',#1509,#318);
#215=LINE('',#1511,#319);
#216=LINE('',#1512,#320);
#217=LINE('',#1514,#321);
#218=LINE('',#1516,#322);
#219=LINE('',#1517,#323);
#220=LINE('',#1521,#324);
#221=LINE('',#1523,#325);
#222=LINE('',#1524,#326);
#223=LINE('',#1526,#327);
#224=LINE('',#1528,#328);
#225=LINE('',#1530,#329);
#226=LINE('',#1531,#330);
#227=LINE('',#1534,#331);
#228=LINE('',#1536,#332);
#229=LINE('',#1537,#333);
#230=LINE('',#1540,#334);
#231=LINE('',#1542,#335);
#232=LINE('',#1543,#336);
#233=LINE('',#1546,#337);
#234=LINE('',#1548,#338);
#235=LINE('',#1549,#339);
#236=LINE('',#1552,#340);
#237=LINE('',#1554,#341);
#238=LINE('',#1557,#342);
#239=LINE('',#1558,#343);
#240=LINE('',#1563,#344);
#241=LINE('',#1565,#345);
#242=LINE('',#1566,#346);
#243=LINE('',#1569,#347);
#244=LINE('',#1571,#348);
#245=LINE('',#1572,#349);
#246=LINE('',#1574,#350);
#247=LINE('',#1576,#351);
#248=LINE('',#1579,#352);
#249=LINE('',#1581,#353);
#250=LINE('',#1582,#354);
#251=LINE('',#1585,#355);
#252=LINE('',#1587,#356);
#253=LINE('',#1590,#357);
#254=LINE('',#1591,#358);
#255=LINE('',#1598,#359);
#256=LINE('',#1600,#360);
#257=LINE('',#1601,#361);
#258=LINE('',#1604,#362);
#259=LINE('',#1606,#363);
#260=LINE('',#1608,#364);
#261=LINE('',#1610,#365);
#262=LINE('',#1611,#366);
#263=LINE('',#1613,#367);
#264=LINE('',#1615,#368);
#265=LINE('',#1616,#369);
#266=LINE('',#1620,#370);
#267=LINE('',#1622,#371);
#268=LINE('',#1624,#372);
#269=LINE('',#1634,#373);
#270=LINE('',#1638,#374);
#271=LINE('',#1658,#375);
#272=LINE('',#1660,#376);
#273=LINE('',#1663,#377);
#274=LINE('',#1668,#378);
#275=LINE('',#1669,#379);
#276=LINE('',#1672,#380);
#277=LINE('',#1673,#381);
#278=LINE('',#1675,#382);
#279=LINE('',#1677,#383);
#280=LINE('',#1679,#384);
#281=LINE('',#1681,#385);
#282=LINE('',#1687,#386);
#283=LINE('',#1690,#387);
#284=LINE('',#1702,#388);
#285=LINE('',#1726,#389);
#286=LINE('',#1790,#390);
#287=LINE('',#1801,#391);
#288=LINE('',#1803,#392);
#289=LINE('',#1813,#393);
#290=LINE('',#1815,#394);
#291=VECTOR('',#1147,10.);
#292=VECTOR('',#1152,10.);
#293=VECTOR('',#1155,10.);
#294=VECTOR('',#1156,10.);
#295=VECTOR('',#1157,10.);
#296=VECTOR('',#1158,10.);
#297=VECTOR('',#1159,10.);
#298=VECTOR('',#1160,10.);
#299=VECTOR('',#1161,10.);
#300=VECTOR('',#1162,10.);
#301=VECTOR('',#1165,10.);
#302=VECTOR('',#1166,10.);
#303=VECTOR('',#1167,10.);
#304=VECTOR('',#1168,10.);
#305=VECTOR('',#1169,10.);
#306=VECTOR('',#1170,10.);
#307=VECTOR('',#1171,10.);
#308=VECTOR('',#1172,10.);
#309=VECTOR('',#1173,10.);
#310=VECTOR('',#1174,10.);
#311=VECTOR('',#1175,10.);
#312=VECTOR('',#1176,10.);
#313=VECTOR('',#1177,10.);
#314=VECTOR('',#1178,10.);
#315=VECTOR('',#1179,10.);
#316=VECTOR('',#1182,10.);
#317=VECTOR('',#1183,10.);
#318=VECTOR('',#1184,10.);
#319=VECTOR('',#1185,10.);
#320=VECTOR('',#1186,10.);
#321=VECTOR('',#1187,10.);
#322=VECTOR('',#1188,10.);
#323=VECTOR('',#1189,10.);
#324=VECTOR('',#1192,10.);
#325=VECTOR('',#1193,10.);
#326=VECTOR('',#1194,10.);
#327=VECTOR('',#1195,10.);
#328=VECTOR('',#1196,10.);
#329=VECTOR('',#1197,10.);
#330=VECTOR('',#1198,10.);
#331=VECTOR('',#1201,10.);
#332=VECTOR('',#1202,10.);
#333=VECTOR('',#1203,10.);
#334=VECTOR('',#1206,10.);
#335=VECTOR('',#1207,10.);
#336=VECTOR('',#1208,10.);
#337=VECTOR('',#1211,10.);
#338=VECTOR('',#1212,10.);
#339=VECTOR('',#1213,10.);
#340=VECTOR('',#1216,10.);
#341=VECTOR('',#1217,10.);
#342=VECTOR('',#1222,10.);
#343=VECTOR('',#1223,10.);
#344=VECTOR('',#1230,10.);
#345=VECTOR('',#1231,10.);
#346=VECTOR('',#1232,10.);
#347=VECTOR('',#1235,10.);
#348=VECTOR('',#1236,10.);
#349=VECTOR('',#1237,10.);
#350=VECTOR('',#1240,10.);
#351=VECTOR('',#1243,10.);
#352=VECTOR('',#1246,10.);
#353=VECTOR('',#1247,10.);
#354=VECTOR('',#1248,10.);
#355=VECTOR('',#1251,10.);
#356=VECTOR('',#1252,10.);
#357=VECTOR('',#1257,10.);
#358=VECTOR('',#1258,10.);
#359=VECTOR('',#1267,10.);
#360=VECTOR('',#1268,10.);
#361=VECTOR('',#1269,10.);
#362=VECTOR('',#1272,10.);
#363=VECTOR('',#1273,10.);
#364=VECTOR('',#1274,10.);
#365=VECTOR('',#1275,10.);
#366=VECTOR('',#1276,10.);
#367=VECTOR('',#1277,10.);
#368=VECTOR('',#1278,10.);
#369=VECTOR('',#1279,10.);
#370=VECTOR('',#1282,10.);
#371=VECTOR('',#1283,10.);
#372=VECTOR('',#1286,10.);
#373=VECTOR('',#1301,10.);
#374=VECTOR('',#1306,10.);
#375=VECTOR('',#1309,10.);
#376=VECTOR('',#1312,10.);
#377=VECTOR('',#1317,10.);
#378=VECTOR('',#1324,10.);
#379=VECTOR('',#1325,10.);
#380=VECTOR('',#1328,10.);
#381=VECTOR('',#1329,10.);
#382=VECTOR('',#1332,10.);
#383=VECTOR('',#1335,10.);
#384=VECTOR('',#1338,10.);
#385=VECTOR('',#1341,10.);
#386=VECTOR('',#1350,10.);
#387=VECTOR('',#1355,10.);
#388=VECTOR('',#1374,25.);
#389=VECTOR('',#1375,25.);
#390=VECTOR('',#1386,22.5);
#391=VECTOR('',#1401,10.);
#392=VECTOR('',#1404,5.);
#393=VECTOR('',#1417,10.);
#394=VECTOR('',#1420,5.);
#395=ELLIPSE('',#1050,32.6351822333069,25.);
#396=ELLIPSE('',#1052,32.6351822333069,25.);
#397=ELLIPSE('',#1060,5.44503339401146,5.);
#398=ELLIPSE('',#1061,5.44503339401145,5.);
#399=ELLIPSE('',#1070,5.44503339401145,5.);
#400=ELLIPSE('',#1071,5.44503339401146,5.);
#401=ELLIPSE('',#1081,32.6351822333069,25.);
#402=ELLIPSE('',#1097,32.6351822333069,25.);
#403=ELLIPSE('',#1105,5.32088886237956,5.);
#404=B_SPLINE_CURVE_WITH_KNOTS('',3,(#1430,#1431,#1432,#1433,#1434,#1435,
#1436,#1437,#1438,#1439,#1440,#1441,#1442,#1443,#1444,#1445),
 .UNSPECIFIED.,.F.,.F.,(4,2,2,2,2,2,2,4),(0.782804121406939,1.00667496546473,
1.23054580952252,1.42072450536609,1.61090320120967,1.80108189705325,1.99126059289683,
2.05877366542998),.UNSPECIFIED.);
#405=B_SPLINE_CURVE_WITH_KNOTS('',3,(#1642,#1643,#1644,#1645,#1646,#1647,
#1648,#1649,#1650,#1651,#1652,#1653,#1654,#1655,#1656,#1657),
 .UNSPECIFIED.,.F.,.F.,(4,2,2,2,2,2,2,4),(1.16302956766519,1.23054264019835,
1.42072133604193,1.61090003188551,1.80107872772908,1.99125742357266,2.21512826763045,
2.43899911168824),.UNSPECIFIED.);
#406=B_SPLINE_CURVE_WITH_KNOTS('',3,(#1704,#1705,#1706,#1707,#1708,#1709,
#1710,#1711,#1712,#1713),.UNSPECIFIED.,.F.,.F.,(4,2,2,2,4),(1.51113868430879,
1.70003631225388,1.88893394019898,2.07782098333108,2.26670802646318),
 .UNSPECIFIED.);
#407=B_SPLINE_CURVE_WITH_KNOTS('',3,(#1715,#1716,#1717,#1718,#1719,#1720,
#1721,#1722,#1723,#1724),.UNSPECIFIED.,.F.,.F.,(4,2,2,2,4),(0.755569342154393,
0.944456385286492,1.13334342841859,1.32224105636369,1.51113868430879),
 .UNSPECIFIED.);
#408=B_SPLINE_CURVE_WITH_KNOTS('',3,(#1729,#1730,#1731,#1732,#1733,#1734,
#1735,#1736,#1737,#1738),.UNSPECIFIED.,.F.,.F.,(4,2,2,2,4),(0.,0.188897627945097,
0.377795255890194,0.566682299022294,0.755569342154393),.UNSPECIFIED.);
#409=B_SPLINE_CURVE_WITH_KNOTS('',3,(#1739,#1740,#1741,#1742,#1743,#1744,
#1745,#1746,#1747,#1748),.UNSPECIFIED.,.F.,.F.,(4,2,2,2,4),(2.26670802646318,
2.45559506959528,2.64448211272738,2.83337974067248,3.02227736861757),
 .UNSPECIFIED.);
#410=B_SPLINE_CURVE_WITH_KNOTS('',3,(#1750,#1751,#1752,#1753,#1754,#1755,
#1756,#1757,#1758,#1759,#1760,#1761,#1762,#1763,#1764,#1765,#1766,#1767,
#1768,#1769,#1770,#1771,#1772,#1773,#1774,#1775,#1776,#1777,#1778,#1779,
#1780,#1781,#1782,#1783),.UNSPECIFIED.,.T.,.F.,(4,2,2,2,2,2,2,2,2,2,2,2,
2,2,2,2,4),(0.,0.188897627945097,0.377795255890194,0.566682299022294,0.755569342154393,
0.944456385286492,1.13334342841859,1.32224105636369,1.51113868430879,1.70003631225388,
1.88893394019898,2.07782098333108,2.26670802646318,2.45559506959528,2.64448211272738,
2.83337974067247,3.02227736861757),.UNSPECIFIED.);
#411=CIRCLE('',#1049,25.);
#412=CIRCLE('',#1051,25.);
#413=CIRCLE('',#1076,25.);
#414=CIRCLE('',#1079,5.);
#415=CIRCLE('',#1083,5.);
#416=CIRCLE('',#1085,5.);
#417=CIRCLE('',#1086,5.);
#418=CIRCLE('',#1088,5.);
#419=CIRCLE('',#1090,5.);
#420=CIRCLE('',#1093,5.);
#421=CIRCLE('',#1102,5.);
#422=CIRCLE('',#1104,5.);
#423=CIRCLE('',#1107,5.);
#424=CIRCLE('',#1111,25.);
#425=CIRCLE('',#1115,25.);
#426=CIRCLE('',#1116,25.);
#427=CIRCLE('',#1118,22.5);
#428=CIRCLE('',#1120,22.5);
#429=CIRCLE('',#1123,10.);
#430=CIRCLE('',#1125,10.);
#431=CIRCLE('',#1126,5.);
#432=CIRCLE('',#1130,10.);
#433=CIRCLE('',#1132,10.);
#434=CIRCLE('',#1133,5.);
#435=VERTEX_POINT('',#1426);
#436=VERTEX_POINT('',#1427);
#437=VERTEX_POINT('',#1429);
#438=VERTEX_POINT('',#1446);
#439=VERTEX_POINT('',#1448);
#440=VERTEX_POINT('',#1450);
#441=VERTEX_POINT('',#1452);
#442=VERTEX_POINT('',#1456);
#443=VERTEX_POINT('',#1457);
#444=VERTEX_POINT('',#1459);
#445=VERTEX_POINT('',#1461);
#446=VERTEX_POINT('',#1463);
#447=VERTEX_POINT('',#1465);
#448=VERTEX_POINT('',#1467);
#449=VERTEX_POINT('',#1469);
#450=VERTEX_POINT('',#1473);
#451=VERTEX_POINT('',#1474);
#452=VERTEX_POINT('',#1476);
#453=VERTEX_POINT('',#1478);
#454=VERTEX_POINT('',#1481);
#455=VERTEX_POINT('',#1483);
#456=VERTEX_POINT('',#1486);
#457=VERTEX_POINT('',#1487);
#458=VERTEX_POINT('',#1489);
#459=VERTEX_POINT('',#1491);
#460=VERTEX_POINT('',#1494);
#461=VERTEX_POINT('',#1495);
#462=VERTEX_POINT('',#1497);
#463=VERTEX_POINT('',#1499);
#464=VERTEX_POINT('',#1503);
#465=VERTEX_POINT('',#1504);
#466=VERTEX_POINT('',#1506);
#467=VERTEX_POINT('',#1508);
#468=VERTEX_POINT('',#1510);
#469=VERTEX_POINT('',#1513);
#470=VERTEX_POINT('',#1515);
#471=VERTEX_POINT('',#1519);
#472=VERTEX_POINT('',#1520);
#473=VERTEX_POINT('',#1522);
#474=VERTEX_POINT('',#1525);
#475=VERTEX_POINT('',#1527);
#476=VERTEX_POINT('',#1529);
#477=VERTEX_POINT('',#1533);
#478=VERTEX_POINT('',#1535);
#479=VERTEX_POINT('',#1539);
#480=VERTEX_POINT('',#1541);
#481=VERTEX_POINT('',#1545);
#482=VERTEX_POINT('',#1547);
#483=VERTEX_POINT('',#1550);
#484=VERTEX_POINT('',#1553);
#485=VERTEX_POINT('',#1562);
#486=VERTEX_POINT('',#1564);
#487=VERTEX_POINT('',#1568);
#488=VERTEX_POINT('',#1570);
#489=VERTEX_POINT('',#1578);
#490=VERTEX_POINT('',#1580);
#491=VERTEX_POINT('',#1583);
#492=VERTEX_POINT('',#1586);
#493=VERTEX_POINT('',#1595);
#494=VERTEX_POINT('',#1597);
#495=VERTEX_POINT('',#1599);
#496=VERTEX_POINT('',#1603);
#497=VERTEX_POINT('',#1605);
#498=VERTEX_POINT('',#1607);
#499=VERTEX_POINT('',#1609);
#500=VERTEX_POINT('',#1612);
#501=VERTEX_POINT('',#1614);
#502=VERTEX_POINT('',#1618);
#503=VERTEX_POINT('',#1619);
#504=VERTEX_POINT('',#1621);
#505=VERTEX_POINT('',#1630);
#506=VERTEX_POINT('',#1632);
#507=VERTEX_POINT('',#1636);
#508=VERTEX_POINT('',#1640);
#509=VERTEX_POINT('',#1641);
#510=VERTEX_POINT('',#1667);
#511=VERTEX_POINT('',#1671);
#512=VERTEX_POINT('',#1685);
#513=VERTEX_POINT('',#1699);
#514=VERTEX_POINT('',#1701);
#515=VERTEX_POINT('',#1703);
#516=VERTEX_POINT('',#1714);
#517=VERTEX_POINT('',#1725);
#518=VERTEX_POINT('',#1728);
#519=VERTEX_POINT('',#1749);
#520=VERTEX_POINT('',#1785);
#521=VERTEX_POINT('',#1788);
#522=VERTEX_POINT('',#1793);
#523=VERTEX_POINT('',#1796);
#524=VERTEX_POINT('',#1798);
#525=VERTEX_POINT('',#1805);
#526=VERTEX_POINT('',#1808);
#527=VERTEX_POINT('',#1810);
#528=EDGE_CURVE('',#435,#436,#411,.T.);
#529=EDGE_CURVE('',#437,#435,#404,.F.);
#530=EDGE_CURVE('',#437,#438,#395,.T.);
#531=EDGE_CURVE('',#438,#439,#187,.T.);
#532=EDGE_CURVE('',#439,#440,#412,.T.);
#533=EDGE_CURVE('',#440,#441,#396,.T.);
#534=EDGE_CURVE('',#441,#436,#188,.T.);
#535=EDGE_CURVE('',#442,#443,#189,.T.);
#536=EDGE_CURVE('',#442,#444,#190,.T.);
#537=EDGE_CURVE('',#445,#444,#191,.T.);
#538=EDGE_CURVE('',#446,#445,#192,.T.);
#539=EDGE_CURVE('',#447,#446,#193,.T.);
#540=EDGE_CURVE('',#447,#448,#194,.T.);
#541=EDGE_CURVE('',#449,#448,#195,.T.);
#542=EDGE_CURVE('',#443,#449,#196,.T.);
#543=EDGE_CURVE('',#450,#451,#197,.T.);
#544=EDGE_CURVE('',#452,#450,#198,.T.);
#545=EDGE_CURVE('',#453,#452,#199,.T.);
#546=EDGE_CURVE('',#451,#453,#200,.T.);
#547=EDGE_CURVE('',#454,#446,#201,.T.);
#548=EDGE_CURVE('',#445,#455,#202,.T.);
#549=EDGE_CURVE('',#455,#454,#203,.T.);
#550=EDGE_CURVE('',#456,#457,#204,.T.);
#551=EDGE_CURVE('',#457,#458,#205,.T.);
#552=EDGE_CURVE('',#458,#459,#206,.T.);
#553=EDGE_CURVE('',#459,#456,#207,.T.);
#554=EDGE_CURVE('',#460,#461,#208,.T.);
#555=EDGE_CURVE('',#461,#462,#209,.T.);
#556=EDGE_CURVE('',#462,#463,#210,.T.);
#557=EDGE_CURVE('',#463,#460,#211,.T.);
#558=EDGE_CURVE('',#464,#465,#212,.T.);
#559=EDGE_CURVE('',#464,#466,#213,.T.);
#560=EDGE_CURVE('',#467,#466,#214,.T.);
#561=EDGE_CURVE('',#467,#468,#215,.T.);
#562=EDGE_CURVE('',#458,#468,#216,.T.);
#563=EDGE_CURVE('',#469,#457,#217,.T.);
#564=EDGE_CURVE('',#469,#470,#218,.T.);
#565=EDGE_CURVE('',#465,#470,#219,.T.);
#566=EDGE_CURVE('',#471,#472,#220,.T.);
#567=EDGE_CURVE('',#471,#473,#221,.T.);
#568=EDGE_CURVE('',#473,#460,#222,.T.);
#569=EDGE_CURVE('',#463,#474,#223,.T.);
#570=EDGE_CURVE('',#474,#475,#224,.T.);
#571=EDGE_CURVE('',#476,#475,#225,.T.);
#572=EDGE_CURVE('',#472,#476,#226,.T.);
#573=EDGE_CURVE('',#450,#477,#227,.T.);
#574=EDGE_CURVE('',#477,#478,#228,.T.);
#575=EDGE_CURVE('',#478,#452,#229,.T.);
#576=EDGE_CURVE('',#453,#479,#230,.T.);
#577=EDGE_CURVE('',#479,#480,#231,.T.);
#578=EDGE_CURVE('',#480,#451,#232,.T.);
#579=EDGE_CURVE('',#474,#481,#233,.T.);
#580=EDGE_CURVE('',#481,#482,#234,.T.);
#581=EDGE_CURVE('',#482,#473,#235,.T.);
#582=EDGE_CURVE('',#483,#471,#397,.F.);
#583=EDGE_CURVE('',#483,#478,#236,.T.);
#584=EDGE_CURVE('',#484,#477,#237,.T.);
#585=EDGE_CURVE('',#475,#484,#398,.F.);
#586=EDGE_CURVE('',#482,#461,#238,.T.);
#587=EDGE_CURVE('',#462,#481,#239,.T.);
#588=EDGE_CURVE('',#469,#485,#240,.T.);
#589=EDGE_CURVE('',#486,#485,#241,.T.);
#590=EDGE_CURVE('',#470,#486,#242,.T.);
#591=EDGE_CURVE('',#487,#468,#243,.T.);
#592=EDGE_CURVE('',#467,#488,#244,.T.);
#593=EDGE_CURVE('',#487,#488,#245,.T.);
#594=EDGE_CURVE('',#456,#485,#246,.T.);
#595=EDGE_CURVE('',#487,#459,#247,.T.);
#596=EDGE_CURVE('',#447,#489,#248,.T.);
#597=EDGE_CURVE('',#489,#490,#249,.T.);
#598=EDGE_CURVE('',#490,#444,#250,.T.);
#599=EDGE_CURVE('',#491,#442,#399,.F.);
#600=EDGE_CURVE('',#491,#480,#251,.T.);
#601=EDGE_CURVE('',#492,#479,#252,.T.);
#602=EDGE_CURVE('',#448,#492,#400,.F.);
#603=EDGE_CURVE('',#454,#489,#253,.T.);
#604=EDGE_CURVE('',#490,#455,#254,.T.);
#605=EDGE_CURVE('',#493,#464,#413,.T.);
#606=EDGE_CURVE('',#493,#494,#255,.T.);
#607=EDGE_CURVE('',#495,#494,#256,.T.);
#608=EDGE_CURVE('',#466,#495,#257,.T.);
#609=EDGE_CURVE('',#496,#491,#258,.T.);
#610=EDGE_CURVE('',#496,#497,#259,.T.);
#611=EDGE_CURVE('',#498,#497,#260,.T.);
#612=EDGE_CURVE('',#499,#498,#261,.T.);
#613=EDGE_CURVE('',#499,#488,#262,.T.);
#614=EDGE_CURVE('',#500,#495,#263,.T.);
#615=EDGE_CURVE('',#501,#500,#264,.T.);
#616=EDGE_CURVE('',#484,#501,#265,.T.);
#617=EDGE_CURVE('',#502,#503,#266,.T.);
#618=EDGE_CURVE('',#504,#502,#267,.T.);
#619=EDGE_CURVE('',#500,#504,#414,.T.);
#620=EDGE_CURVE('',#494,#503,#268,.T.);
#621=EDGE_CURVE('',#503,#493,#401,.T.);
#622=EDGE_CURVE('',#501,#476,#415,.F.);
#623=EDGE_CURVE('',#505,#472,#416,.F.);
#624=EDGE_CURVE('',#476,#506,#417,.F.);
#625=EDGE_CURVE('',#506,#505,#269,.T.);
#626=EDGE_CURVE('',#472,#507,#418,.F.);
#627=EDGE_CURVE('',#507,#483,#270,.T.);
#628=EDGE_CURVE('',#508,#509,#405,.T.);
#629=EDGE_CURVE('',#508,#507,#271,.T.);
#630=EDGE_CURVE('',#507,#505,#419,.F.);
#631=EDGE_CURVE('',#505,#509,#272,.T.);
#632=EDGE_CURVE('',#504,#506,#273,.T.);
#633=EDGE_CURVE('',#506,#501,#420,.F.);
#634=EDGE_CURVE('',#440,#510,#274,.T.);
#635=EDGE_CURVE('',#441,#510,#275,.T.);
#636=EDGE_CURVE('',#511,#437,#276,.T.);
#637=EDGE_CURVE('',#492,#511,#277,.T.);
#638=EDGE_CURVE('',#465,#508,#402,.T.);
#639=EDGE_CURVE('',#486,#438,#278,.T.);
#640=EDGE_CURVE('',#499,#439,#279,.T.);
#641=EDGE_CURVE('',#510,#498,#280,.T.);
#642=EDGE_CURVE('',#497,#436,#281,.T.);
#643=EDGE_CURVE('',#511,#449,#421,.F.);
#644=EDGE_CURVE('',#449,#512,#422,.F.);
#645=EDGE_CURVE('',#512,#496,#282,.T.);
#646=EDGE_CURVE('',#443,#496,#403,.T.);
#647=EDGE_CURVE('',#435,#512,#283,.T.);
#648=EDGE_CURVE('',#512,#511,#423,.F.);
#649=EDGE_CURVE('',#502,#509,#424,.T.);
#650=EDGE_CURVE('',#513,#513,#425,.T.);
#651=EDGE_CURVE('',#513,#514,#284,.T.);
#652=EDGE_CURVE('',#515,#514,#406,.T.);
#653=EDGE_CURVE('',#516,#515,#407,.T.);
#654=EDGE_CURVE('',#516,#517,#285,.T.);
#655=EDGE_CURVE('',#517,#517,#426,.T.);
#656=EDGE_CURVE('',#518,#516,#408,.T.);
#657=EDGE_CURVE('',#514,#518,#409,.T.);
#658=EDGE_CURVE('',#519,#519,#410,.T.);
#659=EDGE_CURVE('',#520,#520,#427,.T.);
#660=EDGE_CURVE('',#521,#521,#428,.T.);
#661=EDGE_CURVE('',#521,#520,#286,.T.);
#662=EDGE_CURVE('',#522,#522,#429,.T.);
#663=EDGE_CURVE('',#523,#523,#430,.T.);
#664=EDGE_CURVE('',#524,#524,#431,.T.);
#665=EDGE_CURVE('',#522,#523,#287,.T.);
#666=EDGE_CURVE('',#515,#524,#288,.T.);
#667=EDGE_CURVE('',#525,#525,#432,.T.);
#668=EDGE_CURVE('',#526,#526,#433,.T.);
#669=EDGE_CURVE('',#527,#527,#434,.T.);
#670=EDGE_CURVE('',#525,#526,#289,.T.);
#671=EDGE_CURVE('',#519,#527,#290,.T.);
#672=ORIENTED_EDGE('',*,*,#528,.F.);
#673=ORIENTED_EDGE('',*,*,#529,.F.);
#674=ORIENTED_EDGE('',*,*,#530,.T.);
#675=ORIENTED_EDGE('',*,*,#531,.T.);
#676=ORIENTED_EDGE('',*,*,#532,.T.);
#677=ORIENTED_EDGE('',*,*,#533,.T.);
#678=ORIENTED_EDGE('',*,*,#534,.T.);
#679=ORIENTED_EDGE('',*,*,#535,.F.);
#680=ORIENTED_EDGE('',*,*,#536,.T.);
#681=ORIENTED_EDGE('',*,*,#537,.F.);
#682=ORIENTED_EDGE('',*,*,#538,.F.);
#683=ORIENTED_EDGE('',*,*,#539,.F.);
#684=ORIENTED_EDGE('',*,*,#540,.T.);
#685=ORIENTED_EDGE('',*,*,#541,.F.);
#686=ORIENTED_EDGE('',*,*,#542,.F.);
#687=ORIENTED_EDGE('',*,*,#543,.F.);
#688=ORIENTED_EDGE('',*,*,#544,.F.);
#689=ORIENTED_EDGE('',*,*,#545,.F.);
#690=ORIENTED_EDGE('',*,*,#546,.F.);
#691=ORIENTED_EDGE('',*,*,#547,.T.);
#692=ORIENTED_EDGE('',*,*,#538,.T.);
#693=ORIENTED_EDGE('',*,*,#548,.T.);
#694=ORIENTED_EDGE('',*,*,#549,.T.);
#695=ORIENTED_EDGE('',*,*,#550,.T.);
#696=ORIENTED_EDGE('',*,*,#551,.T.);
#697=ORIENTED_EDGE('',*,*,#552,.T.);
#698=ORIENTED_EDGE('',*,*,#553,.T.);
#699=ORIENTED_EDGE('',*,*,#554,.T.);
#700=ORIENTED_EDGE('',*,*,#555,.T.);
#701=ORIENTED_EDGE('',*,*,#556,.T.);
#702=ORIENTED_EDGE('',*,*,#557,.T.);
#703=ORIENTED_EDGE('',*,*,#558,.F.);
#704=ORIENTED_EDGE('',*,*,#559,.T.);
#705=ORIENTED_EDGE('',*,*,#560,.F.);
#706=ORIENTED_EDGE('',*,*,#561,.T.);
#707=ORIENTED_EDGE('',*,*,#562,.F.);
#708=ORIENTED_EDGE('',*,*,#551,.F.);
#709=ORIENTED_EDGE('',*,*,#563,.F.);
#710=ORIENTED_EDGE('',*,*,#564,.T.);
#711=ORIENTED_EDGE('',*,*,#565,.F.);
#712=ORIENTED_EDGE('',*,*,#566,.F.);
#713=ORIENTED_EDGE('',*,*,#567,.T.);
#714=ORIENTED_EDGE('',*,*,#568,.T.);
#715=ORIENTED_EDGE('',*,*,#557,.F.);
#716=ORIENTED_EDGE('',*,*,#569,.T.);
#717=ORIENTED_EDGE('',*,*,#570,.T.);
#718=ORIENTED_EDGE('',*,*,#571,.F.);
#719=ORIENTED_EDGE('',*,*,#572,.F.);
#720=ORIENTED_EDGE('',*,*,#544,.T.);
#721=ORIENTED_EDGE('',*,*,#573,.T.);
#722=ORIENTED_EDGE('',*,*,#574,.T.);
#723=ORIENTED_EDGE('',*,*,#575,.T.);
#724=ORIENTED_EDGE('',*,*,#546,.T.);
#725=ORIENTED_EDGE('',*,*,#576,.T.);
#726=ORIENTED_EDGE('',*,*,#577,.T.);
#727=ORIENTED_EDGE('',*,*,#578,.T.);
#728=ORIENTED_EDGE('',*,*,#579,.T.);
#729=ORIENTED_EDGE('',*,*,#580,.T.);
#730=ORIENTED_EDGE('',*,*,#581,.T.);
#731=ORIENTED_EDGE('',*,*,#567,.F.);
#732=ORIENTED_EDGE('',*,*,#582,.F.);
#733=ORIENTED_EDGE('',*,*,#583,.T.);
#734=ORIENTED_EDGE('',*,*,#574,.F.);
#735=ORIENTED_EDGE('',*,*,#584,.F.);
#736=ORIENTED_EDGE('',*,*,#585,.F.);
#737=ORIENTED_EDGE('',*,*,#570,.F.);
#738=ORIENTED_EDGE('',*,*,#586,.F.);
#739=ORIENTED_EDGE('',*,*,#580,.F.);
#740=ORIENTED_EDGE('',*,*,#587,.F.);
#741=ORIENTED_EDGE('',*,*,#555,.F.);
#742=ORIENTED_EDGE('',*,*,#568,.F.);
#743=ORIENTED_EDGE('',*,*,#581,.F.);
#744=ORIENTED_EDGE('',*,*,#586,.T.);
#745=ORIENTED_EDGE('',*,*,#554,.F.);
#746=ORIENTED_EDGE('',*,*,#569,.F.);
#747=ORIENTED_EDGE('',*,*,#556,.F.);
#748=ORIENTED_EDGE('',*,*,#587,.T.);
#749=ORIENTED_EDGE('',*,*,#579,.F.);
#750=ORIENTED_EDGE('',*,*,#588,.T.);
#751=ORIENTED_EDGE('',*,*,#589,.F.);
#752=ORIENTED_EDGE('',*,*,#590,.F.);
#753=ORIENTED_EDGE('',*,*,#564,.F.);
#754=ORIENTED_EDGE('',*,*,#591,.T.);
#755=ORIENTED_EDGE('',*,*,#561,.F.);
#756=ORIENTED_EDGE('',*,*,#592,.T.);
#757=ORIENTED_EDGE('',*,*,#593,.F.);
#758=ORIENTED_EDGE('',*,*,#563,.T.);
#759=ORIENTED_EDGE('',*,*,#550,.F.);
#760=ORIENTED_EDGE('',*,*,#594,.T.);
#761=ORIENTED_EDGE('',*,*,#588,.F.);
#762=ORIENTED_EDGE('',*,*,#562,.T.);
#763=ORIENTED_EDGE('',*,*,#591,.F.);
#764=ORIENTED_EDGE('',*,*,#595,.T.);
#765=ORIENTED_EDGE('',*,*,#552,.F.);
#766=ORIENTED_EDGE('',*,*,#596,.T.);
#767=ORIENTED_EDGE('',*,*,#597,.T.);
#768=ORIENTED_EDGE('',*,*,#598,.T.);
#769=ORIENTED_EDGE('',*,*,#536,.F.);
#770=ORIENTED_EDGE('',*,*,#599,.F.);
#771=ORIENTED_EDGE('',*,*,#600,.T.);
#772=ORIENTED_EDGE('',*,*,#577,.F.);
#773=ORIENTED_EDGE('',*,*,#601,.F.);
#774=ORIENTED_EDGE('',*,*,#602,.F.);
#775=ORIENTED_EDGE('',*,*,#540,.F.);
#776=ORIENTED_EDGE('',*,*,#603,.F.);
#777=ORIENTED_EDGE('',*,*,#549,.F.);
#778=ORIENTED_EDGE('',*,*,#604,.F.);
#779=ORIENTED_EDGE('',*,*,#597,.F.);
#780=ORIENTED_EDGE('',*,*,#539,.T.);
#781=ORIENTED_EDGE('',*,*,#547,.F.);
#782=ORIENTED_EDGE('',*,*,#603,.T.);
#783=ORIENTED_EDGE('',*,*,#596,.F.);
#784=ORIENTED_EDGE('',*,*,#537,.T.);
#785=ORIENTED_EDGE('',*,*,#598,.F.);
#786=ORIENTED_EDGE('',*,*,#604,.T.);
#787=ORIENTED_EDGE('',*,*,#548,.F.);
#788=ORIENTED_EDGE('',*,*,#605,.F.);
#789=ORIENTED_EDGE('',*,*,#606,.T.);
#790=ORIENTED_EDGE('',*,*,#607,.F.);
#791=ORIENTED_EDGE('',*,*,#608,.F.);
#792=ORIENTED_EDGE('',*,*,#559,.F.);
#793=ORIENTED_EDGE('',*,*,#609,.F.);
#794=ORIENTED_EDGE('',*,*,#610,.T.);
#795=ORIENTED_EDGE('',*,*,#611,.F.);
#796=ORIENTED_EDGE('',*,*,#612,.F.);
#797=ORIENTED_EDGE('',*,*,#613,.T.);
#798=ORIENTED_EDGE('',*,*,#592,.F.);
#799=ORIENTED_EDGE('',*,*,#560,.T.);
#800=ORIENTED_EDGE('',*,*,#608,.T.);
#801=ORIENTED_EDGE('',*,*,#614,.F.);
#802=ORIENTED_EDGE('',*,*,#615,.F.);
#803=ORIENTED_EDGE('',*,*,#616,.F.);
#804=ORIENTED_EDGE('',*,*,#584,.T.);
#805=ORIENTED_EDGE('',*,*,#573,.F.);
#806=ORIENTED_EDGE('',*,*,#543,.T.);
#807=ORIENTED_EDGE('',*,*,#578,.F.);
#808=ORIENTED_EDGE('',*,*,#600,.F.);
#809=ORIENTED_EDGE('',*,*,#617,.F.);
#810=ORIENTED_EDGE('',*,*,#618,.F.);
#811=ORIENTED_EDGE('',*,*,#619,.F.);
#812=ORIENTED_EDGE('',*,*,#614,.T.);
#813=ORIENTED_EDGE('',*,*,#607,.T.);
#814=ORIENTED_EDGE('',*,*,#620,.T.);
#815=ORIENTED_EDGE('',*,*,#621,.F.);
#816=ORIENTED_EDGE('',*,*,#620,.F.);
#817=ORIENTED_EDGE('',*,*,#606,.F.);
#818=ORIENTED_EDGE('',*,*,#585,.T.);
#819=ORIENTED_EDGE('',*,*,#616,.T.);
#820=ORIENTED_EDGE('',*,*,#622,.T.);
#821=ORIENTED_EDGE('',*,*,#571,.T.);
#822=ORIENTED_EDGE('',*,*,#623,.T.);
#823=ORIENTED_EDGE('',*,*,#572,.T.);
#824=ORIENTED_EDGE('',*,*,#624,.T.);
#825=ORIENTED_EDGE('',*,*,#625,.T.);
#826=ORIENTED_EDGE('',*,*,#582,.T.);
#827=ORIENTED_EDGE('',*,*,#566,.T.);
#828=ORIENTED_EDGE('',*,*,#626,.T.);
#829=ORIENTED_EDGE('',*,*,#627,.T.);
#830=ORIENTED_EDGE('',*,*,#628,.F.);
#831=ORIENTED_EDGE('',*,*,#629,.T.);
#832=ORIENTED_EDGE('',*,*,#630,.T.);
#833=ORIENTED_EDGE('',*,*,#631,.T.);
#834=ORIENTED_EDGE('',*,*,#623,.F.);
#835=ORIENTED_EDGE('',*,*,#630,.F.);
#836=ORIENTED_EDGE('',*,*,#626,.F.);
#837=ORIENTED_EDGE('',*,*,#619,.T.);
#838=ORIENTED_EDGE('',*,*,#632,.T.);
#839=ORIENTED_EDGE('',*,*,#633,.T.);
#840=ORIENTED_EDGE('',*,*,#615,.T.);
#841=ORIENTED_EDGE('',*,*,#622,.F.);
#842=ORIENTED_EDGE('',*,*,#633,.F.);
#843=ORIENTED_EDGE('',*,*,#624,.F.);
#844=ORIENTED_EDGE('',*,*,#533,.F.);
#845=ORIENTED_EDGE('',*,*,#634,.T.);
#846=ORIENTED_EDGE('',*,*,#635,.F.);
#847=ORIENTED_EDGE('',*,*,#530,.F.);
#848=ORIENTED_EDGE('',*,*,#636,.F.);
#849=ORIENTED_EDGE('',*,*,#637,.F.);
#850=ORIENTED_EDGE('',*,*,#601,.T.);
#851=ORIENTED_EDGE('',*,*,#576,.F.);
#852=ORIENTED_EDGE('',*,*,#545,.T.);
#853=ORIENTED_EDGE('',*,*,#575,.F.);
#854=ORIENTED_EDGE('',*,*,#583,.F.);
#855=ORIENTED_EDGE('',*,*,#627,.F.);
#856=ORIENTED_EDGE('',*,*,#629,.F.);
#857=ORIENTED_EDGE('',*,*,#638,.F.);
#858=ORIENTED_EDGE('',*,*,#565,.T.);
#859=ORIENTED_EDGE('',*,*,#590,.T.);
#860=ORIENTED_EDGE('',*,*,#639,.T.);
#861=ORIENTED_EDGE('',*,*,#531,.F.);
#862=ORIENTED_EDGE('',*,*,#639,.F.);
#863=ORIENTED_EDGE('',*,*,#589,.T.);
#864=ORIENTED_EDGE('',*,*,#594,.F.);
#865=ORIENTED_EDGE('',*,*,#553,.F.);
#866=ORIENTED_EDGE('',*,*,#595,.F.);
#867=ORIENTED_EDGE('',*,*,#593,.T.);
#868=ORIENTED_EDGE('',*,*,#613,.F.);
#869=ORIENTED_EDGE('',*,*,#640,.T.);
#870=ORIENTED_EDGE('',*,*,#532,.F.);
#871=ORIENTED_EDGE('',*,*,#640,.F.);
#872=ORIENTED_EDGE('',*,*,#612,.T.);
#873=ORIENTED_EDGE('',*,*,#641,.F.);
#874=ORIENTED_EDGE('',*,*,#634,.F.);
#875=ORIENTED_EDGE('',*,*,#534,.F.);
#876=ORIENTED_EDGE('',*,*,#635,.T.);
#877=ORIENTED_EDGE('',*,*,#641,.T.);
#878=ORIENTED_EDGE('',*,*,#611,.T.);
#879=ORIENTED_EDGE('',*,*,#642,.T.);
#880=ORIENTED_EDGE('',*,*,#602,.T.);
#881=ORIENTED_EDGE('',*,*,#637,.T.);
#882=ORIENTED_EDGE('',*,*,#643,.T.);
#883=ORIENTED_EDGE('',*,*,#541,.T.);
#884=ORIENTED_EDGE('',*,*,#542,.T.);
#885=ORIENTED_EDGE('',*,*,#644,.T.);
#886=ORIENTED_EDGE('',*,*,#645,.T.);
#887=ORIENTED_EDGE('',*,*,#646,.F.);
#888=ORIENTED_EDGE('',*,*,#529,.T.);
#889=ORIENTED_EDGE('',*,*,#647,.T.);
#890=ORIENTED_EDGE('',*,*,#648,.T.);
#891=ORIENTED_EDGE('',*,*,#636,.T.);
#892=ORIENTED_EDGE('',*,*,#643,.F.);
#893=ORIENTED_EDGE('',*,*,#648,.F.);
#894=ORIENTED_EDGE('',*,*,#644,.F.);
#895=ORIENTED_EDGE('',*,*,#609,.T.);
#896=ORIENTED_EDGE('',*,*,#599,.T.);
#897=ORIENTED_EDGE('',*,*,#535,.T.);
#898=ORIENTED_EDGE('',*,*,#646,.T.);
#899=ORIENTED_EDGE('',*,*,#649,.F.);
#900=ORIENTED_EDGE('',*,*,#617,.T.);
#901=ORIENTED_EDGE('',*,*,#621,.T.);
#902=ORIENTED_EDGE('',*,*,#605,.T.);
#903=ORIENTED_EDGE('',*,*,#558,.T.);
#904=ORIENTED_EDGE('',*,*,#638,.T.);
#905=ORIENTED_EDGE('',*,*,#628,.T.);
#906=ORIENTED_EDGE('',*,*,#618,.T.);
#907=ORIENTED_EDGE('',*,*,#649,.T.);
#908=ORIENTED_EDGE('',*,*,#631,.F.);
#909=ORIENTED_EDGE('',*,*,#625,.F.);
#910=ORIENTED_EDGE('',*,*,#632,.F.);
#911=ORIENTED_EDGE('',*,*,#642,.F.);
#912=ORIENTED_EDGE('',*,*,#610,.F.);
#913=ORIENTED_EDGE('',*,*,#645,.F.);
#914=ORIENTED_EDGE('',*,*,#647,.F.);
#915=ORIENTED_EDGE('',*,*,#528,.T.);
#916=ORIENTED_EDGE('',*,*,#650,.F.);
#917=ORIENTED_EDGE('',*,*,#651,.T.);
#918=ORIENTED_EDGE('',*,*,#652,.F.);
#919=ORIENTED_EDGE('',*,*,#653,.F.);
#920=ORIENTED_EDGE('',*,*,#654,.T.);
#921=ORIENTED_EDGE('',*,*,#655,.T.);
#922=ORIENTED_EDGE('',*,*,#654,.F.);
#923=ORIENTED_EDGE('',*,*,#656,.F.);
#924=ORIENTED_EDGE('',*,*,#657,.F.);
#925=ORIENTED_EDGE('',*,*,#651,.F.);
#926=ORIENTED_EDGE('',*,*,#658,.F.);
#927=ORIENTED_EDGE('',*,*,#655,.F.);
#928=ORIENTED_EDGE('',*,*,#659,.T.);
#929=ORIENTED_EDGE('',*,*,#660,.F.);
#930=ORIENTED_EDGE('',*,*,#661,.T.);
#931=ORIENTED_EDGE('',*,*,#659,.F.);
#932=ORIENTED_EDGE('',*,*,#661,.F.);
#933=ORIENTED_EDGE('',*,*,#650,.T.);
#934=ORIENTED_EDGE('',*,*,#660,.T.);
#935=ORIENTED_EDGE('',*,*,#662,.F.);
#936=ORIENTED_EDGE('',*,*,#663,.T.);
#937=ORIENTED_EDGE('',*,*,#664,.F.);
#938=ORIENTED_EDGE('',*,*,#662,.T.);
#939=ORIENTED_EDGE('',*,*,#665,.T.);
#940=ORIENTED_EDGE('',*,*,#663,.F.);
#941=ORIENTED_EDGE('',*,*,#665,.F.);
#942=ORIENTED_EDGE('',*,*,#656,.T.);
#943=ORIENTED_EDGE('',*,*,#653,.T.);
#944=ORIENTED_EDGE('',*,*,#666,.T.);
#945=ORIENTED_EDGE('',*,*,#664,.T.);
#946=ORIENTED_EDGE('',*,*,#666,.F.);
#947=ORIENTED_EDGE('',*,*,#652,.T.);
#948=ORIENTED_EDGE('',*,*,#657,.T.);
#949=ORIENTED_EDGE('',*,*,#667,.F.);
#950=ORIENTED_EDGE('',*,*,#668,.T.);
#951=ORIENTED_EDGE('',*,*,#669,.F.);
#952=ORIENTED_EDGE('',*,*,#667,.T.);
#953=ORIENTED_EDGE('',*,*,#670,.T.);
#954=ORIENTED_EDGE('',*,*,#668,.F.);
#955=ORIENTED_EDGE('',*,*,#670,.F.);
#956=ORIENTED_EDGE('',*,*,#658,.T.);
#957=ORIENTED_EDGE('',*,*,#671,.T.);
#958=ORIENTED_EDGE('',*,*,#669,.T.);
#959=ORIENTED_EDGE('',*,*,#671,.F.);
#960=CYLINDRICAL_SURFACE('',#1048,25.);
#961=CYLINDRICAL_SURFACE('',#1082,5.);
#962=CYLINDRICAL_SURFACE('',#1084,5.);
#963=CYLINDRICAL_SURFACE('',#1087,5.);
#964=CYLINDRICAL_SURFACE('',#1089,5.);
#965=CYLINDRICAL_SURFACE('',#1092,5.);
#966=CYLINDRICAL_SURFACE('',#1101,5.);
#967=CYLINDRICAL_SURFACE('',#1103,5.);
#968=CYLINDRICAL_SURFACE('',#1106,5.);
#969=CYLINDRICAL_SURFACE('',#1109,5.);
#970=CYLINDRICAL_SURFACE('',#1110,25.);
#971=CYLINDRICAL_SURFACE('',#1114,25.);
#972=CYLINDRICAL_SURFACE('',#1119,22.5);
#973=CYLINDRICAL_SURFACE('',#1127,10.);
#974=CYLINDRICAL_SURFACE('',#1128,5.);
#975=CYLINDRICAL_SURFACE('',#1134,10.);
#976=CYLINDRICAL_SURFACE('',#1135,5.);
#977=ADVANCED_FACE('',(#69),#960,.T.);
#978=ADVANCED_FACE('',(#70),#34,.T.);
#979=ADVANCED_FACE('',(#71,#26,#27,#28),#35,.T.);
#980=ADVANCED_FACE('',(#72),#36,.F.);
#981=ADVANCED_FACE('',(#73),#37,.T.);
#982=ADVANCED_FACE('',(#74),#38,.T.);
#983=ADVANCED_FACE('',(#75),#39,.T.);
#984=ADVANCED_FACE('',(#76),#40,.T.);
#985=ADVANCED_FACE('',(#77),#41,.F.);
#986=ADVANCED_FACE('',(#78),#42,.F.);
#987=ADVANCED_FACE('',(#79),#43,.F.);
#988=ADVANCED_FACE('',(#80),#44,.T.);
#989=ADVANCED_FACE('',(#81),#45,.T.);
#990=ADVANCED_FACE('',(#82),#46,.F.);
#991=ADVANCED_FACE('',(#83),#47,.F.);
#992=ADVANCED_FACE('',(#84),#48,.T.);
#993=ADVANCED_FACE('',(#85),#49,.F.);
#994=ADVANCED_FACE('',(#86),#50,.F.);
#995=ADVANCED_FACE('',(#87),#51,.F.);
#996=ADVANCED_FACE('',(#88),#52,.T.);
#997=ADVANCED_FACE('',(#89),#53,.T.);
#998=ADVANCED_FACE('',(#90),#54,.T.);
#999=ADVANCED_FACE('',(#91),#55,.T.);
#1000=ADVANCED_FACE('',(#92),#961,.T.);
#1001=ADVANCED_FACE('',(#93),#962,.T.);
#1002=ADVANCED_FACE('',(#94),#963,.T.);
#1003=ADVANCED_FACE('',(#95),#964,.T.);
#1004=ADVANCED_FACE('',(#96),#23,.T.);
#1005=ADVANCED_FACE('',(#97),#965,.T.);
#1006=ADVANCED_FACE('',(#98),#24,.T.);
#1007=ADVANCED_FACE('',(#99),#56,.T.);
#1008=ADVANCED_FACE('',(#100),#57,.T.);
#1009=ADVANCED_FACE('',(#101),#58,.F.);
#1010=ADVANCED_FACE('',(#102),#59,.T.);
#1011=ADVANCED_FACE('',(#103),#60,.T.);
#1012=ADVANCED_FACE('',(#104),#966,.T.);
#1013=ADVANCED_FACE('',(#105),#967,.T.);
#1014=ADVANCED_FACE('',(#106),#968,.T.);
#1015=ADVANCED_FACE('',(#107),#25,.T.);
#1016=ADVANCED_FACE('',(#108),#969,.T.);
#1017=ADVANCED_FACE('',(#109),#970,.T.);
#1018=ADVANCED_FACE('',(#110),#61,.T.);
#1019=ADVANCED_FACE('',(#111),#62,.T.);
#1020=ADVANCED_FACE('',(#112,#29),#971,.T.);
#1021=ADVANCED_FACE('',(#113,#30),#63,.F.);
#1022=ADVANCED_FACE('',(#114),#972,.F.);
#1023=ADVANCED_FACE('',(#115,#31),#64,.T.);
#1024=ADVANCED_FACE('',(#116),#65,.T.);
#1025=ADVANCED_FACE('',(#117,#32),#66,.F.);
#1026=ADVANCED_FACE('',(#118),#973,.T.);
#1027=ADVANCED_FACE('',(#119),#974,.T.);
#1028=ADVANCED_FACE('',(#120),#67,.T.);
#1029=ADVANCED_FACE('',(#121,#33),#68,.F.);
#1030=ADVANCED_FACE('',(#122),#975,.T.);
#1031=ADVANCED_FACE('',(#123),#976,.T.);
#1032=CLOSED_SHELL('',(#977,#978,#979,#980,#981,#982,#983,#984,#985,#986,
#987,#988,#989,#990,#991,#992,#993,#994,#995,#996,#997,#998,#999,#1000,
#1001,#1002,#1003,#1004,#1005,#1006,#1007,#1008,#1009,#1010,#1011,#1012,
#1013,#1014,#1015,#1016,#1017,#1018,#1019));
#1033=CLOSED_SHELL('',(#1020,#1021,#1022,#1023,#1024,#1025,#1026,#1027,
#1028,#1029,#1030,#1031));
#1034=DERIVED_UNIT_ELEMENT(#1036,1.);
#1035=DERIVED_UNIT_ELEMENT(#1824,-3.);
#1036=(
MASS_UNIT()
NAMED_UNIT(*)
SI_UNIT(.KILO.,.GRAM.)
);
#1037=DERIVED_UNIT((#1034,#1035));
#1038=MEASURE_REPRESENTATION_ITEM('density measure',
POSITIVE_RATIO_MEASURE(7850.),#1037);
#1039=PROPERTY_DEFINITION_REPRESENTATION(#1044,#1041);
#1040=PROPERTY_DEFINITION_REPRESENTATION(#1045,#1042);
#1041=REPRESENTATION('material name',(#1043),#1821);
#1042=REPRESENTATION('density',(#1038),#1821);
#1043=DESCRIPTIVE_REPRESENTATION_ITEM('Stahl','Stahl');
#1044=PROPERTY_DEFINITION('material property','material name',#1836);
#1045=PROPERTY_DEFINITION('material property','density of part',#1836);
#1046=AXIS2_PLACEMENT_3D('',#1423,#1137,#1138);
#1047=AXIS2_PLACEMENT_3D('',#1424,#1139,#1140);
#1048=AXIS2_PLACEMENT_3D('',#1425,#1141,#1142);
#1049=AXIS2_PLACEMENT_3D('',#1428,#1143,#1144);
#1050=AXIS2_PLACEMENT_3D('',#1447,#1145,#1146);
#1051=AXIS2_PLACEMENT_3D('',#1451,#1148,#1149);
#1052=AXIS2_PLACEMENT_3D('',#1453,#1150,#1151);
#1053=AXIS2_PLACEMENT_3D('',#1455,#1153,#1154);
#1054=AXIS2_PLACEMENT_3D('',#1472,#1163,#1164);
#1055=AXIS2_PLACEMENT_3D('',#1502,#1180,#1181);
#1056=AXIS2_PLACEMENT_3D('',#1518,#1190,#1191);
#1057=AXIS2_PLACEMENT_3D('',#1532,#1199,#1200);
#1058=AXIS2_PLACEMENT_3D('',#1538,#1204,#1205);
#1059=AXIS2_PLACEMENT_3D('',#1544,#1209,#1210);
#1060=AXIS2_PLACEMENT_3D('',#1551,#1214,#1215);
#1061=AXIS2_PLACEMENT_3D('',#1555,#1218,#1219);
#1062=AXIS2_PLACEMENT_3D('',#1556,#1220,#1221);
#1063=AXIS2_PLACEMENT_3D('',#1559,#1224,#1225);
#1064=AXIS2_PLACEMENT_3D('',#1560,#1226,#1227);
#1065=AXIS2_PLACEMENT_3D('',#1561,#1228,#1229);
#1066=AXIS2_PLACEMENT_3D('',#1567,#1233,#1234);
#1067=AXIS2_PLACEMENT_3D('',#1573,#1238,#1239);
#1068=AXIS2_PLACEMENT_3D('',#1575,#1241,#1242);
#1069=AXIS2_PLACEMENT_3D('',#1577,#1244,#1245);
#1070=AXIS2_PLACEMENT_3D('',#1584,#1249,#1250);
#1071=AXIS2_PLACEMENT_3D('',#1588,#1253,#1254);
#1072=AXIS2_PLACEMENT_3D('',#1589,#1255,#1256);
#1073=AXIS2_PLACEMENT_3D('',#1592,#1259,#1260);
#1074=AXIS2_PLACEMENT_3D('',#1593,#1261,#1262);
#1075=AXIS2_PLACEMENT_3D('',#1594,#1263,#1264);
#1076=AXIS2_PLACEMENT_3D('',#1596,#1265,#1266);
#1077=AXIS2_PLACEMENT_3D('',#1602,#1270,#1271);
#1078=AXIS2_PLACEMENT_3D('',#1617,#1280,#1281);
#1079=AXIS2_PLACEMENT_3D('',#1623,#1284,#1285);
#1080=AXIS2_PLACEMENT_3D('',#1625,#1287,#1288);
#1081=AXIS2_PLACEMENT_3D('',#1626,#1289,#1290);
#1082=AXIS2_PLACEMENT_3D('',#1627,#1291,#1292);
#1083=AXIS2_PLACEMENT_3D('',#1628,#1293,#1294);
#1084=AXIS2_PLACEMENT_3D('',#1629,#1295,#1296);
#1085=AXIS2_PLACEMENT_3D('',#1631,#1297,#1298);
#1086=AXIS2_PLACEMENT_3D('',#1633,#1299,#1300);
#1087=AXIS2_PLACEMENT_3D('',#1635,#1302,#1303);
#1088=AXIS2_PLACEMENT_3D('',#1637,#1304,#1305);
#1089=AXIS2_PLACEMENT_3D('',#1639,#1307,#1308);
#1090=AXIS2_PLACEMENT_3D('',#1659,#1310,#1311);
#1091=AXIS2_PLACEMENT_3D('',#1661,#1313,#1314);
#1092=AXIS2_PLACEMENT_3D('',#1662,#1315,#1316);
#1093=AXIS2_PLACEMENT_3D('',#1664,#1318,#1319);
#1094=AXIS2_PLACEMENT_3D('',#1665,#1320,#1321);
#1095=AXIS2_PLACEMENT_3D('',#1666,#1322,#1323);
#1096=AXIS2_PLACEMENT_3D('',#1670,#1326,#1327);
#1097=AXIS2_PLACEMENT_3D('',#1674,#1330,#1331);
#1098=AXIS2_PLACEMENT_3D('',#1676,#1333,#1334);
#1099=AXIS2_PLACEMENT_3D('',#1678,#1336,#1337);
#1100=AXIS2_PLACEMENT_3D('',#1680,#1339,#1340);
#1101=AXIS2_PLACEMENT_3D('',#1682,#1342,#1343);
#1102=AXIS2_PLACEMENT_3D('',#1683,#1344,#1345);
#1103=AXIS2_PLACEMENT_3D('',#1684,#1346,#1347);
#1104=AXIS2_PLACEMENT_3D('',#1686,#1348,#1349);
#1105=AXIS2_PLACEMENT_3D('',#1688,#1351,#1352);
#1106=AXIS2_PLACEMENT_3D('',#1689,#1353,#1354);
#1107=AXIS2_PLACEMENT_3D('',#1691,#1356,#1357);
#1108=AXIS2_PLACEMENT_3D('',#1692,#1358,#1359);
#1109=AXIS2_PLACEMENT_3D('',#1693,#1360,#1361);
#1110=AXIS2_PLACEMENT_3D('',#1694,#1362,#1363);
#1111=AXIS2_PLACEMENT_3D('',#1695,#1364,#1365);
#1112=AXIS2_PLACEMENT_3D('',#1696,#1366,#1367);
#1113=AXIS2_PLACEMENT_3D('',#1697,#1368,#1369);
#1114=AXIS2_PLACEMENT_3D('',#1698,#1370,#1371);
#1115=AXIS2_PLACEMENT_3D('',#1700,#1372,#1373);
#1116=AXIS2_PLACEMENT_3D('',#1727,#1376,#1377);
#1117=AXIS2_PLACEMENT_3D('',#1784,#1378,#1379);
#1118=AXIS2_PLACEMENT_3D('',#1786,#1380,#1381);
#1119=AXIS2_PLACEMENT_3D('',#1787,#1382,#1383);
#1120=AXIS2_PLACEMENT_3D('',#1789,#1384,#1385);
#1121=AXIS2_PLACEMENT_3D('',#1791,#1387,#1388);
#1122=AXIS2_PLACEMENT_3D('',#1792,#1389,#1390);
#1123=AXIS2_PLACEMENT_3D('',#1794,#1391,#1392);
#1124=AXIS2_PLACEMENT_3D('',#1795,#1393,#1394);
#1125=AXIS2_PLACEMENT_3D('',#1797,#1395,#1396);
#1126=AXIS2_PLACEMENT_3D('',#1799,#1397,#1398);
#1127=AXIS2_PLACEMENT_3D('',#1800,#1399,#1400);
#1128=AXIS2_PLACEMENT_3D('',#1802,#1402,#1403);
#1129=AXIS2_PLACEMENT_3D('',#1804,#1405,#1406);
#1130=AXIS2_PLACEMENT_3D('',#1806,#1407,#1408);
#1131=AXIS2_PLACEMENT_3D('',#1807,#1409,#1410);
#1132=AXIS2_PLACEMENT_3D('',#1809,#1411,#1412);
#1133=AXIS2_PLACEMENT_3D('',#1811,#1413,#1414);
#1134=AXIS2_PLACEMENT_3D('',#1812,#1415,#1416);
#1135=AXIS2_PLACEMENT_3D('',#1814,#1418,#1419);
#1136=AXIS2_PLACEMENT_3D('',#1816,#1421,#1422);
#1137=DIRECTION('axis',(0.,0.,1.));
#1138=DIRECTION('refdir',(1.,0.,0.));
#1139=DIRECTION('axis',(0.,0.,1.));
#1140=DIRECTION('refdir',(1.,0.,0.));
#1141=DIRECTION('center_axis',(0.,0.446197813109809,0.894934361602025));
#1142=DIRECTION('ref_axis',(1.,0.,0.));
#1143=DIRECTION('center_axis',(0.,0.446197813109809,0.894934361602025));
#1144=DIRECTION('ref_axis',(1.,0.,0.));
#1145=DIRECTION('center_axis',(0.,0.917060074385124,0.398749068925247));
#1146=DIRECTION('ref_axis',(0.,0.398749068925247,-0.917060074385124));
#1147=DIRECTION('',(0.,0.446197813109809,0.894934361602025));
#1148=DIRECTION('center_axis',(0.,0.446197813109807,0.894934361602026));
#1149=DIRECTION('ref_axis',(1.,0.,0.));
#1150=DIRECTION('center_axis',(0.,0.917060074385124,0.398749068925247));
#1151=DIRECTION('ref_axis',(0.,0.398749068925247,-0.917060074385124));
#1152=DIRECTION('',(0.,0.446197813109809,0.894934361602025));
#1153=DIRECTION('center_axis',(-1.,0.,0.));
#1154=DIRECTION('ref_axis',(0.,0.446197813109809,0.894934361602025));
#1155=DIRECTION('',(0.,-0.398749068925244,0.917060074385125));
#1156=DIRECTION('',(0.,-0.99999537934407,-0.00303994909662125));
#1157=DIRECTION('',(0.,-0.00303994909662153,0.99999537934407));
#1158=DIRECTION('',(0.,0.99999537934407,0.0030399490966192));
#1159=DIRECTION('',(0.,0.00303994909662159,-0.99999537934407));
#1160=DIRECTION('',(0.,-0.99999537934407,-0.00303994909662125));
#1161=DIRECTION('',(0.,0.398749068925247,-0.917060074385123));
#1162=DIRECTION('',(0.,-0.894934361602025,0.446197813109809));
#1163=DIRECTION('center_axis',(0.,0.0030399490966192,-0.99999537934407));
#1164=DIRECTION('ref_axis',(0.,0.99999537934407,0.0030399490966192));
#1165=DIRECTION('',(-1.,0.,0.));
#1166=DIRECTION('',(0.,0.99999537934407,0.0030399490966192));
#1167=DIRECTION('',(1.,0.,0.));
#1168=DIRECTION('',(0.,-0.99999537934407,-0.0030399490966192));
#1169=DIRECTION('',(1.,0.,0.));
#1170=DIRECTION('',(-1.,0.,0.));
#1171=DIRECTION('',(0.,-0.99999537934407,-0.0030399490966192));
#1172=DIRECTION('',(1.,0.,0.));
#1173=DIRECTION('',(0.,0.99999537934407,0.0030399490966192));
#1174=DIRECTION('',(-1.,0.,0.));
#1175=DIRECTION('',(0.,-0.99999537934407,-0.0030399490966192));
#1176=DIRECTION('',(1.,0.,0.));
#1177=DIRECTION('',(0.,0.99999537934407,0.0030399490966192));
#1178=DIRECTION('',(-1.,0.,0.));
#1179=DIRECTION('',(0.,-0.99999537934407,-0.0030399490966192));
#1180=DIRECTION('center_axis',(1.,0.,0.));
#1181=DIRECTION('ref_axis',(0.,-0.446197813109809,-0.894934361602025));
#1182=DIRECTION('',(0.,-0.446197813109809,-0.894934361602025));
#1183=DIRECTION('',(0.,0.894934361602026,-0.446197813109807));
#1184=DIRECTION('',(0.,-0.398749068925244,0.917060074385125));
#1185=DIRECTION('',(0.,-0.99999537934407,-0.00303994909662125));
#1186=DIRECTION('',(0.,-0.00303994909662153,0.99999537934407));
#1187=DIRECTION('',(0.,0.00303994909662159,-0.99999537934407));
#1188=DIRECTION('',(0.,-0.99999537934407,-0.00303994909662125));
#1189=DIRECTION('',(0.,0.398749068925247,-0.917060074385123));
#1190=DIRECTION('center_axis',(1.,0.,0.));
#1191=DIRECTION('ref_axis',(0.,-0.446197813109809,-0.894934361602025));
#1192=DIRECTION('',(0.,-0.398749068925247,0.917060074385123));
#1193=DIRECTION('',(0.,0.99999537934407,0.00303994909662125));
#1194=DIRECTION('',(0.,0.00303994909662159,-0.99999537934407));
#1195=DIRECTION('',(0.,-0.00303994909662153,0.99999537934407));
#1196=DIRECTION('',(0.,0.99999537934407,0.00303994909662125));
#1197=DIRECTION('',(0.,0.398749068925244,-0.917060074385125));
#1198=DIRECTION('',(0.,0.894934361602025,-0.446197813109809));
#1199=DIRECTION('center_axis',(1.,0.,0.));
#1200=DIRECTION('ref_axis',(0.,-0.446197813109809,-0.894934361602025));
#1201=DIRECTION('',(0.,-0.398749068925244,0.917060074385125));
#1202=DIRECTION('',(0.,-0.99999537934407,-0.00303994909662125));
#1203=DIRECTION('',(0.,0.398749068925247,-0.917060074385123));
#1204=DIRECTION('center_axis',(-1.,0.,0.));
#1205=DIRECTION('ref_axis',(0.,0.446197813109809,0.894934361602025));
#1206=DIRECTION('',(0.,-0.398749068925247,0.917060074385123));
#1207=DIRECTION('',(0.,0.99999537934407,0.00303994909662125));
#1208=DIRECTION('',(0.,0.398749068925244,-0.917060074385125));
#1209=DIRECTION('center_axis',(0.,-0.00303994909662125,0.99999537934407));
#1210=DIRECTION('ref_axis',(0.,-0.99999537934407,-0.00303994909662125));
#1211=DIRECTION('',(1.,0.,0.));
#1212=DIRECTION('',(0.,-0.99999537934407,-0.00303994909662125));
#1213=DIRECTION('',(-1.,0.,0.));
#1214=DIRECTION('center_axis',(0.,0.00303994909662125,-0.99999537934407));
#1215=DIRECTION('ref_axis',(-9.17534062565694E-16,-0.99999537934407,-0.00303994909662124));
#1216=DIRECTION('',(1.,0.,0.));
#1217=DIRECTION('',(1.,0.,0.));
#1218=DIRECTION('center_axis',(0.,0.00303994909662125,-0.99999537934407));
#1219=DIRECTION('ref_axis',(-7.64611718804746E-16,0.99999537934407,0.00303994909662125));
#1220=DIRECTION('center_axis',(1.,0.,0.));
#1221=DIRECTION('ref_axis',(0.,-0.446197813109809,-0.894934361602025));
#1222=DIRECTION('',(0.,0.00303994909662159,-0.99999537934407));
#1223=DIRECTION('',(0.,-0.00303994909662153,0.99999537934407));
#1224=DIRECTION('center_axis',(0.,-0.99999537934407,-0.00303994909662159));
#1225=DIRECTION('ref_axis',(0.,0.00303994909662159,-0.99999537934407));
#1226=DIRECTION('center_axis',(0.,0.99999537934407,0.00303994909662153));
#1227=DIRECTION('ref_axis',(0.,-0.00303994909662153,0.99999537934407));
#1228=DIRECTION('center_axis',(0.,-0.00303994909662125,0.99999537934407));
#1229=DIRECTION('ref_axis',(0.,0.99999537934407,0.00303994909662125));
#1230=DIRECTION('',(-1.,0.,0.));
#1231=DIRECTION('',(0.,0.99999537934407,0.00303994909662125));
#1232=DIRECTION('',(-1.,0.,0.));
#1233=DIRECTION('center_axis',(0.,-0.00303994909662125,0.99999537934407));
#1234=DIRECTION('ref_axis',(0.,0.99999537934407,0.00303994909662125));
#1235=DIRECTION('',(1.,0.,0.));
#1236=DIRECTION('',(-1.,0.,0.));
#1237=DIRECTION('',(0.,0.99999537934407,0.00303994909662125));
#1238=DIRECTION('center_axis',(0.,-0.99999537934407,-0.00303994909662159));
#1239=DIRECTION('ref_axis',(0.,-0.00303994909662159,0.99999537934407));
#1240=DIRECTION('',(0.,-0.00303994909662159,0.99999537934407));
#1241=DIRECTION('center_axis',(0.,0.99999537934407,0.00303994909662153));
#1242=DIRECTION('ref_axis',(0.,0.00303994909662153,-0.99999537934407));
#1243=DIRECTION('',(0.,0.00303994909662153,-0.99999537934407));
#1244=DIRECTION('center_axis',(0.,-0.00303994909662125,0.99999537934407));
#1245=DIRECTION('ref_axis',(0.,0.99999537934407,0.00303994909662125));
#1246=DIRECTION('',(-1.,0.,0.));
#1247=DIRECTION('',(0.,0.99999537934407,0.00303994909662125));
#1248=DIRECTION('',(1.,0.,0.));
#1249=DIRECTION('center_axis',(0.,0.00303994909662125,-0.99999537934407));
#1250=DIRECTION('ref_axis',(7.64611718804746E-16,0.99999537934407,0.00303994909662125));
#1251=DIRECTION('',(-1.,0.,0.));
#1252=DIRECTION('',(-1.,0.,0.));
#1253=DIRECTION('center_axis',(0.,0.00303994909662125,-0.99999537934407));
#1254=DIRECTION('ref_axis',(9.17534062565694E-16,-0.99999537934407,-0.00303994909662124));
#1255=DIRECTION('center_axis',(-1.,0.,0.));
#1256=DIRECTION('ref_axis',(0.,0.446197813109809,0.894934361602025));
#1257=DIRECTION('',(0.,-0.00303994909662159,0.99999537934407));
#1258=DIRECTION('',(0.,0.00303994909662153,-0.99999537934407));
#1259=DIRECTION('center_axis',(0.,-0.99999537934407,-0.00303994909662159));
#1260=DIRECTION('ref_axis',(0.,-0.00303994909662159,0.99999537934407));
#1261=DIRECTION('center_axis',(0.,0.99999537934407,0.00303994909662153));
#1262=DIRECTION('ref_axis',(0.,0.00303994909662153,-0.99999537934407));
#1263=DIRECTION('center_axis',(0.,-0.446197813109807,-0.894934361602026));
#1264=DIRECTION('ref_axis',(0.,-0.894934361602026,0.446197813109807));
#1265=DIRECTION('center_axis',(0.,0.446197813109807,0.894934361602026));
#1266=DIRECTION('ref_axis',(1.,0.,0.));
#1267=DIRECTION('',(-1.,0.,0.));
#1268=DIRECTION('',(0.,-0.894934361602026,0.446197813109807));
#1269=DIRECTION('',(-1.,0.,0.));
#1270=DIRECTION('center_axis',(0.,0.917060074385125,0.398749068925244));
#1271=DIRECTION('ref_axis',(0.,-0.398749068925244,0.917060074385125));
#1272=DIRECTION('',(0.,0.398749068925244,-0.917060074385125));
#1273=DIRECTION('',(1.,0.,0.));
#1274=DIRECTION('',(0.,-0.398749068925245,0.917060074385125));
#1275=DIRECTION('',(1.,0.,0.));
#1276=DIRECTION('',(0.,0.398749068925244,-0.917060074385125));
#1277=DIRECTION('',(0.,0.398749068925245,-0.917060074385125));
#1278=DIRECTION('',(-1.,0.,0.));
#1279=DIRECTION('',(0.,-0.398749068925244,0.917060074385125));
#1280=DIRECTION('center_axis',(-1.,0.,0.));
#1281=DIRECTION('ref_axis',(0.,0.,1.));
#1282=DIRECTION('',(0.,-0.446197813109809,-0.894934361602025));
#1283=DIRECTION('',(0.,-0.894934361602025,0.446197813109809));
#1284=DIRECTION('center_axis',(1.,0.,0.));
#1285=DIRECTION('ref_axis',(0.,0.725374371012288,0.688354575693754));
#1286=DIRECTION('',(0.,-0.398749068925247,0.917060074385123));
#1287=DIRECTION('center_axis',(0.,-0.917060074385124,-0.398749068925247));
#1288=DIRECTION('ref_axis',(0.,0.398749068925247,-0.917060074385123));
#1289=DIRECTION('center_axis',(0.,0.917060074385124,0.398749068925247));
#1290=DIRECTION('ref_axis',(0.,0.398749068925247,-0.917060074385124));
#1291=DIRECTION('center_axis',(0.,-0.398749068925244,0.917060074385125));
#1292=DIRECTION('ref_axis',(0.707106781186547,0.648459397353161,0.281958170628863));
#1293=DIRECTION('center_axis',(-3.61221218844476E-15,-0.398749068925245,
0.917060074385125));
#1294=DIRECTION('ref_axis',(0.,0.917060074385125,0.398749068925245));
#1295=DIRECTION('center_axis',(0.,-0.894934361602025,0.446197813109809));
#1296=DIRECTION('ref_axis',(0.707106781186547,0.315509499400553,0.632814155805646));
#1297=DIRECTION('center_axis',(0.,-0.894934361602025,0.446197813109808));
#1298=DIRECTION('ref_axis',(0.,0.446197813109808,0.894934361602025));
#1299=DIRECTION('center_axis',(0.,0.894934361602024,-0.446197813109811));
#1300=DIRECTION('ref_axis',(1.,0.,0.));
#1301=DIRECTION('',(0.,-0.894934361602025,0.446197813109809));
#1302=DIRECTION('center_axis',(0.,0.398749068925247,-0.917060074385124));
#1303=DIRECTION('ref_axis',(0.707106781186547,-0.648459397353161,-0.281958170628865));
#1304=DIRECTION('center_axis',(0.,-0.398749068925248,0.917060074385123));
#1305=DIRECTION('ref_axis',(1.,0.,0.));
#1306=DIRECTION('',(0.,0.398749068925247,-0.917060074385123));
#1307=DIRECTION('center_axis',(1.,0.,0.));
#1308=DIRECTION('ref_axis',(0.,-0.688354575693755,0.725374371012287));
#1309=DIRECTION('',(1.,0.,0.));
#1310=DIRECTION('center_axis',(1.,0.,0.));
#1311=DIRECTION('ref_axis',(0.,-0.917060074385123,-0.398749068925248));
#1312=DIRECTION('',(-1.,0.,0.));
#1313=DIRECTION('center_axis',(0.370518347188287,-0.174463106801069,-0.912293142998554));
#1314=DIRECTION('ref_axis',(0.825372739211861,-0.388636874380298,0.409537814173271));
#1315=DIRECTION('center_axis',(1.,0.,0.));
#1316=DIRECTION('ref_axis',(0.,0.725374371012288,0.688354575693754));
#1317=DIRECTION('',(1.,0.,0.));
#1318=DIRECTION('center_axis',(1.,0.,0.));
#1319=DIRECTION('ref_axis',(0.,0.446197813109809,0.894934361602025));
#1320=DIRECTION('center_axis',(0.,0.,1.));
#1321=DIRECTION('ref_axis',(1.,0.,0.));
#1322=DIRECTION('center_axis',(0.,-0.917060074385124,-0.398749068925247));
#1323=DIRECTION('ref_axis',(0.,0.398749068925247,-0.917060074385123));
#1324=DIRECTION('',(1.,0.,0.));
#1325=DIRECTION('',(0.,0.398749068925247,-0.917060074385123));
#1326=DIRECTION('center_axis',(0.,-0.917060074385124,-0.398749068925247));
#1327=DIRECTION('ref_axis',(0.,0.398749068925247,-0.917060074385123));
#1328=DIRECTION('',(1.,0.,0.));
#1329=DIRECTION('',(0.,-0.398749068925247,0.917060074385123));
#1330=DIRECTION('center_axis',(0.,0.917060074385124,0.398749068925247));
#1331=DIRECTION('ref_axis',(0.,0.398749068925247,-0.917060074385124));
#1332=DIRECTION('',(0.,-0.398749068925247,0.917060074385123));
#1333=DIRECTION('center_axis',(-1.,0.,0.));
#1334=DIRECTION('ref_axis',(0.,0.446197813109809,0.894934361602025));
#1335=DIRECTION('',(0.,-0.894934361602026,0.446197813109807));
#1336=DIRECTION('center_axis',(0.,-0.446197813109807,-0.894934361602026));
#1337=DIRECTION('ref_axis',(0.,0.894934361602026,-0.446197813109807));
#1338=DIRECTION('',(0.,0.894934361602026,-0.446197813109807));
#1339=DIRECTION('center_axis',(1.,0.,0.));
#1340=DIRECTION('ref_axis',(0.,0.,-1.));
#1341=DIRECTION('',(0.,-0.894934361602026,0.446197813109808));
#1342=DIRECTION('center_axis',(0.,-0.398749068925247,0.917060074385124));
#1343=DIRECTION('ref_axis',(-0.707106781186547,-0.648459397353161,-0.281958170628865));
#1344=DIRECTION('center_axis',(0.,-0.398749068925248,0.917060074385123));
#1345=DIRECTION('ref_axis',(0.,-0.917060074385123,-0.398749068925248));
#1346=DIRECTION('center_axis',(0.,0.894934361602025,-0.446197813109809));
#1347=DIRECTION('ref_axis',(-0.707106781186547,0.315509499400553,0.632814155805646));
#1348=DIRECTION('center_axis',(0.,-0.894934361602025,0.446197813109808));
#1349=DIRECTION('ref_axis',(-1.,0.,0.));
#1350=DIRECTION('',(0.,0.894934361602025,-0.446197813109809));
#1351=DIRECTION('center_axis',(0.,0.688354575693754,-0.725374371012288));
#1352=DIRECTION('ref_axis',(0.,0.725374371012288,0.688354575693754));
#1353=DIRECTION('center_axis',(1.,0.,0.));
#1354=DIRECTION('ref_axis',(0.,-0.688354575693755,0.725374371012287));
#1355=DIRECTION('',(-1.,0.,0.));
#1356=DIRECTION('center_axis',(-1.,0.,0.));
#1357=DIRECTION('ref_axis',(0.,0.446197813109809,0.894934361602025));
#1358=DIRECTION('center_axis',(-0.370518347188286,-0.174463106801069,-0.912293142998554));
#1359=DIRECTION('ref_axis',(-0.825372739211861,-0.388636874380299,0.409537814173271));
#1360=DIRECTION('center_axis',(0.,0.398749068925244,-0.917060074385125));
#1361=DIRECTION('ref_axis',(-0.707106781186547,0.648459397353161,0.281958170628863));
#1362=DIRECTION('center_axis',(0.,0.446197813109809,0.894934361602025));
#1363=DIRECTION('ref_axis',(1.,0.,0.));
#1364=DIRECTION('center_axis',(0.,0.446197813109809,0.894934361602025));
#1365=DIRECTION('ref_axis',(1.,0.,0.));
#1366=DIRECTION('center_axis',(0.,0.446197813109809,0.894934361602025));
#1367=DIRECTION('ref_axis',(1.,0.,0.));
#1368=DIRECTION('center_axis',(0.,0.446197813109809,0.894934361602025));
#1369=DIRECTION('ref_axis',(1.,0.,0.));
#1370=DIRECTION('center_axis',(0.,0.446197813109809,0.894934361602025));
#1371=DIRECTION('ref_axis',(1.,0.,0.));
#1372=DIRECTION('center_axis',(0.,0.446197813109809,0.894934361602025));
#1373=DIRECTION('ref_axis',(1.,0.,0.));
#1374=DIRECTION('',(0.,-0.446197813109809,-0.894934361602025));
#1375=DIRECTION('',(0.,-0.446197813109809,-0.894934361602025));
#1376=DIRECTION('center_axis',(0.,0.446197813109809,0.894934361602025));
#1377=DIRECTION('ref_axis',(1.,0.,0.));
#1378=DIRECTION('center_axis',(0.,0.446197813109809,0.894934361602025));
#1379=DIRECTION('ref_axis',(0.,-0.894934361602025,0.446197813109809));
#1380=DIRECTION('center_axis',(0.,0.446197813109809,0.894934361602025));
#1381=DIRECTION('ref_axis',(1.,0.,0.));
#1382=DIRECTION('center_axis',(0.,0.446197813109809,0.894934361602025));
#1383=DIRECTION('ref_axis',(1.,0.,0.));
#1384=DIRECTION('center_axis',(0.,-0.446197813109809,-0.894934361602025));
#1385=DIRECTION('ref_axis',(1.,0.,0.));
#1386=DIRECTION('',(0.,-0.446197813109809,-0.894934361602025));
#1387=DIRECTION('center_axis',(0.,0.446197813109809,0.894934361602025));
#1388=DIRECTION('ref_axis',(1.,0.,0.));
#1389=DIRECTION('center_axis',(-1.,-5.46434723611476E-17,-1.0959785013829E-16));
#1390=DIRECTION('ref_axis',(0.,0.894934361602025,-0.446197813109809));
#1391=DIRECTION('center_axis',(1.,5.46434723611476E-17,1.0959785013829E-16));
#1392=DIRECTION('ref_axis',(0.,0.894934361602025,-0.446197813109809));
#1393=DIRECTION('center_axis',(-1.,-5.46434723611476E-17,-1.0959785013829E-16));
#1394=DIRECTION('ref_axis',(0.,0.894934361602025,-0.446197813109809));
#1395=DIRECTION('center_axis',(1.,5.46434723611476E-17,1.0959785013829E-16));
#1396=DIRECTION('ref_axis',(0.,0.894934361602025,-0.446197813109809));
#1397=DIRECTION('center_axis',(1.,5.46434723611476E-17,1.0959785013829E-16));
#1398=DIRECTION('ref_axis',(0.,0.894934361602025,-0.446197813109809));
#1399=DIRECTION('center_axis',(-1.,-5.46434723611476E-17,-1.0959785013829E-16));
#1400=DIRECTION('ref_axis',(0.,0.894934361602025,-0.446197813109809));
#1401=DIRECTION('',(1.,5.46434723611476E-17,1.0959785013829E-16));
#1402=DIRECTION('center_axis',(1.,5.46434723611476E-17,1.0959785013829E-16));
#1403=DIRECTION('ref_axis',(0.,0.894934361602025,-0.446197813109809));
#1404=DIRECTION('',(-1.,-5.46434723611476E-17,-1.0959785013829E-16));
#1405=DIRECTION('center_axis',(1.,0.,0.));
#1406=DIRECTION('ref_axis',(0.,0.894934361602025,-0.446197813109809));
#1407=DIRECTION('center_axis',(-1.,0.,0.));
#1408=DIRECTION('ref_axis',(0.,0.894934361602025,-0.446197813109809));
#1409=DIRECTION('center_axis',(1.,0.,0.));
#1410=DIRECTION('ref_axis',(0.,0.894934361602025,-0.446197813109809));
#1411=DIRECTION('center_axis',(-1.,0.,0.));
#1412=DIRECTION('ref_axis',(0.,0.894934361602025,-0.446197813109809));
#1413=DIRECTION('center_axis',(-1.,0.,0.));
#1414=DIRECTION('ref_axis',(0.,0.894934361602025,-0.446197813109809));
#1415=DIRECTION('center_axis',(1.,0.,0.));
#1416=DIRECTION('ref_axis',(0.,0.894934361602025,-0.446197813109809));
#1417=DIRECTION('',(-1.,0.,0.));
#1418=DIRECTION('center_axis',(-1.,0.,0.));
#1419=DIRECTION('ref_axis',(0.,0.894934361602025,-0.446197813109809));
#1420=DIRECTION('',(1.,0.,0.));
#1421=DIRECTION('',(0.,0.,1.));
#1422=DIRECTION('',(1.,0.,0.));
#1423=CARTESIAN_POINT('',(0.,0.,0.));
#1424=CARTESIAN_POINT('',(0.,0.,0.));
#1425=CARTESIAN_POINT('Origin',(0.,25.4838212659686,-17.7740805468176));
#1426=CARTESIAN_POINT('',(-22.319353722797,2.01858758460172,-39.5967581477794));
#1427=CARTESIAN_POINT('',(-12.,-7.52955598338994,-34.8362293737251));
#1428=CARTESIAN_POINT('Origin',(0.,12.0978868726743,-44.6221113948784));
#1429=CARTESIAN_POINT('',(-20.3820870510966,-4.79770185287294,-46.0651753004157));
#1430=CARTESIAN_POINT('Ctrl Pts',(-22.319353722797,2.01858758460172,-39.5967581477793));
#1431=CARTESIAN_POINT('Ctrl Pts',(-21.983170968553,1.42236410913246,-39.2994920886207));
#1432=CARTESIAN_POINT('Ctrl Pts',(-21.5914123558457,0.737810294156586,-39.1141785687374));
#1433=CARTESIAN_POINT('Ctrl Pts',(-20.7989580388241,-0.641971970305082,
-39.0422439074206));
#1434=CARTESIAN_POINT('Ctrl Pts',(-20.399145340554,-1.33764607319084,-39.1544515671606));
#1435=CARTESIAN_POINT('Ctrl Pts',(-19.7746363989647,-2.49070883623017,-39.5849055609027));
#1436=CARTESIAN_POINT('Ctrl Pts',(-19.4941319025628,-3.03986031999137,-39.8986510403893));
#1437=CARTESIAN_POINT('Ctrl Pts',(-19.0987244030203,-3.99664352602111,-40.7418484813535));
#1438=CARTESIAN_POINT('Ctrl Pts',(-18.9875596529955,-4.40421556167252,-41.2731160577235));
#1439=CARTESIAN_POINT('Ctrl Pts',(-18.9875596529955,-4.96993101624238,-42.4077657227574));
#1440=CARTESIAN_POINT('Ctrl Pts',(-19.0987244030203,-5.14893719399655,-43.0529920321039));
#1441=CARTESIAN_POINT('Ctrl Pts',(-19.4941319025628,-5.24653810504332,-44.3245619633118));
#1442=CARTESIAN_POINT('Ctrl Pts',(-19.7746363989647,-5.16661877316437,-44.9519505816397));
#1443=CARTESIAN_POINT('Ctrl Pts',(-20.163311661262,-4.94869323067486,-45.686303262168));
#1444=CARTESIAN_POINT('Ctrl Pts',(-20.2707626824996,-4.87928857874276,-45.8775386769706));
#1445=CARTESIAN_POINT('Ctrl Pts',(-20.3820870510966,-4.79770185287294,-46.0651753004157));
#1446=CARTESIAN_POINT('',(-16.,-7.2612772858589,-40.3993397013087));
#1447=CARTESIAN_POINT('Origin',(0.,2.7377763623606,-63.3955887135817));
#1448=CARTESIAN_POINT('',(-16.,-6.87803208482119,-39.6306687458477));
#1449=CARTESIAN_POINT('',(-16.,8.29269356091232,-9.2029004513788));
#1450=CARTESIAN_POINT('',(-14.6842191658754,-7.79409845751466,-39.1739349006665));
#1451=CARTESIAN_POINT('Origin',(0.,10.3130956202351,-48.2018488412865));
#1452=CARTESIAN_POINT('',(-12.,-8.67833649900952,-37.1403266309517));
#1453=CARTESIAN_POINT('Origin',(0.,2.7377763623606,-63.3955887135817));
#1454=CARTESIAN_POINT('',(-12.,5.85637840990433,-7.98819852566429));
#1455=CARTESIAN_POINT('Origin',(-31.,13.9547677269663,-63.9850243859169));
#1456=CARTESIAN_POINT('',(-31.,38.4479697839618,-77.4621097121433));
#1457=CARTESIAN_POINT('',(-31.,30.6116095009501,-59.4397149178005));
#1458=CARTESIAN_POINT('',(-31.,35.1178356485759,-69.803325539579));
#1459=CARTESIAN_POINT('',(-31.,28.8930473281864,-77.4911563242454));
#1460=CARTESIAN_POINT('',(-31.,11.4445516405615,-77.5441991080408));
#1461=CARTESIAN_POINT('',(-31.,28.9021671754762,-80.4911424622776));
#1462=CARTESIAN_POINT('',(-31.,28.9021671754762,-80.4911424622776));
#1463=CARTESIAN_POINT('',(-31.,25.7021819615752,-80.5008702993868));
#1464=CARTESIAN_POINT('',(-31.,18.749017753754,-80.5220076623075));
#1465=CARTESIAN_POINT('',(-31.,25.6930621142853,-77.5008841613546));
#1466=CARTESIAN_POINT('',(-31.,25.6930621142853,-77.5008841613546));
#1467=CARTESIAN_POINT('',(-31.,14.3381479756906,-77.5354026818306));
#1468=CARTESIAN_POINT('',(-31.,11.4445516405615,-77.5441991080408));
#1469=CARTESIAN_POINT('',(-31.,-0.212401480947327,-44.0714299557895));
#1470=CARTESIAN_POINT('',(-31.,1.8159793719023,-48.7363865431724));
#1471=CARTESIAN_POINT('',(-31.,25.6631497124525,-56.9725038790637));
#1472=CARTESIAN_POINT('Origin',(0.,10.1958609389823,-80.5480089437828));
#1473=CARTESIAN_POINT('',(51.,45.1956992160248,-80.4416107254011));
#1474=CARTESIAN_POINT('',(-51.,45.1956992160248,-80.4416107254011));
#1475=CARTESIAN_POINT('',(0.,45.1956992160248,-80.4416107254011));
#1476=CARTESIAN_POINT('',(51.,10.1958609389823,-80.5480089437828));
#1477=CARTESIAN_POINT('',(51.,10.1958609389823,-80.5480089437828));
#1478=CARTESIAN_POINT('',(-51.,10.1958609389823,-80.5480089437828));
#1479=CARTESIAN_POINT('',(0.,10.1958609389823,-80.5480089437828));
#1480=CARTESIAN_POINT('',(-51.,10.1958609389823,-80.5480089437828));
#1481=CARTESIAN_POINT('',(-47.,25.7021819615752,-80.5008702993868));
#1482=CARTESIAN_POINT('',(-15.5,25.7021819615752,-80.5008702993868));
#1483=CARTESIAN_POINT('',(-47.,28.9021671754762,-80.4911424622776));
#1484=CARTESIAN_POINT('',(-15.5,28.9021671754762,-80.4911424622776));
#1485=CARTESIAN_POINT('',(-47.,18.749017753754,-80.5220076623075));
#1486=CARTESIAN_POINT('',(-16.,25.7021819615752,-80.5008702993868));
#1487=CARTESIAN_POINT('',(16.,25.7021819615752,-80.5008702993868));
#1488=CARTESIAN_POINT('',(8.,25.7021819615752,-80.5008702993868));
#1489=CARTESIAN_POINT('',(16.,28.9021671754762,-80.4911424622776));
#1490=CARTESIAN_POINT('',(16.,18.749017753754,-80.5220076623075));
#1491=CARTESIAN_POINT('',(-16.,28.9021671754762,-80.4911424622776));
#1492=CARTESIAN_POINT('',(8.,28.9021671754762,-80.4911424622776));
#1493=CARTESIAN_POINT('',(-16.,18.749017753754,-80.5220076623075));
#1494=CARTESIAN_POINT('',(31.,25.7021819615752,-80.5008702993868));
#1495=CARTESIAN_POINT('',(47.,25.7021819615752,-80.5008702993868));
#1496=CARTESIAN_POINT('',(15.5,25.7021819615752,-80.5008702993868));
#1497=CARTESIAN_POINT('',(47.,28.9021671754762,-80.4911424622776));
#1498=CARTESIAN_POINT('',(47.,18.749017753754,-80.5220076623075));
#1499=CARTESIAN_POINT('',(31.,28.9021671754762,-80.4911424622776));
#1500=CARTESIAN_POINT('',(15.5,28.9021671754762,-80.4911424622776));
#1501=CARTESIAN_POINT('',(31.,18.749017753754,-80.5220076623075));
#1502=CARTESIAN_POINT('Origin',(16.,13.9547677269663,-63.9850243859169));
#1503=CARTESIAN_POINT('',(16.,-6.87803208482119,-39.6306687458477));
#1504=CARTESIAN_POINT('',(16.,-7.2612772858589,-40.3993397013087));
#1505=CARTESIAN_POINT('',(16.,8.29269356091232,-9.2029004513788));
#1506=CARTESIAN_POINT('',(16.,36.9526196225865,-61.4838255561568));
#1507=CARTESIAN_POINT('',(16.,28.2424300067127,-57.1410852110242));
#1508=CARTESIAN_POINT('',(16.,43.8929780183474,-77.4455570877961));
#1509=CARTESIAN_POINT('',(16.,39.7031360205016,-67.8095801949528));
#1510=CARTESIAN_POINT('',(16.,28.8930473281864,-77.4911563242454));
#1511=CARTESIAN_POINT('',(16.,11.4445516405615,-77.5441991080408));
#1512=CARTESIAN_POINT('',(16.,28.9021671754762,-80.4911424622776));
#1513=CARTESIAN_POINT('',(16.,25.6930621142853,-77.5008841613546));
#1514=CARTESIAN_POINT('',(16.,25.6930621142853,-77.5008841613546));
#1515=CARTESIAN_POINT('',(16.,8.89313974130497,-77.5519553061778));
#1516=CARTESIAN_POINT('',(16.,11.4445516405615,-77.5441991080408));
#1517=CARTESIAN_POINT('',(16.,-2.76932100002332,-50.7301318877986));
#1518=CARTESIAN_POINT('Origin',(31.,13.9547677269663,-63.9850243859169));
#1519=CARTESIAN_POINT('',(31.,14.3381479756906,-77.5354026818306));
#1520=CARTESIAN_POINT('',(31.,-0.212401480947326,-44.0714299557895));
#1521=CARTESIAN_POINT('',(31.,1.8159793719023,-48.7363865431724));
#1522=CARTESIAN_POINT('',(31.,25.6930621142853,-77.5008841613546));
#1523=CARTESIAN_POINT('',(31.,28.9444707790827,-77.49099999885));
#1524=CARTESIAN_POINT('',(31.,25.6930621142853,-77.5008841613546));
#1525=CARTESIAN_POINT('',(31.,28.8930473281864,-77.4911563242454));
#1526=CARTESIAN_POINT('',(31.,28.9021671754762,-80.4911424622776));
#1527=CARTESIAN_POINT('',(31.,38.4479697839618,-77.4621097121433));
#1528=CARTESIAN_POINT('',(31.,28.9444707790827,-77.49099999885));
#1529=CARTESIAN_POINT('',(31.,30.6116095009501,-59.4397149178005));
#1530=CARTESIAN_POINT('',(31.,35.1178356485759,-69.803325539579));
#1531=CARTESIAN_POINT('',(31.,25.6631497124525,-56.9725038790637));
#1532=CARTESIAN_POINT('Origin',(51.,27.0444194786649,-78.9967830157894));
#1533=CARTESIAN_POINT('',(51.,43.8929780183474,-77.4455570877961));
#1534=CARTESIAN_POINT('',(51.,45.1956992160248,-80.4416107254011));
#1535=CARTESIAN_POINT('',(51.,8.89313974130497,-77.5519553061778));
#1536=CARTESIAN_POINT('',(51.,8.89313974130497,-77.5519553061778));
#1537=CARTESIAN_POINT('',(51.,-10.2754721673763,-33.4671660671332));
#1538=CARTESIAN_POINT('Origin',(-51.,27.0444194786649,-78.9967830157894));
#1539=CARTESIAN_POINT('',(-51.,8.89313974130497,-77.5519553061778));
#1540=CARTESIAN_POINT('',(-51.,-10.2754721673763,-33.4671660671332));
#1541=CARTESIAN_POINT('',(-51.,43.8929780183474,-77.4455570877961));
#1542=CARTESIAN_POINT('',(-51.,8.89313974130497,-77.5519553061778));
#1543=CARTESIAN_POINT('',(-51.,45.1956992160248,-80.4416107254011));
#1544=CARTESIAN_POINT('Origin',(31.,43.8929780183474,-77.4455570877961));
#1545=CARTESIAN_POINT('',(47.,28.8930473281864,-77.4911563242454));
#1546=CARTESIAN_POINT('',(31.,28.8930473281864,-77.4911563242454));
#1547=CARTESIAN_POINT('',(47.,25.6930621142853,-77.5008841613546));
#1548=CARTESIAN_POINT('',(47.,35.5930163697916,-77.470788665298));
#1549=CARTESIAN_POINT('',(31.,25.6930621142853,-77.5008841613546));
#1550=CARTESIAN_POINT('',(26.,8.89313974130497,-77.5519553061778));
#1551=CARTESIAN_POINT('Origin',(26.,14.3381479756906,-77.5354026818306));
#1552=CARTESIAN_POINT('',(31.,8.89313974130497,-77.5519553061778));
#1553=CARTESIAN_POINT('',(26.,43.8929780183474,-77.4455570877961));
#1554=CARTESIAN_POINT('',(31.,43.8929780183474,-77.4455570877961));
#1555=CARTESIAN_POINT('Origin',(26.,38.4479697839618,-77.4621097121433));
#1556=CARTESIAN_POINT('Origin',(47.,27.2976146448808,-78.9960133118161));
#1557=CARTESIAN_POINT('',(47.,25.6930621142853,-77.5008841613546));
#1558=CARTESIAN_POINT('',(47.,28.9021671754762,-80.4911424622776));
#1559=CARTESIAN_POINT('Origin',(31.,25.6930621142853,-77.5008841613546));
#1560=CARTESIAN_POINT('Origin',(31.,28.9021671754762,-80.4911424622776));
#1561=CARTESIAN_POINT('Origin',(31.,8.89313974130497,-77.5519553061778));
#1562=CARTESIAN_POINT('',(-16.,25.6930621142853,-77.5008841613546));
#1563=CARTESIAN_POINT('',(23.5,25.6930621142853,-77.5008841613546));
#1564=CARTESIAN_POINT('',(-16.,8.89313974130497,-77.5519553061778));
#1565=CARTESIAN_POINT('',(-16.,11.4445516405615,-77.5441991080408));
#1566=CARTESIAN_POINT('',(31.,8.89313974130497,-77.5519553061778));
#1567=CARTESIAN_POINT('Origin',(31.,8.89313974130497,-77.5519553061778));
#1568=CARTESIAN_POINT('',(-16.,28.8930473281864,-77.4911563242454));
#1569=CARTESIAN_POINT('',(23.5,28.8930473281864,-77.4911563242454));
#1570=CARTESIAN_POINT('',(-16.,43.8929780183474,-77.4455570877961));
#1571=CARTESIAN_POINT('',(31.,43.8929780183474,-77.4455570877961));
#1572=CARTESIAN_POINT('',(-16.,11.4445516405615,-77.5441991080408));
#1573=CARTESIAN_POINT('Origin',(16.,25.7021819615752,-80.5008702993868));
#1574=CARTESIAN_POINT('',(-16.,25.6930621142853,-77.5008841613546));
#1575=CARTESIAN_POINT('Origin',(16.,28.8930473281864,-77.4911563242454));
#1576=CARTESIAN_POINT('',(-16.,28.9021671754762,-80.4911424622776));
#1577=CARTESIAN_POINT('Origin',(-31.,8.89313974130497,-77.5519553061778));
#1578=CARTESIAN_POINT('',(-47.,25.6930621142853,-77.5008841613546));
#1579=CARTESIAN_POINT('',(-31.,25.6930621142853,-77.5008841613546));
#1580=CARTESIAN_POINT('',(-47.,28.8930473281864,-77.4911563242454));
#1581=CARTESIAN_POINT('',(-47.,18.0930972312704,-77.5239877744889));
#1582=CARTESIAN_POINT('',(-31.,28.8930473281864,-77.4911563242454));
#1583=CARTESIAN_POINT('',(-26.,43.8929780183474,-77.4455570877961));
#1584=CARTESIAN_POINT('Origin',(-26.,38.4479697839618,-77.4621097121433));
#1585=CARTESIAN_POINT('',(-31.,43.8929780183474,-77.4455570877961));
#1586=CARTESIAN_POINT('',(-26.,8.89313974130497,-77.5519553061778));
#1587=CARTESIAN_POINT('',(-31.,8.89313974130497,-77.5519553061778));
#1588=CARTESIAN_POINT('Origin',(-26.,14.3381479756906,-77.5354026818306));
#1589=CARTESIAN_POINT('Origin',(-47.,27.2976146448808,-78.9960133118161));
#1590=CARTESIAN_POINT('',(-47.,25.6930621142853,-77.5008841613546));
#1591=CARTESIAN_POINT('',(-47.,28.9021671754762,-80.4911424622776));
#1592=CARTESIAN_POINT('Origin',(-31.,25.7021819615752,-80.5008702993868));
#1593=CARTESIAN_POINT('Origin',(-31.,28.8930473281864,-77.4911563242454));
#1594=CARTESIAN_POINT('Origin',(16.,36.9526196225865,-61.4838255561568));
#1595=CARTESIAN_POINT('',(14.6842191658754,-7.79409845751466,-39.1739349006665));
#1596=CARTESIAN_POINT('Origin',(0.,10.3130956202351,-48.2018488412865));
#1597=CARTESIAN_POINT('',(12.,-7.79409845751465,-39.1739349006665));
#1598=CARTESIAN_POINT('',(16.,-7.79409845751465,-39.1739349006665));
#1599=CARTESIAN_POINT('',(12.,36.9526196225865,-61.4838255561568));
#1600=CARTESIAN_POINT('',(12.,32.6864546602857,-59.3567941690317));
#1601=CARTESIAN_POINT('',(16.,36.9526196225865,-61.4838255561568));
#1602=CARTESIAN_POINT('Origin',(0.,45.1956992160248,-80.4416107254011));
#1603=CARTESIAN_POINT('',(-26.,34.4712459127249,-55.7770567226236));
#1604=CARTESIAN_POINT('',(-26.,39.7031360205016,-67.8095801949528));
#1605=CARTESIAN_POINT('',(-12.,34.4712459127249,-55.7770567226236));
#1606=CARTESIAN_POINT('',(0.,34.4712459127249,-55.7770567226236));
#1607=CARTESIAN_POINT('',(-12.,36.9526196225865,-61.4838255561568));
#1608=CARTESIAN_POINT('',(-12.,34.4712459127249,-55.7770567226236));
#1609=CARTESIAN_POINT('',(-16.,36.9526196225865,-61.4838255561568));
#1610=CARTESIAN_POINT('',(-16.,36.9526196225865,-61.4838255561568));
#1611=CARTESIAN_POINT('',(-16.,39.7031360205016,-67.8095801949528));
#1612=CARTESIAN_POINT('',(12.,35.1969098728757,-57.4459695731743));
#1613=CARTESIAN_POINT('',(12.,34.4712459127249,-55.7770567226236));
#1614=CARTESIAN_POINT('',(26.,35.1969098728757,-57.4459695731743));
#1615=CARTESIAN_POINT('',(0.,35.1969098728757,-57.4459695731743));
#1616=CARTESIAN_POINT('',(26.,39.7031360205016,-67.8095801949528));
#1617=CARTESIAN_POINT('Origin',(12.,13.3385737276051,-47.475495811645));
#1618=CARTESIAN_POINT('',(12.,-7.52955598338994,-34.8362293737251));
#1619=CARTESIAN_POINT('',(12.,-8.67833649900952,-37.1403266309517));
#1620=CARTESIAN_POINT('',(12.,5.85637840990433,-7.98819852566429));
#1621=CARTESIAN_POINT('',(12.,32.8425985664992,-54.9650431097904));
#1622=CARTESIAN_POINT('',(12.,24.3511076332748,-50.7313419055323));
#1623=CARTESIAN_POINT('Origin',(12.,30.6116095009501,-59.4397149178005));
#1624=CARTESIAN_POINT('',(12.,8.89313974130497,-77.5519553061778));
#1625=CARTESIAN_POINT('Origin',(0.,-10.2754721673763,-33.4671660671332));
#1626=CARTESIAN_POINT('Origin',(0.,2.7377763623606,-63.3955887135817));
#1627=CARTESIAN_POINT('Origin',(26.,35.1178356485759,-69.803325539579));
#1628=CARTESIAN_POINT('Origin',(26.,30.6116095009501,-59.4397149178005));
#1629=CARTESIAN_POINT('Origin',(26.,25.6631497124525,-56.9725038790637));
#1630=CARTESIAN_POINT('',(26.,2.01858758460172,-39.5967581477793));
#1631=CARTESIAN_POINT('Origin',(26.,-0.212401480947326,-44.0714299557895));
#1632=CARTESIAN_POINT('',(26.,32.8425985664991,-54.9650431097904));
#1633=CARTESIAN_POINT('Origin',(26.,30.6116095009501,-59.4397149178005));
#1634=CARTESIAN_POINT('',(26.,27.8941387780016,-52.4978320710535));
#1635=CARTESIAN_POINT('Origin',(26.,1.8159793719023,-48.7363865431724));
#1636=CARTESIAN_POINT('',(26.,-4.79770185287294,-46.0651753004157));
#1637=CARTESIAN_POINT('Origin',(26.,-0.212401480947327,-44.0714299557895));
#1638=CARTESIAN_POINT('',(26.,-2.76932100002332,-50.7301318877986));
#1639=CARTESIAN_POINT('Origin',(0.,-0.212401480947324,-44.0714299557895));
#1640=CARTESIAN_POINT('',(20.3820870510966,-4.79770185287294,-46.0651753004157));
#1641=CARTESIAN_POINT('',(22.319353722797,2.01858758460172,-39.5967581477794));
#1642=CARTESIAN_POINT('Ctrl Pts',(20.3820870510966,-4.79770185287294,-46.0651753004157));
#1643=CARTESIAN_POINT('Ctrl Pts',(20.2707626824996,-4.87928857874276,-45.8775386769706));
#1644=CARTESIAN_POINT('Ctrl Pts',(20.163311661262,-4.94869323067486,-45.686303262168));
#1645=CARTESIAN_POINT('Ctrl Pts',(19.7746363989647,-5.16661877316437,-44.9519505816397));
#1646=CARTESIAN_POINT('Ctrl Pts',(19.4941319025627,-5.24653810504332,-44.3245619633118));
#1647=CARTESIAN_POINT('Ctrl Pts',(19.0987244030203,-5.14893719399655,-43.0529920321039));
#1648=CARTESIAN_POINT('Ctrl Pts',(18.9875596529955,-4.96993101624238,-42.4077657227574));
#1649=CARTESIAN_POINT('Ctrl Pts',(18.9875596529955,-4.40421556167252,-41.2731160577235));
#1650=CARTESIAN_POINT('Ctrl Pts',(19.0987244030203,-3.99664352602111,-40.7418484813535));
#1651=CARTESIAN_POINT('Ctrl Pts',(19.4941319025628,-3.03986031999137,-39.8986510403893));
#1652=CARTESIAN_POINT('Ctrl Pts',(19.7746363989647,-2.49070883623017,-39.5849055609027));
#1653=CARTESIAN_POINT('Ctrl Pts',(20.399145340554,-1.33764607319084,-39.1544515671606));
#1654=CARTESIAN_POINT('Ctrl Pts',(20.7989580388241,-0.641971970305082,-39.0422439074206));
#1655=CARTESIAN_POINT('Ctrl Pts',(21.5914123558457,0.737810294156587,-39.1141785687374));
#1656=CARTESIAN_POINT('Ctrl Pts',(21.983170968553,1.42236410913246,-39.2994920886207));
#1657=CARTESIAN_POINT('Ctrl Pts',(22.319353722797,2.01858758460172,-39.5967581477793));
#1658=CARTESIAN_POINT('',(0.,-4.79770185287295,-46.0651753004157));
#1659=CARTESIAN_POINT('Origin',(26.,-0.212401480947324,-44.0714299557895));
#1660=CARTESIAN_POINT('',(0.,2.01858758460172,-39.5967581477793));
#1661=CARTESIAN_POINT('Origin',(26.,-0.212401480947324,-44.0714299557895));
#1662=CARTESIAN_POINT('Origin',(0.,30.6116095009501,-59.4397149178005));
#1663=CARTESIAN_POINT('',(0.,32.8425985664991,-54.9650431097904));
#1664=CARTESIAN_POINT('Origin',(26.,30.6116095009501,-59.4397149178005));
#1665=CARTESIAN_POINT('Origin',(26.,30.6116095009501,-59.4397149178005));
#1666=CARTESIAN_POINT('Origin',(0.,-10.2754721673763,-33.4671660671332));
#1667=CARTESIAN_POINT('',(-12.,-7.79409845751465,-39.1739349006665));
#1668=CARTESIAN_POINT('',(-16.,-7.79409845751465,-39.1739349006665));
#1669=CARTESIAN_POINT('',(-12.,8.89313974130497,-77.5519553061778));
#1670=CARTESIAN_POINT('Origin',(0.,-10.2754721673763,-33.4671660671332));
#1671=CARTESIAN_POINT('',(-26.,-4.79770185287295,-46.0651753004157));
#1672=CARTESIAN_POINT('',(0.,-4.79770185287295,-46.0651753004157));
#1673=CARTESIAN_POINT('',(-26.,-2.76932100002332,-50.7301318877986));
#1674=CARTESIAN_POINT('Origin',(0.,2.7377763623606,-63.3955887135817));
#1675=CARTESIAN_POINT('',(-16.,-2.76932100002332,-50.7301318877986));
#1676=CARTESIAN_POINT('Origin',(-16.,13.9547677269663,-63.9850243859169));
#1677=CARTESIAN_POINT('',(-16.,5.86907096666214,-45.986139883279));
#1678=CARTESIAN_POINT('Origin',(-16.,-7.79409845751466,-39.1739349006665));
#1679=CARTESIAN_POINT('',(-12.,32.6864546602857,-59.3567941690317));
#1680=CARTESIAN_POINT('Origin',(-12.,13.3385737276051,-47.475495811645));
#1681=CARTESIAN_POINT('',(-12.,-10.2754721673763,-33.4671660671332));
#1682=CARTESIAN_POINT('Origin',(-26.,1.8159793719023,-48.7363865431724));
#1683=CARTESIAN_POINT('Origin',(-26.,-0.212401480947327,-44.0714299557895));
#1684=CARTESIAN_POINT('Origin',(-26.,25.6631497124525,-56.9725038790637));
#1685=CARTESIAN_POINT('',(-26.,2.01858758460172,-39.5967581477793));
#1686=CARTESIAN_POINT('Origin',(-26.,-0.212401480947326,-44.0714299557895));
#1687=CARTESIAN_POINT('',(-26.,27.8941387780016,-52.4978320710535));
#1688=CARTESIAN_POINT('Origin',(-26.,30.6116095009501,-59.4397149178005));
#1689=CARTESIAN_POINT('Origin',(0.,-0.212401480947324,-44.0714299557895));
#1690=CARTESIAN_POINT('',(0.,2.01858758460172,-39.5967581477793));
#1691=CARTESIAN_POINT('Origin',(-26.,-0.212401480947324,-44.0714299557895));
#1692=CARTESIAN_POINT('Origin',(-26.,-0.212401480947324,-44.0714299557895));
#1693=CARTESIAN_POINT('Origin',(-26.,35.1178356485759,-69.803325539579));
#1694=CARTESIAN_POINT('Origin',(0.,25.4838212659686,-17.7740805468176));
#1695=CARTESIAN_POINT('Origin',(0.,12.0978868726743,-44.6221113948784));
#1696=CARTESIAN_POINT('Origin',(0.,17.04362738805,-47.0879666540494));
#1697=CARTESIAN_POINT('Origin',(0.,17.04362738805,-47.0879666540494));
#1698=CARTESIAN_POINT('Origin',(0.,25.4838212659686,-17.7740805468176));
#1699=CARTESIAN_POINT('',(-25.,52.2556900525571,35.9219811493039));
#1700=CARTESIAN_POINT('Origin',(0.,52.2556900525571,35.9219811493039));
#1701=CARTESIAN_POINT('',(-25.,50.0247009870081,31.4473093412937));
#1702=CARTESIAN_POINT('',(-25.,25.4838212659686,-17.7740805468176));
#1703=CARTESIAN_POINT('',(-24.4948974278318,43.3190401134489,29.2036265988327));
#1704=CARTESIAN_POINT('Ctrl Pts',(-24.4948974278318,43.3190401134489,29.2036265988327));
#1705=CARTESIAN_POINT('Ctrl Pts',(-24.4948974278318,43.5999924750847,29.7671298590766));
#1706=CARTESIAN_POINT('Ctrl Pts',(-24.5216938309223,44.0120651352848,30.3108168902661));
#1707=CARTESIAN_POINT('Ctrl Pts',(-24.6177075396385,45.0186209867879,31.1849012401249));
#1708=CARTESIAN_POINT('Ctrl Pts',(-24.6854542550966,45.6130917561254,31.5154737728289));
#1709=CARTESIAN_POINT('Ctrl Pts',(-24.8120168819159,46.8012522327291,31.9130267071179));
#1710=CARTESIAN_POINT('Ctrl Pts',(-24.8791673575932,47.4749793240546,32.0067938792167));
#1711=CARTESIAN_POINT('Ctrl Pts',(-24.9738094323541,48.80492674624,31.9144757926401));
#1712=CARTESIAN_POINT('Ctrl Pts',(-25.,49.4612293024737,31.7282459598615));
#1713=CARTESIAN_POINT('Ctrl Pts',(-25.,50.0247009870081,31.4473093412937));
#1714=CARTESIAN_POINT('',(-25.,45.56272285591,22.4979657252735));
#1715=CARTESIAN_POINT('Ctrl Pts',(-25.,45.56272285591,22.4979657252735));
#1716=CARTESIAN_POINT('Ctrl Pts',(-25.,44.9992511713756,22.7789023438412));
#1717=CARTESIAN_POINT('Ctrl Pts',(-24.9738094323541,44.4555486758139,23.1909729594589));
#1718=CARTESIAN_POINT('Ctrl Pts',(-24.8791673575932,43.5814378349806,24.1975577859016));
#1719=CARTESIAN_POINT('Ctrl Pts',(-24.8120168819159,43.2508645432313,24.7920506579626));
#1720=CARTESIAN_POINT('Ctrl Pts',(-24.6854542550966,42.8533116089423,25.9802111345663));
#1721=CARTESIAN_POINT('Ctrl Pts',(-24.6177075396385,42.759557132394,26.6539201170671));
#1722=CARTESIAN_POINT('Ctrl Pts',(-24.5216938309223,42.8518714998917,27.9838284561705));
#1723=CARTESIAN_POINT('Ctrl Pts',(-24.4948974278318,43.0380877518131,28.6401233385887));
#1724=CARTESIAN_POINT('Ctrl Pts',(-24.4948974278318,43.3190401134489,29.2036265988327));
#1725=CARTESIAN_POINT('',(-25.,12.0978868726743,-44.6221113948784));
#1726=CARTESIAN_POINT('',(-25.,25.4838212659686,-17.7740805468176));
#1727=CARTESIAN_POINT('Origin',(0.,12.0978868726743,-44.6221113948784));
#1728=CARTESIAN_POINT('',(-24.4948974278318,52.2683837294691,24.7416484677346));
#1729=CARTESIAN_POINT('Ctrl Pts',(-24.4948974278318,52.2683837294691,24.7416484677346));
#1730=CARTESIAN_POINT('Ctrl Pts',(-24.4948974278318,51.9874313678334,24.1781452074906));
#1731=CARTESIAN_POINT('Ctrl Pts',(-24.5216938309223,51.5753587076333,23.6344581763012));
#1732=CARTESIAN_POINT('Ctrl Pts',(-24.6177075396385,50.5688028561302,22.7603738264423));
#1733=CARTESIAN_POINT('Ctrl Pts',(-24.6854542550966,49.9743320867926,22.4298012937383));
#1734=CARTESIAN_POINT('Ctrl Pts',(-24.8120168819159,48.7861716101889,22.0322483594493));
#1735=CARTESIAN_POINT('Ctrl Pts',(-24.8791673575932,48.1124445188635,21.9384811873505));
#1736=CARTESIAN_POINT('Ctrl Pts',(-24.9738094323541,46.782497096678,22.0307992739271));
#1737=CARTESIAN_POINT('Ctrl Pts',(-25.,46.1261945404444,22.2170291067058));
#1738=CARTESIAN_POINT('Ctrl Pts',(-25.,45.56272285591,22.4979657252735));
#1739=CARTESIAN_POINT('Ctrl Pts',(-25.,50.0247009870081,31.4473093412937));
#1740=CARTESIAN_POINT('Ctrl Pts',(-25.,50.5881726715425,31.166372722726));
#1741=CARTESIAN_POINT('Ctrl Pts',(-24.9738094323541,51.1318751671041,30.7543021071083));
#1742=CARTESIAN_POINT('Ctrl Pts',(-24.8791673575932,52.0059860079374,29.7477172806656));
#1743=CARTESIAN_POINT('Ctrl Pts',(-24.8120168819159,52.3365592996867,29.1532244086046));
#1744=CARTESIAN_POINT('Ctrl Pts',(-24.6854542550966,52.7341122339757,27.9650639320009));
#1745=CARTESIAN_POINT('Ctrl Pts',(-24.6177075396385,52.8278667105241,27.2913549495001));
#1746=CARTESIAN_POINT('Ctrl Pts',(-24.5216938309223,52.7355523430264,25.9614466103967));
#1747=CARTESIAN_POINT('Ctrl Pts',(-24.4948974278318,52.5493360911049,25.3051517279785));
#1748=CARTESIAN_POINT('Ctrl Pts',(-24.4948974278318,52.2683837294691,24.7416484677346));
#1749=CARTESIAN_POINT('',(24.4948974278318,43.3190401134489,29.2036265988327));
#1750=CARTESIAN_POINT('Ctrl Pts',(24.4948974278318,43.3190401134489,29.2036265988327));
#1751=CARTESIAN_POINT('Ctrl Pts',(24.4948974278318,43.0380877518131,28.6401233385887));
#1752=CARTESIAN_POINT('Ctrl Pts',(24.5216938309223,42.8518714998917,27.9838284561705));
#1753=CARTESIAN_POINT('Ctrl Pts',(24.6177075396385,42.759557132394,26.6539201170671));
#1754=CARTESIAN_POINT('Ctrl Pts',(24.6854542550966,42.8533116089423,25.9802111345663));
#1755=CARTESIAN_POINT('Ctrl Pts',(24.8120168819159,43.2508645432313,24.7920506579626));
#1756=CARTESIAN_POINT('Ctrl Pts',(24.8791673575932,43.5814378349806,24.1975577859016));
#1757=CARTESIAN_POINT('Ctrl Pts',(24.9738094323541,44.4555486758139,23.1909729594589));
#1758=CARTESIAN_POINT('Ctrl Pts',(25.,44.9992511713756,22.7789023438412));
#1759=CARTESIAN_POINT('Ctrl Pts',(25.,46.1261945404444,22.2170291067058));
#1760=CARTESIAN_POINT('Ctrl Pts',(24.9738094323541,46.782497096678,22.0307992739271));
#1761=CARTESIAN_POINT('Ctrl Pts',(24.8791673575932,48.1124445188635,21.9384811873505));
#1762=CARTESIAN_POINT('Ctrl Pts',(24.8120168819159,48.7861716101889,22.0322483594493));
#1763=CARTESIAN_POINT('Ctrl Pts',(24.6854542550966,49.9743320867926,22.4298012937383));
#1764=CARTESIAN_POINT('Ctrl Pts',(24.6177075396385,50.5688028561302,22.7603738264423));
#1765=CARTESIAN_POINT('Ctrl Pts',(24.5216938309223,51.5753587076333,23.6344581763012));
#1766=CARTESIAN_POINT('Ctrl Pts',(24.4948974278318,51.9874313678334,24.1781452074906));
#1767=CARTESIAN_POINT('Ctrl Pts',(24.4948974278318,52.5493360911049,25.3051517279785));
#1768=CARTESIAN_POINT('Ctrl Pts',(24.5216938309223,52.7355523430264,25.9614466103967));
#1769=CARTESIAN_POINT('Ctrl Pts',(24.6177075396385,52.8278667105241,27.2913549495001));
#1770=CARTESIAN_POINT('Ctrl Pts',(24.6854542550966,52.7341122339757,27.9650639320009));
#1771=CARTESIAN_POINT('Ctrl Pts',(24.8120168819159,52.3365592996867,29.1532244086046));
#1772=CARTESIAN_POINT('Ctrl Pts',(24.8791673575932,52.0059860079374,29.7477172806656));
#1773=CARTESIAN_POINT('Ctrl Pts',(24.9738094323541,51.1318751671041,30.7543021071083));
#1774=CARTESIAN_POINT('Ctrl Pts',(25.,50.5881726715425,31.166372722726));
#1775=CARTESIAN_POINT('Ctrl Pts',(25.,49.4612293024737,31.7282459598615));
#1776=CARTESIAN_POINT('Ctrl Pts',(24.9738094323541,48.80492674624,31.9144757926401));
#1777=CARTESIAN_POINT('Ctrl Pts',(24.8791673575932,47.4749793240546,32.0067938792167));
#1778=CARTESIAN_POINT('Ctrl Pts',(24.8120168819159,46.8012522327291,31.9130267071179));
#1779=CARTESIAN_POINT('Ctrl Pts',(24.6854542550966,45.6130917561254,31.5154737728289));
#1780=CARTESIAN_POINT('Ctrl Pts',(24.6177075396385,45.0186209867879,31.1849012401249));
#1781=CARTESIAN_POINT('Ctrl Pts',(24.5216938309223,44.0120651352848,30.3108168902661));
#1782=CARTESIAN_POINT('Ctrl Pts',(24.4948974278318,43.5999924750847,29.7671298590766));
#1783=CARTESIAN_POINT('Ctrl Pts',(24.4948974278318,43.3190401134489,29.2036265988326));
#1784=CARTESIAN_POINT('Origin',(-16.,34.4712459127249,-55.7770567226236));
#1785=CARTESIAN_POINT('',(-22.5,12.0978868726743,-44.6221113948784));
#1786=CARTESIAN_POINT('Origin',(0.,12.0978868726743,-44.6221113948784));
#1787=CARTESIAN_POINT('Origin',(0.,25.4838212659686,-17.7740805468176));
#1788=CARTESIAN_POINT('',(-22.5,52.2556900525571,35.9219811493039));
#1789=CARTESIAN_POINT('Origin',(0.,52.2556900525571,35.9219811493039));
#1790=CARTESIAN_POINT('',(-22.5,25.4838212659686,-17.7740805468176));
#1791=CARTESIAN_POINT('Origin',(0.,52.2556900525571,35.9219811493039));
#1792=CARTESIAN_POINT('Origin',(-38.,47.793711921459,26.9726375332836));
#1793=CARTESIAN_POINT('',(-38.,38.8443683054388,31.4346156643817));
#1794=CARTESIAN_POINT('Origin',(-38.,47.793711921459,26.9726375332836));
#1795=CARTESIAN_POINT('Origin',(-33.,47.793711921459,26.9726375332836));
#1796=CARTESIAN_POINT('',(-33.,38.8443683054388,31.4346156643817));
#1797=CARTESIAN_POINT('Origin',(-33.,47.793711921459,26.9726375332836));
#1798=CARTESIAN_POINT('',(-33.,43.3190401134489,29.2036265988327));
#1799=CARTESIAN_POINT('Origin',(-33.,47.793711921459,26.9726375332836));
#1800=CARTESIAN_POINT('Origin',(-38.,47.793711921459,26.9726375332836));
#1801=CARTESIAN_POINT('',(-38.,38.8443683054388,31.4346156643817));
#1802=CARTESIAN_POINT('Origin',(-38.,47.793711921459,26.9726375332836));
#1803=CARTESIAN_POINT('',(-38.,43.3190401134489,29.2036265988327));
#1804=CARTESIAN_POINT('Origin',(38.,47.793711921459,26.9726375332836));
#1805=CARTESIAN_POINT('',(38.,38.8443683054388,31.4346156643817));
#1806=CARTESIAN_POINT('Origin',(38.,47.793711921459,26.9726375332836));
#1807=CARTESIAN_POINT('Origin',(33.,47.793711921459,26.9726375332836));
#1808=CARTESIAN_POINT('',(33.,38.8443683054388,31.4346156643817));
#1809=CARTESIAN_POINT('Origin',(33.,47.793711921459,26.9726375332836));
#1810=CARTESIAN_POINT('',(33.,43.3190401134489,29.2036265988327));
#1811=CARTESIAN_POINT('Origin',(33.,47.793711921459,26.9726375332836));
#1812=CARTESIAN_POINT('Origin',(38.,47.793711921459,26.9726375332836));
#1813=CARTESIAN_POINT('',(38.,38.8443683054388,31.4346156643817));
#1814=CARTESIAN_POINT('Origin',(38.,47.793711921459,26.9726375332836));
#1815=CARTESIAN_POINT('',(38.,43.3190401134489,29.2036265988327));
#1816=CARTESIAN_POINT('',(0.,0.,0.));
#1817=UNCERTAINTY_MEASURE_WITH_UNIT(LENGTH_MEASURE(0.01),#1823,
'DISTANCE_ACCURACY_VALUE',
'Maximum model space distance between geometric entities at asserted c
onnectivities');
#1818=UNCERTAINTY_MEASURE_WITH_UNIT(LENGTH_MEASURE(0.01),#1823,
'DISTANCE_ACCURACY_VALUE',
'Maximum model space distance between geometric entities at asserted c
onnectivities');
#1819=UNCERTAINTY_MEASURE_WITH_UNIT(LENGTH_MEASURE(0.01),#1823,
'DISTANCE_ACCURACY_VALUE',
'Maximum model space distance between geometric entities at asserted c
onnectivities');
#1820=(
GEOMETRIC_REPRESENTATION_CONTEXT(3)
GLOBAL_UNCERTAINTY_ASSIGNED_CONTEXT((#1817))
GLOBAL_UNIT_ASSIGNED_CONTEXT((#1823,#1825,#1826))
REPRESENTATION_CONTEXT('','3D')
);
#1821=(
GEOMETRIC_REPRESENTATION_CONTEXT(3)
GLOBAL_UNCERTAINTY_ASSIGNED_CONTEXT((#1818))
GLOBAL_UNIT_ASSIGNED_CONTEXT((#1823,#1825,#1826))
REPRESENTATION_CONTEXT('','3D')
);
#1822=(
GEOMETRIC_REPRESENTATION_CONTEXT(3)
GLOBAL_UNCERTAINTY_ASSIGNED_CONTEXT((#1819))
GLOBAL_UNIT_ASSIGNED_CONTEXT((#1823,#1825,#1826))
REPRESENTATION_CONTEXT('','3D')
);
#1823=(
LENGTH_UNIT()
NAMED_UNIT(*)
SI_UNIT(.MILLI.,.METRE.)
);
#1824=(
LENGTH_UNIT()
NAMED_UNIT(*)
SI_UNIT($,.METRE.)
);
#1825=(
NAMED_UNIT(*)
PLANE_ANGLE_UNIT()
SI_UNIT($,.RADIAN.)
);
#1826=(
NAMED_UNIT(*)
SI_UNIT($,.STERADIAN.)
SOLID_ANGLE_UNIT()
);
#1827=SHAPE_DEFINITION_REPRESENTATION(#1829,#1832);
#1828=SHAPE_DEFINITION_REPRESENTATION(#1830,#1833);
#1829=PRODUCT_DEFINITION_SHAPE('',$,#1835);
#1830=PRODUCT_DEFINITION_SHAPE('',$,#1836);
#1831=PRODUCT_DEFINITION_SHAPE($,$,#14);
#1832=SHAPE_REPRESENTATION('',(#1046,#1136),#1820);
#1833=SHAPE_REPRESENTATION('',(#1047),#1821);
#1834=PRODUCT_DEFINITION_CONTEXT('part definition',#1842,'design');
#1835=PRODUCT_DEFINITION('Fusion-Komponente','Fusion-Komponente',#1837,
#1834);
#1836=PRODUCT_DEFINITION('Komponente2','Komponente2',#1838,#1834);
#1837=PRODUCT_DEFINITION_FORMATION('',$,#1844);
#1838=PRODUCT_DEFINITION_FORMATION('',$,#1845);
#1839=PRODUCT_RELATED_PRODUCT_CATEGORY('Fusion-Komponente',
'Fusion-Komponente',(#1844));
#1840=PRODUCT_RELATED_PRODUCT_CATEGORY('Komponente2','Komponente2',(#1845));
#1841=APPLICATION_PROTOCOL_DEFINITION('international standard',
'automotive_design',2009,#1842);
#1842=APPLICATION_CONTEXT(
'Core Data for Automotive Mechanical Design Process');
#1843=PRODUCT_CONTEXT('part definition',#1842,'mechanical');
#1844=PRODUCT('Fusion-Komponente','Fusion-Komponente',$,(#1843));
#1845=PRODUCT('Komponente2','Komponente2',$,(#1843));
#1846=PRESENTATION_STYLE_ASSIGNMENT((#1847));
#1847=SURFACE_STYLE_USAGE(.BOTH.,#1848);
#1848=SURFACE_SIDE_STYLE('',(#1849));
#1849=SURFACE_STYLE_FILL_AREA(#1850);
#1850=FILL_AREA_STYLE('Stahl - satiniert',(#1851));
#1851=FILL_AREA_STYLE_COLOUR('Stahl - satiniert',#1852);
#1852=COLOUR_RGB('Stahl - satiniert',0.627450980392157,0.627450980392157,
0.627450980392157);
ENDSEC;
END-ISO-10303-21;
