ISO-10303-21;
HEADER;
/* Generated by software containing ST-Developer
 * from STEP Tools, Inc. (www.steptools.com) 
 */

FILE_DESCRIPTION(
/* description */ (''),
/* implementation_level */ '2;1');

FILE_NAME(
/* name */ 'columns.step',
/* time_stamp */ '2026-05-17T10:55:27-05:00',
/* author */ (''),
/* organization */ (''),
/* preprocessor_version */ 'ST-DEVELOPER v20.1',
/* originating_system */ 'Autodesk Translation Framework v15.8.0.0',
/* authorisation */ '');

FILE_SCHEMA (('AUTOMOTIVE_DESIGN { 1 0 10303 214 3 1 1 }'));
ENDSEC;

DATA;
#10=MECHANICAL_DESIGN_GEOMETRIC_PRESENTATION_REPRESENTATION('',(#13,#14),
#1416);
#11=SHAPE_REPRESENTATION_RELATIONSHIP('SRR','None',#1423,#12);
#12=ADVANCED_BREP_SHAPE_REPRESENTATION('',(#15,#16),#1415);
#13=STYLED_ITEM('',(#1432),#15);
#14=STYLED_ITEM('',(#1432),#16);
#15=MANIFOLD_SOLID_BREP('K\X\F6rper3',#819);
#16=MANIFOLD_SOLID_BREP('K\X\F6rper4',#820);
#17=FACE_BOUND('',#100,.T.);
#18=FACE_BOUND('',#102,.T.);
#19=FACE_BOUND('',#117,.T.);
#20=FACE_BOUND('',#119,.T.);
#21=FACE_BOUND('',#127,.T.);
#22=FACE_BOUND('',#129,.T.);
#23=FACE_BOUND('',#138,.T.);
#24=FACE_BOUND('',#145,.T.);
#25=PLANE('',#837);
#26=PLANE('',#841);
#27=PLANE('',#842);
#28=PLANE('',#847);
#29=PLANE('',#854);
#30=PLANE('',#857);
#31=PLANE('',#858);
#32=PLANE('',#863);
#33=PLANE('',#870);
#34=PLANE('',#873);
#35=PLANE('',#875);
#36=PLANE('',#878);
#37=PLANE('',#882);
#38=PLANE('',#886);
#39=PLANE('',#887);
#40=PLANE('',#892);
#41=PLANE('',#897);
#42=PLANE('',#902);
#43=PLANE('',#905);
#44=PLANE('',#908);
#45=PLANE('',#914);
#46=PLANE('',#919);
#47=PLANE('',#922);
#48=PLANE('',#923);
#49=FACE_OUTER_BOUND('',#95,.T.);
#50=FACE_OUTER_BOUND('',#96,.T.);
#51=FACE_OUTER_BOUND('',#97,.T.);
#52=FACE_OUTER_BOUND('',#98,.T.);
#53=FACE_OUTER_BOUND('',#99,.T.);
#54=FACE_OUTER_BOUND('',#101,.T.);
#55=FACE_OUTER_BOUND('',#103,.T.);
#56=FACE_OUTER_BOUND('',#104,.T.);
#57=FACE_OUTER_BOUND('',#105,.T.);
#58=FACE_OUTER_BOUND('',#106,.T.);
#59=FACE_OUTER_BOUND('',#107,.T.);
#60=FACE_OUTER_BOUND('',#108,.T.);
#61=FACE_OUTER_BOUND('',#109,.T.);
#62=FACE_OUTER_BOUND('',#110,.T.);
#63=FACE_OUTER_BOUND('',#111,.T.);
#64=FACE_OUTER_BOUND('',#112,.T.);
#65=FACE_OUTER_BOUND('',#113,.T.);
#66=FACE_OUTER_BOUND('',#114,.T.);
#67=FACE_OUTER_BOUND('',#115,.T.);
#68=FACE_OUTER_BOUND('',#116,.T.);
#69=FACE_OUTER_BOUND('',#118,.T.);
#70=FACE_OUTER_BOUND('',#120,.T.);
#71=FACE_OUTER_BOUND('',#121,.T.);
#72=FACE_OUTER_BOUND('',#122,.T.);
#73=FACE_OUTER_BOUND('',#123,.T.);
#74=FACE_OUTER_BOUND('',#124,.T.);
#75=FACE_OUTER_BOUND('',#125,.T.);
#76=FACE_OUTER_BOUND('',#126,.T.);
#77=FACE_OUTER_BOUND('',#128,.T.);
#78=FACE_OUTER_BOUND('',#130,.T.);
#79=FACE_OUTER_BOUND('',#131,.T.);
#80=FACE_OUTER_BOUND('',#132,.T.);
#81=FACE_OUTER_BOUND('',#133,.T.);
#82=FACE_OUTER_BOUND('',#134,.T.);
#83=FACE_OUTER_BOUND('',#135,.T.);
#84=FACE_OUTER_BOUND('',#136,.T.);
#85=FACE_OUTER_BOUND('',#137,.T.);
#86=FACE_OUTER_BOUND('',#139,.T.);
#87=FACE_OUTER_BOUND('',#140,.T.);
#88=FACE_OUTER_BOUND('',#141,.T.);
#89=FACE_OUTER_BOUND('',#142,.T.);
#90=FACE_OUTER_BOUND('',#143,.T.);
#91=FACE_OUTER_BOUND('',#144,.T.);
#92=FACE_OUTER_BOUND('',#146,.T.);
#93=FACE_OUTER_BOUND('',#147,.T.);
#94=FACE_OUTER_BOUND('',#148,.T.);
#95=EDGE_LOOP('',(#523,#524,#525,#526));
#96=EDGE_LOOP('',(#527));
#97=EDGE_LOOP('',(#528,#529,#530,#531));
#98=EDGE_LOOP('',(#532));
#99=EDGE_LOOP('',(#533,#534,#535,#536,#537,#538,#539,#540));
#100=EDGE_LOOP('',(#541));
#101=EDGE_LOOP('',(#542,#543,#544,#545,#546,#547,#548,#549));
#102=EDGE_LOOP('',(#550));
#103=EDGE_LOOP('',(#551,#552,#553,#554));
#104=EDGE_LOOP('',(#555,#556,#557,#558));
#105=EDGE_LOOP('',(#559,#560,#561,#562));
#106=EDGE_LOOP('',(#563,#564,#565,#566));
#107=EDGE_LOOP('',(#567,#568,#569,#570,#571,#572,#573,#574));
#108=EDGE_LOOP('',(#575,#576,#577,#578));
#109=EDGE_LOOP('',(#579,#580,#581,#582));
#110=EDGE_LOOP('',(#583,#584,#585,#586,#587,#588,#589,#590));
#111=EDGE_LOOP('',(#591,#592,#593,#594));
#112=EDGE_LOOP('',(#595,#596,#597,#598));
#113=EDGE_LOOP('',(#599,#600,#601,#602));
#114=EDGE_LOOP('',(#603,#604,#605,#606));
#115=EDGE_LOOP('',(#607,#608,#609,#610));
#116=EDGE_LOOP('',(#611,#612,#613,#614,#615,#616,#617,#618));
#117=EDGE_LOOP('',(#619));
#118=EDGE_LOOP('',(#620,#621,#622,#623,#624,#625,#626,#627));
#119=EDGE_LOOP('',(#628));
#120=EDGE_LOOP('',(#629,#630,#631,#632));
#121=EDGE_LOOP('',(#633,#634,#635,#636));
#122=EDGE_LOOP('',(#637,#638,#639,#640));
#123=EDGE_LOOP('',(#641));
#124=EDGE_LOOP('',(#642,#643,#644,#645));
#125=EDGE_LOOP('',(#646));
#126=EDGE_LOOP('',(#647,#648,#649,#650,#651,#652,#653,#654));
#127=EDGE_LOOP('',(#655));
#128=EDGE_LOOP('',(#656,#657,#658,#659,#660,#661,#662,#663));
#129=EDGE_LOOP('',(#664));
#130=EDGE_LOOP('',(#665,#666,#667,#668));
#131=EDGE_LOOP('',(#669,#670,#671,#672));
#132=EDGE_LOOP('',(#673,#674,#675,#676));
#133=EDGE_LOOP('',(#677,#678,#679,#680,#681,#682,#683,#684));
#134=EDGE_LOOP('',(#685,#686,#687,#688));
#135=EDGE_LOOP('',(#689,#690,#691,#692));
#136=EDGE_LOOP('',(#693,#694,#695,#696));
#137=EDGE_LOOP('',(#697,#698,#699,#700,#701,#702,#703,#704));
#138=EDGE_LOOP('',(#705));
#139=EDGE_LOOP('',(#706,#707,#708,#709));
#140=EDGE_LOOP('',(#710,#711,#712,#713,#714,#715,#716,#717));
#141=EDGE_LOOP('',(#718,#719,#720,#721));
#142=EDGE_LOOP('',(#722,#723,#724,#725));
#143=EDGE_LOOP('',(#726,#727,#728,#729));
#144=EDGE_LOOP('',(#730,#731,#732,#733,#734,#735,#736,#737));
#145=EDGE_LOOP('',(#738));
#146=EDGE_LOOP('',(#739,#740,#741,#742));
#147=EDGE_LOOP('',(#743,#744,#745,#746));
#148=EDGE_LOOP('',(#747,#748,#749,#750));
#149=LINE('',#1181,#219);
#150=LINE('',#1188,#220);
#151=LINE('',#1196,#221);
#152=LINE('',#1200,#222);
#153=LINE('',#1204,#223);
#154=LINE('',#1207,#224);
#155=LINE('',#1213,#225);
#156=LINE('',#1217,#226);
#157=LINE('',#1221,#227);
#158=LINE('',#1224,#228);
#159=LINE('',#1227,#229);
#160=LINE('',#1230,#230);
#161=LINE('',#1233,#231);
#162=LINE('',#1234,#232);
#163=LINE('',#1237,#233);
#164=LINE('',#1241,#234);
#165=LINE('',#1243,#235);
#166=LINE('',#1244,#236);
#167=LINE('',#1247,#237);
#168=LINE('',#1248,#238);
#169=LINE('',#1250,#239);
#170=LINE('',#1252,#240);
#171=LINE('',#1253,#241);
#172=LINE('',#1256,#242);
#173=LINE('',#1260,#243);
#174=LINE('',#1263,#244);
#175=LINE('',#1266,#245);
#176=LINE('',#1267,#246);
#177=LINE('',#1268,#247);
#178=LINE('',#1271,#248);
#179=LINE('',#1278,#249);
#180=LINE('',#1280,#250);
#181=LINE('',#1284,#251);
#182=LINE('',#1289,#252);
#183=LINE('',#1293,#253);
#184=LINE('',#1299,#254);
#185=LINE('',#1306,#255);
#186=LINE('',#1314,#256);
#187=LINE('',#1318,#257);
#188=LINE('',#1322,#258);
#189=LINE('',#1325,#259);
#190=LINE('',#1331,#260);
#191=LINE('',#1335,#261);
#192=LINE('',#1339,#262);
#193=LINE('',#1342,#263);
#194=LINE('',#1345,#264);
#195=LINE('',#1347,#265);
#196=LINE('',#1348,#266);
#197=LINE('',#1351,#267);
#198=LINE('',#1355,#268);
#199=LINE('',#1358,#269);
#200=LINE('',#1361,#270);
#201=LINE('',#1362,#271);
#202=LINE('',#1364,#272);
#203=LINE('',#1365,#273);
#204=LINE('',#1368,#274);
#205=LINE('',#1372,#275);
#206=LINE('',#1373,#276);
#207=LINE('',#1376,#277);
#208=LINE('',#1380,#278);
#209=LINE('',#1384,#279);
#210=LINE('',#1388,#280);
#211=LINE('',#1393,#281);
#212=LINE('',#1394,#282);
#213=LINE('',#1397,#283);
#214=LINE('',#1398,#284);
#215=LINE('',#1399,#285);
#216=LINE('',#1401,#286);
#217=LINE('',#1403,#287);
#218=LINE('',#1410,#288);
#219=VECTOR('',#930,2.35);
#220=VECTOR('',#939,2.35);
#221=VECTOR('',#948,10.);
#222=VECTOR('',#951,10.);
#223=VECTOR('',#954,10.);
#224=VECTOR('',#957,10.);
#225=VECTOR('',#962,10.);
#226=VECTOR('',#965,10.);
#227=VECTOR('',#968,10.);
#228=VECTOR('',#971,10.);
#229=VECTOR('',#974,10.);
#230=VECTOR('',#977,10.);
#231=VECTOR('',#980,10.);
#232=VECTOR('',#981,10.);
#233=VECTOR('',#984,10.);
#234=VECTOR('',#989,10.);
#235=VECTOR('',#990,10.);
#236=VECTOR('',#991,10.);
#237=VECTOR('',#994,10.);
#238=VECTOR('',#995,10.);
#239=VECTOR('',#996,10.);
#240=VECTOR('',#997,10.);
#241=VECTOR('',#998,10.);
#242=VECTOR('',#1001,10.);
#243=VECTOR('',#1006,10.);
#244=VECTOR('',#1009,10.);
#245=VECTOR('',#1012,10.);
#246=VECTOR('',#1013,10.);
#247=VECTOR('',#1014,10.);
#248=VECTOR('',#1017,10.);
#249=VECTOR('',#1028,10.);
#250=VECTOR('',#1031,10.);
#251=VECTOR('',#1036,10.);
#252=VECTOR('',#1043,10.);
#253=VECTOR('',#1048,1.55);
#254=VECTOR('',#1055,2.35);
#255=VECTOR('',#1064,2.35);
#256=VECTOR('',#1073,10.);
#257=VECTOR('',#1076,10.);
#258=VECTOR('',#1079,10.);
#259=VECTOR('',#1082,10.);
#260=VECTOR('',#1087,10.);
#261=VECTOR('',#1090,10.);
#262=VECTOR('',#1093,10.);
#263=VECTOR('',#1096,10.);
#264=VECTOR('',#1099,10.);
#265=VECTOR('',#1100,10.);
#266=VECTOR('',#1101,10.);
#267=VECTOR('',#1104,10.);
#268=VECTOR('',#1109,10.);
#269=VECTOR('',#1112,10.);
#270=VECTOR('',#1115,10.);
#271=VECTOR('',#1116,10.);
#272=VECTOR('',#1117,10.);
#273=VECTOR('',#1118,10.);
#274=VECTOR('',#1121,10.);
#275=VECTOR('',#1126,10.);
#276=VECTOR('',#1127,10.);
#277=VECTOR('',#1130,10.);
#278=VECTOR('',#1135,10.);
#279=VECTOR('',#1138,10.);
#280=VECTOR('',#1141,10.);
#281=VECTOR('',#1148,10.);
#282=VECTOR('',#1149,10.);
#283=VECTOR('',#1152,10.);
#284=VECTOR('',#1153,10.);
#285=VECTOR('',#1154,10.);
#286=VECTOR('',#1157,10.);
#287=VECTOR('',#1160,10.);
#288=VECTOR('',#1171,1.55);
#289=CIRCLE('',#835,2.35);
#290=CIRCLE('',#836,2.35);
#291=CIRCLE('',#839,2.35);
#292=CIRCLE('',#840,2.35);
#293=CIRCLE('',#843,2.5);
#294=CIRCLE('',#844,2.5);
#295=CIRCLE('',#845,2.5);
#296=CIRCLE('',#846,2.5);
#297=CIRCLE('',#848,2.5);
#298=CIRCLE('',#849,2.5);
#299=CIRCLE('',#850,2.5);
#300=CIRCLE('',#851,2.5);
#301=CIRCLE('',#853,2.5);
#302=CIRCLE('',#856,2.5);
#303=CIRCLE('',#860,2.5);
#304=CIRCLE('',#862,2.5);
#305=CIRCLE('',#865,2.5);
#306=CIRCLE('',#867,2.5);
#307=CIRCLE('',#869,2.5);
#308=CIRCLE('',#872,2.5);
#309=CIRCLE('',#874,1.55);
#310=CIRCLE('',#876,1.55);
#311=CIRCLE('',#880,2.35);
#312=CIRCLE('',#881,2.35);
#313=CIRCLE('',#884,2.35);
#314=CIRCLE('',#885,2.35);
#315=CIRCLE('',#888,2.5);
#316=CIRCLE('',#889,2.5);
#317=CIRCLE('',#890,2.5);
#318=CIRCLE('',#891,2.5);
#319=CIRCLE('',#893,2.5);
#320=CIRCLE('',#894,2.5);
#321=CIRCLE('',#895,2.5);
#322=CIRCLE('',#896,2.5);
#323=CIRCLE('',#899,2.5);
#324=CIRCLE('',#901,2.5);
#325=CIRCLE('',#904,2.5);
#326=CIRCLE('',#907,2.5);
#327=CIRCLE('',#909,2.5);
#328=CIRCLE('',#910,2.5);
#329=CIRCLE('',#911,2.5);
#330=CIRCLE('',#912,1.55);
#331=CIRCLE('',#918,2.5);
#332=CIRCLE('',#920,1.55);
#333=VERTEX_POINT('',#1178);
#334=VERTEX_POINT('',#1180);
#335=VERTEX_POINT('',#1185);
#336=VERTEX_POINT('',#1187);
#337=VERTEX_POINT('',#1192);
#338=VERTEX_POINT('',#1193);
#339=VERTEX_POINT('',#1195);
#340=VERTEX_POINT('',#1197);
#341=VERTEX_POINT('',#1199);
#342=VERTEX_POINT('',#1201);
#343=VERTEX_POINT('',#1203);
#344=VERTEX_POINT('',#1205);
#345=VERTEX_POINT('',#1209);
#346=VERTEX_POINT('',#1210);
#347=VERTEX_POINT('',#1212);
#348=VERTEX_POINT('',#1214);
#349=VERTEX_POINT('',#1216);
#350=VERTEX_POINT('',#1218);
#351=VERTEX_POINT('',#1220);
#352=VERTEX_POINT('',#1222);
#353=VERTEX_POINT('',#1226);
#354=VERTEX_POINT('',#1228);
#355=VERTEX_POINT('',#1232);
#356=VERTEX_POINT('',#1236);
#357=VERTEX_POINT('',#1240);
#358=VERTEX_POINT('',#1242);
#359=VERTEX_POINT('',#1246);
#360=VERTEX_POINT('',#1249);
#361=VERTEX_POINT('',#1251);
#362=VERTEX_POINT('',#1255);
#363=VERTEX_POINT('',#1259);
#364=VERTEX_POINT('',#1261);
#365=VERTEX_POINT('',#1265);
#366=VERTEX_POINT('',#1270);
#367=VERTEX_POINT('',#1276);
#368=VERTEX_POINT('',#1282);
#369=VERTEX_POINT('',#1286);
#370=VERTEX_POINT('',#1290);
#371=VERTEX_POINT('',#1296);
#372=VERTEX_POINT('',#1298);
#373=VERTEX_POINT('',#1303);
#374=VERTEX_POINT('',#1305);
#375=VERTEX_POINT('',#1310);
#376=VERTEX_POINT('',#1311);
#377=VERTEX_POINT('',#1313);
#378=VERTEX_POINT('',#1315);
#379=VERTEX_POINT('',#1317);
#380=VERTEX_POINT('',#1319);
#381=VERTEX_POINT('',#1321);
#382=VERTEX_POINT('',#1323);
#383=VERTEX_POINT('',#1327);
#384=VERTEX_POINT('',#1328);
#385=VERTEX_POINT('',#1330);
#386=VERTEX_POINT('',#1332);
#387=VERTEX_POINT('',#1334);
#388=VERTEX_POINT('',#1336);
#389=VERTEX_POINT('',#1338);
#390=VERTEX_POINT('',#1340);
#391=VERTEX_POINT('',#1344);
#392=VERTEX_POINT('',#1346);
#393=VERTEX_POINT('',#1350);
#394=VERTEX_POINT('',#1354);
#395=VERTEX_POINT('',#1356);
#396=VERTEX_POINT('',#1360);
#397=VERTEX_POINT('',#1363);
#398=VERTEX_POINT('',#1367);
#399=VERTEX_POINT('',#1371);
#400=VERTEX_POINT('',#1375);
#401=VERTEX_POINT('',#1379);
#402=VERTEX_POINT('',#1381);
#403=VERTEX_POINT('',#1383);
#404=VERTEX_POINT('',#1385);
#405=VERTEX_POINT('',#1387);
#406=VERTEX_POINT('',#1390);
#407=VERTEX_POINT('',#1396);
#408=VERTEX_POINT('',#1407);
#409=EDGE_CURVE('',#333,#333,#289,.T.);
#410=EDGE_CURVE('',#333,#334,#149,.T.);
#411=EDGE_CURVE('',#334,#334,#290,.T.);
#412=EDGE_CURVE('',#335,#335,#291,.T.);
#413=EDGE_CURVE('',#335,#336,#150,.T.);
#414=EDGE_CURVE('',#336,#336,#292,.T.);
#415=EDGE_CURVE('',#337,#338,#293,.T.);
#416=EDGE_CURVE('',#339,#337,#151,.T.);
#417=EDGE_CURVE('',#340,#339,#294,.T.);
#418=EDGE_CURVE('',#341,#340,#152,.T.);
#419=EDGE_CURVE('',#342,#341,#295,.T.);
#420=EDGE_CURVE('',#343,#342,#153,.T.);
#421=EDGE_CURVE('',#344,#343,#296,.T.);
#422=EDGE_CURVE('',#338,#344,#154,.T.);
#423=EDGE_CURVE('',#345,#346,#297,.T.);
#424=EDGE_CURVE('',#347,#345,#155,.T.);
#425=EDGE_CURVE('',#348,#347,#298,.T.);
#426=EDGE_CURVE('',#349,#348,#156,.T.);
#427=EDGE_CURVE('',#350,#349,#299,.T.);
#428=EDGE_CURVE('',#351,#350,#157,.T.);
#429=EDGE_CURVE('',#352,#351,#300,.T.);
#430=EDGE_CURVE('',#346,#352,#158,.T.);
#431=EDGE_CURVE('',#339,#353,#159,.T.);
#432=EDGE_CURVE('',#353,#354,#301,.F.);
#433=EDGE_CURVE('',#354,#340,#160,.T.);
#434=EDGE_CURVE('',#355,#337,#161,.T.);
#435=EDGE_CURVE('',#353,#355,#162,.T.);
#436=EDGE_CURVE('',#338,#356,#163,.T.);
#437=EDGE_CURVE('',#356,#355,#302,.F.);
#438=EDGE_CURVE('',#357,#348,#164,.T.);
#439=EDGE_CURVE('',#358,#357,#165,.T.);
#440=EDGE_CURVE('',#349,#358,#166,.T.);
#441=EDGE_CURVE('',#359,#354,#167,.T.);
#442=EDGE_CURVE('',#351,#359,#168,.T.);
#443=EDGE_CURVE('',#360,#350,#169,.T.);
#444=EDGE_CURVE('',#361,#360,#170,.T.);
#445=EDGE_CURVE('',#341,#361,#171,.T.);
#446=EDGE_CURVE('',#347,#362,#172,.T.);
#447=EDGE_CURVE('',#362,#357,#303,.T.);
#448=EDGE_CURVE('',#346,#363,#173,.T.);
#449=EDGE_CURVE('',#363,#364,#304,.F.);
#450=EDGE_CURVE('',#364,#345,#174,.T.);
#451=EDGE_CURVE('',#365,#344,#175,.T.);
#452=EDGE_CURVE('',#362,#365,#176,.T.);
#453=EDGE_CURVE('',#356,#364,#177,.T.);
#454=EDGE_CURVE('',#343,#366,#178,.T.);
#455=EDGE_CURVE('',#366,#365,#305,.T.);
#456=EDGE_CURVE('',#358,#360,#306,.T.);
#457=EDGE_CURVE('',#359,#367,#307,.F.);
#458=EDGE_CURVE('',#367,#352,#179,.T.);
#459=EDGE_CURVE('',#363,#367,#180,.T.);
#460=EDGE_CURVE('',#361,#368,#308,.T.);
#461=EDGE_CURVE('',#368,#342,#181,.T.);
#462=EDGE_CURVE('',#369,#369,#309,.T.);
#463=EDGE_CURVE('',#366,#368,#182,.T.);
#464=EDGE_CURVE('',#370,#370,#310,.T.);
#465=EDGE_CURVE('',#369,#370,#183,.T.);
#466=EDGE_CURVE('',#371,#371,#311,.T.);
#467=EDGE_CURVE('',#371,#372,#184,.T.);
#468=EDGE_CURVE('',#372,#372,#312,.T.);
#469=EDGE_CURVE('',#373,#373,#313,.T.);
#470=EDGE_CURVE('',#373,#374,#185,.T.);
#471=EDGE_CURVE('',#374,#374,#314,.T.);
#472=EDGE_CURVE('',#375,#376,#315,.T.);
#473=EDGE_CURVE('',#377,#375,#186,.T.);
#474=EDGE_CURVE('',#378,#377,#316,.T.);
#475=EDGE_CURVE('',#379,#378,#187,.T.);
#476=EDGE_CURVE('',#380,#379,#317,.T.);
#477=EDGE_CURVE('',#381,#380,#188,.T.);
#478=EDGE_CURVE('',#382,#381,#318,.T.);
#479=EDGE_CURVE('',#376,#382,#189,.T.);
#480=EDGE_CURVE('',#383,#384,#319,.T.);
#481=EDGE_CURVE('',#385,#383,#190,.T.);
#482=EDGE_CURVE('',#386,#385,#320,.T.);
#483=EDGE_CURVE('',#387,#386,#191,.T.);
#484=EDGE_CURVE('',#388,#387,#321,.T.);
#485=EDGE_CURVE('',#389,#388,#192,.T.);
#486=EDGE_CURVE('',#390,#389,#322,.T.);
#487=EDGE_CURVE('',#384,#390,#193,.T.);
#488=EDGE_CURVE('',#391,#378,#194,.T.);
#489=EDGE_CURVE('',#392,#391,#195,.T.);
#490=EDGE_CURVE('',#379,#392,#196,.T.);
#491=EDGE_CURVE('',#377,#393,#197,.T.);
#492=EDGE_CURVE('',#393,#391,#323,.F.);
#493=EDGE_CURVE('',#376,#394,#198,.T.);
#494=EDGE_CURVE('',#394,#395,#324,.T.);
#495=EDGE_CURVE('',#395,#375,#199,.T.);
#496=EDGE_CURVE('',#396,#395,#200,.T.);
#497=EDGE_CURVE('',#387,#396,#201,.T.);
#498=EDGE_CURVE('',#397,#386,#202,.T.);
#499=EDGE_CURVE('',#393,#397,#203,.T.);
#500=EDGE_CURVE('',#385,#398,#204,.T.);
#501=EDGE_CURVE('',#398,#397,#325,.F.);
#502=EDGE_CURVE('',#399,#383,#205,.T.);
#503=EDGE_CURVE('',#398,#399,#206,.T.);
#504=EDGE_CURVE('',#384,#400,#207,.T.);
#505=EDGE_CURVE('',#400,#399,#326,.F.);
#506=EDGE_CURVE('',#394,#401,#208,.T.);
#507=EDGE_CURVE('',#402,#401,#327,.T.);
#508=EDGE_CURVE('',#402,#403,#209,.T.);
#509=EDGE_CURVE('',#404,#403,#328,.T.);
#510=EDGE_CURVE('',#404,#405,#210,.T.);
#511=EDGE_CURVE('',#396,#405,#329,.T.);
#512=EDGE_CURVE('',#406,#406,#330,.T.);
#513=EDGE_CURVE('',#381,#402,#211,.T.);
#514=EDGE_CURVE('',#401,#382,#212,.T.);
#515=EDGE_CURVE('',#407,#380,#213,.T.);
#516=EDGE_CURVE('',#400,#407,#214,.T.);
#517=EDGE_CURVE('',#403,#390,#215,.T.);
#518=EDGE_CURVE('',#389,#404,#216,.T.);
#519=EDGE_CURVE('',#405,#388,#217,.T.);
#520=EDGE_CURVE('',#392,#407,#331,.F.);
#521=EDGE_CURVE('',#408,#408,#332,.T.);
#522=EDGE_CURVE('',#408,#406,#218,.T.);
#523=ORIENTED_EDGE('',*,*,#409,.F.);
#524=ORIENTED_EDGE('',*,*,#410,.T.);
#525=ORIENTED_EDGE('',*,*,#411,.T.);
#526=ORIENTED_EDGE('',*,*,#410,.F.);
#527=ORIENTED_EDGE('',*,*,#411,.F.);
#528=ORIENTED_EDGE('',*,*,#412,.F.);
#529=ORIENTED_EDGE('',*,*,#413,.T.);
#530=ORIENTED_EDGE('',*,*,#414,.T.);
#531=ORIENTED_EDGE('',*,*,#413,.F.);
#532=ORIENTED_EDGE('',*,*,#414,.F.);
#533=ORIENTED_EDGE('',*,*,#415,.F.);
#534=ORIENTED_EDGE('',*,*,#416,.F.);
#535=ORIENTED_EDGE('',*,*,#417,.F.);
#536=ORIENTED_EDGE('',*,*,#418,.F.);
#537=ORIENTED_EDGE('',*,*,#419,.F.);
#538=ORIENTED_EDGE('',*,*,#420,.F.);
#539=ORIENTED_EDGE('',*,*,#421,.F.);
#540=ORIENTED_EDGE('',*,*,#422,.F.);
#541=ORIENTED_EDGE('',*,*,#409,.T.);
#542=ORIENTED_EDGE('',*,*,#423,.F.);
#543=ORIENTED_EDGE('',*,*,#424,.F.);
#544=ORIENTED_EDGE('',*,*,#425,.F.);
#545=ORIENTED_EDGE('',*,*,#426,.F.);
#546=ORIENTED_EDGE('',*,*,#427,.F.);
#547=ORIENTED_EDGE('',*,*,#428,.F.);
#548=ORIENTED_EDGE('',*,*,#429,.F.);
#549=ORIENTED_EDGE('',*,*,#430,.F.);
#550=ORIENTED_EDGE('',*,*,#412,.T.);
#551=ORIENTED_EDGE('',*,*,#417,.T.);
#552=ORIENTED_EDGE('',*,*,#431,.T.);
#553=ORIENTED_EDGE('',*,*,#432,.T.);
#554=ORIENTED_EDGE('',*,*,#433,.T.);
#555=ORIENTED_EDGE('',*,*,#416,.T.);
#556=ORIENTED_EDGE('',*,*,#434,.F.);
#557=ORIENTED_EDGE('',*,*,#435,.F.);
#558=ORIENTED_EDGE('',*,*,#431,.F.);
#559=ORIENTED_EDGE('',*,*,#415,.T.);
#560=ORIENTED_EDGE('',*,*,#436,.T.);
#561=ORIENTED_EDGE('',*,*,#437,.T.);
#562=ORIENTED_EDGE('',*,*,#434,.T.);
#563=ORIENTED_EDGE('',*,*,#426,.T.);
#564=ORIENTED_EDGE('',*,*,#438,.F.);
#565=ORIENTED_EDGE('',*,*,#439,.F.);
#566=ORIENTED_EDGE('',*,*,#440,.F.);
#567=ORIENTED_EDGE('',*,*,#418,.T.);
#568=ORIENTED_EDGE('',*,*,#433,.F.);
#569=ORIENTED_EDGE('',*,*,#441,.F.);
#570=ORIENTED_EDGE('',*,*,#442,.F.);
#571=ORIENTED_EDGE('',*,*,#428,.T.);
#572=ORIENTED_EDGE('',*,*,#443,.F.);
#573=ORIENTED_EDGE('',*,*,#444,.F.);
#574=ORIENTED_EDGE('',*,*,#445,.F.);
#575=ORIENTED_EDGE('',*,*,#425,.T.);
#576=ORIENTED_EDGE('',*,*,#446,.T.);
#577=ORIENTED_EDGE('',*,*,#447,.T.);
#578=ORIENTED_EDGE('',*,*,#438,.T.);
#579=ORIENTED_EDGE('',*,*,#423,.T.);
#580=ORIENTED_EDGE('',*,*,#448,.T.);
#581=ORIENTED_EDGE('',*,*,#449,.T.);
#582=ORIENTED_EDGE('',*,*,#450,.T.);
#583=ORIENTED_EDGE('',*,*,#422,.T.);
#584=ORIENTED_EDGE('',*,*,#451,.F.);
#585=ORIENTED_EDGE('',*,*,#452,.F.);
#586=ORIENTED_EDGE('',*,*,#446,.F.);
#587=ORIENTED_EDGE('',*,*,#424,.T.);
#588=ORIENTED_EDGE('',*,*,#450,.F.);
#589=ORIENTED_EDGE('',*,*,#453,.F.);
#590=ORIENTED_EDGE('',*,*,#436,.F.);
#591=ORIENTED_EDGE('',*,*,#421,.T.);
#592=ORIENTED_EDGE('',*,*,#454,.T.);
#593=ORIENTED_EDGE('',*,*,#455,.T.);
#594=ORIENTED_EDGE('',*,*,#451,.T.);
#595=ORIENTED_EDGE('',*,*,#427,.T.);
#596=ORIENTED_EDGE('',*,*,#440,.T.);
#597=ORIENTED_EDGE('',*,*,#456,.T.);
#598=ORIENTED_EDGE('',*,*,#443,.T.);
#599=ORIENTED_EDGE('',*,*,#429,.T.);
#600=ORIENTED_EDGE('',*,*,#442,.T.);
#601=ORIENTED_EDGE('',*,*,#457,.T.);
#602=ORIENTED_EDGE('',*,*,#458,.T.);
#603=ORIENTED_EDGE('',*,*,#430,.T.);
#604=ORIENTED_EDGE('',*,*,#458,.F.);
#605=ORIENTED_EDGE('',*,*,#459,.F.);
#606=ORIENTED_EDGE('',*,*,#448,.F.);
#607=ORIENTED_EDGE('',*,*,#419,.T.);
#608=ORIENTED_EDGE('',*,*,#445,.T.);
#609=ORIENTED_EDGE('',*,*,#460,.T.);
#610=ORIENTED_EDGE('',*,*,#461,.T.);
#611=ORIENTED_EDGE('',*,*,#459,.T.);
#612=ORIENTED_EDGE('',*,*,#457,.F.);
#613=ORIENTED_EDGE('',*,*,#441,.T.);
#614=ORIENTED_EDGE('',*,*,#432,.F.);
#615=ORIENTED_EDGE('',*,*,#435,.T.);
#616=ORIENTED_EDGE('',*,*,#437,.F.);
#617=ORIENTED_EDGE('',*,*,#453,.T.);
#618=ORIENTED_EDGE('',*,*,#449,.F.);
#619=ORIENTED_EDGE('',*,*,#462,.T.);
#620=ORIENTED_EDGE('',*,*,#455,.F.);
#621=ORIENTED_EDGE('',*,*,#463,.T.);
#622=ORIENTED_EDGE('',*,*,#460,.F.);
#623=ORIENTED_EDGE('',*,*,#444,.T.);
#624=ORIENTED_EDGE('',*,*,#456,.F.);
#625=ORIENTED_EDGE('',*,*,#439,.T.);
#626=ORIENTED_EDGE('',*,*,#447,.F.);
#627=ORIENTED_EDGE('',*,*,#452,.T.);
#628=ORIENTED_EDGE('',*,*,#464,.F.);
#629=ORIENTED_EDGE('',*,*,#462,.F.);
#630=ORIENTED_EDGE('',*,*,#465,.T.);
#631=ORIENTED_EDGE('',*,*,#464,.T.);
#632=ORIENTED_EDGE('',*,*,#465,.F.);
#633=ORIENTED_EDGE('',*,*,#420,.T.);
#634=ORIENTED_EDGE('',*,*,#461,.F.);
#635=ORIENTED_EDGE('',*,*,#463,.F.);
#636=ORIENTED_EDGE('',*,*,#454,.F.);
#637=ORIENTED_EDGE('',*,*,#466,.F.);
#638=ORIENTED_EDGE('',*,*,#467,.T.);
#639=ORIENTED_EDGE('',*,*,#468,.T.);
#640=ORIENTED_EDGE('',*,*,#467,.F.);
#641=ORIENTED_EDGE('',*,*,#468,.F.);
#642=ORIENTED_EDGE('',*,*,#469,.F.);
#643=ORIENTED_EDGE('',*,*,#470,.T.);
#644=ORIENTED_EDGE('',*,*,#471,.T.);
#645=ORIENTED_EDGE('',*,*,#470,.F.);
#646=ORIENTED_EDGE('',*,*,#471,.F.);
#647=ORIENTED_EDGE('',*,*,#472,.F.);
#648=ORIENTED_EDGE('',*,*,#473,.F.);
#649=ORIENTED_EDGE('',*,*,#474,.F.);
#650=ORIENTED_EDGE('',*,*,#475,.F.);
#651=ORIENTED_EDGE('',*,*,#476,.F.);
#652=ORIENTED_EDGE('',*,*,#477,.F.);
#653=ORIENTED_EDGE('',*,*,#478,.F.);
#654=ORIENTED_EDGE('',*,*,#479,.F.);
#655=ORIENTED_EDGE('',*,*,#466,.T.);
#656=ORIENTED_EDGE('',*,*,#480,.F.);
#657=ORIENTED_EDGE('',*,*,#481,.F.);
#658=ORIENTED_EDGE('',*,*,#482,.F.);
#659=ORIENTED_EDGE('',*,*,#483,.F.);
#660=ORIENTED_EDGE('',*,*,#484,.F.);
#661=ORIENTED_EDGE('',*,*,#485,.F.);
#662=ORIENTED_EDGE('',*,*,#486,.F.);
#663=ORIENTED_EDGE('',*,*,#487,.F.);
#664=ORIENTED_EDGE('',*,*,#469,.T.);
#665=ORIENTED_EDGE('',*,*,#475,.T.);
#666=ORIENTED_EDGE('',*,*,#488,.F.);
#667=ORIENTED_EDGE('',*,*,#489,.F.);
#668=ORIENTED_EDGE('',*,*,#490,.F.);
#669=ORIENTED_EDGE('',*,*,#474,.T.);
#670=ORIENTED_EDGE('',*,*,#491,.T.);
#671=ORIENTED_EDGE('',*,*,#492,.T.);
#672=ORIENTED_EDGE('',*,*,#488,.T.);
#673=ORIENTED_EDGE('',*,*,#472,.T.);
#674=ORIENTED_EDGE('',*,*,#493,.T.);
#675=ORIENTED_EDGE('',*,*,#494,.T.);
#676=ORIENTED_EDGE('',*,*,#495,.T.);
#677=ORIENTED_EDGE('',*,*,#473,.T.);
#678=ORIENTED_EDGE('',*,*,#495,.F.);
#679=ORIENTED_EDGE('',*,*,#496,.F.);
#680=ORIENTED_EDGE('',*,*,#497,.F.);
#681=ORIENTED_EDGE('',*,*,#483,.T.);
#682=ORIENTED_EDGE('',*,*,#498,.F.);
#683=ORIENTED_EDGE('',*,*,#499,.F.);
#684=ORIENTED_EDGE('',*,*,#491,.F.);
#685=ORIENTED_EDGE('',*,*,#482,.T.);
#686=ORIENTED_EDGE('',*,*,#500,.T.);
#687=ORIENTED_EDGE('',*,*,#501,.T.);
#688=ORIENTED_EDGE('',*,*,#498,.T.);
#689=ORIENTED_EDGE('',*,*,#481,.T.);
#690=ORIENTED_EDGE('',*,*,#502,.F.);
#691=ORIENTED_EDGE('',*,*,#503,.F.);
#692=ORIENTED_EDGE('',*,*,#500,.F.);
#693=ORIENTED_EDGE('',*,*,#480,.T.);
#694=ORIENTED_EDGE('',*,*,#504,.T.);
#695=ORIENTED_EDGE('',*,*,#505,.T.);
#696=ORIENTED_EDGE('',*,*,#502,.T.);
#697=ORIENTED_EDGE('',*,*,#494,.F.);
#698=ORIENTED_EDGE('',*,*,#506,.T.);
#699=ORIENTED_EDGE('',*,*,#507,.F.);
#700=ORIENTED_EDGE('',*,*,#508,.T.);
#701=ORIENTED_EDGE('',*,*,#509,.F.);
#702=ORIENTED_EDGE('',*,*,#510,.T.);
#703=ORIENTED_EDGE('',*,*,#511,.F.);
#704=ORIENTED_EDGE('',*,*,#496,.T.);
#705=ORIENTED_EDGE('',*,*,#512,.F.);
#706=ORIENTED_EDGE('',*,*,#478,.T.);
#707=ORIENTED_EDGE('',*,*,#513,.T.);
#708=ORIENTED_EDGE('',*,*,#507,.T.);
#709=ORIENTED_EDGE('',*,*,#514,.T.);
#710=ORIENTED_EDGE('',*,*,#477,.T.);
#711=ORIENTED_EDGE('',*,*,#515,.F.);
#712=ORIENTED_EDGE('',*,*,#516,.F.);
#713=ORIENTED_EDGE('',*,*,#504,.F.);
#714=ORIENTED_EDGE('',*,*,#487,.T.);
#715=ORIENTED_EDGE('',*,*,#517,.F.);
#716=ORIENTED_EDGE('',*,*,#508,.F.);
#717=ORIENTED_EDGE('',*,*,#513,.F.);
#718=ORIENTED_EDGE('',*,*,#486,.T.);
#719=ORIENTED_EDGE('',*,*,#518,.T.);
#720=ORIENTED_EDGE('',*,*,#509,.T.);
#721=ORIENTED_EDGE('',*,*,#517,.T.);
#722=ORIENTED_EDGE('',*,*,#484,.T.);
#723=ORIENTED_EDGE('',*,*,#497,.T.);
#724=ORIENTED_EDGE('',*,*,#511,.T.);
#725=ORIENTED_EDGE('',*,*,#519,.T.);
#726=ORIENTED_EDGE('',*,*,#476,.T.);
#727=ORIENTED_EDGE('',*,*,#490,.T.);
#728=ORIENTED_EDGE('',*,*,#520,.T.);
#729=ORIENTED_EDGE('',*,*,#515,.T.);
#730=ORIENTED_EDGE('',*,*,#489,.T.);
#731=ORIENTED_EDGE('',*,*,#492,.F.);
#732=ORIENTED_EDGE('',*,*,#499,.T.);
#733=ORIENTED_EDGE('',*,*,#501,.F.);
#734=ORIENTED_EDGE('',*,*,#503,.T.);
#735=ORIENTED_EDGE('',*,*,#505,.F.);
#736=ORIENTED_EDGE('',*,*,#516,.T.);
#737=ORIENTED_EDGE('',*,*,#520,.F.);
#738=ORIENTED_EDGE('',*,*,#521,.T.);
#739=ORIENTED_EDGE('',*,*,#521,.F.);
#740=ORIENTED_EDGE('',*,*,#522,.T.);
#741=ORIENTED_EDGE('',*,*,#512,.T.);
#742=ORIENTED_EDGE('',*,*,#522,.F.);
#743=ORIENTED_EDGE('',*,*,#485,.T.);
#744=ORIENTED_EDGE('',*,*,#519,.F.);
#745=ORIENTED_EDGE('',*,*,#510,.F.);
#746=ORIENTED_EDGE('',*,*,#518,.F.);
#747=ORIENTED_EDGE('',*,*,#479,.T.);
#748=ORIENTED_EDGE('',*,*,#514,.F.);
#749=ORIENTED_EDGE('',*,*,#506,.F.);
#750=ORIENTED_EDGE('',*,*,#493,.F.);
#751=CYLINDRICAL_SURFACE('',#834,2.35);
#752=CYLINDRICAL_SURFACE('',#838,2.35);
#753=CYLINDRICAL_SURFACE('',#852,2.5);
#754=CYLINDRICAL_SURFACE('',#855,2.5);
#755=CYLINDRICAL_SURFACE('',#859,2.5);
#756=CYLINDRICAL_SURFACE('',#861,2.5);
#757=CYLINDRICAL_SURFACE('',#864,2.5);
#758=CYLINDRICAL_SURFACE('',#866,2.5);
#759=CYLINDRICAL_SURFACE('',#868,2.5);
#760=CYLINDRICAL_SURFACE('',#871,2.5);
#761=CYLINDRICAL_SURFACE('',#877,1.55);
#762=CYLINDRICAL_SURFACE('',#879,2.35);
#763=CYLINDRICAL_SURFACE('',#883,2.35);
#764=CYLINDRICAL_SURFACE('',#898,2.5);
#765=CYLINDRICAL_SURFACE('',#900,2.5);
#766=CYLINDRICAL_SURFACE('',#903,2.5);
#767=CYLINDRICAL_SURFACE('',#906,2.5);
#768=CYLINDRICAL_SURFACE('',#913,2.5);
#769=CYLINDRICAL_SURFACE('',#915,2.5);
#770=CYLINDRICAL_SURFACE('',#916,2.5);
#771=CYLINDRICAL_SURFACE('',#917,2.5);
#772=CYLINDRICAL_SURFACE('',#921,1.55);
#773=ADVANCED_FACE('',(#49),#751,.F.);
#774=ADVANCED_FACE('',(#50),#25,.F.);
#775=ADVANCED_FACE('',(#51),#752,.F.);
#776=ADVANCED_FACE('',(#52),#26,.F.);
#777=ADVANCED_FACE('',(#53,#17),#27,.T.);
#778=ADVANCED_FACE('',(#54,#18),#28,.T.);
#779=ADVANCED_FACE('',(#55),#753,.T.);
#780=ADVANCED_FACE('',(#56),#29,.T.);
#781=ADVANCED_FACE('',(#57),#754,.T.);
#782=ADVANCED_FACE('',(#58),#30,.T.);
#783=ADVANCED_FACE('',(#59),#31,.T.);
#784=ADVANCED_FACE('',(#60),#755,.T.);
#785=ADVANCED_FACE('',(#61),#756,.T.);
#786=ADVANCED_FACE('',(#62),#32,.T.);
#787=ADVANCED_FACE('',(#63),#757,.T.);
#788=ADVANCED_FACE('',(#64),#758,.T.);
#789=ADVANCED_FACE('',(#65),#759,.T.);
#790=ADVANCED_FACE('',(#66),#33,.T.);
#791=ADVANCED_FACE('',(#67),#760,.T.);
#792=ADVANCED_FACE('',(#68,#19),#34,.T.);
#793=ADVANCED_FACE('',(#69,#20),#35,.F.);
#794=ADVANCED_FACE('',(#70),#761,.F.);
#795=ADVANCED_FACE('',(#71),#36,.T.);
#796=ADVANCED_FACE('',(#72),#762,.F.);
#797=ADVANCED_FACE('',(#73),#37,.F.);
#798=ADVANCED_FACE('',(#74),#763,.F.);
#799=ADVANCED_FACE('',(#75),#38,.F.);
#800=ADVANCED_FACE('',(#76,#21),#39,.T.);
#801=ADVANCED_FACE('',(#77,#22),#40,.T.);
#802=ADVANCED_FACE('',(#78),#41,.T.);
#803=ADVANCED_FACE('',(#79),#764,.T.);
#804=ADVANCED_FACE('',(#80),#765,.T.);
#805=ADVANCED_FACE('',(#81),#42,.T.);
#806=ADVANCED_FACE('',(#82),#766,.T.);
#807=ADVANCED_FACE('',(#83),#43,.T.);
#808=ADVANCED_FACE('',(#84),#767,.T.);
#809=ADVANCED_FACE('',(#85,#23),#44,.F.);
#810=ADVANCED_FACE('',(#86),#768,.T.);
#811=ADVANCED_FACE('',(#87),#45,.T.);
#812=ADVANCED_FACE('',(#88),#769,.T.);
#813=ADVANCED_FACE('',(#89),#770,.T.);
#814=ADVANCED_FACE('',(#90),#771,.T.);
#815=ADVANCED_FACE('',(#91,#24),#46,.T.);
#816=ADVANCED_FACE('',(#92),#772,.F.);
#817=ADVANCED_FACE('',(#93),#47,.T.);
#818=ADVANCED_FACE('',(#94),#48,.T.);
#819=CLOSED_SHELL('',(#773,#774,#775,#776,#777,#778,#779,#780,#781,#782,
#783,#784,#785,#786,#787,#788,#789,#790,#791,#792,#793,#794,#795));
#820=CLOSED_SHELL('',(#796,#797,#798,#799,#800,#801,#802,#803,#804,#805,
#806,#807,#808,#809,#810,#811,#812,#813,#814,#815,#816,#817,#818));
#821=DERIVED_UNIT_ELEMENT(#823,1.);
#822=DERIVED_UNIT_ELEMENT(#1418,-3.);
#823=(
MASS_UNIT()
NAMED_UNIT(*)
SI_UNIT(.KILO.,.GRAM.)
);
#824=DERIVED_UNIT((#821,#822));
#825=MEASURE_REPRESENTATION_ITEM('density measure',
POSITIVE_RATIO_MEASURE(7850.),#824);
#826=PROPERTY_DEFINITION_REPRESENTATION(#831,#828);
#827=PROPERTY_DEFINITION_REPRESENTATION(#832,#829);
#828=REPRESENTATION('material name',(#830),#1415);
#829=REPRESENTATION('density',(#825),#1415);
#830=DESCRIPTIVE_REPRESENTATION_ITEM('Stahl','Stahl');
#831=PROPERTY_DEFINITION('material property','material name',#1425);
#832=PROPERTY_DEFINITION('material property','density of part',#1425);
#833=AXIS2_PLACEMENT_3D('',#1176,#924,#925);
#834=AXIS2_PLACEMENT_3D('',#1177,#926,#927);
#835=AXIS2_PLACEMENT_3D('',#1179,#928,#929);
#836=AXIS2_PLACEMENT_3D('',#1182,#931,#932);
#837=AXIS2_PLACEMENT_3D('',#1183,#933,#934);
#838=AXIS2_PLACEMENT_3D('',#1184,#935,#936);
#839=AXIS2_PLACEMENT_3D('',#1186,#937,#938);
#840=AXIS2_PLACEMENT_3D('',#1189,#940,#941);
#841=AXIS2_PLACEMENT_3D('',#1190,#942,#943);
#842=AXIS2_PLACEMENT_3D('',#1191,#944,#945);
#843=AXIS2_PLACEMENT_3D('',#1194,#946,#947);
#844=AXIS2_PLACEMENT_3D('',#1198,#949,#950);
#845=AXIS2_PLACEMENT_3D('',#1202,#952,#953);
#846=AXIS2_PLACEMENT_3D('',#1206,#955,#956);
#847=AXIS2_PLACEMENT_3D('',#1208,#958,#959);
#848=AXIS2_PLACEMENT_3D('',#1211,#960,#961);
#849=AXIS2_PLACEMENT_3D('',#1215,#963,#964);
#850=AXIS2_PLACEMENT_3D('',#1219,#966,#967);
#851=AXIS2_PLACEMENT_3D('',#1223,#969,#970);
#852=AXIS2_PLACEMENT_3D('',#1225,#972,#973);
#853=AXIS2_PLACEMENT_3D('',#1229,#975,#976);
#854=AXIS2_PLACEMENT_3D('',#1231,#978,#979);
#855=AXIS2_PLACEMENT_3D('',#1235,#982,#983);
#856=AXIS2_PLACEMENT_3D('',#1238,#985,#986);
#857=AXIS2_PLACEMENT_3D('',#1239,#987,#988);
#858=AXIS2_PLACEMENT_3D('',#1245,#992,#993);
#859=AXIS2_PLACEMENT_3D('',#1254,#999,#1000);
#860=AXIS2_PLACEMENT_3D('',#1257,#1002,#1003);
#861=AXIS2_PLACEMENT_3D('',#1258,#1004,#1005);
#862=AXIS2_PLACEMENT_3D('',#1262,#1007,#1008);
#863=AXIS2_PLACEMENT_3D('',#1264,#1010,#1011);
#864=AXIS2_PLACEMENT_3D('',#1269,#1015,#1016);
#865=AXIS2_PLACEMENT_3D('',#1272,#1018,#1019);
#866=AXIS2_PLACEMENT_3D('',#1273,#1020,#1021);
#867=AXIS2_PLACEMENT_3D('',#1274,#1022,#1023);
#868=AXIS2_PLACEMENT_3D('',#1275,#1024,#1025);
#869=AXIS2_PLACEMENT_3D('',#1277,#1026,#1027);
#870=AXIS2_PLACEMENT_3D('',#1279,#1029,#1030);
#871=AXIS2_PLACEMENT_3D('',#1281,#1032,#1033);
#872=AXIS2_PLACEMENT_3D('',#1283,#1034,#1035);
#873=AXIS2_PLACEMENT_3D('',#1285,#1037,#1038);
#874=AXIS2_PLACEMENT_3D('',#1287,#1039,#1040);
#875=AXIS2_PLACEMENT_3D('',#1288,#1041,#1042);
#876=AXIS2_PLACEMENT_3D('',#1291,#1044,#1045);
#877=AXIS2_PLACEMENT_3D('',#1292,#1046,#1047);
#878=AXIS2_PLACEMENT_3D('',#1294,#1049,#1050);
#879=AXIS2_PLACEMENT_3D('',#1295,#1051,#1052);
#880=AXIS2_PLACEMENT_3D('',#1297,#1053,#1054);
#881=AXIS2_PLACEMENT_3D('',#1300,#1056,#1057);
#882=AXIS2_PLACEMENT_3D('',#1301,#1058,#1059);
#883=AXIS2_PLACEMENT_3D('',#1302,#1060,#1061);
#884=AXIS2_PLACEMENT_3D('',#1304,#1062,#1063);
#885=AXIS2_PLACEMENT_3D('',#1307,#1065,#1066);
#886=AXIS2_PLACEMENT_3D('',#1308,#1067,#1068);
#887=AXIS2_PLACEMENT_3D('',#1309,#1069,#1070);
#888=AXIS2_PLACEMENT_3D('',#1312,#1071,#1072);
#889=AXIS2_PLACEMENT_3D('',#1316,#1074,#1075);
#890=AXIS2_PLACEMENT_3D('',#1320,#1077,#1078);
#891=AXIS2_PLACEMENT_3D('',#1324,#1080,#1081);
#892=AXIS2_PLACEMENT_3D('',#1326,#1083,#1084);
#893=AXIS2_PLACEMENT_3D('',#1329,#1085,#1086);
#894=AXIS2_PLACEMENT_3D('',#1333,#1088,#1089);
#895=AXIS2_PLACEMENT_3D('',#1337,#1091,#1092);
#896=AXIS2_PLACEMENT_3D('',#1341,#1094,#1095);
#897=AXIS2_PLACEMENT_3D('',#1343,#1097,#1098);
#898=AXIS2_PLACEMENT_3D('',#1349,#1102,#1103);
#899=AXIS2_PLACEMENT_3D('',#1352,#1105,#1106);
#900=AXIS2_PLACEMENT_3D('',#1353,#1107,#1108);
#901=AXIS2_PLACEMENT_3D('',#1357,#1110,#1111);
#902=AXIS2_PLACEMENT_3D('',#1359,#1113,#1114);
#903=AXIS2_PLACEMENT_3D('',#1366,#1119,#1120);
#904=AXIS2_PLACEMENT_3D('',#1369,#1122,#1123);
#905=AXIS2_PLACEMENT_3D('',#1370,#1124,#1125);
#906=AXIS2_PLACEMENT_3D('',#1374,#1128,#1129);
#907=AXIS2_PLACEMENT_3D('',#1377,#1131,#1132);
#908=AXIS2_PLACEMENT_3D('',#1378,#1133,#1134);
#909=AXIS2_PLACEMENT_3D('',#1382,#1136,#1137);
#910=AXIS2_PLACEMENT_3D('',#1386,#1139,#1140);
#911=AXIS2_PLACEMENT_3D('',#1389,#1142,#1143);
#912=AXIS2_PLACEMENT_3D('',#1391,#1144,#1145);
#913=AXIS2_PLACEMENT_3D('',#1392,#1146,#1147);
#914=AXIS2_PLACEMENT_3D('',#1395,#1150,#1151);
#915=AXIS2_PLACEMENT_3D('',#1400,#1155,#1156);
#916=AXIS2_PLACEMENT_3D('',#1402,#1158,#1159);
#917=AXIS2_PLACEMENT_3D('',#1404,#1161,#1162);
#918=AXIS2_PLACEMENT_3D('',#1405,#1163,#1164);
#919=AXIS2_PLACEMENT_3D('',#1406,#1165,#1166);
#920=AXIS2_PLACEMENT_3D('',#1408,#1167,#1168);
#921=AXIS2_PLACEMENT_3D('',#1409,#1169,#1170);
#922=AXIS2_PLACEMENT_3D('',#1411,#1172,#1173);
#923=AXIS2_PLACEMENT_3D('',#1412,#1174,#1175);
#924=DIRECTION('axis',(0.,0.,1.));
#925=DIRECTION('refdir',(1.,0.,0.));
#926=DIRECTION('center_axis',(0.,0.,-1.));
#927=DIRECTION('ref_axis',(1.,0.,0.));
#928=DIRECTION('center_axis',(0.,0.,-1.));
#929=DIRECTION('ref_axis',(1.,0.,0.));
#930=DIRECTION('',(0.,0.,-1.));
#931=DIRECTION('center_axis',(0.,0.,-1.));
#932=DIRECTION('ref_axis',(1.,0.,0.));
#933=DIRECTION('center_axis',(0.,0.,-1.));
#934=DIRECTION('ref_axis',(1.,0.,0.));
#935=DIRECTION('center_axis',(0.,0.,-1.));
#936=DIRECTION('ref_axis',(1.,0.,0.));
#937=DIRECTION('center_axis',(0.,0.,-1.));
#938=DIRECTION('ref_axis',(1.,0.,0.));
#939=DIRECTION('',(0.,0.,-1.));
#940=DIRECTION('center_axis',(0.,0.,-1.));
#941=DIRECTION('ref_axis',(1.,0.,0.));
#942=DIRECTION('center_axis',(0.,0.,-1.));
#943=DIRECTION('ref_axis',(1.,0.,0.));
#944=DIRECTION('center_axis',(0.,0.,1.));
#945=DIRECTION('ref_axis',(1.,0.,0.));
#946=DIRECTION('center_axis',(0.,0.,-1.));
#947=DIRECTION('ref_axis',(0.707106781186547,0.707106781186547,0.));
#948=DIRECTION('',(1.,0.,0.));
#949=DIRECTION('center_axis',(0.,0.,-1.));
#950=DIRECTION('ref_axis',(-0.707106781186547,0.707106781186547,0.));
#951=DIRECTION('',(0.,1.,0.));
#952=DIRECTION('center_axis',(0.,0.,-1.));
#953=DIRECTION('ref_axis',(-0.707106781186547,-0.707106781186547,0.));
#954=DIRECTION('',(-1.,-6.66133814775094E-16,0.));
#955=DIRECTION('center_axis',(0.,0.,-1.));
#956=DIRECTION('ref_axis',(0.707106781186547,-0.707106781186547,0.));
#957=DIRECTION('',(0.,-1.,0.));
#958=DIRECTION('center_axis',(0.,0.,1.));
#959=DIRECTION('ref_axis',(1.,0.,0.));
#960=DIRECTION('center_axis',(0.,0.,-1.));
#961=DIRECTION('ref_axis',(0.707106781186547,-0.707106781186547,0.));
#962=DIRECTION('',(0.,-1.,0.));
#963=DIRECTION('center_axis',(0.,0.,-1.));
#964=DIRECTION('ref_axis',(0.707106781186547,0.707106781186547,0.));
#965=DIRECTION('',(1.,0.,0.));
#966=DIRECTION('center_axis',(0.,0.,-1.));
#967=DIRECTION('ref_axis',(-0.707106781186547,0.707106781186547,0.));
#968=DIRECTION('',(0.,1.,0.));
#969=DIRECTION('center_axis',(0.,0.,-1.));
#970=DIRECTION('ref_axis',(-0.707106781186547,-0.707106781186547,0.));
#971=DIRECTION('',(-1.,0.,0.));
#972=DIRECTION('center_axis',(0.,0.,1.));
#973=DIRECTION('ref_axis',(-0.707106781186547,0.707106781186547,0.));
#974=DIRECTION('',(0.,0.,-1.));
#975=DIRECTION('center_axis',(0.,0.,-1.));
#976=DIRECTION('ref_axis',(-0.707106781186547,0.707106781186547,0.));
#977=DIRECTION('',(0.,0.,1.));
#978=DIRECTION('center_axis',(0.,1.,0.));
#979=DIRECTION('ref_axis',(-1.,0.,0.));
#980=DIRECTION('',(0.,0.,1.));
#981=DIRECTION('',(1.,0.,0.));
#982=DIRECTION('center_axis',(0.,0.,1.));
#983=DIRECTION('ref_axis',(0.707106781186547,0.707106781186547,0.));
#984=DIRECTION('',(0.,0.,-1.));
#985=DIRECTION('center_axis',(0.,0.,-1.));
#986=DIRECTION('ref_axis',(0.707106781186547,0.707106781186547,0.));
#987=DIRECTION('center_axis',(0.,1.,0.));
#988=DIRECTION('ref_axis',(-1.,0.,0.));
#989=DIRECTION('',(0.,0.,1.));
#990=DIRECTION('',(1.,0.,0.));
#991=DIRECTION('',(0.,0.,-1.));
#992=DIRECTION('center_axis',(-1.,0.,0.));
#993=DIRECTION('ref_axis',(0.,-1.,0.));
#994=DIRECTION('',(0.,-1.,0.));
#995=DIRECTION('',(0.,0.,-1.));
#996=DIRECTION('',(0.,0.,1.));
#997=DIRECTION('',(0.,1.,0.));
#998=DIRECTION('',(0.,0.,-1.));
#999=DIRECTION('center_axis',(0.,0.,1.));
#1000=DIRECTION('ref_axis',(0.707106781186547,0.707106781186547,0.));
#1001=DIRECTION('',(0.,0.,-1.));
#1002=DIRECTION('center_axis',(0.,0.,1.));
#1003=DIRECTION('ref_axis',(0.707106781186547,0.707106781186547,0.));
#1004=DIRECTION('center_axis',(0.,0.,1.));
#1005=DIRECTION('ref_axis',(0.707106781186547,-0.707106781186547,0.));
#1006=DIRECTION('',(0.,0.,-1.));
#1007=DIRECTION('center_axis',(0.,0.,-1.));
#1008=DIRECTION('ref_axis',(0.707106781186547,-0.707106781186547,0.));
#1009=DIRECTION('',(0.,0.,1.));
#1010=DIRECTION('center_axis',(1.,0.,0.));
#1011=DIRECTION('ref_axis',(0.,1.,0.));
#1012=DIRECTION('',(0.,0.,1.));
#1013=DIRECTION('',(0.,-1.,0.));
#1014=DIRECTION('',(0.,1.,0.));
#1015=DIRECTION('center_axis',(0.,0.,1.));
#1016=DIRECTION('ref_axis',(0.707106781186547,-0.707106781186547,0.));
#1017=DIRECTION('',(0.,0.,-1.));
#1018=DIRECTION('center_axis',(0.,0.,1.));
#1019=DIRECTION('ref_axis',(0.707106781186547,-0.707106781186547,0.));
#1020=DIRECTION('center_axis',(0.,0.,1.));
#1021=DIRECTION('ref_axis',(-0.707106781186547,0.707106781186547,0.));
#1022=DIRECTION('center_axis',(0.,0.,1.));
#1023=DIRECTION('ref_axis',(-0.707106781186547,0.707106781186547,0.));
#1024=DIRECTION('center_axis',(0.,0.,1.));
#1025=DIRECTION('ref_axis',(-0.707106781186547,-0.707106781186547,0.));
#1026=DIRECTION('center_axis',(0.,0.,-1.));
#1027=DIRECTION('ref_axis',(-0.707106781186547,-0.707106781186547,0.));
#1028=DIRECTION('',(0.,0.,1.));
#1029=DIRECTION('center_axis',(0.,-1.,0.));
#1030=DIRECTION('ref_axis',(1.,0.,0.));
#1031=DIRECTION('',(-1.,0.,0.));
#1032=DIRECTION('center_axis',(0.,0.,1.));
#1033=DIRECTION('ref_axis',(-0.707106781186547,-0.707106781186547,0.));
#1034=DIRECTION('center_axis',(0.,0.,1.));
#1035=DIRECTION('ref_axis',(-0.707106781186547,-0.707106781186547,0.));
#1036=DIRECTION('',(0.,0.,1.));
#1037=DIRECTION('center_axis',(0.,0.,1.));
#1038=DIRECTION('ref_axis',(1.,0.,0.));
#1039=DIRECTION('center_axis',(0.,0.,-1.));
#1040=DIRECTION('ref_axis',(1.,0.,0.));
#1041=DIRECTION('center_axis',(0.,0.,1.));
#1042=DIRECTION('ref_axis',(1.,0.,0.));
#1043=DIRECTION('',(-1.,-6.66133814775094E-16,0.));
#1044=DIRECTION('center_axis',(0.,0.,-1.));
#1045=DIRECTION('ref_axis',(1.,0.,0.));
#1046=DIRECTION('center_axis',(0.,0.,1.));
#1047=DIRECTION('ref_axis',(1.,0.,0.));
#1048=DIRECTION('',(0.,0.,-1.));
#1049=DIRECTION('center_axis',(6.66133814775094E-16,-1.,0.));
#1050=DIRECTION('ref_axis',(1.,6.66133814775094E-16,0.));
#1051=DIRECTION('center_axis',(0.,0.,-1.));
#1052=DIRECTION('ref_axis',(1.,0.,0.));
#1053=DIRECTION('center_axis',(0.,0.,-1.));
#1054=DIRECTION('ref_axis',(1.,0.,0.));
#1055=DIRECTION('',(0.,0.,-1.));
#1056=DIRECTION('center_axis',(0.,0.,-1.));
#1057=DIRECTION('ref_axis',(1.,0.,0.));
#1058=DIRECTION('center_axis',(0.,0.,-1.));
#1059=DIRECTION('ref_axis',(1.,0.,0.));
#1060=DIRECTION('center_axis',(0.,0.,-1.));
#1061=DIRECTION('ref_axis',(1.,0.,0.));
#1062=DIRECTION('center_axis',(0.,0.,-1.));
#1063=DIRECTION('ref_axis',(1.,0.,0.));
#1064=DIRECTION('',(0.,0.,-1.));
#1065=DIRECTION('center_axis',(0.,0.,-1.));
#1066=DIRECTION('ref_axis',(1.,0.,0.));
#1067=DIRECTION('center_axis',(0.,0.,-1.));
#1068=DIRECTION('ref_axis',(1.,0.,0.));
#1069=DIRECTION('center_axis',(0.,0.,1.));
#1070=DIRECTION('ref_axis',(1.,0.,0.));
#1071=DIRECTION('center_axis',(0.,0.,-1.));
#1072=DIRECTION('ref_axis',(0.707106781186547,-0.707106781186547,0.));
#1073=DIRECTION('',(0.,-1.,0.));
#1074=DIRECTION('center_axis',(0.,0.,-1.));
#1075=DIRECTION('ref_axis',(0.707106781186547,0.707106781186547,0.));
#1076=DIRECTION('',(1.,0.,0.));
#1077=DIRECTION('center_axis',(0.,0.,-1.));
#1078=DIRECTION('ref_axis',(-0.707106781186547,0.707106781186547,0.));
#1079=DIRECTION('',(0.,1.,0.));
#1080=DIRECTION('center_axis',(0.,0.,-1.));
#1081=DIRECTION('ref_axis',(-0.707106781186547,-0.707106781186547,0.));
#1082=DIRECTION('',(-1.,0.,0.));
#1083=DIRECTION('center_axis',(0.,0.,1.));
#1084=DIRECTION('ref_axis',(1.,0.,0.));
#1085=DIRECTION('center_axis',(0.,0.,-1.));
#1086=DIRECTION('ref_axis',(-0.707106781186547,-0.707106781186547,0.));
#1087=DIRECTION('',(-1.,0.,0.));
#1088=DIRECTION('center_axis',(0.,0.,-1.));
#1089=DIRECTION('ref_axis',(0.707106781186547,-0.707106781186547,0.));
#1090=DIRECTION('',(0.,-1.,0.));
#1091=DIRECTION('center_axis',(0.,0.,-1.));
#1092=DIRECTION('ref_axis',(0.707106781186547,0.707106781186547,0.));
#1093=DIRECTION('',(1.,0.,0.));
#1094=DIRECTION('center_axis',(0.,0.,-1.));
#1095=DIRECTION('ref_axis',(-0.707106781186547,0.707106781186547,0.));
#1096=DIRECTION('',(0.,1.,0.));
#1097=DIRECTION('center_axis',(0.,1.,0.));
#1098=DIRECTION('ref_axis',(-1.,0.,0.));
#1099=DIRECTION('',(0.,0.,1.));
#1100=DIRECTION('',(1.,0.,0.));
#1101=DIRECTION('',(0.,0.,-1.));
#1102=DIRECTION('center_axis',(0.,0.,1.));
#1103=DIRECTION('ref_axis',(0.707106781186547,0.707106781186547,0.));
#1104=DIRECTION('',(0.,0.,-1.));
#1105=DIRECTION('center_axis',(0.,0.,-1.));
#1106=DIRECTION('ref_axis',(0.707106781186547,0.707106781186547,0.));
#1107=DIRECTION('center_axis',(0.,0.,1.));
#1108=DIRECTION('ref_axis',(0.707106781186547,-0.707106781186547,0.));
#1109=DIRECTION('',(0.,0.,-1.));
#1110=DIRECTION('center_axis',(0.,0.,1.));
#1111=DIRECTION('ref_axis',(0.707106781186547,-0.707106781186547,0.));
#1112=DIRECTION('',(0.,0.,1.));
#1113=DIRECTION('center_axis',(1.,0.,0.));
#1114=DIRECTION('ref_axis',(0.,1.,0.));
#1115=DIRECTION('',(0.,-1.,0.));
#1116=DIRECTION('',(0.,0.,-1.));
#1117=DIRECTION('',(0.,0.,1.));
#1118=DIRECTION('',(0.,1.,0.));
#1119=DIRECTION('center_axis',(0.,0.,1.));
#1120=DIRECTION('ref_axis',(0.707106781186547,-0.707106781186547,0.));
#1121=DIRECTION('',(0.,0.,-1.));
#1122=DIRECTION('center_axis',(0.,0.,-1.));
#1123=DIRECTION('ref_axis',(0.707106781186547,-0.707106781186547,0.));
#1124=DIRECTION('center_axis',(0.,-1.,0.));
#1125=DIRECTION('ref_axis',(1.,0.,0.));
#1126=DIRECTION('',(0.,0.,1.));
#1127=DIRECTION('',(-1.,0.,0.));
#1128=DIRECTION('center_axis',(0.,0.,1.));
#1129=DIRECTION('ref_axis',(-0.707106781186547,-0.707106781186547,0.));
#1130=DIRECTION('',(0.,0.,-1.));
#1131=DIRECTION('center_axis',(0.,0.,-1.));
#1132=DIRECTION('ref_axis',(-0.707106781186547,-0.707106781186547,0.));
#1133=DIRECTION('center_axis',(0.,0.,1.));
#1134=DIRECTION('ref_axis',(1.,0.,0.));
#1135=DIRECTION('',(-1.,0.,0.));
#1136=DIRECTION('center_axis',(0.,0.,1.));
#1137=DIRECTION('ref_axis',(-0.707106781186547,-0.707106781186547,0.));
#1138=DIRECTION('',(0.,1.,0.));
#1139=DIRECTION('center_axis',(0.,0.,1.));
#1140=DIRECTION('ref_axis',(-0.707106781186547,0.707106781186547,0.));
#1141=DIRECTION('',(1.,0.,0.));
#1142=DIRECTION('center_axis',(0.,0.,1.));
#1143=DIRECTION('ref_axis',(0.707106781186547,0.707106781186547,0.));
#1144=DIRECTION('center_axis',(0.,0.,-1.));
#1145=DIRECTION('ref_axis',(1.,0.,0.));
#1146=DIRECTION('center_axis',(0.,0.,1.));
#1147=DIRECTION('ref_axis',(-0.707106781186547,-0.707106781186547,0.));
#1148=DIRECTION('',(0.,0.,-1.));
#1149=DIRECTION('',(0.,0.,1.));
#1150=DIRECTION('center_axis',(-1.,0.,0.));
#1151=DIRECTION('ref_axis',(0.,-1.,0.));
#1152=DIRECTION('',(0.,0.,1.));
#1153=DIRECTION('',(0.,-1.,0.));
#1154=DIRECTION('',(0.,0.,1.));
#1155=DIRECTION('center_axis',(0.,0.,1.));
#1156=DIRECTION('ref_axis',(-0.707106781186547,0.707106781186547,0.));
#1157=DIRECTION('',(0.,0.,-1.));
#1158=DIRECTION('center_axis',(0.,0.,1.));
#1159=DIRECTION('ref_axis',(0.707106781186547,0.707106781186547,0.));
#1160=DIRECTION('',(0.,0.,1.));
#1161=DIRECTION('center_axis',(0.,0.,1.));
#1162=DIRECTION('ref_axis',(-0.707106781186547,0.707106781186547,0.));
#1163=DIRECTION('center_axis',(0.,0.,-1.));
#1164=DIRECTION('ref_axis',(-0.707106781186547,0.707106781186547,0.));
#1165=DIRECTION('center_axis',(0.,0.,1.));
#1166=DIRECTION('ref_axis',(1.,0.,0.));
#1167=DIRECTION('center_axis',(0.,0.,-1.));
#1168=DIRECTION('ref_axis',(1.,0.,0.));
#1169=DIRECTION('center_axis',(0.,0.,1.));
#1170=DIRECTION('ref_axis',(1.,0.,0.));
#1171=DIRECTION('',(0.,0.,-1.));
#1172=DIRECTION('center_axis',(0.,1.,0.));
#1173=DIRECTION('ref_axis',(-1.,0.,0.));
#1174=DIRECTION('center_axis',(0.,-1.,0.));
#1175=DIRECTION('ref_axis',(1.,0.,0.));
#1176=CARTESIAN_POINT('',(0.,0.,0.));
#1177=CARTESIAN_POINT('Origin',(-61.,-11.,35.25));
#1178=CARTESIAN_POINT('',(-63.35,-11.,38.));
#1179=CARTESIAN_POINT('Origin',(-61.,-11.,38.));
#1180=CARTESIAN_POINT('',(-63.35,-11.,32.5));
#1181=CARTESIAN_POINT('',(-63.35,-11.,35.25));
#1182=CARTESIAN_POINT('Origin',(-61.,-11.,32.5));
#1183=CARTESIAN_POINT('Origin',(-61.,-11.,32.5));
#1184=CARTESIAN_POINT('Origin',(-61.0000009998679,11.,35.25));
#1185=CARTESIAN_POINT('',(-63.3500009998679,11.,38.));
#1186=CARTESIAN_POINT('Origin',(-61.0000009998679,11.,38.));
#1187=CARTESIAN_POINT('',(-63.3500009998679,11.,32.5));
#1188=CARTESIAN_POINT('',(-63.3500009998679,11.,35.25));
#1189=CARTESIAN_POINT('Origin',(-61.0000009998679,11.,32.5));
#1190=CARTESIAN_POINT('Origin',(-61.0000009998679,11.,32.5));
#1191=CARTESIAN_POINT('Origin',(-61.,-10.5,38.));
#1192=CARTESIAN_POINT('',(-58.5,-5.,38.));
#1193=CARTESIAN_POINT('',(-56.,-7.5,38.));
#1194=CARTESIAN_POINT('Origin',(-58.5,-7.5,38.));
#1195=CARTESIAN_POINT('',(-63.5,-5.,38.));
#1196=CARTESIAN_POINT('',(-58.5,-5.,38.));
#1197=CARTESIAN_POINT('',(-66.,-7.5,38.));
#1198=CARTESIAN_POINT('Origin',(-63.5,-7.5,38.));
#1199=CARTESIAN_POINT('',(-66.,-13.5,38.));
#1200=CARTESIAN_POINT('',(-66.,2.75,38.));
#1201=CARTESIAN_POINT('',(-63.5,-16.,38.));
#1202=CARTESIAN_POINT('Origin',(-63.5,-13.5,38.));
#1203=CARTESIAN_POINT('',(-58.5,-16.,38.));
#1204=CARTESIAN_POINT('',(-63.5,-16.,38.));
#1205=CARTESIAN_POINT('',(-56.,-13.5,38.));
#1206=CARTESIAN_POINT('Origin',(-58.5,-13.5,38.));
#1207=CARTESIAN_POINT('',(-56.,-13.25,38.));
#1208=CARTESIAN_POINT('Origin',(-61.,10.5,38.));
#1209=CARTESIAN_POINT('',(-56.,7.5,38.));
#1210=CARTESIAN_POINT('',(-58.5,5.,38.));
#1211=CARTESIAN_POINT('Origin',(-58.5,7.5,38.));
#1212=CARTESIAN_POINT('',(-56.,13.5,38.));
#1213=CARTESIAN_POINT('',(-56.,-2.75,38.));
#1214=CARTESIAN_POINT('',(-58.5,16.,38.));
#1215=CARTESIAN_POINT('Origin',(-58.5,13.5,38.));
#1216=CARTESIAN_POINT('',(-63.5,16.,38.));
#1217=CARTESIAN_POINT('',(-58.5,16.,38.));
#1218=CARTESIAN_POINT('',(-66.,13.5,38.));
#1219=CARTESIAN_POINT('Origin',(-63.5,13.5,38.));
#1220=CARTESIAN_POINT('',(-66.,7.5,38.));
#1221=CARTESIAN_POINT('',(-66.,13.25,38.));
#1222=CARTESIAN_POINT('',(-63.5,5.,38.));
#1223=CARTESIAN_POINT('Origin',(-63.5,7.5,38.));
#1224=CARTESIAN_POINT('',(-63.5,5.,38.));
#1225=CARTESIAN_POINT('Origin',(-63.5,-7.5,0.));
#1226=CARTESIAN_POINT('',(-63.5,-5.,3.));
#1227=CARTESIAN_POINT('',(-63.5,-5.,0.));
#1228=CARTESIAN_POINT('',(-66.,-7.5,3.));
#1229=CARTESIAN_POINT('Origin',(-63.5,-7.5,3.));
#1230=CARTESIAN_POINT('',(-66.,-7.5,0.));
#1231=CARTESIAN_POINT('Origin',(-56.,-5.,0.));
#1232=CARTESIAN_POINT('',(-58.5,-5.,3.));
#1233=CARTESIAN_POINT('',(-58.5,-5.,0.));
#1234=CARTESIAN_POINT('',(-58.5,-5.,3.));
#1235=CARTESIAN_POINT('Origin',(-58.5,-7.5,0.));
#1236=CARTESIAN_POINT('',(-56.,-7.5,3.));
#1237=CARTESIAN_POINT('',(-56.,-7.5,0.));
#1238=CARTESIAN_POINT('Origin',(-58.5,-7.5,3.));
#1239=CARTESIAN_POINT('Origin',(-56.,16.,0.));
#1240=CARTESIAN_POINT('',(-58.5,16.,0.));
#1241=CARTESIAN_POINT('',(-58.5,16.,0.));
#1242=CARTESIAN_POINT('',(-63.5,16.,0.));
#1243=CARTESIAN_POINT('',(-66.,16.,0.));
#1244=CARTESIAN_POINT('',(-63.5,16.,0.));
#1245=CARTESIAN_POINT('Origin',(-66.,16.,0.));
#1246=CARTESIAN_POINT('',(-66.,7.5,3.));
#1247=CARTESIAN_POINT('',(-66.,-16.,3.));
#1248=CARTESIAN_POINT('',(-66.,7.5,0.));
#1249=CARTESIAN_POINT('',(-66.,13.5,0.));
#1250=CARTESIAN_POINT('',(-66.,13.5,0.));
#1251=CARTESIAN_POINT('',(-66.,-13.5,0.));
#1252=CARTESIAN_POINT('',(-66.,-16.,0.));
#1253=CARTESIAN_POINT('',(-66.,-13.5,0.));
#1254=CARTESIAN_POINT('Origin',(-58.5,13.5,0.));
#1255=CARTESIAN_POINT('',(-56.,13.5,0.));
#1256=CARTESIAN_POINT('',(-56.,13.5,0.));
#1257=CARTESIAN_POINT('Origin',(-58.5,13.5,0.));
#1258=CARTESIAN_POINT('Origin',(-58.5,7.5,0.));
#1259=CARTESIAN_POINT('',(-58.5,5.,3.));
#1260=CARTESIAN_POINT('',(-58.5,5.,0.));
#1261=CARTESIAN_POINT('',(-56.,7.5,3.));
#1262=CARTESIAN_POINT('Origin',(-58.5,7.5,3.));
#1263=CARTESIAN_POINT('',(-56.,7.5,0.));
#1264=CARTESIAN_POINT('Origin',(-56.,-16.,0.));
#1265=CARTESIAN_POINT('',(-56.,-13.5,0.));
#1266=CARTESIAN_POINT('',(-56.,-13.5,0.));
#1267=CARTESIAN_POINT('',(-56.,16.,0.));
#1268=CARTESIAN_POINT('',(-56.,16.,3.));
#1269=CARTESIAN_POINT('Origin',(-58.5,-13.5,0.));
#1270=CARTESIAN_POINT('',(-58.5,-16.,0.));
#1271=CARTESIAN_POINT('',(-58.5,-16.,0.));
#1272=CARTESIAN_POINT('Origin',(-58.5,-13.5,0.));
#1273=CARTESIAN_POINT('Origin',(-63.5,13.5,0.));
#1274=CARTESIAN_POINT('Origin',(-63.5,13.5,0.));
#1275=CARTESIAN_POINT('Origin',(-63.5,7.5,0.));
#1276=CARTESIAN_POINT('',(-63.5,5.,3.));
#1277=CARTESIAN_POINT('Origin',(-63.5,7.5,3.));
#1278=CARTESIAN_POINT('',(-63.5,5.,0.));
#1279=CARTESIAN_POINT('Origin',(-66.,5.,0.));
#1280=CARTESIAN_POINT('',(-63.5,5.,3.));
#1281=CARTESIAN_POINT('Origin',(-63.5,-13.5,0.));
#1282=CARTESIAN_POINT('',(-63.5,-16.,0.));
#1283=CARTESIAN_POINT('Origin',(-63.5,-13.5,0.));
#1284=CARTESIAN_POINT('',(-63.5,-16.,0.));
#1285=CARTESIAN_POINT('Origin',(-61.,-2.22044604925031E-15,3.));
#1286=CARTESIAN_POINT('',(-62.55,-1.8982025386784E-16,3.));
#1287=CARTESIAN_POINT('Origin',(-61.,0.,3.));
#1288=CARTESIAN_POINT('Origin',(-61.,-2.22044604925031E-15,0.));
#1289=CARTESIAN_POINT('',(-56.,-16.,0.));
#1290=CARTESIAN_POINT('',(-62.55,-1.8982025386784E-16,0.));
#1291=CARTESIAN_POINT('Origin',(-61.,0.,0.));
#1292=CARTESIAN_POINT('Origin',(-61.,0.,0.));
#1293=CARTESIAN_POINT('',(-62.55,-1.8982025386784E-16,0.));
#1294=CARTESIAN_POINT('Origin',(-66.,-16.,0.));
#1295=CARTESIAN_POINT('Origin',(61.,-11.,35.25));
#1296=CARTESIAN_POINT('',(58.65,-11.,38.));
#1297=CARTESIAN_POINT('Origin',(61.,-11.,38.));
#1298=CARTESIAN_POINT('',(58.65,-11.,32.5));
#1299=CARTESIAN_POINT('',(58.65,-11.,35.25));
#1300=CARTESIAN_POINT('Origin',(61.,-11.,32.5));
#1301=CARTESIAN_POINT('Origin',(61.,-11.,32.5));
#1302=CARTESIAN_POINT('Origin',(61.,10.5,35.25));
#1303=CARTESIAN_POINT('',(58.65,10.5,38.));
#1304=CARTESIAN_POINT('Origin',(61.,10.5,38.));
#1305=CARTESIAN_POINT('',(58.65,10.5,32.5));
#1306=CARTESIAN_POINT('',(58.65,10.5,35.25));
#1307=CARTESIAN_POINT('Origin',(61.,10.5,32.5));
#1308=CARTESIAN_POINT('Origin',(61.,10.5,32.5));
#1309=CARTESIAN_POINT('Origin',(61.,-10.5,38.));
#1310=CARTESIAN_POINT('',(66.,-13.5,38.));
#1311=CARTESIAN_POINT('',(63.5,-16.,38.));
#1312=CARTESIAN_POINT('Origin',(63.5,-13.5,38.));
#1313=CARTESIAN_POINT('',(66.,-7.5,38.));
#1314=CARTESIAN_POINT('',(66.,-13.25,38.));
#1315=CARTESIAN_POINT('',(63.5,-5.,38.));
#1316=CARTESIAN_POINT('Origin',(63.5,-7.5,38.));
#1317=CARTESIAN_POINT('',(58.5,-5.,38.));
#1318=CARTESIAN_POINT('',(63.5,-5.,38.));
#1319=CARTESIAN_POINT('',(56.,-7.5,38.));
#1320=CARTESIAN_POINT('Origin',(58.5,-7.5,38.));
#1321=CARTESIAN_POINT('',(56.,-13.5,38.));
#1322=CARTESIAN_POINT('',(56.,2.75,38.));
#1323=CARTESIAN_POINT('',(58.5,-16.,38.));
#1324=CARTESIAN_POINT('Origin',(58.5,-13.5,38.));
#1325=CARTESIAN_POINT('',(58.5,-16.,38.));
#1326=CARTESIAN_POINT('Origin',(61.,10.5,38.));
#1327=CARTESIAN_POINT('',(58.5,5.,38.));
#1328=CARTESIAN_POINT('',(56.,7.5,38.));
#1329=CARTESIAN_POINT('Origin',(58.5,7.5,38.));
#1330=CARTESIAN_POINT('',(63.5,5.,38.));
#1331=CARTESIAN_POINT('',(58.5,5.,38.));
#1332=CARTESIAN_POINT('',(66.,7.5,38.));
#1333=CARTESIAN_POINT('Origin',(63.5,7.5,38.));
#1334=CARTESIAN_POINT('',(66.,13.5,38.));
#1335=CARTESIAN_POINT('',(66.,-2.75,38.));
#1336=CARTESIAN_POINT('',(63.5,16.,38.));
#1337=CARTESIAN_POINT('Origin',(63.5,13.5,38.));
#1338=CARTESIAN_POINT('',(58.5,16.,38.));
#1339=CARTESIAN_POINT('',(63.5,16.,38.));
#1340=CARTESIAN_POINT('',(56.,13.5,38.));
#1341=CARTESIAN_POINT('Origin',(58.5,13.5,38.));
#1342=CARTESIAN_POINT('',(56.,13.25,38.));
#1343=CARTESIAN_POINT('Origin',(66.,-5.,0.));
#1344=CARTESIAN_POINT('',(63.5,-5.,3.));
#1345=CARTESIAN_POINT('',(63.5,-5.,0.));
#1346=CARTESIAN_POINT('',(58.5,-5.,3.));
#1347=CARTESIAN_POINT('',(63.5,-5.,3.));
#1348=CARTESIAN_POINT('',(58.5,-5.,0.));
#1349=CARTESIAN_POINT('Origin',(63.5,-7.5,0.));
#1350=CARTESIAN_POINT('',(66.,-7.5,3.));
#1351=CARTESIAN_POINT('',(66.,-7.5,0.));
#1352=CARTESIAN_POINT('Origin',(63.5,-7.5,3.));
#1353=CARTESIAN_POINT('Origin',(63.5,-13.5,0.));
#1354=CARTESIAN_POINT('',(63.5,-16.,0.));
#1355=CARTESIAN_POINT('',(63.5,-16.,0.));
#1356=CARTESIAN_POINT('',(66.,-13.5,0.));
#1357=CARTESIAN_POINT('Origin',(63.5,-13.5,0.));
#1358=CARTESIAN_POINT('',(66.,-13.5,0.));
#1359=CARTESIAN_POINT('Origin',(66.,-16.,0.));
#1360=CARTESIAN_POINT('',(66.,13.5,0.));
#1361=CARTESIAN_POINT('',(66.,16.,0.));
#1362=CARTESIAN_POINT('',(66.,13.5,0.));
#1363=CARTESIAN_POINT('',(66.,7.5,3.));
#1364=CARTESIAN_POINT('',(66.,7.5,0.));
#1365=CARTESIAN_POINT('',(66.,16.,3.));
#1366=CARTESIAN_POINT('Origin',(63.5,7.5,0.));
#1367=CARTESIAN_POINT('',(63.5,5.,3.));
#1368=CARTESIAN_POINT('',(63.5,5.,0.));
#1369=CARTESIAN_POINT('Origin',(63.5,7.5,3.));
#1370=CARTESIAN_POINT('Origin',(56.,5.,0.));
#1371=CARTESIAN_POINT('',(58.5,5.,3.));
#1372=CARTESIAN_POINT('',(58.5,5.,0.));
#1373=CARTESIAN_POINT('',(58.5,5.,3.));
#1374=CARTESIAN_POINT('Origin',(58.5,7.5,0.));
#1375=CARTESIAN_POINT('',(56.,7.5,3.));
#1376=CARTESIAN_POINT('',(56.,7.5,0.));
#1377=CARTESIAN_POINT('Origin',(58.5,7.5,3.));
#1378=CARTESIAN_POINT('Origin',(61.,0.,0.));
#1379=CARTESIAN_POINT('',(58.5,-16.,0.));
#1380=CARTESIAN_POINT('',(66.,-16.,0.));
#1381=CARTESIAN_POINT('',(56.,-13.5,0.));
#1382=CARTESIAN_POINT('Origin',(58.5,-13.5,0.));
#1383=CARTESIAN_POINT('',(56.,13.5,0.));
#1384=CARTESIAN_POINT('',(56.,-16.,0.));
#1385=CARTESIAN_POINT('',(58.5,16.,0.));
#1386=CARTESIAN_POINT('Origin',(58.5,13.5,0.));
#1387=CARTESIAN_POINT('',(63.5,16.,0.));
#1388=CARTESIAN_POINT('',(56.,16.,0.));
#1389=CARTESIAN_POINT('Origin',(63.5,13.5,0.));
#1390=CARTESIAN_POINT('',(59.45,-1.8982025386784E-16,0.));
#1391=CARTESIAN_POINT('Origin',(61.,0.,0.));
#1392=CARTESIAN_POINT('Origin',(58.5,-13.5,0.));
#1393=CARTESIAN_POINT('',(56.,-13.5,0.));
#1394=CARTESIAN_POINT('',(58.5,-16.,0.));
#1395=CARTESIAN_POINT('Origin',(56.,16.,0.));
#1396=CARTESIAN_POINT('',(56.,-7.5,3.));
#1397=CARTESIAN_POINT('',(56.,-7.5,0.));
#1398=CARTESIAN_POINT('',(56.,-16.,3.));
#1399=CARTESIAN_POINT('',(56.,13.5,0.));
#1400=CARTESIAN_POINT('Origin',(58.5,13.5,0.));
#1401=CARTESIAN_POINT('',(58.5,16.,0.));
#1402=CARTESIAN_POINT('Origin',(63.5,13.5,0.));
#1403=CARTESIAN_POINT('',(63.5,16.,0.));
#1404=CARTESIAN_POINT('Origin',(58.5,-7.5,0.));
#1405=CARTESIAN_POINT('Origin',(58.5,-7.5,3.));
#1406=CARTESIAN_POINT('Origin',(61.,0.,3.));
#1407=CARTESIAN_POINT('',(59.45,-1.8982025386784E-16,3.));
#1408=CARTESIAN_POINT('Origin',(61.,0.,3.));
#1409=CARTESIAN_POINT('Origin',(61.,0.,0.));
#1410=CARTESIAN_POINT('',(59.45,-1.8982025386784E-16,0.));
#1411=CARTESIAN_POINT('Origin',(66.,16.,0.));
#1412=CARTESIAN_POINT('Origin',(56.,-16.,0.));
#1413=UNCERTAINTY_MEASURE_WITH_UNIT(LENGTH_MEASURE(0.01),#1417,
'DISTANCE_ACCURACY_VALUE',
'Maximum model space distance between geometric entities at asserted c
onnectivities');
#1414=UNCERTAINTY_MEASURE_WITH_UNIT(LENGTH_MEASURE(0.01),#1417,
'DISTANCE_ACCURACY_VALUE',
'Maximum model space distance between geometric entities at asserted c
onnectivities');
#1415=(
GEOMETRIC_REPRESENTATION_CONTEXT(3)
GLOBAL_UNCERTAINTY_ASSIGNED_CONTEXT((#1413))
GLOBAL_UNIT_ASSIGNED_CONTEXT((#1417,#1419,#1420))
REPRESENTATION_CONTEXT('','3D')
);
#1416=(
GEOMETRIC_REPRESENTATION_CONTEXT(3)
GLOBAL_UNCERTAINTY_ASSIGNED_CONTEXT((#1414))
GLOBAL_UNIT_ASSIGNED_CONTEXT((#1417,#1419,#1420))
REPRESENTATION_CONTEXT('','3D')
);
#1417=(
LENGTH_UNIT()
NAMED_UNIT(*)
SI_UNIT(.MILLI.,.METRE.)
);
#1418=(
LENGTH_UNIT()
NAMED_UNIT(*)
SI_UNIT($,.METRE.)
);
#1419=(
NAMED_UNIT(*)
PLANE_ANGLE_UNIT()
SI_UNIT($,.RADIAN.)
);
#1420=(
NAMED_UNIT(*)
SI_UNIT($,.STERADIAN.)
SOLID_ANGLE_UNIT()
);
#1421=SHAPE_DEFINITION_REPRESENTATION(#1422,#1423);
#1422=PRODUCT_DEFINITION_SHAPE('',$,#1425);
#1423=SHAPE_REPRESENTATION('',(#833),#1415);
#1424=PRODUCT_DEFINITION_CONTEXT('part definition',#1429,'design');
#1425=PRODUCT_DEFINITION('Unbenannt','Unbenannt v1',#1426,#1424);
#1426=PRODUCT_DEFINITION_FORMATION('',$,#1431);
#1427=PRODUCT_RELATED_PRODUCT_CATEGORY('Unbenannt v1','Unbenannt v1',(#1431));
#1428=APPLICATION_PROTOCOL_DEFINITION('international standard',
'automotive_design',2009,#1429);
#1429=APPLICATION_CONTEXT(
'Core Data for Automotive Mechanical Design Process');
#1430=PRODUCT_CONTEXT('part definition',#1429,'mechanical');
#1431=PRODUCT('Unbenannt','Unbenannt v1',$,(#1430));
#1432=PRESENTATION_STYLE_ASSIGNMENT((#1433));
#1433=SURFACE_STYLE_USAGE(.BOTH.,#1434);
#1434=SURFACE_SIDE_STYLE('',(#1435));
#1435=SURFACE_STYLE_FILL_AREA(#1436);
#1436=FILL_AREA_STYLE('Stahl - satiniert',(#1437));
#1437=FILL_AREA_STYLE_COLOUR('Stahl - satiniert',#1438);
#1438=COLOUR_RGB('Stahl - satiniert',0.627450980392157,0.627450980392157,
0.627450980392157);
ENDSEC;
END-ISO-10303-21;
