ISO-10303-21;
HEADER;
/* Generated by software containing ST-Developer
 * from STEP Tools, Inc. (www.steptools.com) 
 */

FILE_DESCRIPTION(
/* description */ (''),
/* implementation_level */ '2;1');

FILE_NAME(
/* name */ 'screw driver holder.step',
/* time_stamp */ '2026-05-18T02:05:14-05:00',
/* author */ (''),
/* organization */ (''),
/* preprocessor_version */ 'ST-DEVELOPER v20.1',
/* originating_system */ 'Autodesk Translation Framework v15.8.0.0',
/* authorisation */ '');

FILE_SCHEMA (('AUTOMOTIVE_DESIGN { 1 0 10303 214 3 1 1 }'));
ENDSEC;

DATA;
#10=MECHANICAL_DESIGN_GEOMETRIC_PRESENTATION_REPRESENTATION('',(#13),#841);
#11=SHAPE_REPRESENTATION_RELATIONSHIP('SRR','None',#848,#12);
#12=ADVANCED_BREP_SHAPE_REPRESENTATION('',(#14),#840);
#13=STYLED_ITEM('',(#857),#14);
#14=MANIFOLD_SOLID_BREP('K\X\F6rper1',#513);
#15=FACE_BOUND('',#66,.T.);
#16=FACE_BOUND('',#67,.T.);
#17=PLANE('',#530);
#18=PLANE('',#531);
#19=PLANE('',#536);
#20=PLANE('',#537);
#21=PLANE('',#543);
#22=PLANE('',#545);
#23=PLANE('',#546);
#24=PLANE('',#547);
#25=PLANE('',#548);
#26=PLANE('',#549);
#27=PLANE('',#550);
#28=PLANE('',#551);
#29=PLANE('',#552);
#30=PLANE('',#553);
#31=PLANE('',#554);
#32=PLANE('',#557);
#33=PLANE('',#558);
#34=PLANE('',#559);
#35=PLANE('',#560);
#36=FACE_OUTER_BOUND('',#60,.T.);
#37=FACE_OUTER_BOUND('',#61,.T.);
#38=FACE_OUTER_BOUND('',#62,.T.);
#39=FACE_OUTER_BOUND('',#63,.T.);
#40=FACE_OUTER_BOUND('',#64,.T.);
#41=FACE_OUTER_BOUND('',#65,.T.);
#42=FACE_OUTER_BOUND('',#68,.T.);
#43=FACE_OUTER_BOUND('',#69,.T.);
#44=FACE_OUTER_BOUND('',#70,.T.);
#45=FACE_OUTER_BOUND('',#71,.T.);
#46=FACE_OUTER_BOUND('',#72,.T.);
#47=FACE_OUTER_BOUND('',#73,.T.);
#48=FACE_OUTER_BOUND('',#74,.T.);
#49=FACE_OUTER_BOUND('',#75,.T.);
#50=FACE_OUTER_BOUND('',#76,.T.);
#51=FACE_OUTER_BOUND('',#77,.T.);
#52=FACE_OUTER_BOUND('',#78,.T.);
#53=FACE_OUTER_BOUND('',#79,.T.);
#54=FACE_OUTER_BOUND('',#80,.T.);
#55=FACE_OUTER_BOUND('',#81,.T.);
#56=FACE_OUTER_BOUND('',#82,.T.);
#57=FACE_OUTER_BOUND('',#83,.T.);
#58=FACE_OUTER_BOUND('',#84,.T.);
#59=FACE_OUTER_BOUND('',#85,.T.);
#60=EDGE_LOOP('',(#340,#341,#342,#343));
#61=EDGE_LOOP('',(#344,#345,#346,#347));
#62=EDGE_LOOP('',(#348,#349,#350,#351,#352,#353,#354,#355,#356,#357));
#63=EDGE_LOOP('',(#358,#359,#360,#361));
#64=EDGE_LOOP('',(#362,#363,#364,#365));
#65=EDGE_LOOP('',(#366,#367,#368,#369,#370,#371,#372,#373));
#66=EDGE_LOOP('',(#374,#375,#376,#377));
#67=EDGE_LOOP('',(#378,#379,#380,#381));
#68=EDGE_LOOP('',(#382,#383,#384,#385));
#69=EDGE_LOOP('',(#386,#387,#388,#389));
#70=EDGE_LOOP('',(#390,#391,#392,#393,#394,#395,#396,#397,#398,#399,#400,
#401));
#71=EDGE_LOOP('',(#402,#403,#404,#405));
#72=EDGE_LOOP('',(#406,#407,#408,#409));
#73=EDGE_LOOP('',(#410,#411,#412,#413));
#74=EDGE_LOOP('',(#414,#415,#416,#417));
#75=EDGE_LOOP('',(#418,#419,#420,#421));
#76=EDGE_LOOP('',(#422,#423,#424,#425));
#77=EDGE_LOOP('',(#426,#427,#428,#429));
#78=EDGE_LOOP('',(#430,#431,#432,#433));
#79=EDGE_LOOP('',(#434,#435,#436,#437));
#80=EDGE_LOOP('',(#438,#439,#440,#441));
#81=EDGE_LOOP('',(#442,#443,#444,#445));
#82=EDGE_LOOP('',(#446,#447,#448,#449,#450,#451,#452,#453));
#83=EDGE_LOOP('',(#454,#455,#456,#457,#458,#459,#460,#461));
#84=EDGE_LOOP('',(#462,#463,#464,#465,#466,#467,#468,#469,#470,#471));
#85=EDGE_LOOP('',(#472,#473,#474,#475,#476,#477,#478,#479,#480,#481,#482,
#483));
#86=LINE('',#699,#148);
#87=LINE('',#702,#149);
#88=LINE('',#705,#150);
#89=LINE('',#707,#151);
#90=LINE('',#708,#152);
#91=LINE('',#711,#153);
#92=LINE('',#713,#154);
#93=LINE('',#715,#155);
#94=LINE('',#717,#156);
#95=LINE('',#719,#157);
#96=LINE('',#721,#158);
#97=LINE('',#723,#159);
#98=LINE('',#730,#160);
#99=LINE('',#733,#161);
#100=LINE('',#736,#162);
#101=LINE('',#738,#163);
#102=LINE('',#739,#164);
#103=LINE('',#744,#165);
#104=LINE('',#746,#166);
#105=LINE('',#749,#167);
#106=LINE('',#751,#168);
#107=LINE('',#753,#169);
#108=LINE('',#754,#170);
#109=LINE('',#757,#171);
#110=LINE('',#759,#172);
#111=LINE('',#761,#173);
#112=LINE('',#762,#174);
#113=LINE('',#766,#175);
#114=LINE('',#768,#176);
#115=LINE('',#771,#177);
#116=LINE('',#773,#178);
#117=LINE('',#775,#179);
#118=LINE('',#779,#180);
#119=LINE('',#781,#181);
#120=LINE('',#783,#182);
#121=LINE('',#784,#183);
#122=LINE('',#788,#184);
#123=LINE('',#789,#185);
#124=LINE('',#790,#186);
#125=LINE('',#793,#187);
#126=LINE('',#794,#188);
#127=LINE('',#797,#189);
#128=LINE('',#798,#190);
#129=LINE('',#800,#191);
#130=LINE('',#801,#192);
#131=LINE('',#803,#193);
#132=LINE('',#805,#194);
#133=LINE('',#808,#195);
#134=LINE('',#810,#196);
#135=LINE('',#811,#197);
#136=LINE('',#814,#198);
#137=LINE('',#815,#199);
#138=LINE('',#818,#200);
#139=LINE('',#820,#201);
#140=LINE('',#821,#202);
#141=LINE('',#824,#203);
#142=LINE('',#825,#204);
#143=LINE('',#829,#205);
#144=LINE('',#831,#206);
#145=LINE('',#832,#207);
#146=LINE('',#834,#208);
#147=LINE('',#836,#209);
#148=VECTOR('',#567,10.);
#149=VECTOR('',#570,10.);
#150=VECTOR('',#573,10.);
#151=VECTOR('',#574,10.);
#152=VECTOR('',#575,10.);
#153=VECTOR('',#578,10.);
#154=VECTOR('',#579,10.);
#155=VECTOR('',#580,10.);
#156=VECTOR('',#581,10.);
#157=VECTOR('',#582,10.);
#158=VECTOR('',#583,10.);
#159=VECTOR('',#584,10.);
#160=VECTOR('',#591,10.);
#161=VECTOR('',#594,10.);
#162=VECTOR('',#597,10.);
#163=VECTOR('',#598,10.);
#164=VECTOR('',#599,10.);
#165=VECTOR('',#604,10.);
#166=VECTOR('',#607,10.);
#167=VECTOR('',#608,10.);
#168=VECTOR('',#609,10.);
#169=VECTOR('',#610,10.);
#170=VECTOR('',#611,10.);
#171=VECTOR('',#612,10.);
#172=VECTOR('',#613,10.);
#173=VECTOR('',#614,10.);
#174=VECTOR('',#615,10.);
#175=VECTOR('',#620,10.);
#176=VECTOR('',#623,10.);
#177=VECTOR('',#626,10.);
#178=VECTOR('',#627,10.);
#179=VECTOR('',#628,10.);
#180=VECTOR('',#631,10.);
#181=VECTOR('',#632,10.);
#182=VECTOR('',#633,10.);
#183=VECTOR('',#634,10.);
#184=VECTOR('',#637,10.);
#185=VECTOR('',#638,10.);
#186=VECTOR('',#639,10.);
#187=VECTOR('',#642,10.);
#188=VECTOR('',#643,10.);
#189=VECTOR('',#646,10.);
#190=VECTOR('',#647,10.);
#191=VECTOR('',#650,10.);
#192=VECTOR('',#651,10.);
#193=VECTOR('',#654,10.);
#194=VECTOR('',#657,10.);
#195=VECTOR('',#660,10.);
#196=VECTOR('',#661,10.);
#197=VECTOR('',#662,10.);
#198=VECTOR('',#665,10.);
#199=VECTOR('',#666,10.);
#200=VECTOR('',#669,10.);
#201=VECTOR('',#670,10.);
#202=VECTOR('',#671,10.);
#203=VECTOR('',#674,10.);
#204=VECTOR('',#675,10.);
#205=VECTOR('',#682,10.);
#206=VECTOR('',#683,10.);
#207=VECTOR('',#684,10.);
#208=VECTOR('',#687,10.);
#209=VECTOR('',#690,10.);
#210=CIRCLE('',#528,3.);
#211=CIRCLE('',#529,3.);
#212=CIRCLE('',#532,3.);
#213=CIRCLE('',#534,3.);
#214=CIRCLE('',#535,3.);
#215=CIRCLE('',#538,3.);
#216=CIRCLE('',#539,3.);
#217=CIRCLE('',#541,3.);
#218=CIRCLE('',#544,12.);
#219=CIRCLE('',#556,12.);
#220=VERTEX_POINT('',#695);
#221=VERTEX_POINT('',#696);
#222=VERTEX_POINT('',#698);
#223=VERTEX_POINT('',#700);
#224=VERTEX_POINT('',#704);
#225=VERTEX_POINT('',#706);
#226=VERTEX_POINT('',#710);
#227=VERTEX_POINT('',#712);
#228=VERTEX_POINT('',#714);
#229=VERTEX_POINT('',#716);
#230=VERTEX_POINT('',#718);
#231=VERTEX_POINT('',#720);
#232=VERTEX_POINT('',#722);
#233=VERTEX_POINT('',#726);
#234=VERTEX_POINT('',#727);
#235=VERTEX_POINT('',#729);
#236=VERTEX_POINT('',#731);
#237=VERTEX_POINT('',#735);
#238=VERTEX_POINT('',#737);
#239=VERTEX_POINT('',#741);
#240=VERTEX_POINT('',#743);
#241=VERTEX_POINT('',#747);
#242=VERTEX_POINT('',#748);
#243=VERTEX_POINT('',#750);
#244=VERTEX_POINT('',#752);
#245=VERTEX_POINT('',#755);
#246=VERTEX_POINT('',#756);
#247=VERTEX_POINT('',#758);
#248=VERTEX_POINT('',#760);
#249=VERTEX_POINT('',#764);
#250=VERTEX_POINT('',#770);
#251=VERTEX_POINT('',#772);
#252=VERTEX_POINT('',#774);
#253=VERTEX_POINT('',#776);
#254=VERTEX_POINT('',#778);
#255=VERTEX_POINT('',#780);
#256=VERTEX_POINT('',#782);
#257=VERTEX_POINT('',#786);
#258=VERTEX_POINT('',#787);
#259=VERTEX_POINT('',#792);
#260=VERTEX_POINT('',#796);
#261=VERTEX_POINT('',#807);
#262=VERTEX_POINT('',#809);
#263=VERTEX_POINT('',#813);
#264=VERTEX_POINT('',#817);
#265=VERTEX_POINT('',#819);
#266=VERTEX_POINT('',#823);
#267=VERTEX_POINT('',#830);
#268=EDGE_CURVE('',#220,#221,#210,.T.);
#269=EDGE_CURVE('',#221,#222,#86,.T.);
#270=EDGE_CURVE('',#222,#223,#211,.T.);
#271=EDGE_CURVE('',#223,#220,#87,.T.);
#272=EDGE_CURVE('',#221,#224,#88,.T.);
#273=EDGE_CURVE('',#225,#224,#89,.T.);
#274=EDGE_CURVE('',#225,#222,#90,.T.);
#275=EDGE_CURVE('',#226,#220,#91,.T.);
#276=EDGE_CURVE('',#226,#227,#92,.T.);
#277=EDGE_CURVE('',#227,#228,#93,.T.);
#278=EDGE_CURVE('',#228,#229,#94,.T.);
#279=EDGE_CURVE('',#229,#230,#95,.T.);
#280=EDGE_CURVE('',#230,#231,#96,.T.);
#281=EDGE_CURVE('',#231,#232,#97,.T.);
#282=EDGE_CURVE('',#224,#232,#212,.T.);
#283=EDGE_CURVE('',#233,#234,#213,.T.);
#284=EDGE_CURVE('',#234,#235,#98,.T.);
#285=EDGE_CURVE('',#235,#236,#214,.T.);
#286=EDGE_CURVE('',#236,#233,#99,.T.);
#287=EDGE_CURVE('',#234,#237,#100,.T.);
#288=EDGE_CURVE('',#238,#237,#101,.T.);
#289=EDGE_CURVE('',#238,#235,#102,.T.);
#290=EDGE_CURVE('',#239,#225,#215,.T.);
#291=EDGE_CURVE('',#239,#240,#103,.T.);
#292=EDGE_CURVE('',#237,#240,#216,.T.);
#293=EDGE_CURVE('',#233,#223,#104,.T.);
#294=EDGE_CURVE('',#241,#242,#105,.T.);
#295=EDGE_CURVE('',#242,#243,#106,.T.);
#296=EDGE_CURVE('',#243,#244,#107,.T.);
#297=EDGE_CURVE('',#244,#241,#108,.T.);
#298=EDGE_CURVE('',#245,#246,#109,.T.);
#299=EDGE_CURVE('',#246,#247,#110,.T.);
#300=EDGE_CURVE('',#247,#248,#111,.T.);
#301=EDGE_CURVE('',#248,#245,#112,.T.);
#302=EDGE_CURVE('',#249,#238,#217,.T.);
#303=EDGE_CURVE('',#240,#249,#113,.T.);
#304=EDGE_CURVE('',#232,#239,#114,.T.);
#305=EDGE_CURVE('',#231,#250,#115,.T.);
#306=EDGE_CURVE('',#251,#250,#116,.T.);
#307=EDGE_CURVE('',#252,#251,#117,.T.);
#308=EDGE_CURVE('',#252,#253,#218,.T.);
#309=EDGE_CURVE('',#253,#254,#118,.T.);
#310=EDGE_CURVE('',#255,#254,#119,.T.);
#311=EDGE_CURVE('',#256,#255,#120,.T.);
#312=EDGE_CURVE('',#256,#249,#121,.T.);
#313=EDGE_CURVE('',#257,#258,#122,.T.);
#314=EDGE_CURVE('',#257,#244,#123,.T.);
#315=EDGE_CURVE('',#258,#243,#124,.T.);
#316=EDGE_CURVE('',#259,#257,#125,.T.);
#317=EDGE_CURVE('',#259,#241,#126,.T.);
#318=EDGE_CURVE('',#260,#259,#127,.T.);
#319=EDGE_CURVE('',#260,#242,#128,.T.);
#320=EDGE_CURVE('',#228,#247,#129,.T.);
#321=EDGE_CURVE('',#229,#246,#130,.T.);
#322=EDGE_CURVE('',#227,#248,#131,.T.);
#323=EDGE_CURVE('',#230,#245,#132,.T.);
#324=EDGE_CURVE('',#253,#261,#133,.T.);
#325=EDGE_CURVE('',#261,#262,#134,.T.);
#326=EDGE_CURVE('',#254,#262,#135,.T.);
#327=EDGE_CURVE('',#262,#263,#136,.T.);
#328=EDGE_CURVE('',#263,#255,#137,.T.);
#329=EDGE_CURVE('',#264,#252,#138,.T.);
#330=EDGE_CURVE('',#265,#251,#139,.T.);
#331=EDGE_CURVE('',#264,#265,#140,.T.);
#332=EDGE_CURVE('',#250,#266,#141,.T.);
#333=EDGE_CURVE('',#266,#265,#142,.T.);
#334=EDGE_CURVE('',#261,#264,#219,.T.);
#335=EDGE_CURVE('',#256,#260,#143,.T.);
#336=EDGE_CURVE('',#267,#263,#144,.T.);
#337=EDGE_CURVE('',#258,#267,#145,.T.);
#338=EDGE_CURVE('',#226,#266,#146,.T.);
#339=EDGE_CURVE('',#267,#236,#147,.T.);
#340=ORIENTED_EDGE('',*,*,#268,.T.);
#341=ORIENTED_EDGE('',*,*,#269,.T.);
#342=ORIENTED_EDGE('',*,*,#270,.T.);
#343=ORIENTED_EDGE('',*,*,#271,.T.);
#344=ORIENTED_EDGE('',*,*,#269,.F.);
#345=ORIENTED_EDGE('',*,*,#272,.T.);
#346=ORIENTED_EDGE('',*,*,#273,.F.);
#347=ORIENTED_EDGE('',*,*,#274,.T.);
#348=ORIENTED_EDGE('',*,*,#268,.F.);
#349=ORIENTED_EDGE('',*,*,#275,.F.);
#350=ORIENTED_EDGE('',*,*,#276,.T.);
#351=ORIENTED_EDGE('',*,*,#277,.T.);
#352=ORIENTED_EDGE('',*,*,#278,.T.);
#353=ORIENTED_EDGE('',*,*,#279,.T.);
#354=ORIENTED_EDGE('',*,*,#280,.T.);
#355=ORIENTED_EDGE('',*,*,#281,.T.);
#356=ORIENTED_EDGE('',*,*,#282,.F.);
#357=ORIENTED_EDGE('',*,*,#272,.F.);
#358=ORIENTED_EDGE('',*,*,#283,.T.);
#359=ORIENTED_EDGE('',*,*,#284,.T.);
#360=ORIENTED_EDGE('',*,*,#285,.T.);
#361=ORIENTED_EDGE('',*,*,#286,.T.);
#362=ORIENTED_EDGE('',*,*,#284,.F.);
#363=ORIENTED_EDGE('',*,*,#287,.T.);
#364=ORIENTED_EDGE('',*,*,#288,.F.);
#365=ORIENTED_EDGE('',*,*,#289,.T.);
#366=ORIENTED_EDGE('',*,*,#270,.F.);
#367=ORIENTED_EDGE('',*,*,#274,.F.);
#368=ORIENTED_EDGE('',*,*,#290,.F.);
#369=ORIENTED_EDGE('',*,*,#291,.T.);
#370=ORIENTED_EDGE('',*,*,#292,.F.);
#371=ORIENTED_EDGE('',*,*,#287,.F.);
#372=ORIENTED_EDGE('',*,*,#283,.F.);
#373=ORIENTED_EDGE('',*,*,#293,.T.);
#374=ORIENTED_EDGE('',*,*,#294,.T.);
#375=ORIENTED_EDGE('',*,*,#295,.T.);
#376=ORIENTED_EDGE('',*,*,#296,.T.);
#377=ORIENTED_EDGE('',*,*,#297,.T.);
#378=ORIENTED_EDGE('',*,*,#298,.T.);
#379=ORIENTED_EDGE('',*,*,#299,.T.);
#380=ORIENTED_EDGE('',*,*,#300,.T.);
#381=ORIENTED_EDGE('',*,*,#301,.T.);
#382=ORIENTED_EDGE('',*,*,#302,.T.);
#383=ORIENTED_EDGE('',*,*,#288,.T.);
#384=ORIENTED_EDGE('',*,*,#292,.T.);
#385=ORIENTED_EDGE('',*,*,#303,.T.);
#386=ORIENTED_EDGE('',*,*,#290,.T.);
#387=ORIENTED_EDGE('',*,*,#273,.T.);
#388=ORIENTED_EDGE('',*,*,#282,.T.);
#389=ORIENTED_EDGE('',*,*,#304,.T.);
#390=ORIENTED_EDGE('',*,*,#303,.F.);
#391=ORIENTED_EDGE('',*,*,#291,.F.);
#392=ORIENTED_EDGE('',*,*,#304,.F.);
#393=ORIENTED_EDGE('',*,*,#281,.F.);
#394=ORIENTED_EDGE('',*,*,#305,.T.);
#395=ORIENTED_EDGE('',*,*,#306,.F.);
#396=ORIENTED_EDGE('',*,*,#307,.F.);
#397=ORIENTED_EDGE('',*,*,#308,.T.);
#398=ORIENTED_EDGE('',*,*,#309,.T.);
#399=ORIENTED_EDGE('',*,*,#310,.F.);
#400=ORIENTED_EDGE('',*,*,#311,.F.);
#401=ORIENTED_EDGE('',*,*,#312,.T.);
#402=ORIENTED_EDGE('',*,*,#313,.F.);
#403=ORIENTED_EDGE('',*,*,#314,.T.);
#404=ORIENTED_EDGE('',*,*,#296,.F.);
#405=ORIENTED_EDGE('',*,*,#315,.F.);
#406=ORIENTED_EDGE('',*,*,#316,.F.);
#407=ORIENTED_EDGE('',*,*,#317,.T.);
#408=ORIENTED_EDGE('',*,*,#297,.F.);
#409=ORIENTED_EDGE('',*,*,#314,.F.);
#410=ORIENTED_EDGE('',*,*,#318,.F.);
#411=ORIENTED_EDGE('',*,*,#319,.T.);
#412=ORIENTED_EDGE('',*,*,#294,.F.);
#413=ORIENTED_EDGE('',*,*,#317,.F.);
#414=ORIENTED_EDGE('',*,*,#278,.F.);
#415=ORIENTED_EDGE('',*,*,#320,.T.);
#416=ORIENTED_EDGE('',*,*,#299,.F.);
#417=ORIENTED_EDGE('',*,*,#321,.F.);
#418=ORIENTED_EDGE('',*,*,#277,.F.);
#419=ORIENTED_EDGE('',*,*,#322,.T.);
#420=ORIENTED_EDGE('',*,*,#300,.F.);
#421=ORIENTED_EDGE('',*,*,#320,.F.);
#422=ORIENTED_EDGE('',*,*,#279,.F.);
#423=ORIENTED_EDGE('',*,*,#321,.T.);
#424=ORIENTED_EDGE('',*,*,#298,.F.);
#425=ORIENTED_EDGE('',*,*,#323,.F.);
#426=ORIENTED_EDGE('',*,*,#324,.T.);
#427=ORIENTED_EDGE('',*,*,#325,.T.);
#428=ORIENTED_EDGE('',*,*,#326,.F.);
#429=ORIENTED_EDGE('',*,*,#309,.F.);
#430=ORIENTED_EDGE('',*,*,#326,.T.);
#431=ORIENTED_EDGE('',*,*,#327,.T.);
#432=ORIENTED_EDGE('',*,*,#328,.T.);
#433=ORIENTED_EDGE('',*,*,#310,.T.);
#434=ORIENTED_EDGE('',*,*,#329,.T.);
#435=ORIENTED_EDGE('',*,*,#307,.T.);
#436=ORIENTED_EDGE('',*,*,#330,.F.);
#437=ORIENTED_EDGE('',*,*,#331,.F.);
#438=ORIENTED_EDGE('',*,*,#330,.T.);
#439=ORIENTED_EDGE('',*,*,#306,.T.);
#440=ORIENTED_EDGE('',*,*,#332,.T.);
#441=ORIENTED_EDGE('',*,*,#333,.T.);
#442=ORIENTED_EDGE('',*,*,#308,.F.);
#443=ORIENTED_EDGE('',*,*,#329,.F.);
#444=ORIENTED_EDGE('',*,*,#334,.F.);
#445=ORIENTED_EDGE('',*,*,#324,.F.);
#446=ORIENTED_EDGE('',*,*,#335,.F.);
#447=ORIENTED_EDGE('',*,*,#311,.T.);
#448=ORIENTED_EDGE('',*,*,#328,.F.);
#449=ORIENTED_EDGE('',*,*,#336,.F.);
#450=ORIENTED_EDGE('',*,*,#337,.F.);
#451=ORIENTED_EDGE('',*,*,#315,.T.);
#452=ORIENTED_EDGE('',*,*,#295,.F.);
#453=ORIENTED_EDGE('',*,*,#319,.F.);
#454=ORIENTED_EDGE('',*,*,#276,.F.);
#455=ORIENTED_EDGE('',*,*,#338,.T.);
#456=ORIENTED_EDGE('',*,*,#332,.F.);
#457=ORIENTED_EDGE('',*,*,#305,.F.);
#458=ORIENTED_EDGE('',*,*,#280,.F.);
#459=ORIENTED_EDGE('',*,*,#323,.T.);
#460=ORIENTED_EDGE('',*,*,#301,.F.);
#461=ORIENTED_EDGE('',*,*,#322,.F.);
#462=ORIENTED_EDGE('',*,*,#285,.F.);
#463=ORIENTED_EDGE('',*,*,#289,.F.);
#464=ORIENTED_EDGE('',*,*,#302,.F.);
#465=ORIENTED_EDGE('',*,*,#312,.F.);
#466=ORIENTED_EDGE('',*,*,#335,.T.);
#467=ORIENTED_EDGE('',*,*,#318,.T.);
#468=ORIENTED_EDGE('',*,*,#316,.T.);
#469=ORIENTED_EDGE('',*,*,#313,.T.);
#470=ORIENTED_EDGE('',*,*,#337,.T.);
#471=ORIENTED_EDGE('',*,*,#339,.T.);
#472=ORIENTED_EDGE('',*,*,#271,.F.);
#473=ORIENTED_EDGE('',*,*,#293,.F.);
#474=ORIENTED_EDGE('',*,*,#286,.F.);
#475=ORIENTED_EDGE('',*,*,#339,.F.);
#476=ORIENTED_EDGE('',*,*,#336,.T.);
#477=ORIENTED_EDGE('',*,*,#327,.F.);
#478=ORIENTED_EDGE('',*,*,#325,.F.);
#479=ORIENTED_EDGE('',*,*,#334,.T.);
#480=ORIENTED_EDGE('',*,*,#331,.T.);
#481=ORIENTED_EDGE('',*,*,#333,.F.);
#482=ORIENTED_EDGE('',*,*,#338,.F.);
#483=ORIENTED_EDGE('',*,*,#275,.T.);
#484=CYLINDRICAL_SURFACE('',#527,3.);
#485=CYLINDRICAL_SURFACE('',#533,3.);
#486=CYLINDRICAL_SURFACE('',#540,3.);
#487=CYLINDRICAL_SURFACE('',#542,3.);
#488=CYLINDRICAL_SURFACE('',#555,12.);
#489=ADVANCED_FACE('',(#36),#484,.T.);
#490=ADVANCED_FACE('',(#37),#17,.T.);
#491=ADVANCED_FACE('',(#38),#18,.T.);
#492=ADVANCED_FACE('',(#39),#485,.T.);
#493=ADVANCED_FACE('',(#40),#19,.T.);
#494=ADVANCED_FACE('',(#41,#15,#16),#20,.F.);
#495=ADVANCED_FACE('',(#42),#486,.T.);
#496=ADVANCED_FACE('',(#43),#487,.T.);
#497=ADVANCED_FACE('',(#44),#21,.T.);
#498=ADVANCED_FACE('',(#45),#22,.F.);
#499=ADVANCED_FACE('',(#46),#23,.F.);
#500=ADVANCED_FACE('',(#47),#24,.F.);
#501=ADVANCED_FACE('',(#48),#25,.F.);
#502=ADVANCED_FACE('',(#49),#26,.F.);
#503=ADVANCED_FACE('',(#50),#27,.F.);
#504=ADVANCED_FACE('',(#51),#28,.T.);
#505=ADVANCED_FACE('',(#52),#29,.T.);
#506=ADVANCED_FACE('',(#53),#30,.T.);
#507=ADVANCED_FACE('',(#54),#31,.T.);
#508=ADVANCED_FACE('',(#55),#488,.F.);
#509=ADVANCED_FACE('',(#56),#32,.T.);
#510=ADVANCED_FACE('',(#57),#33,.T.);
#511=ADVANCED_FACE('',(#58),#34,.T.);
#512=ADVANCED_FACE('',(#59),#35,.T.);
#513=CLOSED_SHELL('',(#489,#490,#491,#492,#493,#494,#495,#496,#497,#498,
#499,#500,#501,#502,#503,#504,#505,#506,#507,#508,#509,#510,#511,#512));
#514=DERIVED_UNIT_ELEMENT(#516,1.);
#515=DERIVED_UNIT_ELEMENT(#843,-3.);
#516=(
MASS_UNIT()
NAMED_UNIT(*)
SI_UNIT(.KILO.,.GRAM.)
);
#517=DERIVED_UNIT((#514,#515));
#518=MEASURE_REPRESENTATION_ITEM('density measure',
POSITIVE_RATIO_MEASURE(7850.),#517);
#519=PROPERTY_DEFINITION_REPRESENTATION(#524,#521);
#520=PROPERTY_DEFINITION_REPRESENTATION(#525,#522);
#521=REPRESENTATION('material name',(#523),#840);
#522=REPRESENTATION('density',(#518),#840);
#523=DESCRIPTIVE_REPRESENTATION_ITEM('Stahl','Stahl');
#524=PROPERTY_DEFINITION('material property','material name',#850);
#525=PROPERTY_DEFINITION('material property','density of part',#850);
#526=AXIS2_PLACEMENT_3D('',#693,#561,#562);
#527=AXIS2_PLACEMENT_3D('',#694,#563,#564);
#528=AXIS2_PLACEMENT_3D('',#697,#565,#566);
#529=AXIS2_PLACEMENT_3D('',#701,#568,#569);
#530=AXIS2_PLACEMENT_3D('',#703,#571,#572);
#531=AXIS2_PLACEMENT_3D('',#709,#576,#577);
#532=AXIS2_PLACEMENT_3D('',#724,#585,#586);
#533=AXIS2_PLACEMENT_3D('',#725,#587,#588);
#534=AXIS2_PLACEMENT_3D('',#728,#589,#590);
#535=AXIS2_PLACEMENT_3D('',#732,#592,#593);
#536=AXIS2_PLACEMENT_3D('',#734,#595,#596);
#537=AXIS2_PLACEMENT_3D('',#740,#600,#601);
#538=AXIS2_PLACEMENT_3D('',#742,#602,#603);
#539=AXIS2_PLACEMENT_3D('',#745,#605,#606);
#540=AXIS2_PLACEMENT_3D('',#763,#616,#617);
#541=AXIS2_PLACEMENT_3D('',#765,#618,#619);
#542=AXIS2_PLACEMENT_3D('',#767,#621,#622);
#543=AXIS2_PLACEMENT_3D('',#769,#624,#625);
#544=AXIS2_PLACEMENT_3D('',#777,#629,#630);
#545=AXIS2_PLACEMENT_3D('',#785,#635,#636);
#546=AXIS2_PLACEMENT_3D('',#791,#640,#641);
#547=AXIS2_PLACEMENT_3D('',#795,#644,#645);
#548=AXIS2_PLACEMENT_3D('',#799,#648,#649);
#549=AXIS2_PLACEMENT_3D('',#802,#652,#653);
#550=AXIS2_PLACEMENT_3D('',#804,#655,#656);
#551=AXIS2_PLACEMENT_3D('',#806,#658,#659);
#552=AXIS2_PLACEMENT_3D('',#812,#663,#664);
#553=AXIS2_PLACEMENT_3D('',#816,#667,#668);
#554=AXIS2_PLACEMENT_3D('',#822,#672,#673);
#555=AXIS2_PLACEMENT_3D('',#826,#676,#677);
#556=AXIS2_PLACEMENT_3D('',#827,#678,#679);
#557=AXIS2_PLACEMENT_3D('',#828,#680,#681);
#558=AXIS2_PLACEMENT_3D('',#833,#685,#686);
#559=AXIS2_PLACEMENT_3D('',#835,#688,#689);
#560=AXIS2_PLACEMENT_3D('',#837,#691,#692);
#561=DIRECTION('axis',(0.,0.,1.));
#562=DIRECTION('refdir',(1.,0.,0.));
#563=DIRECTION('center_axis',(0.,0.,1.));
#564=DIRECTION('ref_axis',(-0.707106781186547,-0.707106781186548,0.));
#565=DIRECTION('center_axis',(0.,0.,-1.));
#566=DIRECTION('ref_axis',(-0.707106781186547,-0.707106781186548,0.));
#567=DIRECTION('',(0.,0.,-1.));
#568=DIRECTION('center_axis',(0.,0.,1.));
#569=DIRECTION('ref_axis',(-0.707106781186547,-0.707106781186548,0.));
#570=DIRECTION('',(0.,0.,1.));
#571=DIRECTION('center_axis',(-1.,0.,0.));
#572=DIRECTION('ref_axis',(0.,0.,1.));
#573=DIRECTION('',(0.,1.,0.));
#574=DIRECTION('',(0.,0.,1.));
#575=DIRECTION('',(0.,-1.,0.));
#576=DIRECTION('center_axis',(0.,0.,1.));
#577=DIRECTION('ref_axis',(1.,0.,0.));
#578=DIRECTION('',(-1.,0.,0.));
#579=DIRECTION('',(0.,1.,0.));
#580=DIRECTION('',(-1.,0.,0.));
#581=DIRECTION('',(0.,1.,0.));
#582=DIRECTION('',(1.,0.,0.));
#583=DIRECTION('',(0.,1.,0.));
#584=DIRECTION('',(-1.,0.,0.));
#585=DIRECTION('center_axis',(0.,0.,-1.));
#586=DIRECTION('ref_axis',(-0.707106781186547,0.707106781186548,0.));
#587=DIRECTION('center_axis',(0.,0.,-1.));
#588=DIRECTION('ref_axis',(0.707106781186547,-0.707106781186548,0.));
#589=DIRECTION('center_axis',(0.,0.,1.));
#590=DIRECTION('ref_axis',(0.707106781186547,-0.707106781186548,0.));
#591=DIRECTION('',(0.,0.,1.));
#592=DIRECTION('center_axis',(0.,0.,-1.));
#593=DIRECTION('ref_axis',(0.707106781186547,-0.707106781186548,0.));
#594=DIRECTION('',(0.,0.,-1.));
#595=DIRECTION('center_axis',(1.,0.,0.));
#596=DIRECTION('ref_axis',(0.,0.,-1.));
#597=DIRECTION('',(0.,1.,0.));
#598=DIRECTION('',(0.,0.,-1.));
#599=DIRECTION('',(0.,-1.,0.));
#600=DIRECTION('center_axis',(0.,0.,1.));
#601=DIRECTION('ref_axis',(1.,0.,0.));
#602=DIRECTION('center_axis',(0.,0.,1.));
#603=DIRECTION('ref_axis',(-0.707106781186547,0.707106781186548,0.));
#604=DIRECTION('',(1.,0.,0.));
#605=DIRECTION('center_axis',(0.,0.,1.));
#606=DIRECTION('ref_axis',(0.707106781186547,0.707106781186548,0.));
#607=DIRECTION('',(-1.,0.,0.));
#608=DIRECTION('',(-1.,-2.31296463463574E-17,0.));
#609=DIRECTION('',(0.,-1.,0.));
#610=DIRECTION('',(1.,0.,0.));
#611=DIRECTION('',(0.,1.,0.));
#612=DIRECTION('',(-1.,0.,0.));
#613=DIRECTION('',(0.,-1.,0.));
#614=DIRECTION('',(1.,0.,0.));
#615=DIRECTION('',(0.,1.,0.));
#616=DIRECTION('center_axis',(0.,0.,1.));
#617=DIRECTION('ref_axis',(0.707106781186547,0.707106781186548,0.));
#618=DIRECTION('center_axis',(0.,0.,-1.));
#619=DIRECTION('ref_axis',(0.707106781186547,0.707106781186548,0.));
#620=DIRECTION('',(0.,0.,1.));
#621=DIRECTION('center_axis',(0.,0.,-1.));
#622=DIRECTION('ref_axis',(-0.707106781186547,0.707106781186548,0.));
#623=DIRECTION('',(0.,0.,-1.));
#624=DIRECTION('center_axis',(0.,1.,0.));
#625=DIRECTION('ref_axis',(-1.,0.,0.));
#626=DIRECTION('',(0.,0.,1.));
#627=DIRECTION('',(-1.,0.,0.));
#628=DIRECTION('',(0.,0.,1.));
#629=DIRECTION('center_axis',(0.,-1.,0.));
#630=DIRECTION('ref_axis',(1.,0.,0.));
#631=DIRECTION('',(0.,0.,1.));
#632=DIRECTION('',(-1.,0.,0.));
#633=DIRECTION('',(0.,0.,1.));
#634=DIRECTION('',(1.,0.,0.));
#635=DIRECTION('center_axis',(0.,-1.,0.));
#636=DIRECTION('ref_axis',(-1.,0.,0.));
#637=DIRECTION('',(-1.,0.,0.));
#638=DIRECTION('',(0.,0.,-1.));
#639=DIRECTION('',(0.,0.,-1.));
#640=DIRECTION('center_axis',(1.,0.,0.));
#641=DIRECTION('ref_axis',(0.,-1.,0.));
#642=DIRECTION('',(0.,-1.,0.));
#643=DIRECTION('',(0.,0.,-1.));
#644=DIRECTION('center_axis',(-2.31296463463574E-17,1.,0.));
#645=DIRECTION('ref_axis',(1.,2.31296463463574E-17,0.));
#646=DIRECTION('',(1.,2.31296463463574E-17,0.));
#647=DIRECTION('',(0.,0.,-1.));
#648=DIRECTION('center_axis',(-1.,0.,0.));
#649=DIRECTION('ref_axis',(0.,1.,0.));
#650=DIRECTION('',(0.,0.,-1.));
#651=DIRECTION('',(0.,0.,-1.));
#652=DIRECTION('center_axis',(0.,-1.,0.));
#653=DIRECTION('ref_axis',(-1.,0.,0.));
#654=DIRECTION('',(0.,0.,-1.));
#655=DIRECTION('center_axis',(0.,1.,0.));
#656=DIRECTION('ref_axis',(1.,0.,0.));
#657=DIRECTION('',(0.,0.,-1.));
#658=DIRECTION('center_axis',(-1.,0.,0.));
#659=DIRECTION('ref_axis',(0.,-1.,0.));
#660=DIRECTION('',(0.,-1.,0.));
#661=DIRECTION('',(0.,0.,1.));
#662=DIRECTION('',(0.,-1.,0.));
#663=DIRECTION('center_axis',(0.,0.,1.));
#664=DIRECTION('ref_axis',(1.,0.,0.));
#665=DIRECTION('',(1.,0.,0.));
#666=DIRECTION('',(0.,1.,0.));
#667=DIRECTION('center_axis',(1.,0.,0.));
#668=DIRECTION('ref_axis',(0.,1.,0.));
#669=DIRECTION('',(0.,1.,0.));
#670=DIRECTION('',(0.,1.,0.));
#671=DIRECTION('',(0.,0.,1.));
#672=DIRECTION('center_axis',(0.,0.,1.));
#673=DIRECTION('ref_axis',(1.,0.,0.));
#674=DIRECTION('',(0.,-1.,0.));
#675=DIRECTION('',(1.,0.,0.));
#676=DIRECTION('center_axis',(0.,1.,0.));
#677=DIRECTION('ref_axis',(1.,0.,0.));
#678=DIRECTION('center_axis',(0.,1.,0.));
#679=DIRECTION('ref_axis',(1.,0.,0.));
#680=DIRECTION('center_axis',(1.,0.,0.));
#681=DIRECTION('ref_axis',(0.,1.,0.));
#682=DIRECTION('',(0.,-1.,0.));
#683=DIRECTION('',(0.,0.,1.));
#684=DIRECTION('',(0.,-1.,0.));
#685=DIRECTION('center_axis',(-1.,0.,0.));
#686=DIRECTION('ref_axis',(0.,-1.,0.));
#687=DIRECTION('',(0.,0.,1.));
#688=DIRECTION('center_axis',(0.,0.,1.));
#689=DIRECTION('ref_axis',(1.,0.,0.));
#690=DIRECTION('',(1.,0.,0.));
#691=DIRECTION('center_axis',(0.,-1.,0.));
#692=DIRECTION('ref_axis',(1.,0.,0.));
#693=CARTESIAN_POINT('',(0.,0.,0.));
#694=CARTESIAN_POINT('Origin',(-22.,-2.,0.));
#695=CARTESIAN_POINT('',(-22.,-5.,3.));
#696=CARTESIAN_POINT('',(-25.,-2.,3.));
#697=CARTESIAN_POINT('Origin',(-22.,-2.,3.));
#698=CARTESIAN_POINT('',(-25.,-2.,0.));
#699=CARTESIAN_POINT('',(-25.,-2.,0.));
#700=CARTESIAN_POINT('',(-22.,-5.,0.));
#701=CARTESIAN_POINT('Origin',(-22.,-2.,0.));
#702=CARTESIAN_POINT('',(-22.,-5.,0.));
#703=CARTESIAN_POINT('Origin',(-25.,5.,0.));
#704=CARTESIAN_POINT('',(-25.,2.,3.));
#705=CARTESIAN_POINT('',(-25.,5.,3.));
#706=CARTESIAN_POINT('',(-25.,2.,0.));
#707=CARTESIAN_POINT('',(-25.,2.,0.));
#708=CARTESIAN_POINT('',(-25.,5.,0.));
#709=CARTESIAN_POINT('Origin',(-15.,0.,3.));
#710=CARTESIAN_POINT('',(-10.,-5.,3.));
#711=CARTESIAN_POINT('',(-20.,-5.,3.));
#712=CARTESIAN_POINT('',(-10.0000001490116,-1.6,3.));
#713=CARTESIAN_POINT('',(-10.,-5.,3.));
#714=CARTESIAN_POINT('',(-22.0000003278255,-1.6,3.));
#715=CARTESIAN_POINT('',(-12.5000000745058,-1.6,3.));
#716=CARTESIAN_POINT('',(-22.0000003278255,1.6,3.));
#717=CARTESIAN_POINT('',(-22.0000003278255,-0.8,3.));
#718=CARTESIAN_POINT('',(-10.0000001490116,1.6,3.));
#719=CARTESIAN_POINT('',(-18.5000001639128,1.6,3.));
#720=CARTESIAN_POINT('',(-10.,5.,3.));
#721=CARTESIAN_POINT('',(-10.,-5.,3.));
#722=CARTESIAN_POINT('',(-22.,5.,3.));
#723=CARTESIAN_POINT('',(-10.,5.,3.));
#724=CARTESIAN_POINT('Origin',(-22.,2.,3.));
#725=CARTESIAN_POINT('Origin',(22.,-2.,0.));
#726=CARTESIAN_POINT('',(22.,-5.,0.));
#727=CARTESIAN_POINT('',(25.,-2.,0.));
#728=CARTESIAN_POINT('Origin',(22.,-2.,0.));
#729=CARTESIAN_POINT('',(25.,-2.,3.));
#730=CARTESIAN_POINT('',(25.,-2.,0.));
#731=CARTESIAN_POINT('',(22.,-5.,3.));
#732=CARTESIAN_POINT('Origin',(22.,-2.,3.));
#733=CARTESIAN_POINT('',(22.,-5.,0.));
#734=CARTESIAN_POINT('Origin',(25.,-5.,0.));
#735=CARTESIAN_POINT('',(25.,2.,0.));
#736=CARTESIAN_POINT('',(25.,-5.,0.));
#737=CARTESIAN_POINT('',(25.,2.,3.));
#738=CARTESIAN_POINT('',(25.,2.,0.));
#739=CARTESIAN_POINT('',(25.,-5.,3.));
#740=CARTESIAN_POINT('Origin',(-15.,0.,0.));
#741=CARTESIAN_POINT('',(-22.,5.,0.));
#742=CARTESIAN_POINT('Origin',(-22.,2.,0.));
#743=CARTESIAN_POINT('',(22.,5.,0.));
#744=CARTESIAN_POINT('',(20.,5.,0.));
#745=CARTESIAN_POINT('Origin',(22.,2.,0.));
#746=CARTESIAN_POINT('',(-20.,-5.,0.));
#747=CARTESIAN_POINT('',(22.,1.6,0.));
#748=CARTESIAN_POINT('',(10.,1.6,0.));
#749=CARTESIAN_POINT('',(9.9712756921703E-8,1.6,0.));
#750=CARTESIAN_POINT('',(10.,-1.6,0.));
#751=CARTESIAN_POINT('',(10.,-0.8,0.));
#752=CARTESIAN_POINT('',(22.,-1.6,0.));
#753=CARTESIAN_POINT('',(1.32502310234983E-7,-1.6,0.));
#754=CARTESIAN_POINT('',(22.,0.8,0.));
#755=CARTESIAN_POINT('',(-10.0000001490116,1.6,0.));
#756=CARTESIAN_POINT('',(-22.0000003278255,1.6,0.));
#757=CARTESIAN_POINT('',(-18.5000001639128,1.6,0.));
#758=CARTESIAN_POINT('',(-22.0000003278255,-1.6,0.));
#759=CARTESIAN_POINT('',(-22.0000003278255,-0.8,0.));
#760=CARTESIAN_POINT('',(-10.0000001490116,-1.6,0.));
#761=CARTESIAN_POINT('',(-12.5000000745058,-1.6,0.));
#762=CARTESIAN_POINT('',(-10.0000001490116,0.8,0.));
#763=CARTESIAN_POINT('Origin',(22.,2.,0.));
#764=CARTESIAN_POINT('',(22.,5.,3.));
#765=CARTESIAN_POINT('Origin',(22.,2.,3.));
#766=CARTESIAN_POINT('',(22.,5.,0.));
#767=CARTESIAN_POINT('Origin',(-22.,2.,0.));
#768=CARTESIAN_POINT('',(-22.,5.,0.));
#769=CARTESIAN_POINT('Origin',(-10.,5.,0.));
#770=CARTESIAN_POINT('',(-10.,5.,51.));
#771=CARTESIAN_POINT('',(-10.,5.,0.));
#772=CARTESIAN_POINT('',(-7.93725393319377,5.,51.));
#773=CARTESIAN_POINT('',(-10.,5.,51.));
#774=CARTESIAN_POINT('',(-7.93725393319377,5.,43.));
#775=CARTESIAN_POINT('',(-7.93725393319377,5.,43.));
#776=CARTESIAN_POINT('',(7.93725393319377,5.,43.));
#777=CARTESIAN_POINT('Origin',(-1.21430643318376E-16,5.,52.));
#778=CARTESIAN_POINT('',(7.93725393319377,5.,51.));
#779=CARTESIAN_POINT('',(7.93725393319377,5.,43.));
#780=CARTESIAN_POINT('',(10.,5.,51.));
#781=CARTESIAN_POINT('',(-10.,5.,51.));
#782=CARTESIAN_POINT('',(10.,5.,3.));
#783=CARTESIAN_POINT('',(10.,5.,0.));
#784=CARTESIAN_POINT('',(20.,5.,3.));
#785=CARTESIAN_POINT('Origin',(22.,-1.6,3.));
#786=CARTESIAN_POINT('',(22.,-1.6,3.));
#787=CARTESIAN_POINT('',(10.,-1.6,3.));
#788=CARTESIAN_POINT('',(18.5,-1.6,3.));
#789=CARTESIAN_POINT('',(22.,-1.6,3.));
#790=CARTESIAN_POINT('',(10.,-1.6,3.));
#791=CARTESIAN_POINT('Origin',(22.,1.6,3.));
#792=CARTESIAN_POINT('',(22.,1.6,3.));
#793=CARTESIAN_POINT('',(22.,0.8,3.));
#794=CARTESIAN_POINT('',(22.,1.6,3.));
#795=CARTESIAN_POINT('Origin',(10.,1.6,3.));
#796=CARTESIAN_POINT('',(10.,1.6,3.));
#797=CARTESIAN_POINT('',(12.5,1.6,3.));
#798=CARTESIAN_POINT('',(10.,1.6,3.));
#799=CARTESIAN_POINT('Origin',(-22.0000003278255,-1.6,3.));
#800=CARTESIAN_POINT('',(-22.0000003278255,-1.6,3.));
#801=CARTESIAN_POINT('',(-22.0000003278255,1.6,3.));
#802=CARTESIAN_POINT('Origin',(-10.0000001490116,-1.6,3.));
#803=CARTESIAN_POINT('',(-10.0000001490116,-1.6,3.));
#804=CARTESIAN_POINT('Origin',(-22.0000003278255,1.6,3.));
#805=CARTESIAN_POINT('',(-10.0000001490116,1.6,3.));
#806=CARTESIAN_POINT('Origin',(7.93725393319377,5.,43.));
#807=CARTESIAN_POINT('',(7.93725393319377,-5.,43.));
#808=CARTESIAN_POINT('',(7.93725393319377,-5.,43.));
#809=CARTESIAN_POINT('',(7.93725393319377,-5.,51.));
#810=CARTESIAN_POINT('',(7.93725393319377,-5.,43.));
#811=CARTESIAN_POINT('',(7.93725393319377,-5.,51.));
#812=CARTESIAN_POINT('Origin',(0.,0.,51.));
#813=CARTESIAN_POINT('',(10.,-5.,51.));
#814=CARTESIAN_POINT('',(10.,-5.,51.));
#815=CARTESIAN_POINT('',(10.,5.,51.));
#816=CARTESIAN_POINT('Origin',(-7.93725393319377,-5.,43.));
#817=CARTESIAN_POINT('',(-7.93725393319377,-5.,43.));
#818=CARTESIAN_POINT('',(-7.93725393319377,-5.,43.));
#819=CARTESIAN_POINT('',(-7.93725393319377,-5.,51.));
#820=CARTESIAN_POINT('',(-7.93725393319377,-5.,51.));
#821=CARTESIAN_POINT('',(-7.93725393319377,-5.,43.));
#822=CARTESIAN_POINT('Origin',(0.,0.,51.));
#823=CARTESIAN_POINT('',(-10.,-5.,51.));
#824=CARTESIAN_POINT('',(-10.,-5.,51.));
#825=CARTESIAN_POINT('',(10.,-5.,51.));
#826=CARTESIAN_POINT('Origin',(-1.21430643318376E-16,-5.,52.));
#827=CARTESIAN_POINT('Origin',(-1.21430643318376E-16,-5.,52.));
#828=CARTESIAN_POINT('Origin',(10.,-5.,0.));
#829=CARTESIAN_POINT('',(10.,5.,3.));
#830=CARTESIAN_POINT('',(10.,-5.,3.));
#831=CARTESIAN_POINT('',(10.,-5.,0.));
#832=CARTESIAN_POINT('',(10.,5.,3.));
#833=CARTESIAN_POINT('Origin',(-10.,5.,0.));
#834=CARTESIAN_POINT('',(-10.,-5.,0.));
#835=CARTESIAN_POINT('Origin',(15.,-5.55111512312578E-16,3.));
#836=CARTESIAN_POINT('',(10.,-5.,3.));
#837=CARTESIAN_POINT('Origin',(-20.,-5.,0.));
#838=UNCERTAINTY_MEASURE_WITH_UNIT(LENGTH_MEASURE(0.01),#842,
'DISTANCE_ACCURACY_VALUE',
'Maximum model space distance between geometric entities at asserted c
onnectivities');
#839=UNCERTAINTY_MEASURE_WITH_UNIT(LENGTH_MEASURE(0.01),#842,
'DISTANCE_ACCURACY_VALUE',
'Maximum model space distance between geometric entities at asserted c
onnectivities');
#840=(
GEOMETRIC_REPRESENTATION_CONTEXT(3)
GLOBAL_UNCERTAINTY_ASSIGNED_CONTEXT((#838))
GLOBAL_UNIT_ASSIGNED_CONTEXT((#842,#844,#845))
REPRESENTATION_CONTEXT('','3D')
);
#841=(
GEOMETRIC_REPRESENTATION_CONTEXT(3)
GLOBAL_UNCERTAINTY_ASSIGNED_CONTEXT((#839))
GLOBAL_UNIT_ASSIGNED_CONTEXT((#842,#844,#845))
REPRESENTATION_CONTEXT('','3D')
);
#842=(
LENGTH_UNIT()
NAMED_UNIT(*)
SI_UNIT(.MILLI.,.METRE.)
);
#843=(
LENGTH_UNIT()
NAMED_UNIT(*)
SI_UNIT($,.METRE.)
);
#844=(
NAMED_UNIT(*)
PLANE_ANGLE_UNIT()
SI_UNIT($,.RADIAN.)
);
#845=(
NAMED_UNIT(*)
SI_UNIT($,.STERADIAN.)
SOLID_ANGLE_UNIT()
);
#846=SHAPE_DEFINITION_REPRESENTATION(#847,#848);
#847=PRODUCT_DEFINITION_SHAPE('',$,#850);
#848=SHAPE_REPRESENTATION('',(#526),#840);
#849=PRODUCT_DEFINITION_CONTEXT('part definition',#854,'design');
#850=PRODUCT_DEFINITION('Fusion-Komponente','Fusion-Komponente',#851,#849);
#851=PRODUCT_DEFINITION_FORMATION('',$,#856);
#852=PRODUCT_RELATED_PRODUCT_CATEGORY('Fusion-Komponente',
'Fusion-Komponente',(#856));
#853=APPLICATION_PROTOCOL_DEFINITION('international standard',
'automotive_design',2009,#854);
#854=APPLICATION_CONTEXT(
'Core Data for Automotive Mechanical Design Process');
#855=PRODUCT_CONTEXT('part definition',#854,'mechanical');
#856=PRODUCT('Fusion-Komponente','Fusion-Komponente',$,(#855));
#857=PRESENTATION_STYLE_ASSIGNMENT((#858));
#858=SURFACE_STYLE_USAGE(.BOTH.,#859);
#859=SURFACE_SIDE_STYLE('',(#860));
#860=SURFACE_STYLE_FILL_AREA(#861);
#861=FILL_AREA_STYLE('Stahl - satiniert',(#862));
#862=FILL_AREA_STYLE_COLOUR('Stahl - satiniert',#863);
#863=COLOUR_RGB('Stahl - satiniert',0.627450980392157,0.627450980392157,
0.627450980392157);
ENDSEC;
END-ISO-10303-21;
