ISO-10303-21;
HEADER;
/* Generated by software containing ST-Developer
 * from STEP Tools, Inc. (www.steptools.com) 
 */

FILE_DESCRIPTION(
/* description */ (''),
/* implementation_level */ '2;1');

FILE_NAME(
/* name */ 'second layer.step',
/* time_stamp */ '2026-05-17T10:55:04-05:00',
/* author */ (''),
/* organization */ (''),
/* preprocessor_version */ 'ST-DEVELOPER v20.1',
/* originating_system */ 'Autodesk Translation Framework v15.8.0.0',
/* authorisation */ '');

FILE_SCHEMA (('AUTOMOTIVE_DESIGN { 1 0 10303 214 3 1 1 }'));
ENDSEC;

DATA;
#10=MECHANICAL_DESIGN_GEOMETRIC_PRESENTATION_REPRESENTATION('',(#13),#409);
#11=SHAPE_REPRESENTATION_RELATIONSHIP('SRR','None',#416,#12);
#12=ADVANCED_BREP_SHAPE_REPRESENTATION('',(#14),#408);
#13=STYLED_ITEM('',(#425),#14);
#14=MANIFOLD_SOLID_BREP('K\X\F6rper1',#237);
#15=FACE_BOUND('',#52,.T.);
#16=FACE_BOUND('',#53,.T.);
#17=FACE_BOUND('',#54,.T.);
#18=FACE_BOUND('',#55,.T.);
#19=FACE_BOUND('',#57,.T.);
#20=FACE_BOUND('',#58,.T.);
#21=FACE_BOUND('',#59,.T.);
#22=FACE_BOUND('',#60,.T.);
#23=PLANE('',#263);
#24=PLANE('',#264);
#25=PLANE('',#265);
#26=PLANE('',#269);
#27=PLANE('',#273);
#28=PLANE('',#274);
#29=FACE_OUTER_BOUND('',#41,.T.);
#30=FACE_OUTER_BOUND('',#42,.T.);
#31=FACE_OUTER_BOUND('',#43,.T.);
#32=FACE_OUTER_BOUND('',#44,.T.);
#33=FACE_OUTER_BOUND('',#45,.T.);
#34=FACE_OUTER_BOUND('',#46,.T.);
#35=FACE_OUTER_BOUND('',#47,.T.);
#36=FACE_OUTER_BOUND('',#48,.T.);
#37=FACE_OUTER_BOUND('',#49,.T.);
#38=FACE_OUTER_BOUND('',#50,.T.);
#39=FACE_OUTER_BOUND('',#51,.T.);
#40=FACE_OUTER_BOUND('',#56,.T.);
#41=EDGE_LOOP('',(#159,#160,#161,#162));
#42=EDGE_LOOP('',(#163,#164,#165,#166));
#43=EDGE_LOOP('',(#167,#168,#169,#170));
#44=EDGE_LOOP('',(#171,#172,#173,#174));
#45=EDGE_LOOP('',(#175,#176,#177,#178));
#46=EDGE_LOOP('',(#179,#180,#181,#182));
#47=EDGE_LOOP('',(#183,#184,#185,#186));
#48=EDGE_LOOP('',(#187,#188,#189,#190));
#49=EDGE_LOOP('',(#191,#192,#193,#194));
#50=EDGE_LOOP('',(#195,#196,#197,#198));
#51=EDGE_LOOP('',(#199,#200,#201,#202,#203,#204));
#52=EDGE_LOOP('',(#205));
#53=EDGE_LOOP('',(#206));
#54=EDGE_LOOP('',(#207));
#55=EDGE_LOOP('',(#208));
#56=EDGE_LOOP('',(#209,#210,#211,#212,#213,#214));
#57=EDGE_LOOP('',(#215));
#58=EDGE_LOOP('',(#216));
#59=EDGE_LOOP('',(#217));
#60=EDGE_LOOP('',(#218));
#61=LINE('',#348,#79);
#62=LINE('',#354,#80);
#63=LINE('',#360,#81);
#64=LINE('',#366,#82);
#65=LINE('',#371,#83);
#66=LINE('',#373,#84);
#67=LINE('',#375,#85);
#68=LINE('',#376,#86);
#69=LINE('',#379,#87);
#70=LINE('',#381,#88);
#71=LINE('',#382,#89);
#72=LINE('',#385,#90);
#73=LINE('',#387,#91);
#74=LINE('',#388,#92);
#75=LINE('',#394,#93);
#76=LINE('',#397,#94);
#77=LINE('',#399,#95);
#78=LINE('',#400,#96);
#79=VECTOR('',#281,1.65);
#80=VECTOR('',#288,1.65);
#81=VECTOR('',#295,1.65);
#82=VECTOR('',#302,1.65);
#83=VECTOR('',#307,10.);
#84=VECTOR('',#308,10.);
#85=VECTOR('',#309,10.);
#86=VECTOR('',#310,10.);
#87=VECTOR('',#313,10.);
#88=VECTOR('',#314,10.);
#89=VECTOR('',#315,10.);
#90=VECTOR('',#318,10.);
#91=VECTOR('',#319,10.);
#92=VECTOR('',#320,10.);
#93=VECTOR('',#327,10.);
#94=VECTOR('',#330,10.);
#95=VECTOR('',#331,10.);
#96=VECTOR('',#332,10.);
#97=CIRCLE('',#252,1.65);
#98=CIRCLE('',#253,1.65);
#99=CIRCLE('',#255,1.65);
#100=CIRCLE('',#256,1.65);
#101=CIRCLE('',#258,1.65);
#102=CIRCLE('',#259,1.65);
#103=CIRCLE('',#261,1.65);
#104=CIRCLE('',#262,1.65);
#105=CIRCLE('',#267,20.);
#106=CIRCLE('',#268,20.);
#107=CIRCLE('',#271,20.);
#108=CIRCLE('',#272,20.);
#109=VERTEX_POINT('',#345);
#110=VERTEX_POINT('',#347);
#111=VERTEX_POINT('',#351);
#112=VERTEX_POINT('',#353);
#113=VERTEX_POINT('',#357);
#114=VERTEX_POINT('',#359);
#115=VERTEX_POINT('',#363);
#116=VERTEX_POINT('',#365);
#117=VERTEX_POINT('',#369);
#118=VERTEX_POINT('',#370);
#119=VERTEX_POINT('',#372);
#120=VERTEX_POINT('',#374);
#121=VERTEX_POINT('',#378);
#122=VERTEX_POINT('',#380);
#123=VERTEX_POINT('',#384);
#124=VERTEX_POINT('',#386);
#125=VERTEX_POINT('',#390);
#126=VERTEX_POINT('',#392);
#127=VERTEX_POINT('',#396);
#128=VERTEX_POINT('',#398);
#129=EDGE_CURVE('',#109,#109,#97,.T.);
#130=EDGE_CURVE('',#109,#110,#61,.T.);
#131=EDGE_CURVE('',#110,#110,#98,.T.);
#132=EDGE_CURVE('',#111,#111,#99,.T.);
#133=EDGE_CURVE('',#111,#112,#62,.T.);
#134=EDGE_CURVE('',#112,#112,#100,.T.);
#135=EDGE_CURVE('',#113,#113,#101,.T.);
#136=EDGE_CURVE('',#113,#114,#63,.T.);
#137=EDGE_CURVE('',#114,#114,#102,.T.);
#138=EDGE_CURVE('',#115,#115,#103,.T.);
#139=EDGE_CURVE('',#115,#116,#64,.T.);
#140=EDGE_CURVE('',#116,#116,#104,.T.);
#141=EDGE_CURVE('',#117,#118,#65,.T.);
#142=EDGE_CURVE('',#117,#119,#66,.T.);
#143=EDGE_CURVE('',#120,#119,#67,.T.);
#144=EDGE_CURVE('',#118,#120,#68,.T.);
#145=EDGE_CURVE('',#118,#121,#69,.T.);
#146=EDGE_CURVE('',#122,#120,#70,.T.);
#147=EDGE_CURVE('',#121,#122,#71,.T.);
#148=EDGE_CURVE('',#121,#123,#72,.T.);
#149=EDGE_CURVE('',#124,#122,#73,.T.);
#150=EDGE_CURVE('',#123,#124,#74,.T.);
#151=EDGE_CURVE('',#125,#123,#105,.T.);
#152=EDGE_CURVE('',#126,#124,#106,.T.);
#153=EDGE_CURVE('',#125,#126,#75,.T.);
#154=EDGE_CURVE('',#125,#127,#76,.T.);
#155=EDGE_CURVE('',#128,#126,#77,.T.);
#156=EDGE_CURVE('',#127,#128,#78,.T.);
#157=EDGE_CURVE('',#117,#127,#107,.T.);
#158=EDGE_CURVE('',#119,#128,#108,.T.);
#159=ORIENTED_EDGE('',*,*,#129,.F.);
#160=ORIENTED_EDGE('',*,*,#130,.T.);
#161=ORIENTED_EDGE('',*,*,#131,.T.);
#162=ORIENTED_EDGE('',*,*,#130,.F.);
#163=ORIENTED_EDGE('',*,*,#132,.F.);
#164=ORIENTED_EDGE('',*,*,#133,.T.);
#165=ORIENTED_EDGE('',*,*,#134,.T.);
#166=ORIENTED_EDGE('',*,*,#133,.F.);
#167=ORIENTED_EDGE('',*,*,#135,.F.);
#168=ORIENTED_EDGE('',*,*,#136,.T.);
#169=ORIENTED_EDGE('',*,*,#137,.T.);
#170=ORIENTED_EDGE('',*,*,#136,.F.);
#171=ORIENTED_EDGE('',*,*,#138,.F.);
#172=ORIENTED_EDGE('',*,*,#139,.T.);
#173=ORIENTED_EDGE('',*,*,#140,.T.);
#174=ORIENTED_EDGE('',*,*,#139,.F.);
#175=ORIENTED_EDGE('',*,*,#141,.F.);
#176=ORIENTED_EDGE('',*,*,#142,.T.);
#177=ORIENTED_EDGE('',*,*,#143,.F.);
#178=ORIENTED_EDGE('',*,*,#144,.F.);
#179=ORIENTED_EDGE('',*,*,#145,.F.);
#180=ORIENTED_EDGE('',*,*,#144,.T.);
#181=ORIENTED_EDGE('',*,*,#146,.F.);
#182=ORIENTED_EDGE('',*,*,#147,.F.);
#183=ORIENTED_EDGE('',*,*,#148,.F.);
#184=ORIENTED_EDGE('',*,*,#147,.T.);
#185=ORIENTED_EDGE('',*,*,#149,.F.);
#186=ORIENTED_EDGE('',*,*,#150,.F.);
#187=ORIENTED_EDGE('',*,*,#151,.T.);
#188=ORIENTED_EDGE('',*,*,#150,.T.);
#189=ORIENTED_EDGE('',*,*,#152,.F.);
#190=ORIENTED_EDGE('',*,*,#153,.F.);
#191=ORIENTED_EDGE('',*,*,#154,.F.);
#192=ORIENTED_EDGE('',*,*,#153,.T.);
#193=ORIENTED_EDGE('',*,*,#155,.F.);
#194=ORIENTED_EDGE('',*,*,#156,.F.);
#195=ORIENTED_EDGE('',*,*,#157,.T.);
#196=ORIENTED_EDGE('',*,*,#156,.T.);
#197=ORIENTED_EDGE('',*,*,#158,.F.);
#198=ORIENTED_EDGE('',*,*,#142,.F.);
#199=ORIENTED_EDGE('',*,*,#158,.T.);
#200=ORIENTED_EDGE('',*,*,#155,.T.);
#201=ORIENTED_EDGE('',*,*,#152,.T.);
#202=ORIENTED_EDGE('',*,*,#149,.T.);
#203=ORIENTED_EDGE('',*,*,#146,.T.);
#204=ORIENTED_EDGE('',*,*,#143,.T.);
#205=ORIENTED_EDGE('',*,*,#138,.T.);
#206=ORIENTED_EDGE('',*,*,#135,.T.);
#207=ORIENTED_EDGE('',*,*,#132,.T.);
#208=ORIENTED_EDGE('',*,*,#129,.T.);
#209=ORIENTED_EDGE('',*,*,#157,.F.);
#210=ORIENTED_EDGE('',*,*,#141,.T.);
#211=ORIENTED_EDGE('',*,*,#145,.T.);
#212=ORIENTED_EDGE('',*,*,#148,.T.);
#213=ORIENTED_EDGE('',*,*,#151,.F.);
#214=ORIENTED_EDGE('',*,*,#154,.T.);
#215=ORIENTED_EDGE('',*,*,#140,.F.);
#216=ORIENTED_EDGE('',*,*,#137,.F.);
#217=ORIENTED_EDGE('',*,*,#134,.F.);
#218=ORIENTED_EDGE('',*,*,#131,.F.);
#219=CYLINDRICAL_SURFACE('',#251,1.65);
#220=CYLINDRICAL_SURFACE('',#254,1.65);
#221=CYLINDRICAL_SURFACE('',#257,1.65);
#222=CYLINDRICAL_SURFACE('',#260,1.65);
#223=CYLINDRICAL_SURFACE('',#266,20.);
#224=CYLINDRICAL_SURFACE('',#270,20.);
#225=ADVANCED_FACE('',(#29),#219,.F.);
#226=ADVANCED_FACE('',(#30),#220,.F.);
#227=ADVANCED_FACE('',(#31),#221,.F.);
#228=ADVANCED_FACE('',(#32),#222,.F.);
#229=ADVANCED_FACE('',(#33),#23,.T.);
#230=ADVANCED_FACE('',(#34),#24,.T.);
#231=ADVANCED_FACE('',(#35),#25,.T.);
#232=ADVANCED_FACE('',(#36),#223,.T.);
#233=ADVANCED_FACE('',(#37),#26,.T.);
#234=ADVANCED_FACE('',(#38),#224,.T.);
#235=ADVANCED_FACE('',(#39,#15,#16,#17,#18),#27,.T.);
#236=ADVANCED_FACE('',(#40,#19,#20,#21,#22),#28,.F.);
#237=CLOSED_SHELL('',(#225,#226,#227,#228,#229,#230,#231,#232,#233,#234,
#235,#236));
#238=DERIVED_UNIT_ELEMENT(#240,1.);
#239=DERIVED_UNIT_ELEMENT(#411,-3.);
#240=(
MASS_UNIT()
NAMED_UNIT(*)
SI_UNIT(.KILO.,.GRAM.)
);
#241=DERIVED_UNIT((#238,#239));
#242=MEASURE_REPRESENTATION_ITEM('density measure',
POSITIVE_RATIO_MEASURE(7850.),#241);
#243=PROPERTY_DEFINITION_REPRESENTATION(#248,#245);
#244=PROPERTY_DEFINITION_REPRESENTATION(#249,#246);
#245=REPRESENTATION('material name',(#247),#408);
#246=REPRESENTATION('density',(#242),#408);
#247=DESCRIPTIVE_REPRESENTATION_ITEM('Stahl','Stahl');
#248=PROPERTY_DEFINITION('material property','material name',#418);
#249=PROPERTY_DEFINITION('material property','density of part',#418);
#250=AXIS2_PLACEMENT_3D('',#343,#275,#276);
#251=AXIS2_PLACEMENT_3D('',#344,#277,#278);
#252=AXIS2_PLACEMENT_3D('',#346,#279,#280);
#253=AXIS2_PLACEMENT_3D('',#349,#282,#283);
#254=AXIS2_PLACEMENT_3D('',#350,#284,#285);
#255=AXIS2_PLACEMENT_3D('',#352,#286,#287);
#256=AXIS2_PLACEMENT_3D('',#355,#289,#290);
#257=AXIS2_PLACEMENT_3D('',#356,#291,#292);
#258=AXIS2_PLACEMENT_3D('',#358,#293,#294);
#259=AXIS2_PLACEMENT_3D('',#361,#296,#297);
#260=AXIS2_PLACEMENT_3D('',#362,#298,#299);
#261=AXIS2_PLACEMENT_3D('',#364,#300,#301);
#262=AXIS2_PLACEMENT_3D('',#367,#303,#304);
#263=AXIS2_PLACEMENT_3D('',#368,#305,#306);
#264=AXIS2_PLACEMENT_3D('',#377,#311,#312);
#265=AXIS2_PLACEMENT_3D('',#383,#316,#317);
#266=AXIS2_PLACEMENT_3D('',#389,#321,#322);
#267=AXIS2_PLACEMENT_3D('',#391,#323,#324);
#268=AXIS2_PLACEMENT_3D('',#393,#325,#326);
#269=AXIS2_PLACEMENT_3D('',#395,#328,#329);
#270=AXIS2_PLACEMENT_3D('',#401,#333,#334);
#271=AXIS2_PLACEMENT_3D('',#402,#335,#336);
#272=AXIS2_PLACEMENT_3D('',#403,#337,#338);
#273=AXIS2_PLACEMENT_3D('',#404,#339,#340);
#274=AXIS2_PLACEMENT_3D('',#405,#341,#342);
#275=DIRECTION('axis',(0.,0.,1.));
#276=DIRECTION('refdir',(1.,0.,0.));
#277=DIRECTION('center_axis',(0.,0.,1.));
#278=DIRECTION('ref_axis',(1.,0.,0.));
#279=DIRECTION('center_axis',(0.,0.,-1.));
#280=DIRECTION('ref_axis',(1.,0.,0.));
#281=DIRECTION('',(0.,0.,-1.));
#282=DIRECTION('center_axis',(0.,0.,-1.));
#283=DIRECTION('ref_axis',(1.,0.,0.));
#284=DIRECTION('center_axis',(0.,0.,1.));
#285=DIRECTION('ref_axis',(1.,0.,0.));
#286=DIRECTION('center_axis',(0.,0.,-1.));
#287=DIRECTION('ref_axis',(1.,0.,0.));
#288=DIRECTION('',(0.,0.,-1.));
#289=DIRECTION('center_axis',(0.,0.,-1.));
#290=DIRECTION('ref_axis',(1.,0.,0.));
#291=DIRECTION('center_axis',(0.,0.,1.));
#292=DIRECTION('ref_axis',(1.,0.,0.));
#293=DIRECTION('center_axis',(0.,0.,-1.));
#294=DIRECTION('ref_axis',(1.,0.,0.));
#295=DIRECTION('',(0.,0.,-1.));
#296=DIRECTION('center_axis',(0.,0.,-1.));
#297=DIRECTION('ref_axis',(1.,0.,0.));
#298=DIRECTION('center_axis',(0.,0.,1.));
#299=DIRECTION('ref_axis',(1.,0.,0.));
#300=DIRECTION('center_axis',(0.,0.,-1.));
#301=DIRECTION('ref_axis',(1.,0.,0.));
#302=DIRECTION('',(0.,0.,-1.));
#303=DIRECTION('center_axis',(0.,0.,-1.));
#304=DIRECTION('ref_axis',(1.,0.,0.));
#305=DIRECTION('center_axis',(-1.,0.,0.));
#306=DIRECTION('ref_axis',(0.,-1.,0.));
#307=DIRECTION('',(0.,1.,0.));
#308=DIRECTION('',(0.,0.,1.));
#309=DIRECTION('',(0.,-1.,0.));
#310=DIRECTION('',(0.,0.,1.));
#311=DIRECTION('center_axis',(0.,1.,0.));
#312=DIRECTION('ref_axis',(-1.,0.,0.));
#313=DIRECTION('',(1.,0.,0.));
#314=DIRECTION('',(-1.,0.,0.));
#315=DIRECTION('',(0.,0.,1.));
#316=DIRECTION('center_axis',(1.,0.,0.));
#317=DIRECTION('ref_axis',(0.,1.,0.));
#318=DIRECTION('',(0.,-1.,0.));
#319=DIRECTION('',(0.,1.,0.));
#320=DIRECTION('',(0.,0.,1.));
#321=DIRECTION('center_axis',(0.,0.,1.));
#322=DIRECTION('ref_axis',(-1.33226762955019E-15,-1.,0.));
#323=DIRECTION('center_axis',(0.,0.,1.));
#324=DIRECTION('ref_axis',(-1.33226762955019E-15,-1.,0.));
#325=DIRECTION('center_axis',(0.,0.,1.));
#326=DIRECTION('ref_axis',(-1.33226762955019E-15,-1.,0.));
#327=DIRECTION('',(0.,0.,1.));
#328=DIRECTION('center_axis',(-7.40148683083438E-17,-1.,0.));
#329=DIRECTION('ref_axis',(1.,-7.40148683083438E-17,0.));
#330=DIRECTION('',(-1.,7.40148683083438E-17,0.));
#331=DIRECTION('',(1.,-7.40148683083438E-17,0.));
#332=DIRECTION('',(0.,0.,1.));
#333=DIRECTION('center_axis',(0.,0.,1.));
#334=DIRECTION('ref_axis',(-1.,-2.22044604925031E-16,0.));
#335=DIRECTION('center_axis',(0.,0.,1.));
#336=DIRECTION('ref_axis',(-1.,-2.22044604925031E-16,0.));
#337=DIRECTION('center_axis',(0.,0.,1.));
#338=DIRECTION('ref_axis',(-1.,-2.22044604925031E-16,0.));
#339=DIRECTION('center_axis',(0.,0.,1.));
#340=DIRECTION('ref_axis',(1.,0.,0.));
#341=DIRECTION('center_axis',(0.,0.,1.));
#342=DIRECTION('ref_axis',(1.,0.,0.));
#343=CARTESIAN_POINT('',(0.,0.,0.));
#344=CARTESIAN_POINT('Origin',(-55.88,30.,0.));
#345=CARTESIAN_POINT('',(-57.53,30.,3.));
#346=CARTESIAN_POINT('Origin',(-55.88,30.,3.));
#347=CARTESIAN_POINT('',(-57.53,30.,0.));
#348=CARTESIAN_POINT('',(-57.53,30.,0.));
#349=CARTESIAN_POINT('Origin',(-55.88,30.,0.));
#350=CARTESIAN_POINT('Origin',(-55.88,8.,0.));
#351=CARTESIAN_POINT('',(-57.53,8.,3.));
#352=CARTESIAN_POINT('Origin',(-55.88,8.,3.));
#353=CARTESIAN_POINT('',(-57.53,8.,0.));
#354=CARTESIAN_POINT('',(-57.53,8.,0.));
#355=CARTESIAN_POINT('Origin',(-55.88,8.,0.));
#356=CARTESIAN_POINT('Origin',(55.88,8.,0.));
#357=CARTESIAN_POINT('',(54.23,8.,3.));
#358=CARTESIAN_POINT('Origin',(55.88,8.,3.));
#359=CARTESIAN_POINT('',(54.23,8.,0.));
#360=CARTESIAN_POINT('',(54.23,8.,0.));
#361=CARTESIAN_POINT('Origin',(55.88,8.,0.));
#362=CARTESIAN_POINT('Origin',(55.88,30.,0.));
#363=CARTESIAN_POINT('',(54.23,30.,3.));
#364=CARTESIAN_POINT('Origin',(55.88,30.,3.));
#365=CARTESIAN_POINT('',(54.23,30.,0.));
#366=CARTESIAN_POINT('',(54.23,30.,0.));
#367=CARTESIAN_POINT('Origin',(55.88,30.,0.));
#368=CARTESIAN_POINT('Origin',(-80.,40.,0.));
#369=CARTESIAN_POINT('',(-80.,-20.,0.));
#370=CARTESIAN_POINT('',(-80.,40.,0.));
#371=CARTESIAN_POINT('',(-80.,-20.,0.));
#372=CARTESIAN_POINT('',(-80.,-20.,3.));
#373=CARTESIAN_POINT('',(-80.,-20.,0.));
#374=CARTESIAN_POINT('',(-80.,40.,3.));
#375=CARTESIAN_POINT('',(-80.,-20.,3.));
#376=CARTESIAN_POINT('',(-80.,40.,0.));
#377=CARTESIAN_POINT('Origin',(80.,40.,0.));
#378=CARTESIAN_POINT('',(80.,40.,0.));
#379=CARTESIAN_POINT('',(-80.,40.,0.));
#380=CARTESIAN_POINT('',(80.,40.,3.));
#381=CARTESIAN_POINT('',(-80.,40.,3.));
#382=CARTESIAN_POINT('',(80.,40.,0.));
#383=CARTESIAN_POINT('Origin',(80.,-20.,0.));
#384=CARTESIAN_POINT('',(80.,-20.,0.));
#385=CARTESIAN_POINT('',(80.,40.,0.));
#386=CARTESIAN_POINT('',(80.,-20.,3.));
#387=CARTESIAN_POINT('',(80.,40.,3.));
#388=CARTESIAN_POINT('',(80.,-20.,0.));
#389=CARTESIAN_POINT('Origin',(60.,-20.,0.));
#390=CARTESIAN_POINT('',(60.,-40.,0.));
#391=CARTESIAN_POINT('Origin',(60.,-20.,0.));
#392=CARTESIAN_POINT('',(60.,-40.,3.));
#393=CARTESIAN_POINT('Origin',(60.,-20.,3.));
#394=CARTESIAN_POINT('',(60.,-40.,0.));
#395=CARTESIAN_POINT('Origin',(-60.,-40.,0.));
#396=CARTESIAN_POINT('',(-60.,-40.,0.));
#397=CARTESIAN_POINT('',(60.,-40.,0.));
#398=CARTESIAN_POINT('',(-60.,-40.,3.));
#399=CARTESIAN_POINT('',(60.,-40.,3.));
#400=CARTESIAN_POINT('',(-60.,-40.,0.));
#401=CARTESIAN_POINT('Origin',(-60.,-20.,0.));
#402=CARTESIAN_POINT('Origin',(-60.,-20.,0.));
#403=CARTESIAN_POINT('Origin',(-60.,-20.,3.));
#404=CARTESIAN_POINT('Origin',(0.,-8.88178419700125E-15,3.));
#405=CARTESIAN_POINT('Origin',(0.,-8.88178419700125E-15,0.));
#406=UNCERTAINTY_MEASURE_WITH_UNIT(LENGTH_MEASURE(0.01),#410,
'DISTANCE_ACCURACY_VALUE',
'Maximum model space distance between geometric entities at asserted c
onnectivities');
#407=UNCERTAINTY_MEASURE_WITH_UNIT(LENGTH_MEASURE(0.01),#410,
'DISTANCE_ACCURACY_VALUE',
'Maximum model space distance between geometric entities at asserted c
onnectivities');
#408=(
GEOMETRIC_REPRESENTATION_CONTEXT(3)
GLOBAL_UNCERTAINTY_ASSIGNED_CONTEXT((#406))
GLOBAL_UNIT_ASSIGNED_CONTEXT((#410,#412,#413))
REPRESENTATION_CONTEXT('','3D')
);
#409=(
GEOMETRIC_REPRESENTATION_CONTEXT(3)
GLOBAL_UNCERTAINTY_ASSIGNED_CONTEXT((#407))
GLOBAL_UNIT_ASSIGNED_CONTEXT((#410,#412,#413))
REPRESENTATION_CONTEXT('','3D')
);
#410=(
LENGTH_UNIT()
NAMED_UNIT(*)
SI_UNIT(.MILLI.,.METRE.)
);
#411=(
LENGTH_UNIT()
NAMED_UNIT(*)
SI_UNIT($,.METRE.)
);
#412=(
NAMED_UNIT(*)
PLANE_ANGLE_UNIT()
SI_UNIT($,.RADIAN.)
);
#413=(
NAMED_UNIT(*)
SI_UNIT($,.STERADIAN.)
SOLID_ANGLE_UNIT()
);
#414=SHAPE_DEFINITION_REPRESENTATION(#415,#416);
#415=PRODUCT_DEFINITION_SHAPE('',$,#418);
#416=SHAPE_REPRESENTATION('',(#250),#408);
#417=PRODUCT_DEFINITION_CONTEXT('part definition',#422,'design');
#418=PRODUCT_DEFINITION('(Nicht gespeichert)','(Nicht gespeichert)',#419,
#417);
#419=PRODUCT_DEFINITION_FORMATION('',$,#424);
#420=PRODUCT_RELATED_PRODUCT_CATEGORY('(Nicht gespeichert)',
'(Nicht gespeichert)',(#424));
#421=APPLICATION_PROTOCOL_DEFINITION('international standard',
'automotive_design',2009,#422);
#422=APPLICATION_CONTEXT(
'Core Data for Automotive Mechanical Design Process');
#423=PRODUCT_CONTEXT('part definition',#422,'mechanical');
#424=PRODUCT('(Nicht gespeichert)','(Nicht gespeichert)',$,(#423));
#425=PRESENTATION_STYLE_ASSIGNMENT((#426));
#426=SURFACE_STYLE_USAGE(.BOTH.,#427);
#427=SURFACE_SIDE_STYLE('',(#428));
#428=SURFACE_STYLE_FILL_AREA(#429);
#429=FILL_AREA_STYLE('Stahl - satiniert',(#430));
#430=FILL_AREA_STYLE_COLOUR('Stahl - satiniert',#431);
#431=COLOUR_RGB('Stahl - satiniert',0.627450980392157,0.627450980392157,
0.627450980392157);
ENDSEC;
END-ISO-10303-21;
